G04 #@! TF.GenerationSoftware,KiCad,Pcbnew,5.1.2*
G04 #@! TF.CreationDate,2019-06-23T15:04:07+01:00*
G04 #@! TF.ProjectId,garage_receiver,67617261-6765-45f7-9265-636569766572,rev?*
G04 #@! TF.SameCoordinates,Original*
G04 #@! TF.FileFunction,Soldermask,Top*
G04 #@! TF.FilePolarity,Negative*
%FSLAX46Y46*%
G04 Gerber Fmt 4.6, Leading zero omitted, Abs format (unit mm)*
G04 Created by KiCad (PCBNEW 5.1.2) date 2019-06-23 15:04:07*
%MOMM*%
%LPD*%
G04 APERTURE LIST*
%ADD10C,0.100000*%
G04 APERTURE END LIST*
D10*
G36*
X251980506Y-112000468D02*
G01*
X252430282Y-112089934D01*
X253021926Y-112335001D01*
X253554392Y-112690784D01*
X254007216Y-113143608D01*
X254362999Y-113676074D01*
X254608066Y-114267718D01*
X254608066Y-114267719D01*
X254733000Y-114895803D01*
X254733000Y-115536197D01*
X254670533Y-115850239D01*
X254608066Y-116164282D01*
X254362999Y-116755926D01*
X254007216Y-117288392D01*
X253554392Y-117741216D01*
X253021926Y-118096999D01*
X252430282Y-118342066D01*
X252116239Y-118404533D01*
X251802197Y-118467000D01*
X251161803Y-118467000D01*
X250847761Y-118404533D01*
X250533718Y-118342066D01*
X249942074Y-118096999D01*
X249409608Y-117741216D01*
X248956784Y-117288392D01*
X248601001Y-116755926D01*
X248355934Y-116164282D01*
X248293467Y-115850239D01*
X248231000Y-115536197D01*
X248231000Y-114895803D01*
X248355934Y-114267719D01*
X248355934Y-114267718D01*
X248601001Y-113676074D01*
X248956784Y-113143608D01*
X249409608Y-112690784D01*
X249942074Y-112335001D01*
X250533718Y-112089934D01*
X250983494Y-112000468D01*
X251161803Y-111965000D01*
X251802197Y-111965000D01*
X251980506Y-112000468D01*
X251980506Y-112000468D01*
G37*
G36*
X180980506Y-112000468D02*
G01*
X181430282Y-112089934D01*
X182021926Y-112335001D01*
X182554392Y-112690784D01*
X183007216Y-113143608D01*
X183362999Y-113676074D01*
X183608066Y-114267718D01*
X183608066Y-114267719D01*
X183733000Y-114895803D01*
X183733000Y-115536197D01*
X183670533Y-115850239D01*
X183608066Y-116164282D01*
X183362999Y-116755926D01*
X183007216Y-117288392D01*
X182554392Y-117741216D01*
X182021926Y-118096999D01*
X181430282Y-118342066D01*
X181116239Y-118404533D01*
X180802197Y-118467000D01*
X180161803Y-118467000D01*
X179847761Y-118404533D01*
X179533718Y-118342066D01*
X178942074Y-118096999D01*
X178409608Y-117741216D01*
X177956784Y-117288392D01*
X177601001Y-116755926D01*
X177355934Y-116164282D01*
X177293467Y-115850239D01*
X177231000Y-115536197D01*
X177231000Y-114895803D01*
X177355934Y-114267719D01*
X177355934Y-114267718D01*
X177601001Y-113676074D01*
X177956784Y-113143608D01*
X178409608Y-112690784D01*
X178942074Y-112335001D01*
X179533718Y-112089934D01*
X179983494Y-112000468D01*
X180161803Y-111965000D01*
X180802197Y-111965000D01*
X180980506Y-112000468D01*
X180980506Y-112000468D01*
G37*
G36*
X211016468Y-110669565D02*
G01*
X211055138Y-110681296D01*
X211090777Y-110700346D01*
X211122017Y-110725983D01*
X211147654Y-110757223D01*
X211166704Y-110792862D01*
X211178435Y-110831532D01*
X211183000Y-110877888D01*
X211183000Y-111954112D01*
X211178435Y-112000468D01*
X211166704Y-112039138D01*
X211147654Y-112074777D01*
X211122017Y-112106017D01*
X211090777Y-112131654D01*
X211055138Y-112150704D01*
X211016468Y-112162435D01*
X210970112Y-112167000D01*
X210318888Y-112167000D01*
X210272532Y-112162435D01*
X210233862Y-112150704D01*
X210198223Y-112131654D01*
X210166983Y-112106017D01*
X210141346Y-112074777D01*
X210122296Y-112039138D01*
X210110565Y-112000468D01*
X210106000Y-111954112D01*
X210106000Y-110877888D01*
X210110565Y-110831532D01*
X210122296Y-110792862D01*
X210141346Y-110757223D01*
X210166983Y-110725983D01*
X210198223Y-110700346D01*
X210233862Y-110681296D01*
X210272532Y-110669565D01*
X210318888Y-110665000D01*
X210970112Y-110665000D01*
X211016468Y-110669565D01*
X211016468Y-110669565D01*
G37*
G36*
X212891468Y-110669565D02*
G01*
X212930138Y-110681296D01*
X212965777Y-110700346D01*
X212997017Y-110725983D01*
X213022654Y-110757223D01*
X213041704Y-110792862D01*
X213053435Y-110831532D01*
X213058000Y-110877888D01*
X213058000Y-111954112D01*
X213053435Y-112000468D01*
X213041704Y-112039138D01*
X213022654Y-112074777D01*
X212997017Y-112106017D01*
X212965777Y-112131654D01*
X212930138Y-112150704D01*
X212891468Y-112162435D01*
X212845112Y-112167000D01*
X212193888Y-112167000D01*
X212147532Y-112162435D01*
X212108862Y-112150704D01*
X212073223Y-112131654D01*
X212041983Y-112106017D01*
X212016346Y-112074777D01*
X211997296Y-112039138D01*
X211985565Y-112000468D01*
X211981000Y-111954112D01*
X211981000Y-110877888D01*
X211985565Y-110831532D01*
X211997296Y-110792862D01*
X212016346Y-110757223D01*
X212041983Y-110725983D01*
X212073223Y-110700346D01*
X212108862Y-110681296D01*
X212147532Y-110669565D01*
X212193888Y-110665000D01*
X212845112Y-110665000D01*
X212891468Y-110669565D01*
X212891468Y-110669565D01*
G37*
G36*
X220816468Y-110469565D02*
G01*
X220855138Y-110481296D01*
X220890777Y-110500346D01*
X220922017Y-110525983D01*
X220947654Y-110557223D01*
X220966704Y-110592862D01*
X220978435Y-110631532D01*
X220983000Y-110677888D01*
X220983000Y-111754112D01*
X220978435Y-111800468D01*
X220966704Y-111839138D01*
X220947654Y-111874777D01*
X220922017Y-111906017D01*
X220890777Y-111931654D01*
X220855138Y-111950704D01*
X220816468Y-111962435D01*
X220770112Y-111967000D01*
X220118888Y-111967000D01*
X220072532Y-111962435D01*
X220033862Y-111950704D01*
X219998223Y-111931654D01*
X219966983Y-111906017D01*
X219941346Y-111874777D01*
X219922296Y-111839138D01*
X219910565Y-111800468D01*
X219906000Y-111754112D01*
X219906000Y-110677888D01*
X219910565Y-110631532D01*
X219922296Y-110592862D01*
X219941346Y-110557223D01*
X219966983Y-110525983D01*
X219998223Y-110500346D01*
X220033862Y-110481296D01*
X220072532Y-110469565D01*
X220118888Y-110465000D01*
X220770112Y-110465000D01*
X220816468Y-110469565D01*
X220816468Y-110469565D01*
G37*
G36*
X222691468Y-110469565D02*
G01*
X222730138Y-110481296D01*
X222765777Y-110500346D01*
X222797017Y-110525983D01*
X222822654Y-110557223D01*
X222841704Y-110592862D01*
X222853435Y-110631532D01*
X222858000Y-110677888D01*
X222858000Y-111754112D01*
X222853435Y-111800468D01*
X222841704Y-111839138D01*
X222822654Y-111874777D01*
X222797017Y-111906017D01*
X222765777Y-111931654D01*
X222730138Y-111950704D01*
X222691468Y-111962435D01*
X222645112Y-111967000D01*
X221993888Y-111967000D01*
X221947532Y-111962435D01*
X221908862Y-111950704D01*
X221873223Y-111931654D01*
X221841983Y-111906017D01*
X221816346Y-111874777D01*
X221797296Y-111839138D01*
X221785565Y-111800468D01*
X221781000Y-111754112D01*
X221781000Y-110677888D01*
X221785565Y-110631532D01*
X221797296Y-110592862D01*
X221816346Y-110557223D01*
X221841983Y-110525983D01*
X221873223Y-110500346D01*
X221908862Y-110481296D01*
X221947532Y-110469565D01*
X221993888Y-110465000D01*
X222645112Y-110465000D01*
X222691468Y-110469565D01*
X222691468Y-110469565D01*
G37*
G36*
X215077295Y-108916323D02*
G01*
X215084310Y-108918451D01*
X215090776Y-108921908D01*
X215096442Y-108926558D01*
X215101092Y-108932224D01*
X215104549Y-108938690D01*
X215106677Y-108945705D01*
X215108000Y-108959140D01*
X215108000Y-109272860D01*
X215106677Y-109286295D01*
X215104549Y-109293309D01*
X215097190Y-109307077D01*
X215087813Y-109329716D01*
X215083033Y-109353749D01*
X215083033Y-109378253D01*
X215087814Y-109402286D01*
X215097190Y-109424923D01*
X215104549Y-109438691D01*
X215106677Y-109445705D01*
X215108000Y-109459140D01*
X215108000Y-109772860D01*
X215106677Y-109786295D01*
X215104549Y-109793309D01*
X215097190Y-109807077D01*
X215087813Y-109829716D01*
X215083033Y-109853749D01*
X215083033Y-109878253D01*
X215087814Y-109902286D01*
X215097190Y-109924923D01*
X215104549Y-109938691D01*
X215106677Y-109945705D01*
X215108000Y-109959140D01*
X215108000Y-110272860D01*
X215106677Y-110286295D01*
X215104549Y-110293309D01*
X215097190Y-110307077D01*
X215087813Y-110329716D01*
X215083033Y-110353749D01*
X215083033Y-110378253D01*
X215087814Y-110402286D01*
X215097190Y-110424923D01*
X215104549Y-110438691D01*
X215106677Y-110445705D01*
X215108000Y-110459140D01*
X215108000Y-110772860D01*
X215106677Y-110786295D01*
X215104549Y-110793309D01*
X215097190Y-110807077D01*
X215087813Y-110829716D01*
X215083033Y-110853749D01*
X215083033Y-110878253D01*
X215087814Y-110902286D01*
X215097190Y-110924923D01*
X215104549Y-110938691D01*
X215106677Y-110945705D01*
X215108000Y-110959140D01*
X215108000Y-111272860D01*
X215106677Y-111286295D01*
X215104549Y-111293310D01*
X215101092Y-111299776D01*
X215096442Y-111305442D01*
X215090776Y-111310092D01*
X215084310Y-111313549D01*
X215077295Y-111315677D01*
X215063860Y-111317000D01*
X213600140Y-111317000D01*
X213586705Y-111315677D01*
X213579690Y-111313549D01*
X213573224Y-111310092D01*
X213567558Y-111305442D01*
X213562908Y-111299776D01*
X213559451Y-111293310D01*
X213557323Y-111286295D01*
X213556000Y-111272860D01*
X213556000Y-110959140D01*
X213557323Y-110945705D01*
X213559451Y-110938691D01*
X213566810Y-110924923D01*
X213576187Y-110902284D01*
X213580967Y-110878251D01*
X213580967Y-110853747D01*
X213576186Y-110829714D01*
X213566810Y-110807077D01*
X213559451Y-110793309D01*
X213557323Y-110786295D01*
X213556000Y-110772860D01*
X213556000Y-110459140D01*
X213557323Y-110445705D01*
X213559451Y-110438691D01*
X213566810Y-110424923D01*
X213576187Y-110402284D01*
X213580967Y-110378251D01*
X213580967Y-110353747D01*
X213576186Y-110329714D01*
X213566810Y-110307077D01*
X213559451Y-110293309D01*
X213557323Y-110286295D01*
X213556000Y-110272860D01*
X213556000Y-109959140D01*
X213557323Y-109945705D01*
X213559451Y-109938691D01*
X213566810Y-109924923D01*
X213576187Y-109902284D01*
X213580967Y-109878251D01*
X213580967Y-109853747D01*
X213576186Y-109829714D01*
X213566810Y-109807077D01*
X213559451Y-109793309D01*
X213557323Y-109786295D01*
X213556000Y-109772860D01*
X213556000Y-109459140D01*
X213557323Y-109445705D01*
X213559451Y-109438691D01*
X213566810Y-109424923D01*
X213576187Y-109402284D01*
X213580967Y-109378251D01*
X213580967Y-109353747D01*
X213576186Y-109329714D01*
X213566810Y-109307077D01*
X213559451Y-109293309D01*
X213557323Y-109286295D01*
X213556000Y-109272860D01*
X213556000Y-108959140D01*
X213557323Y-108945705D01*
X213559451Y-108938690D01*
X213562908Y-108932224D01*
X213567558Y-108926558D01*
X213573224Y-108921908D01*
X213579690Y-108918451D01*
X213586705Y-108916323D01*
X213600140Y-108915000D01*
X215063860Y-108915000D01*
X215077295Y-108916323D01*
X215077295Y-108916323D01*
G37*
G36*
X219377295Y-108916323D02*
G01*
X219384310Y-108918451D01*
X219390776Y-108921908D01*
X219396442Y-108926558D01*
X219401092Y-108932224D01*
X219404549Y-108938690D01*
X219406677Y-108945705D01*
X219408000Y-108959140D01*
X219408000Y-109272860D01*
X219406677Y-109286295D01*
X219404549Y-109293309D01*
X219397190Y-109307077D01*
X219387813Y-109329716D01*
X219383033Y-109353749D01*
X219383033Y-109378253D01*
X219387814Y-109402286D01*
X219397190Y-109424923D01*
X219404549Y-109438691D01*
X219406677Y-109445705D01*
X219408000Y-109459140D01*
X219408000Y-109772860D01*
X219406677Y-109786295D01*
X219404549Y-109793309D01*
X219397190Y-109807077D01*
X219387813Y-109829716D01*
X219383033Y-109853749D01*
X219383033Y-109878253D01*
X219387814Y-109902286D01*
X219397190Y-109924923D01*
X219404549Y-109938691D01*
X219406677Y-109945705D01*
X219408000Y-109959140D01*
X219408000Y-110272860D01*
X219406677Y-110286295D01*
X219404549Y-110293309D01*
X219397190Y-110307077D01*
X219387813Y-110329716D01*
X219383033Y-110353749D01*
X219383033Y-110378253D01*
X219387814Y-110402286D01*
X219397190Y-110424923D01*
X219404549Y-110438691D01*
X219406677Y-110445705D01*
X219408000Y-110459140D01*
X219408000Y-110772860D01*
X219406677Y-110786295D01*
X219404549Y-110793309D01*
X219397190Y-110807077D01*
X219387813Y-110829716D01*
X219383033Y-110853749D01*
X219383033Y-110878253D01*
X219387814Y-110902286D01*
X219397190Y-110924923D01*
X219404549Y-110938691D01*
X219406677Y-110945705D01*
X219408000Y-110959140D01*
X219408000Y-111272860D01*
X219406677Y-111286295D01*
X219404549Y-111293310D01*
X219401092Y-111299776D01*
X219396442Y-111305442D01*
X219390776Y-111310092D01*
X219384310Y-111313549D01*
X219377295Y-111315677D01*
X219363860Y-111317000D01*
X217900140Y-111317000D01*
X217886705Y-111315677D01*
X217879690Y-111313549D01*
X217873224Y-111310092D01*
X217867558Y-111305442D01*
X217862908Y-111299776D01*
X217859451Y-111293310D01*
X217857323Y-111286295D01*
X217856000Y-111272860D01*
X217856000Y-110959140D01*
X217857323Y-110945705D01*
X217859451Y-110938691D01*
X217866810Y-110924923D01*
X217876187Y-110902284D01*
X217880967Y-110878251D01*
X217880967Y-110853747D01*
X217876186Y-110829714D01*
X217866810Y-110807077D01*
X217859451Y-110793309D01*
X217857323Y-110786295D01*
X217856000Y-110772860D01*
X217856000Y-110459140D01*
X217857323Y-110445705D01*
X217859451Y-110438691D01*
X217866810Y-110424923D01*
X217876187Y-110402284D01*
X217880967Y-110378251D01*
X217880967Y-110353747D01*
X217876186Y-110329714D01*
X217866810Y-110307077D01*
X217859451Y-110293309D01*
X217857323Y-110286295D01*
X217856000Y-110272860D01*
X217856000Y-109959140D01*
X217857323Y-109945705D01*
X217859451Y-109938691D01*
X217866810Y-109924923D01*
X217876187Y-109902284D01*
X217880967Y-109878251D01*
X217880967Y-109853747D01*
X217876186Y-109829714D01*
X217866810Y-109807077D01*
X217859451Y-109793309D01*
X217857323Y-109786295D01*
X217856000Y-109772860D01*
X217856000Y-109459140D01*
X217857323Y-109445705D01*
X217859451Y-109438691D01*
X217866810Y-109424923D01*
X217876187Y-109402284D01*
X217880967Y-109378251D01*
X217880967Y-109353747D01*
X217876186Y-109329714D01*
X217866810Y-109307077D01*
X217859451Y-109293309D01*
X217857323Y-109286295D01*
X217856000Y-109272860D01*
X217856000Y-108959140D01*
X217857323Y-108945705D01*
X217859451Y-108938690D01*
X217862908Y-108932224D01*
X217867558Y-108926558D01*
X217873224Y-108921908D01*
X217879690Y-108918451D01*
X217886705Y-108916323D01*
X217900140Y-108915000D01*
X219363860Y-108915000D01*
X219377295Y-108916323D01*
X219377295Y-108916323D01*
G37*
G36*
X217230104Y-109129001D02*
G01*
X217263271Y-109139062D01*
X217293829Y-109155396D01*
X217320619Y-109177381D01*
X217342604Y-109204171D01*
X217358938Y-109234729D01*
X217368999Y-109267896D01*
X217373000Y-109308522D01*
X217373000Y-110923478D01*
X217368999Y-110964104D01*
X217358938Y-110997271D01*
X217342604Y-111027829D01*
X217320619Y-111054619D01*
X217293829Y-111076604D01*
X217263271Y-111092938D01*
X217230104Y-111102999D01*
X217189478Y-111107000D01*
X215774522Y-111107000D01*
X215733896Y-111102999D01*
X215700729Y-111092938D01*
X215670171Y-111076604D01*
X215643381Y-111054619D01*
X215621396Y-111027829D01*
X215605062Y-110997271D01*
X215595001Y-110964104D01*
X215591000Y-110923478D01*
X215591000Y-109308522D01*
X215595001Y-109267896D01*
X215605062Y-109234729D01*
X215621396Y-109204171D01*
X215643381Y-109177381D01*
X215670171Y-109155396D01*
X215700729Y-109139062D01*
X215733896Y-109129001D01*
X215774522Y-109125000D01*
X217189478Y-109125000D01*
X217230104Y-109129001D01*
X217230104Y-109129001D01*
G37*
G36*
X209366468Y-109819565D02*
G01*
X209405138Y-109831296D01*
X209440777Y-109850346D01*
X209472017Y-109875983D01*
X209497654Y-109907223D01*
X209516704Y-109942862D01*
X209528435Y-109981532D01*
X209533000Y-110027888D01*
X209533000Y-110679112D01*
X209528435Y-110725468D01*
X209516704Y-110764138D01*
X209497654Y-110799777D01*
X209472017Y-110831017D01*
X209440777Y-110856654D01*
X209405138Y-110875704D01*
X209366468Y-110887435D01*
X209320112Y-110892000D01*
X208243888Y-110892000D01*
X208197532Y-110887435D01*
X208158862Y-110875704D01*
X208123223Y-110856654D01*
X208091983Y-110831017D01*
X208066346Y-110799777D01*
X208047296Y-110764138D01*
X208035565Y-110725468D01*
X208031000Y-110679112D01*
X208031000Y-110027888D01*
X208035565Y-109981532D01*
X208047296Y-109942862D01*
X208066346Y-109907223D01*
X208091983Y-109875983D01*
X208123223Y-109850346D01*
X208158862Y-109831296D01*
X208197532Y-109819565D01*
X208243888Y-109815000D01*
X209320112Y-109815000D01*
X209366468Y-109819565D01*
X209366468Y-109819565D01*
G37*
G36*
X198869000Y-110685000D02*
G01*
X196567000Y-110685000D01*
X196567000Y-108383000D01*
X198869000Y-108383000D01*
X198869000Y-110685000D01*
X198869000Y-110685000D01*
G37*
G36*
X194077271Y-108394103D02*
G01*
X194133635Y-108399654D01*
X194350600Y-108465470D01*
X194350602Y-108465471D01*
X194550555Y-108572347D01*
X194725818Y-108716182D01*
X194869653Y-108891445D01*
X194976529Y-109091398D01*
X194976530Y-109091400D01*
X195042346Y-109308365D01*
X195064569Y-109534000D01*
X195042346Y-109759635D01*
X194981012Y-109961826D01*
X194976529Y-109976602D01*
X194869653Y-110176555D01*
X194725818Y-110351818D01*
X194550555Y-110495653D01*
X194435364Y-110557223D01*
X194350600Y-110602530D01*
X194133635Y-110668346D01*
X194077271Y-110673897D01*
X193964545Y-110685000D01*
X193851455Y-110685000D01*
X193738729Y-110673897D01*
X193682365Y-110668346D01*
X193465400Y-110602530D01*
X193380636Y-110557223D01*
X193265445Y-110495653D01*
X193090182Y-110351818D01*
X192946347Y-110176555D01*
X192839471Y-109976602D01*
X192834989Y-109961826D01*
X192773654Y-109759635D01*
X192751431Y-109534000D01*
X192773654Y-109308365D01*
X192839470Y-109091400D01*
X192839471Y-109091398D01*
X192946347Y-108891445D01*
X193090182Y-108716182D01*
X193265445Y-108572347D01*
X193465398Y-108465471D01*
X193465400Y-108465470D01*
X193682365Y-108399654D01*
X193738729Y-108394103D01*
X193851455Y-108383000D01*
X193964545Y-108383000D01*
X194077271Y-108394103D01*
X194077271Y-108394103D01*
G37*
G36*
X201697271Y-108394103D02*
G01*
X201753635Y-108399654D01*
X201970600Y-108465470D01*
X201970602Y-108465471D01*
X202170555Y-108572347D01*
X202345818Y-108716182D01*
X202489653Y-108891445D01*
X202596529Y-109091398D01*
X202596530Y-109091400D01*
X202662346Y-109308365D01*
X202684569Y-109534000D01*
X202662346Y-109759635D01*
X202601012Y-109961826D01*
X202596529Y-109976602D01*
X202489653Y-110176555D01*
X202345818Y-110351818D01*
X202170555Y-110495653D01*
X202055364Y-110557223D01*
X201970600Y-110602530D01*
X201753635Y-110668346D01*
X201697271Y-110673897D01*
X201584545Y-110685000D01*
X201471455Y-110685000D01*
X201358729Y-110673897D01*
X201302365Y-110668346D01*
X201085400Y-110602530D01*
X201000636Y-110557223D01*
X200885445Y-110495653D01*
X200710182Y-110351818D01*
X200566347Y-110176555D01*
X200459471Y-109976602D01*
X200454989Y-109961826D01*
X200393654Y-109759635D01*
X200371431Y-109534000D01*
X200393654Y-109308365D01*
X200459470Y-109091400D01*
X200459471Y-109091398D01*
X200566347Y-108891445D01*
X200710182Y-108716182D01*
X200885445Y-108572347D01*
X201085398Y-108465471D01*
X201085400Y-108465470D01*
X201302365Y-108399654D01*
X201358729Y-108394103D01*
X201471455Y-108383000D01*
X201584545Y-108383000D01*
X201697271Y-108394103D01*
X201697271Y-108394103D01*
G37*
G36*
X206489000Y-110685000D02*
G01*
X204187000Y-110685000D01*
X204187000Y-108383000D01*
X206489000Y-108383000D01*
X206489000Y-110685000D01*
X206489000Y-110685000D01*
G37*
G36*
X211016468Y-108669565D02*
G01*
X211055138Y-108681296D01*
X211090777Y-108700346D01*
X211122017Y-108725983D01*
X211147654Y-108757223D01*
X211166704Y-108792862D01*
X211178435Y-108831532D01*
X211183000Y-108877888D01*
X211183000Y-109954112D01*
X211178435Y-110000468D01*
X211166704Y-110039138D01*
X211147654Y-110074777D01*
X211122017Y-110106017D01*
X211090777Y-110131654D01*
X211055138Y-110150704D01*
X211016468Y-110162435D01*
X210970112Y-110167000D01*
X210318888Y-110167000D01*
X210272532Y-110162435D01*
X210233862Y-110150704D01*
X210198223Y-110131654D01*
X210166983Y-110106017D01*
X210141346Y-110074777D01*
X210122296Y-110039138D01*
X210110565Y-110000468D01*
X210106000Y-109954112D01*
X210106000Y-108877888D01*
X210110565Y-108831532D01*
X210122296Y-108792862D01*
X210141346Y-108757223D01*
X210166983Y-108725983D01*
X210198223Y-108700346D01*
X210233862Y-108681296D01*
X210272532Y-108669565D01*
X210318888Y-108665000D01*
X210970112Y-108665000D01*
X211016468Y-108669565D01*
X211016468Y-108669565D01*
G37*
G36*
X212891468Y-108669565D02*
G01*
X212930138Y-108681296D01*
X212965777Y-108700346D01*
X212997017Y-108725983D01*
X213022654Y-108757223D01*
X213041704Y-108792862D01*
X213053435Y-108831532D01*
X213058000Y-108877888D01*
X213058000Y-109954112D01*
X213053435Y-110000468D01*
X213041704Y-110039138D01*
X213022654Y-110074777D01*
X212997017Y-110106017D01*
X212965777Y-110131654D01*
X212930138Y-110150704D01*
X212891468Y-110162435D01*
X212845112Y-110167000D01*
X212193888Y-110167000D01*
X212147532Y-110162435D01*
X212108862Y-110150704D01*
X212073223Y-110131654D01*
X212041983Y-110106017D01*
X212016346Y-110074777D01*
X211997296Y-110039138D01*
X211985565Y-110000468D01*
X211981000Y-109954112D01*
X211981000Y-108877888D01*
X211985565Y-108831532D01*
X211997296Y-108792862D01*
X212016346Y-108757223D01*
X212041983Y-108725983D01*
X212073223Y-108700346D01*
X212108862Y-108681296D01*
X212147532Y-108669565D01*
X212193888Y-108665000D01*
X212845112Y-108665000D01*
X212891468Y-108669565D01*
X212891468Y-108669565D01*
G37*
G36*
X220816468Y-108469565D02*
G01*
X220855138Y-108481296D01*
X220890777Y-108500346D01*
X220922017Y-108525983D01*
X220947654Y-108557223D01*
X220966704Y-108592862D01*
X220978435Y-108631532D01*
X220983000Y-108677888D01*
X220983000Y-109754112D01*
X220978435Y-109800468D01*
X220966704Y-109839138D01*
X220947654Y-109874777D01*
X220922017Y-109906017D01*
X220890777Y-109931654D01*
X220855138Y-109950704D01*
X220816468Y-109962435D01*
X220770112Y-109967000D01*
X220118888Y-109967000D01*
X220072532Y-109962435D01*
X220033862Y-109950704D01*
X219998223Y-109931654D01*
X219966983Y-109906017D01*
X219941346Y-109874777D01*
X219922296Y-109839138D01*
X219910565Y-109800468D01*
X219906000Y-109754112D01*
X219906000Y-108677888D01*
X219910565Y-108631532D01*
X219922296Y-108592862D01*
X219941346Y-108557223D01*
X219966983Y-108525983D01*
X219998223Y-108500346D01*
X220033862Y-108481296D01*
X220072532Y-108469565D01*
X220118888Y-108465000D01*
X220770112Y-108465000D01*
X220816468Y-108469565D01*
X220816468Y-108469565D01*
G37*
G36*
X222691468Y-108469565D02*
G01*
X222730138Y-108481296D01*
X222765777Y-108500346D01*
X222797017Y-108525983D01*
X222822654Y-108557223D01*
X222841704Y-108592862D01*
X222853435Y-108631532D01*
X222858000Y-108677888D01*
X222858000Y-109754112D01*
X222853435Y-109800468D01*
X222841704Y-109839138D01*
X222822654Y-109874777D01*
X222797017Y-109906017D01*
X222765777Y-109931654D01*
X222730138Y-109950704D01*
X222691468Y-109962435D01*
X222645112Y-109967000D01*
X221993888Y-109967000D01*
X221947532Y-109962435D01*
X221908862Y-109950704D01*
X221873223Y-109931654D01*
X221841983Y-109906017D01*
X221816346Y-109874777D01*
X221797296Y-109839138D01*
X221785565Y-109800468D01*
X221781000Y-109754112D01*
X221781000Y-108677888D01*
X221785565Y-108631532D01*
X221797296Y-108592862D01*
X221816346Y-108557223D01*
X221841983Y-108525983D01*
X221873223Y-108500346D01*
X221908862Y-108481296D01*
X221947532Y-108469565D01*
X221993888Y-108465000D01*
X222645112Y-108465000D01*
X222691468Y-108469565D01*
X222691468Y-108469565D01*
G37*
G36*
X239833000Y-109667000D02*
G01*
X238131000Y-109667000D01*
X238131000Y-107965000D01*
X239833000Y-107965000D01*
X239833000Y-109667000D01*
X239833000Y-109667000D01*
G37*
G36*
X231528823Y-107977313D02*
G01*
X231689242Y-108025976D01*
X231765992Y-108067000D01*
X231837078Y-108104996D01*
X231966659Y-108211341D01*
X232073004Y-108340922D01*
X232073005Y-108340924D01*
X232152024Y-108488758D01*
X232200687Y-108649177D01*
X232217117Y-108816000D01*
X232200687Y-108982823D01*
X232152024Y-109143242D01*
X232098781Y-109242853D01*
X232073004Y-109291078D01*
X231966659Y-109420659D01*
X231837078Y-109527004D01*
X231837076Y-109527005D01*
X231689242Y-109606024D01*
X231528823Y-109654687D01*
X231403804Y-109667000D01*
X231320196Y-109667000D01*
X231195177Y-109654687D01*
X231034758Y-109606024D01*
X230886924Y-109527005D01*
X230886922Y-109527004D01*
X230757341Y-109420659D01*
X230650996Y-109291078D01*
X230625219Y-109242853D01*
X230571976Y-109143242D01*
X230523313Y-108982823D01*
X230506883Y-108816000D01*
X230523313Y-108649177D01*
X230571976Y-108488758D01*
X230650995Y-108340924D01*
X230650996Y-108340922D01*
X230757341Y-108211341D01*
X230886922Y-108104996D01*
X230958008Y-108067000D01*
X231034758Y-108025976D01*
X231195177Y-107977313D01*
X231320196Y-107965000D01*
X231403804Y-107965000D01*
X231528823Y-107977313D01*
X231528823Y-107977313D01*
G37*
G36*
X209366468Y-107944565D02*
G01*
X209405138Y-107956296D01*
X209440777Y-107975346D01*
X209472017Y-108000983D01*
X209497654Y-108032223D01*
X209516704Y-108067862D01*
X209528435Y-108106532D01*
X209533000Y-108152888D01*
X209533000Y-108804112D01*
X209528435Y-108850468D01*
X209516704Y-108889138D01*
X209497654Y-108924777D01*
X209472017Y-108956017D01*
X209440777Y-108981654D01*
X209405138Y-109000704D01*
X209366468Y-109012435D01*
X209320112Y-109017000D01*
X208243888Y-109017000D01*
X208197532Y-109012435D01*
X208158862Y-109000704D01*
X208123223Y-108981654D01*
X208091983Y-108956017D01*
X208066346Y-108924777D01*
X208047296Y-108889138D01*
X208035565Y-108850468D01*
X208031000Y-108804112D01*
X208031000Y-108152888D01*
X208035565Y-108106532D01*
X208047296Y-108067862D01*
X208066346Y-108032223D01*
X208091983Y-108000983D01*
X208123223Y-107975346D01*
X208158862Y-107956296D01*
X208197532Y-107944565D01*
X208243888Y-107940000D01*
X209320112Y-107940000D01*
X209366468Y-107944565D01*
X209366468Y-107944565D01*
G37*
G36*
X217778968Y-106569565D02*
G01*
X217817638Y-106581296D01*
X217853277Y-106600346D01*
X217884517Y-106625983D01*
X217910154Y-106657223D01*
X217929204Y-106692862D01*
X217940935Y-106731532D01*
X217945500Y-106777888D01*
X217945500Y-107854112D01*
X217940935Y-107900468D01*
X217929204Y-107939138D01*
X217910154Y-107974777D01*
X217884517Y-108006017D01*
X217853277Y-108031654D01*
X217817638Y-108050704D01*
X217778968Y-108062435D01*
X217732612Y-108067000D01*
X217081388Y-108067000D01*
X217035032Y-108062435D01*
X216996362Y-108050704D01*
X216960723Y-108031654D01*
X216929483Y-108006017D01*
X216903846Y-107974777D01*
X216884796Y-107939138D01*
X216873065Y-107900468D01*
X216868500Y-107854112D01*
X216868500Y-106777888D01*
X216873065Y-106731532D01*
X216884796Y-106692862D01*
X216903846Y-106657223D01*
X216929483Y-106625983D01*
X216960723Y-106600346D01*
X216996362Y-106581296D01*
X217035032Y-106569565D01*
X217081388Y-106565000D01*
X217732612Y-106565000D01*
X217778968Y-106569565D01*
X217778968Y-106569565D01*
G37*
G36*
X219653968Y-106569565D02*
G01*
X219692638Y-106581296D01*
X219728277Y-106600346D01*
X219759517Y-106625983D01*
X219785154Y-106657223D01*
X219804204Y-106692862D01*
X219815935Y-106731532D01*
X219820500Y-106777888D01*
X219820500Y-107854112D01*
X219815935Y-107900468D01*
X219804204Y-107939138D01*
X219785154Y-107974777D01*
X219759517Y-108006017D01*
X219728277Y-108031654D01*
X219692638Y-108050704D01*
X219653968Y-108062435D01*
X219607612Y-108067000D01*
X218956388Y-108067000D01*
X218910032Y-108062435D01*
X218871362Y-108050704D01*
X218835723Y-108031654D01*
X218804483Y-108006017D01*
X218778846Y-107974777D01*
X218759796Y-107939138D01*
X218748065Y-107900468D01*
X218743500Y-107854112D01*
X218743500Y-106777888D01*
X218748065Y-106731532D01*
X218759796Y-106692862D01*
X218778846Y-106657223D01*
X218804483Y-106625983D01*
X218835723Y-106600346D01*
X218871362Y-106581296D01*
X218910032Y-106569565D01*
X218956388Y-106565000D01*
X219607612Y-106565000D01*
X219653968Y-106569565D01*
X219653968Y-106569565D01*
G37*
G36*
X223091468Y-106469565D02*
G01*
X223130138Y-106481296D01*
X223165777Y-106500346D01*
X223197017Y-106525983D01*
X223222654Y-106557223D01*
X223241704Y-106592862D01*
X223253435Y-106631532D01*
X223258000Y-106677888D01*
X223258000Y-107754112D01*
X223253435Y-107800468D01*
X223241704Y-107839138D01*
X223222654Y-107874777D01*
X223197017Y-107906017D01*
X223165777Y-107931654D01*
X223130138Y-107950704D01*
X223091468Y-107962435D01*
X223045112Y-107967000D01*
X222393888Y-107967000D01*
X222347532Y-107962435D01*
X222308862Y-107950704D01*
X222273223Y-107931654D01*
X222241983Y-107906017D01*
X222216346Y-107874777D01*
X222197296Y-107839138D01*
X222185565Y-107800468D01*
X222181000Y-107754112D01*
X222181000Y-106677888D01*
X222185565Y-106631532D01*
X222197296Y-106592862D01*
X222216346Y-106557223D01*
X222241983Y-106525983D01*
X222273223Y-106500346D01*
X222308862Y-106481296D01*
X222347532Y-106469565D01*
X222393888Y-106465000D01*
X223045112Y-106465000D01*
X223091468Y-106469565D01*
X223091468Y-106469565D01*
G37*
G36*
X221216468Y-106469565D02*
G01*
X221255138Y-106481296D01*
X221290777Y-106500346D01*
X221322017Y-106525983D01*
X221347654Y-106557223D01*
X221366704Y-106592862D01*
X221378435Y-106631532D01*
X221383000Y-106677888D01*
X221383000Y-107754112D01*
X221378435Y-107800468D01*
X221366704Y-107839138D01*
X221347654Y-107874777D01*
X221322017Y-107906017D01*
X221290777Y-107931654D01*
X221255138Y-107950704D01*
X221216468Y-107962435D01*
X221170112Y-107967000D01*
X220518888Y-107967000D01*
X220472532Y-107962435D01*
X220433862Y-107950704D01*
X220398223Y-107931654D01*
X220366983Y-107906017D01*
X220341346Y-107874777D01*
X220322296Y-107839138D01*
X220310565Y-107800468D01*
X220306000Y-107754112D01*
X220306000Y-106677888D01*
X220310565Y-106631532D01*
X220322296Y-106592862D01*
X220341346Y-106557223D01*
X220366983Y-106525983D01*
X220398223Y-106500346D01*
X220433862Y-106481296D01*
X220472532Y-106469565D01*
X220518888Y-106465000D01*
X221170112Y-106465000D01*
X221216468Y-106469565D01*
X221216468Y-106469565D01*
G37*
G36*
X231528823Y-105437313D02*
G01*
X231689242Y-105485976D01*
X231737946Y-105512009D01*
X231837078Y-105564996D01*
X231966659Y-105671341D01*
X232073004Y-105800922D01*
X232073005Y-105800924D01*
X232152024Y-105948758D01*
X232200687Y-106109177D01*
X232217117Y-106276000D01*
X232200687Y-106442823D01*
X232175460Y-106525983D01*
X232152903Y-106600346D01*
X232152024Y-106603242D01*
X232104121Y-106692862D01*
X232073004Y-106751078D01*
X231966659Y-106880659D01*
X231837078Y-106987004D01*
X231837076Y-106987005D01*
X231689242Y-107066024D01*
X231528823Y-107114687D01*
X231403804Y-107127000D01*
X231320196Y-107127000D01*
X231195177Y-107114687D01*
X231034758Y-107066024D01*
X230886924Y-106987005D01*
X230886922Y-106987004D01*
X230757341Y-106880659D01*
X230650996Y-106751078D01*
X230619879Y-106692862D01*
X230571976Y-106603242D01*
X230571098Y-106600346D01*
X230548540Y-106525983D01*
X230523313Y-106442823D01*
X230506883Y-106276000D01*
X230523313Y-106109177D01*
X230571976Y-105948758D01*
X230650995Y-105800924D01*
X230650996Y-105800922D01*
X230757341Y-105671341D01*
X230886922Y-105564996D01*
X230986054Y-105512009D01*
X231034758Y-105485976D01*
X231195177Y-105437313D01*
X231320196Y-105425000D01*
X231403804Y-105425000D01*
X231528823Y-105437313D01*
X231528823Y-105437313D01*
G37*
G36*
X239148823Y-105437313D02*
G01*
X239309242Y-105485976D01*
X239357946Y-105512009D01*
X239457078Y-105564996D01*
X239586659Y-105671341D01*
X239693004Y-105800922D01*
X239693005Y-105800924D01*
X239772024Y-105948758D01*
X239820687Y-106109177D01*
X239837117Y-106276000D01*
X239820687Y-106442823D01*
X239795460Y-106525983D01*
X239772903Y-106600346D01*
X239772024Y-106603242D01*
X239724121Y-106692862D01*
X239693004Y-106751078D01*
X239586659Y-106880659D01*
X239457078Y-106987004D01*
X239457076Y-106987005D01*
X239309242Y-107066024D01*
X239148823Y-107114687D01*
X239023804Y-107127000D01*
X238940196Y-107127000D01*
X238815177Y-107114687D01*
X238654758Y-107066024D01*
X238506924Y-106987005D01*
X238506922Y-106987004D01*
X238377341Y-106880659D01*
X238270996Y-106751078D01*
X238239879Y-106692862D01*
X238191976Y-106603242D01*
X238191098Y-106600346D01*
X238168540Y-106525983D01*
X238143313Y-106442823D01*
X238126883Y-106276000D01*
X238143313Y-106109177D01*
X238191976Y-105948758D01*
X238270995Y-105800924D01*
X238270996Y-105800922D01*
X238377341Y-105671341D01*
X238506922Y-105564996D01*
X238606054Y-105512009D01*
X238654758Y-105485976D01*
X238815177Y-105437313D01*
X238940196Y-105425000D01*
X239023804Y-105425000D01*
X239148823Y-105437313D01*
X239148823Y-105437313D01*
G37*
G36*
X213433000Y-106667000D02*
G01*
X211331000Y-106667000D01*
X211331000Y-104565000D01*
X213433000Y-104565000D01*
X213433000Y-106667000D01*
X213433000Y-106667000D01*
G37*
G36*
X229416928Y-104882764D02*
G01*
X229438009Y-104889160D01*
X229457445Y-104899548D01*
X229474476Y-104913524D01*
X229488452Y-104930555D01*
X229498840Y-104949991D01*
X229505236Y-104971072D01*
X229508000Y-104999140D01*
X229508000Y-105462860D01*
X229505236Y-105490928D01*
X229498840Y-105512009D01*
X229488452Y-105531445D01*
X229474476Y-105548476D01*
X229457445Y-105562452D01*
X229438009Y-105572840D01*
X229416928Y-105579236D01*
X229388860Y-105582000D01*
X227475140Y-105582000D01*
X227447072Y-105579236D01*
X227425991Y-105572840D01*
X227406555Y-105562452D01*
X227389524Y-105548476D01*
X227375548Y-105531445D01*
X227365160Y-105512009D01*
X227358764Y-105490928D01*
X227356000Y-105462860D01*
X227356000Y-104999140D01*
X227358764Y-104971072D01*
X227365160Y-104949991D01*
X227375548Y-104930555D01*
X227389524Y-104913524D01*
X227406555Y-104899548D01*
X227425991Y-104889160D01*
X227447072Y-104882764D01*
X227475140Y-104880000D01*
X229388860Y-104880000D01*
X229416928Y-104882764D01*
X229416928Y-104882764D01*
G37*
G36*
X220116928Y-104882764D02*
G01*
X220138009Y-104889160D01*
X220157445Y-104899548D01*
X220174476Y-104913524D01*
X220188452Y-104930555D01*
X220198840Y-104949991D01*
X220205236Y-104971072D01*
X220208000Y-104999140D01*
X220208000Y-105462860D01*
X220205236Y-105490928D01*
X220198840Y-105512009D01*
X220188452Y-105531445D01*
X220174476Y-105548476D01*
X220157445Y-105562452D01*
X220138009Y-105572840D01*
X220116928Y-105579236D01*
X220088860Y-105582000D01*
X218175140Y-105582000D01*
X218147072Y-105579236D01*
X218125991Y-105572840D01*
X218106555Y-105562452D01*
X218089524Y-105548476D01*
X218075548Y-105531445D01*
X218065160Y-105512009D01*
X218058764Y-105490928D01*
X218056000Y-105462860D01*
X218056000Y-104999140D01*
X218058764Y-104971072D01*
X218065160Y-104949991D01*
X218075548Y-104930555D01*
X218089524Y-104913524D01*
X218106555Y-104899548D01*
X218125991Y-104889160D01*
X218147072Y-104882764D01*
X218175140Y-104880000D01*
X220088860Y-104880000D01*
X220116928Y-104882764D01*
X220116928Y-104882764D01*
G37*
G36*
X231528823Y-102897313D02*
G01*
X231689242Y-102945976D01*
X231737946Y-102972009D01*
X231837078Y-103024996D01*
X231966659Y-103131341D01*
X232073004Y-103260922D01*
X232073005Y-103260924D01*
X232152024Y-103408758D01*
X232200687Y-103569177D01*
X232217117Y-103736000D01*
X232200687Y-103902823D01*
X232152024Y-104063242D01*
X232094566Y-104170738D01*
X232073004Y-104211078D01*
X231966659Y-104340659D01*
X231837078Y-104447004D01*
X231837076Y-104447005D01*
X231689242Y-104526024D01*
X231528823Y-104574687D01*
X231403804Y-104587000D01*
X231320196Y-104587000D01*
X231195177Y-104574687D01*
X231034758Y-104526024D01*
X230886924Y-104447005D01*
X230886922Y-104447004D01*
X230757341Y-104340659D01*
X230650996Y-104211078D01*
X230629434Y-104170738D01*
X230571976Y-104063242D01*
X230523313Y-103902823D01*
X230506883Y-103736000D01*
X230523313Y-103569177D01*
X230571976Y-103408758D01*
X230650995Y-103260924D01*
X230650996Y-103260922D01*
X230757341Y-103131341D01*
X230886922Y-103024996D01*
X230986054Y-102972009D01*
X231034758Y-102945976D01*
X231195177Y-102897313D01*
X231320196Y-102885000D01*
X231403804Y-102885000D01*
X231528823Y-102897313D01*
X231528823Y-102897313D01*
G37*
G36*
X239148823Y-102897313D02*
G01*
X239309242Y-102945976D01*
X239357946Y-102972009D01*
X239457078Y-103024996D01*
X239586659Y-103131341D01*
X239693004Y-103260922D01*
X239693005Y-103260924D01*
X239772024Y-103408758D01*
X239820687Y-103569177D01*
X239837117Y-103736000D01*
X239820687Y-103902823D01*
X239772024Y-104063242D01*
X239714566Y-104170738D01*
X239693004Y-104211078D01*
X239586659Y-104340659D01*
X239457078Y-104447004D01*
X239457076Y-104447005D01*
X239309242Y-104526024D01*
X239148823Y-104574687D01*
X239023804Y-104587000D01*
X238940196Y-104587000D01*
X238815177Y-104574687D01*
X238654758Y-104526024D01*
X238506924Y-104447005D01*
X238506922Y-104447004D01*
X238377341Y-104340659D01*
X238270996Y-104211078D01*
X238249434Y-104170738D01*
X238191976Y-104063242D01*
X238143313Y-103902823D01*
X238126883Y-103736000D01*
X238143313Y-103569177D01*
X238191976Y-103408758D01*
X238270995Y-103260924D01*
X238270996Y-103260922D01*
X238377341Y-103131341D01*
X238506922Y-103024996D01*
X238606054Y-102972009D01*
X238654758Y-102945976D01*
X238815177Y-102897313D01*
X238940196Y-102885000D01*
X239023804Y-102885000D01*
X239148823Y-102897313D01*
X239148823Y-102897313D01*
G37*
G36*
X220116928Y-103612764D02*
G01*
X220138009Y-103619160D01*
X220157445Y-103629548D01*
X220174476Y-103643524D01*
X220188452Y-103660555D01*
X220198840Y-103679991D01*
X220205236Y-103701072D01*
X220208000Y-103729140D01*
X220208000Y-104192860D01*
X220205236Y-104220928D01*
X220198840Y-104242009D01*
X220188452Y-104261445D01*
X220174476Y-104278476D01*
X220157445Y-104292452D01*
X220138009Y-104302840D01*
X220116928Y-104309236D01*
X220088860Y-104312000D01*
X218175140Y-104312000D01*
X218147072Y-104309236D01*
X218125991Y-104302840D01*
X218106555Y-104292452D01*
X218089524Y-104278476D01*
X218075548Y-104261445D01*
X218065160Y-104242009D01*
X218058764Y-104220928D01*
X218056000Y-104192860D01*
X218056000Y-103729140D01*
X218058764Y-103701072D01*
X218065160Y-103679991D01*
X218075548Y-103660555D01*
X218089524Y-103643524D01*
X218106555Y-103629548D01*
X218125991Y-103619160D01*
X218147072Y-103612764D01*
X218175140Y-103610000D01*
X220088860Y-103610000D01*
X220116928Y-103612764D01*
X220116928Y-103612764D01*
G37*
G36*
X229416928Y-103612764D02*
G01*
X229438009Y-103619160D01*
X229457445Y-103629548D01*
X229474476Y-103643524D01*
X229488452Y-103660555D01*
X229498840Y-103679991D01*
X229505236Y-103701072D01*
X229508000Y-103729140D01*
X229508000Y-104192860D01*
X229505236Y-104220928D01*
X229498840Y-104242009D01*
X229488452Y-104261445D01*
X229474476Y-104278476D01*
X229457445Y-104292452D01*
X229438009Y-104302840D01*
X229416928Y-104309236D01*
X229388860Y-104312000D01*
X227475140Y-104312000D01*
X227447072Y-104309236D01*
X227425991Y-104302840D01*
X227406555Y-104292452D01*
X227389524Y-104278476D01*
X227375548Y-104261445D01*
X227365160Y-104242009D01*
X227358764Y-104220928D01*
X227356000Y-104192860D01*
X227356000Y-103729140D01*
X227358764Y-103701072D01*
X227365160Y-103679991D01*
X227375548Y-103660555D01*
X227389524Y-103643524D01*
X227406555Y-103629548D01*
X227425991Y-103619160D01*
X227447072Y-103612764D01*
X227475140Y-103610000D01*
X229388860Y-103610000D01*
X229416928Y-103612764D01*
X229416928Y-103612764D01*
G37*
G36*
X229416928Y-102342764D02*
G01*
X229438009Y-102349160D01*
X229457445Y-102359548D01*
X229474476Y-102373524D01*
X229488452Y-102390555D01*
X229498840Y-102409991D01*
X229505236Y-102431072D01*
X229508000Y-102459140D01*
X229508000Y-102922860D01*
X229505236Y-102950928D01*
X229498840Y-102972009D01*
X229488452Y-102991445D01*
X229474476Y-103008476D01*
X229457445Y-103022452D01*
X229438009Y-103032840D01*
X229416928Y-103039236D01*
X229388860Y-103042000D01*
X227475140Y-103042000D01*
X227447072Y-103039236D01*
X227425991Y-103032840D01*
X227406555Y-103022452D01*
X227389524Y-103008476D01*
X227375548Y-102991445D01*
X227365160Y-102972009D01*
X227358764Y-102950928D01*
X227356000Y-102922860D01*
X227356000Y-102459140D01*
X227358764Y-102431072D01*
X227365160Y-102409991D01*
X227375548Y-102390555D01*
X227389524Y-102373524D01*
X227406555Y-102359548D01*
X227425991Y-102349160D01*
X227447072Y-102342764D01*
X227475140Y-102340000D01*
X229388860Y-102340000D01*
X229416928Y-102342764D01*
X229416928Y-102342764D01*
G37*
G36*
X220116928Y-102342764D02*
G01*
X220138009Y-102349160D01*
X220157445Y-102359548D01*
X220174476Y-102373524D01*
X220188452Y-102390555D01*
X220198840Y-102409991D01*
X220205236Y-102431072D01*
X220208000Y-102459140D01*
X220208000Y-102922860D01*
X220205236Y-102950928D01*
X220198840Y-102972009D01*
X220188452Y-102991445D01*
X220174476Y-103008476D01*
X220157445Y-103022452D01*
X220138009Y-103032840D01*
X220116928Y-103039236D01*
X220088860Y-103042000D01*
X218175140Y-103042000D01*
X218147072Y-103039236D01*
X218125991Y-103032840D01*
X218106555Y-103022452D01*
X218089524Y-103008476D01*
X218075548Y-102991445D01*
X218065160Y-102972009D01*
X218058764Y-102950928D01*
X218056000Y-102922860D01*
X218056000Y-102459140D01*
X218058764Y-102431072D01*
X218065160Y-102409991D01*
X218075548Y-102390555D01*
X218089524Y-102373524D01*
X218106555Y-102359548D01*
X218125991Y-102349160D01*
X218147072Y-102342764D01*
X218175140Y-102340000D01*
X220088860Y-102340000D01*
X220116928Y-102342764D01*
X220116928Y-102342764D01*
G37*
G36*
X239148823Y-100357313D02*
G01*
X239309242Y-100405976D01*
X239392722Y-100450597D01*
X239457078Y-100484996D01*
X239586659Y-100591341D01*
X239693004Y-100720922D01*
X239693005Y-100720924D01*
X239772024Y-100868758D01*
X239820687Y-101029177D01*
X239837117Y-101196000D01*
X239820687Y-101362823D01*
X239772024Y-101523242D01*
X239716772Y-101626611D01*
X239693004Y-101671078D01*
X239586659Y-101800659D01*
X239457078Y-101907004D01*
X239457076Y-101907005D01*
X239309242Y-101986024D01*
X239148823Y-102034687D01*
X239023804Y-102047000D01*
X238940196Y-102047000D01*
X238815177Y-102034687D01*
X238654758Y-101986024D01*
X238506924Y-101907005D01*
X238506922Y-101907004D01*
X238377341Y-101800659D01*
X238270996Y-101671078D01*
X238247228Y-101626611D01*
X238191976Y-101523242D01*
X238143313Y-101362823D01*
X238126883Y-101196000D01*
X238143313Y-101029177D01*
X238191976Y-100868758D01*
X238270995Y-100720924D01*
X238270996Y-100720922D01*
X238377341Y-100591341D01*
X238506922Y-100484996D01*
X238571278Y-100450597D01*
X238654758Y-100405976D01*
X238815177Y-100357313D01*
X238940196Y-100345000D01*
X239023804Y-100345000D01*
X239148823Y-100357313D01*
X239148823Y-100357313D01*
G37*
G36*
X231528823Y-100357313D02*
G01*
X231689242Y-100405976D01*
X231772722Y-100450597D01*
X231837078Y-100484996D01*
X231966659Y-100591341D01*
X232073004Y-100720922D01*
X232073005Y-100720924D01*
X232152024Y-100868758D01*
X232200687Y-101029177D01*
X232217117Y-101196000D01*
X232200687Y-101362823D01*
X232152024Y-101523242D01*
X232096772Y-101626611D01*
X232073004Y-101671078D01*
X231966659Y-101800659D01*
X231837078Y-101907004D01*
X231837076Y-101907005D01*
X231689242Y-101986024D01*
X231528823Y-102034687D01*
X231403804Y-102047000D01*
X231320196Y-102047000D01*
X231195177Y-102034687D01*
X231034758Y-101986024D01*
X230886924Y-101907005D01*
X230886922Y-101907004D01*
X230757341Y-101800659D01*
X230650996Y-101671078D01*
X230627228Y-101626611D01*
X230571976Y-101523242D01*
X230523313Y-101362823D01*
X230506883Y-101196000D01*
X230523313Y-101029177D01*
X230571976Y-100868758D01*
X230650995Y-100720924D01*
X230650996Y-100720922D01*
X230757341Y-100591341D01*
X230886922Y-100484996D01*
X230951278Y-100450597D01*
X231034758Y-100405976D01*
X231195177Y-100357313D01*
X231320196Y-100345000D01*
X231403804Y-100345000D01*
X231528823Y-100357313D01*
X231528823Y-100357313D01*
G37*
G36*
X229416928Y-101072764D02*
G01*
X229438009Y-101079160D01*
X229457445Y-101089548D01*
X229474476Y-101103524D01*
X229488452Y-101120555D01*
X229498840Y-101139991D01*
X229505236Y-101161072D01*
X229508000Y-101189140D01*
X229508000Y-101652860D01*
X229505236Y-101680928D01*
X229498840Y-101702009D01*
X229488452Y-101721445D01*
X229474476Y-101738476D01*
X229457445Y-101752452D01*
X229438009Y-101762840D01*
X229416928Y-101769236D01*
X229388860Y-101772000D01*
X227475140Y-101772000D01*
X227447072Y-101769236D01*
X227425991Y-101762840D01*
X227406555Y-101752452D01*
X227389524Y-101738476D01*
X227375548Y-101721445D01*
X227365160Y-101702009D01*
X227358764Y-101680928D01*
X227356000Y-101652860D01*
X227356000Y-101189140D01*
X227358764Y-101161072D01*
X227365160Y-101139991D01*
X227375548Y-101120555D01*
X227389524Y-101103524D01*
X227406555Y-101089548D01*
X227425991Y-101079160D01*
X227447072Y-101072764D01*
X227475140Y-101070000D01*
X229388860Y-101070000D01*
X229416928Y-101072764D01*
X229416928Y-101072764D01*
G37*
G36*
X220116928Y-101072764D02*
G01*
X220138009Y-101079160D01*
X220157445Y-101089548D01*
X220174476Y-101103524D01*
X220188452Y-101120555D01*
X220198840Y-101139991D01*
X220205236Y-101161072D01*
X220208000Y-101189140D01*
X220208000Y-101652860D01*
X220205236Y-101680928D01*
X220198840Y-101702009D01*
X220188452Y-101721445D01*
X220174476Y-101738476D01*
X220157445Y-101752452D01*
X220138009Y-101762840D01*
X220116928Y-101769236D01*
X220088860Y-101772000D01*
X218175140Y-101772000D01*
X218147072Y-101769236D01*
X218125991Y-101762840D01*
X218106555Y-101752452D01*
X218089524Y-101738476D01*
X218075548Y-101721445D01*
X218065160Y-101702009D01*
X218058764Y-101680928D01*
X218056000Y-101652860D01*
X218056000Y-101189140D01*
X218058764Y-101161072D01*
X218065160Y-101139991D01*
X218075548Y-101120555D01*
X218089524Y-101103524D01*
X218106555Y-101089548D01*
X218125991Y-101079160D01*
X218147072Y-101072764D01*
X218175140Y-101070000D01*
X220088860Y-101070000D01*
X220116928Y-101072764D01*
X220116928Y-101072764D01*
G37*
G36*
X212688564Y-99605389D02*
G01*
X212879833Y-99684615D01*
X212879835Y-99684616D01*
X213051973Y-99799635D01*
X213198365Y-99946027D01*
X213313385Y-100118167D01*
X213392611Y-100309436D01*
X213433000Y-100512484D01*
X213433000Y-100719516D01*
X213392611Y-100922564D01*
X213323444Y-101089548D01*
X213313384Y-101113835D01*
X213198365Y-101285973D01*
X213051973Y-101432365D01*
X212879835Y-101547384D01*
X212879834Y-101547385D01*
X212879833Y-101547385D01*
X212688564Y-101626611D01*
X212485516Y-101667000D01*
X212278484Y-101667000D01*
X212075436Y-101626611D01*
X211884167Y-101547385D01*
X211884166Y-101547385D01*
X211884165Y-101547384D01*
X211712027Y-101432365D01*
X211565635Y-101285973D01*
X211450616Y-101113835D01*
X211440556Y-101089548D01*
X211371389Y-100922564D01*
X211331000Y-100719516D01*
X211331000Y-100512484D01*
X211371389Y-100309436D01*
X211450615Y-100118167D01*
X211565635Y-99946027D01*
X211712027Y-99799635D01*
X211884165Y-99684616D01*
X211884167Y-99684615D01*
X212075436Y-99605389D01*
X212278484Y-99565000D01*
X212485516Y-99565000D01*
X212688564Y-99605389D01*
X212688564Y-99605389D01*
G37*
G36*
X205507271Y-98234103D02*
G01*
X205563635Y-98239654D01*
X205780600Y-98305470D01*
X205780602Y-98305471D01*
X205980555Y-98412347D01*
X206155818Y-98556182D01*
X206299653Y-98731445D01*
X206348496Y-98822825D01*
X206406530Y-98931400D01*
X206472346Y-99148365D01*
X206494569Y-99374000D01*
X206472346Y-99599635D01*
X206410543Y-99803372D01*
X206406529Y-99816602D01*
X206299653Y-100016555D01*
X206155818Y-100191818D01*
X205980555Y-100335653D01*
X205780602Y-100442529D01*
X205780600Y-100442530D01*
X205563635Y-100508346D01*
X205507271Y-100513897D01*
X205394545Y-100525000D01*
X205281455Y-100525000D01*
X205168729Y-100513897D01*
X205112365Y-100508346D01*
X204895400Y-100442530D01*
X204895398Y-100442529D01*
X204695445Y-100335653D01*
X204520182Y-100191818D01*
X204376347Y-100016555D01*
X204269471Y-99816602D01*
X204265458Y-99803372D01*
X204203654Y-99599635D01*
X204181431Y-99374000D01*
X204203654Y-99148365D01*
X204269470Y-98931400D01*
X204327504Y-98822825D01*
X204376347Y-98731445D01*
X204520182Y-98556182D01*
X204695445Y-98412347D01*
X204895398Y-98305471D01*
X204895400Y-98305470D01*
X205112365Y-98239654D01*
X205168729Y-98234103D01*
X205281455Y-98223000D01*
X205394545Y-98223000D01*
X205507271Y-98234103D01*
X205507271Y-98234103D01*
G37*
G36*
X195059000Y-100525000D02*
G01*
X192757000Y-100525000D01*
X192757000Y-98223000D01*
X195059000Y-98223000D01*
X195059000Y-100525000D01*
X195059000Y-100525000D01*
G37*
G36*
X202679000Y-100525000D02*
G01*
X200377000Y-100525000D01*
X200377000Y-98223000D01*
X202679000Y-98223000D01*
X202679000Y-100525000D01*
X202679000Y-100525000D01*
G37*
G36*
X197887271Y-98234103D02*
G01*
X197943635Y-98239654D01*
X198160600Y-98305470D01*
X198160602Y-98305471D01*
X198360555Y-98412347D01*
X198535818Y-98556182D01*
X198679653Y-98731445D01*
X198728496Y-98822825D01*
X198786530Y-98931400D01*
X198852346Y-99148365D01*
X198874569Y-99374000D01*
X198852346Y-99599635D01*
X198790543Y-99803372D01*
X198786529Y-99816602D01*
X198679653Y-100016555D01*
X198535818Y-100191818D01*
X198360555Y-100335653D01*
X198160602Y-100442529D01*
X198160600Y-100442530D01*
X197943635Y-100508346D01*
X197887271Y-100513897D01*
X197774545Y-100525000D01*
X197661455Y-100525000D01*
X197548729Y-100513897D01*
X197492365Y-100508346D01*
X197275400Y-100442530D01*
X197275398Y-100442529D01*
X197075445Y-100335653D01*
X196900182Y-100191818D01*
X196756347Y-100016555D01*
X196649471Y-99816602D01*
X196645458Y-99803372D01*
X196583654Y-99599635D01*
X196561431Y-99374000D01*
X196583654Y-99148365D01*
X196649470Y-98931400D01*
X196707504Y-98822825D01*
X196756347Y-98731445D01*
X196900182Y-98556182D01*
X197075445Y-98412347D01*
X197275398Y-98305471D01*
X197275400Y-98305470D01*
X197492365Y-98239654D01*
X197548729Y-98234103D01*
X197661455Y-98223000D01*
X197774545Y-98223000D01*
X197887271Y-98234103D01*
X197887271Y-98234103D01*
G37*
G36*
X220116928Y-99802764D02*
G01*
X220138009Y-99809160D01*
X220157445Y-99819548D01*
X220174476Y-99833524D01*
X220188452Y-99850555D01*
X220198840Y-99869991D01*
X220205236Y-99891072D01*
X220208000Y-99919140D01*
X220208000Y-100382860D01*
X220205236Y-100410928D01*
X220198840Y-100432009D01*
X220188452Y-100451445D01*
X220174476Y-100468476D01*
X220157445Y-100482452D01*
X220138009Y-100492840D01*
X220116928Y-100499236D01*
X220088860Y-100502000D01*
X218175140Y-100502000D01*
X218147072Y-100499236D01*
X218125991Y-100492840D01*
X218106555Y-100482452D01*
X218089524Y-100468476D01*
X218075548Y-100451445D01*
X218065160Y-100432009D01*
X218058764Y-100410928D01*
X218056000Y-100382860D01*
X218056000Y-99919140D01*
X218058764Y-99891072D01*
X218065160Y-99869991D01*
X218075548Y-99850555D01*
X218089524Y-99833524D01*
X218106555Y-99819548D01*
X218125991Y-99809160D01*
X218147072Y-99802764D01*
X218175140Y-99800000D01*
X220088860Y-99800000D01*
X220116928Y-99802764D01*
X220116928Y-99802764D01*
G37*
G36*
X229416928Y-99802764D02*
G01*
X229438009Y-99809160D01*
X229457445Y-99819548D01*
X229474476Y-99833524D01*
X229488452Y-99850555D01*
X229498840Y-99869991D01*
X229505236Y-99891072D01*
X229508000Y-99919140D01*
X229508000Y-100382860D01*
X229505236Y-100410928D01*
X229498840Y-100432009D01*
X229488452Y-100451445D01*
X229474476Y-100468476D01*
X229457445Y-100482452D01*
X229438009Y-100492840D01*
X229416928Y-100499236D01*
X229388860Y-100502000D01*
X227475140Y-100502000D01*
X227447072Y-100499236D01*
X227425991Y-100492840D01*
X227406555Y-100482452D01*
X227389524Y-100468476D01*
X227375548Y-100451445D01*
X227365160Y-100432009D01*
X227358764Y-100410928D01*
X227356000Y-100382860D01*
X227356000Y-99919140D01*
X227358764Y-99891072D01*
X227365160Y-99869991D01*
X227375548Y-99850555D01*
X227389524Y-99833524D01*
X227406555Y-99819548D01*
X227425991Y-99809160D01*
X227447072Y-99802764D01*
X227475140Y-99800000D01*
X229388860Y-99800000D01*
X229416928Y-99802764D01*
X229416928Y-99802764D01*
G37*
G36*
X239148823Y-97817313D02*
G01*
X239233039Y-97842860D01*
X239295562Y-97861826D01*
X239309242Y-97865976D01*
X239357946Y-97892009D01*
X239457078Y-97944996D01*
X239586659Y-98051341D01*
X239693004Y-98180922D01*
X239693005Y-98180924D01*
X239772024Y-98328758D01*
X239820687Y-98489177D01*
X239837117Y-98656000D01*
X239820687Y-98822823D01*
X239772024Y-98983242D01*
X239714566Y-99090738D01*
X239693004Y-99131078D01*
X239586659Y-99260659D01*
X239457078Y-99367004D01*
X239457076Y-99367005D01*
X239309242Y-99446024D01*
X239148823Y-99494687D01*
X239023804Y-99507000D01*
X238940196Y-99507000D01*
X238815177Y-99494687D01*
X238654758Y-99446024D01*
X238506924Y-99367005D01*
X238506922Y-99367004D01*
X238377341Y-99260659D01*
X238270996Y-99131078D01*
X238249434Y-99090738D01*
X238191976Y-98983242D01*
X238143313Y-98822823D01*
X238126883Y-98656000D01*
X238143313Y-98489177D01*
X238191976Y-98328758D01*
X238270995Y-98180924D01*
X238270996Y-98180922D01*
X238377341Y-98051341D01*
X238506922Y-97944996D01*
X238606054Y-97892009D01*
X238654758Y-97865976D01*
X238668439Y-97861826D01*
X238730961Y-97842860D01*
X238815177Y-97817313D01*
X238940196Y-97805000D01*
X239023804Y-97805000D01*
X239148823Y-97817313D01*
X239148823Y-97817313D01*
G37*
G36*
X231528823Y-97817313D02*
G01*
X231613039Y-97842860D01*
X231675562Y-97861826D01*
X231689242Y-97865976D01*
X231737946Y-97892009D01*
X231837078Y-97944996D01*
X231966659Y-98051341D01*
X232073004Y-98180922D01*
X232073005Y-98180924D01*
X232152024Y-98328758D01*
X232200687Y-98489177D01*
X232217117Y-98656000D01*
X232200687Y-98822823D01*
X232152024Y-98983242D01*
X232094566Y-99090738D01*
X232073004Y-99131078D01*
X231966659Y-99260659D01*
X231837078Y-99367004D01*
X231837076Y-99367005D01*
X231689242Y-99446024D01*
X231528823Y-99494687D01*
X231403804Y-99507000D01*
X231320196Y-99507000D01*
X231195177Y-99494687D01*
X231034758Y-99446024D01*
X230886924Y-99367005D01*
X230886922Y-99367004D01*
X230757341Y-99260659D01*
X230650996Y-99131078D01*
X230629434Y-99090738D01*
X230571976Y-98983242D01*
X230523313Y-98822823D01*
X230506883Y-98656000D01*
X230523313Y-98489177D01*
X230571976Y-98328758D01*
X230650995Y-98180924D01*
X230650996Y-98180922D01*
X230757341Y-98051341D01*
X230886922Y-97944996D01*
X230986054Y-97892009D01*
X231034758Y-97865976D01*
X231048439Y-97861826D01*
X231110961Y-97842860D01*
X231195177Y-97817313D01*
X231320196Y-97805000D01*
X231403804Y-97805000D01*
X231528823Y-97817313D01*
X231528823Y-97817313D01*
G37*
G36*
X229416928Y-98532764D02*
G01*
X229438009Y-98539160D01*
X229457445Y-98549548D01*
X229474476Y-98563524D01*
X229488452Y-98580555D01*
X229498840Y-98599991D01*
X229505236Y-98621072D01*
X229508000Y-98649140D01*
X229508000Y-99112860D01*
X229505236Y-99140928D01*
X229498840Y-99162009D01*
X229488452Y-99181445D01*
X229474476Y-99198476D01*
X229457445Y-99212452D01*
X229438009Y-99222840D01*
X229416928Y-99229236D01*
X229388860Y-99232000D01*
X227475140Y-99232000D01*
X227447072Y-99229236D01*
X227425991Y-99222840D01*
X227406555Y-99212452D01*
X227389524Y-99198476D01*
X227375548Y-99181445D01*
X227365160Y-99162009D01*
X227358764Y-99140928D01*
X227356000Y-99112860D01*
X227356000Y-98649140D01*
X227358764Y-98621072D01*
X227365160Y-98599991D01*
X227375548Y-98580555D01*
X227389524Y-98563524D01*
X227406555Y-98549548D01*
X227425991Y-98539160D01*
X227447072Y-98532764D01*
X227475140Y-98530000D01*
X229388860Y-98530000D01*
X229416928Y-98532764D01*
X229416928Y-98532764D01*
G37*
G36*
X220116928Y-98532764D02*
G01*
X220138009Y-98539160D01*
X220157445Y-98549548D01*
X220174476Y-98563524D01*
X220188452Y-98580555D01*
X220198840Y-98599991D01*
X220205236Y-98621072D01*
X220208000Y-98649140D01*
X220208000Y-99112860D01*
X220205236Y-99140928D01*
X220198840Y-99162009D01*
X220188452Y-99181445D01*
X220174476Y-99198476D01*
X220157445Y-99212452D01*
X220138009Y-99222840D01*
X220116928Y-99229236D01*
X220088860Y-99232000D01*
X218175140Y-99232000D01*
X218147072Y-99229236D01*
X218125991Y-99222840D01*
X218106555Y-99212452D01*
X218089524Y-99198476D01*
X218075548Y-99181445D01*
X218065160Y-99162009D01*
X218058764Y-99140928D01*
X218056000Y-99112860D01*
X218056000Y-98649140D01*
X218058764Y-98621072D01*
X218065160Y-98599991D01*
X218075548Y-98580555D01*
X218089524Y-98563524D01*
X218106555Y-98549548D01*
X218125991Y-98539160D01*
X218147072Y-98532764D01*
X218175140Y-98530000D01*
X220088860Y-98530000D01*
X220116928Y-98532764D01*
X220116928Y-98532764D01*
G37*
G36*
X220116928Y-97262764D02*
G01*
X220138009Y-97269160D01*
X220157445Y-97279548D01*
X220174476Y-97293524D01*
X220188452Y-97310555D01*
X220198840Y-97329991D01*
X220205236Y-97351072D01*
X220208000Y-97379140D01*
X220208000Y-97842860D01*
X220205236Y-97870928D01*
X220198840Y-97892009D01*
X220188452Y-97911445D01*
X220174476Y-97928476D01*
X220157445Y-97942452D01*
X220138009Y-97952840D01*
X220116928Y-97959236D01*
X220088860Y-97962000D01*
X218175140Y-97962000D01*
X218147072Y-97959236D01*
X218125991Y-97952840D01*
X218106555Y-97942452D01*
X218089524Y-97928476D01*
X218075548Y-97911445D01*
X218065160Y-97892009D01*
X218058764Y-97870928D01*
X218056000Y-97842860D01*
X218056000Y-97379140D01*
X218058764Y-97351072D01*
X218065160Y-97329991D01*
X218075548Y-97310555D01*
X218089524Y-97293524D01*
X218106555Y-97279548D01*
X218125991Y-97269160D01*
X218147072Y-97262764D01*
X218175140Y-97260000D01*
X220088860Y-97260000D01*
X220116928Y-97262764D01*
X220116928Y-97262764D01*
G37*
G36*
X229416928Y-97262764D02*
G01*
X229438009Y-97269160D01*
X229457445Y-97279548D01*
X229474476Y-97293524D01*
X229488452Y-97310555D01*
X229498840Y-97329991D01*
X229505236Y-97351072D01*
X229508000Y-97379140D01*
X229508000Y-97842860D01*
X229505236Y-97870928D01*
X229498840Y-97892009D01*
X229488452Y-97911445D01*
X229474476Y-97928476D01*
X229457445Y-97942452D01*
X229438009Y-97952840D01*
X229416928Y-97959236D01*
X229388860Y-97962000D01*
X227475140Y-97962000D01*
X227447072Y-97959236D01*
X227425991Y-97952840D01*
X227406555Y-97942452D01*
X227389524Y-97928476D01*
X227375548Y-97911445D01*
X227365160Y-97892009D01*
X227358764Y-97870928D01*
X227356000Y-97842860D01*
X227356000Y-97379140D01*
X227358764Y-97351072D01*
X227365160Y-97329991D01*
X227375548Y-97310555D01*
X227389524Y-97293524D01*
X227406555Y-97279548D01*
X227425991Y-97269160D01*
X227447072Y-97262764D01*
X227475140Y-97260000D01*
X229388860Y-97260000D01*
X229416928Y-97262764D01*
X229416928Y-97262764D01*
G37*
G36*
X217291468Y-96369565D02*
G01*
X217330138Y-96381296D01*
X217365777Y-96400346D01*
X217397017Y-96425983D01*
X217422654Y-96457223D01*
X217441704Y-96492862D01*
X217453435Y-96531532D01*
X217458000Y-96577888D01*
X217458000Y-97654112D01*
X217453435Y-97700468D01*
X217441704Y-97739138D01*
X217422654Y-97774777D01*
X217397017Y-97806017D01*
X217365777Y-97831654D01*
X217330138Y-97850704D01*
X217291468Y-97862435D01*
X217245112Y-97867000D01*
X216593888Y-97867000D01*
X216547532Y-97862435D01*
X216508862Y-97850704D01*
X216473223Y-97831654D01*
X216441983Y-97806017D01*
X216416346Y-97774777D01*
X216397296Y-97739138D01*
X216385565Y-97700468D01*
X216381000Y-97654112D01*
X216381000Y-96577888D01*
X216385565Y-96531532D01*
X216397296Y-96492862D01*
X216416346Y-96457223D01*
X216441983Y-96425983D01*
X216473223Y-96400346D01*
X216508862Y-96381296D01*
X216547532Y-96369565D01*
X216593888Y-96365000D01*
X217245112Y-96365000D01*
X217291468Y-96369565D01*
X217291468Y-96369565D01*
G37*
G36*
X215416468Y-96369565D02*
G01*
X215455138Y-96381296D01*
X215490777Y-96400346D01*
X215522017Y-96425983D01*
X215547654Y-96457223D01*
X215566704Y-96492862D01*
X215578435Y-96531532D01*
X215583000Y-96577888D01*
X215583000Y-97654112D01*
X215578435Y-97700468D01*
X215566704Y-97739138D01*
X215547654Y-97774777D01*
X215522017Y-97806017D01*
X215490777Y-97831654D01*
X215455138Y-97850704D01*
X215416468Y-97862435D01*
X215370112Y-97867000D01*
X214718888Y-97867000D01*
X214672532Y-97862435D01*
X214633862Y-97850704D01*
X214598223Y-97831654D01*
X214566983Y-97806017D01*
X214541346Y-97774777D01*
X214522296Y-97739138D01*
X214510565Y-97700468D01*
X214506000Y-97654112D01*
X214506000Y-96577888D01*
X214510565Y-96531532D01*
X214522296Y-96492862D01*
X214541346Y-96457223D01*
X214566983Y-96425983D01*
X214598223Y-96400346D01*
X214633862Y-96381296D01*
X214672532Y-96369565D01*
X214718888Y-96365000D01*
X215370112Y-96365000D01*
X215416468Y-96369565D01*
X215416468Y-96369565D01*
G37*
G36*
X231528823Y-95277313D02*
G01*
X231689242Y-95325976D01*
X231737946Y-95352009D01*
X231837078Y-95404996D01*
X231966659Y-95511341D01*
X232073004Y-95640922D01*
X232073005Y-95640924D01*
X232152024Y-95788758D01*
X232200687Y-95949177D01*
X232217117Y-96116000D01*
X232200687Y-96282823D01*
X232152024Y-96443242D01*
X232105003Y-96531212D01*
X232073004Y-96591078D01*
X231966659Y-96720659D01*
X231837078Y-96827004D01*
X231837076Y-96827005D01*
X231689242Y-96906024D01*
X231528823Y-96954687D01*
X231403804Y-96967000D01*
X231320196Y-96967000D01*
X231195177Y-96954687D01*
X231034758Y-96906024D01*
X230886924Y-96827005D01*
X230886922Y-96827004D01*
X230757341Y-96720659D01*
X230650996Y-96591078D01*
X230618997Y-96531212D01*
X230571976Y-96443242D01*
X230523313Y-96282823D01*
X230506883Y-96116000D01*
X230523313Y-95949177D01*
X230571976Y-95788758D01*
X230650995Y-95640924D01*
X230650996Y-95640922D01*
X230757341Y-95511341D01*
X230886922Y-95404996D01*
X230986054Y-95352009D01*
X231034758Y-95325976D01*
X231195177Y-95277313D01*
X231320196Y-95265000D01*
X231403804Y-95265000D01*
X231528823Y-95277313D01*
X231528823Y-95277313D01*
G37*
G36*
X239148823Y-95277313D02*
G01*
X239309242Y-95325976D01*
X239357946Y-95352009D01*
X239457078Y-95404996D01*
X239586659Y-95511341D01*
X239693004Y-95640922D01*
X239693005Y-95640924D01*
X239772024Y-95788758D01*
X239820687Y-95949177D01*
X239837117Y-96116000D01*
X239820687Y-96282823D01*
X239772024Y-96443242D01*
X239725003Y-96531212D01*
X239693004Y-96591078D01*
X239586659Y-96720659D01*
X239457078Y-96827004D01*
X239457076Y-96827005D01*
X239309242Y-96906024D01*
X239148823Y-96954687D01*
X239023804Y-96967000D01*
X238940196Y-96967000D01*
X238815177Y-96954687D01*
X238654758Y-96906024D01*
X238506924Y-96827005D01*
X238506922Y-96827004D01*
X238377341Y-96720659D01*
X238270996Y-96591078D01*
X238238997Y-96531212D01*
X238191976Y-96443242D01*
X238143313Y-96282823D01*
X238126883Y-96116000D01*
X238143313Y-95949177D01*
X238191976Y-95788758D01*
X238270995Y-95640924D01*
X238270996Y-95640922D01*
X238377341Y-95511341D01*
X238506922Y-95404996D01*
X238606054Y-95352009D01*
X238654758Y-95325976D01*
X238815177Y-95277313D01*
X238940196Y-95265000D01*
X239023804Y-95265000D01*
X239148823Y-95277313D01*
X239148823Y-95277313D01*
G37*
G36*
X229416928Y-95992764D02*
G01*
X229438009Y-95999160D01*
X229457445Y-96009548D01*
X229474476Y-96023524D01*
X229488452Y-96040555D01*
X229498840Y-96059991D01*
X229505236Y-96081072D01*
X229508000Y-96109140D01*
X229508000Y-96572860D01*
X229505236Y-96600928D01*
X229498840Y-96622009D01*
X229488452Y-96641445D01*
X229474476Y-96658476D01*
X229457445Y-96672452D01*
X229438009Y-96682840D01*
X229416928Y-96689236D01*
X229388860Y-96692000D01*
X227475140Y-96692000D01*
X227447072Y-96689236D01*
X227425991Y-96682840D01*
X227406555Y-96672452D01*
X227389524Y-96658476D01*
X227375548Y-96641445D01*
X227365160Y-96622009D01*
X227358764Y-96600928D01*
X227356000Y-96572860D01*
X227356000Y-96109140D01*
X227358764Y-96081072D01*
X227365160Y-96059991D01*
X227375548Y-96040555D01*
X227389524Y-96023524D01*
X227406555Y-96009548D01*
X227425991Y-95999160D01*
X227447072Y-95992764D01*
X227475140Y-95990000D01*
X229388860Y-95990000D01*
X229416928Y-95992764D01*
X229416928Y-95992764D01*
G37*
G36*
X220116928Y-95992764D02*
G01*
X220138009Y-95999160D01*
X220157445Y-96009548D01*
X220174476Y-96023524D01*
X220188452Y-96040555D01*
X220198840Y-96059991D01*
X220205236Y-96081072D01*
X220208000Y-96109140D01*
X220208000Y-96572860D01*
X220205236Y-96600928D01*
X220198840Y-96622009D01*
X220188452Y-96641445D01*
X220174476Y-96658476D01*
X220157445Y-96672452D01*
X220138009Y-96682840D01*
X220116928Y-96689236D01*
X220088860Y-96692000D01*
X218175140Y-96692000D01*
X218147072Y-96689236D01*
X218125991Y-96682840D01*
X218106555Y-96672452D01*
X218089524Y-96658476D01*
X218075548Y-96641445D01*
X218065160Y-96622009D01*
X218058764Y-96600928D01*
X218056000Y-96572860D01*
X218056000Y-96109140D01*
X218058764Y-96081072D01*
X218065160Y-96059991D01*
X218075548Y-96040555D01*
X218089524Y-96023524D01*
X218106555Y-96009548D01*
X218125991Y-95999160D01*
X218147072Y-95992764D01*
X218175140Y-95990000D01*
X220088860Y-95990000D01*
X220116928Y-95992764D01*
X220116928Y-95992764D01*
G37*
G36*
X216783000Y-95617000D02*
G01*
X215781000Y-95617000D01*
X215781000Y-94715000D01*
X216783000Y-94715000D01*
X216783000Y-95617000D01*
X216783000Y-95617000D01*
G37*
G36*
X229416928Y-94722764D02*
G01*
X229438009Y-94729160D01*
X229457445Y-94739548D01*
X229474476Y-94753524D01*
X229488452Y-94770555D01*
X229498840Y-94789991D01*
X229505236Y-94811072D01*
X229508000Y-94839140D01*
X229508000Y-95302860D01*
X229505236Y-95330928D01*
X229498840Y-95352009D01*
X229488452Y-95371445D01*
X229474476Y-95388476D01*
X229457445Y-95402452D01*
X229438009Y-95412840D01*
X229416928Y-95419236D01*
X229388860Y-95422000D01*
X227475140Y-95422000D01*
X227447072Y-95419236D01*
X227425991Y-95412840D01*
X227406555Y-95402452D01*
X227389524Y-95388476D01*
X227375548Y-95371445D01*
X227365160Y-95352009D01*
X227358764Y-95330928D01*
X227356000Y-95302860D01*
X227356000Y-94839140D01*
X227358764Y-94811072D01*
X227365160Y-94789991D01*
X227375548Y-94770555D01*
X227389524Y-94753524D01*
X227406555Y-94739548D01*
X227425991Y-94729160D01*
X227447072Y-94722764D01*
X227475140Y-94720000D01*
X229388860Y-94720000D01*
X229416928Y-94722764D01*
X229416928Y-94722764D01*
G37*
G36*
X220116928Y-94722764D02*
G01*
X220138009Y-94729160D01*
X220157445Y-94739548D01*
X220174476Y-94753524D01*
X220188452Y-94770555D01*
X220198840Y-94789991D01*
X220205236Y-94811072D01*
X220208000Y-94839140D01*
X220208000Y-95302860D01*
X220205236Y-95330928D01*
X220198840Y-95352009D01*
X220188452Y-95371445D01*
X220174476Y-95388476D01*
X220157445Y-95402452D01*
X220138009Y-95412840D01*
X220116928Y-95419236D01*
X220088860Y-95422000D01*
X218175140Y-95422000D01*
X218147072Y-95419236D01*
X218125991Y-95412840D01*
X218106555Y-95402452D01*
X218089524Y-95388476D01*
X218075548Y-95371445D01*
X218065160Y-95352009D01*
X218058764Y-95330928D01*
X218056000Y-95302860D01*
X218056000Y-94839140D01*
X218058764Y-94811072D01*
X218065160Y-94789991D01*
X218075548Y-94770555D01*
X218089524Y-94753524D01*
X218106555Y-94739548D01*
X218125991Y-94729160D01*
X218147072Y-94722764D01*
X218175140Y-94720000D01*
X220088860Y-94720000D01*
X220116928Y-94722764D01*
X220116928Y-94722764D01*
G37*
G36*
X214783000Y-94667000D02*
G01*
X213781000Y-94667000D01*
X213781000Y-93765000D01*
X214783000Y-93765000D01*
X214783000Y-94667000D01*
X214783000Y-94667000D01*
G37*
G36*
X231528823Y-92737313D02*
G01*
X231689242Y-92785976D01*
X231821906Y-92856886D01*
X231837078Y-92864996D01*
X231966659Y-92971341D01*
X232073004Y-93100922D01*
X232073005Y-93100924D01*
X232152024Y-93248758D01*
X232200687Y-93409177D01*
X232217117Y-93576000D01*
X232200687Y-93742823D01*
X232152024Y-93903242D01*
X232094566Y-94010738D01*
X232073004Y-94051078D01*
X231966659Y-94180659D01*
X231837078Y-94287004D01*
X231837076Y-94287005D01*
X231689242Y-94366024D01*
X231528823Y-94414687D01*
X231403804Y-94427000D01*
X231320196Y-94427000D01*
X231195177Y-94414687D01*
X231034758Y-94366024D01*
X230886924Y-94287005D01*
X230886922Y-94287004D01*
X230757341Y-94180659D01*
X230650996Y-94051078D01*
X230629434Y-94010738D01*
X230571976Y-93903242D01*
X230523313Y-93742823D01*
X230506883Y-93576000D01*
X230523313Y-93409177D01*
X230571976Y-93248758D01*
X230650995Y-93100924D01*
X230650996Y-93100922D01*
X230757341Y-92971341D01*
X230886922Y-92864996D01*
X230902094Y-92856886D01*
X231034758Y-92785976D01*
X231195177Y-92737313D01*
X231320196Y-92725000D01*
X231403804Y-92725000D01*
X231528823Y-92737313D01*
X231528823Y-92737313D01*
G37*
G36*
X239148823Y-92737313D02*
G01*
X239309242Y-92785976D01*
X239441906Y-92856886D01*
X239457078Y-92864996D01*
X239586659Y-92971341D01*
X239693004Y-93100922D01*
X239693005Y-93100924D01*
X239772024Y-93248758D01*
X239820687Y-93409177D01*
X239837117Y-93576000D01*
X239820687Y-93742823D01*
X239772024Y-93903242D01*
X239714566Y-94010738D01*
X239693004Y-94051078D01*
X239586659Y-94180659D01*
X239457078Y-94287004D01*
X239457076Y-94287005D01*
X239309242Y-94366024D01*
X239148823Y-94414687D01*
X239023804Y-94427000D01*
X238940196Y-94427000D01*
X238815177Y-94414687D01*
X238654758Y-94366024D01*
X238506924Y-94287005D01*
X238506922Y-94287004D01*
X238377341Y-94180659D01*
X238270996Y-94051078D01*
X238249434Y-94010738D01*
X238191976Y-93903242D01*
X238143313Y-93742823D01*
X238126883Y-93576000D01*
X238143313Y-93409177D01*
X238191976Y-93248758D01*
X238270995Y-93100924D01*
X238270996Y-93100922D01*
X238377341Y-92971341D01*
X238506922Y-92864996D01*
X238522094Y-92856886D01*
X238654758Y-92785976D01*
X238815177Y-92737313D01*
X238940196Y-92725000D01*
X239023804Y-92725000D01*
X239148823Y-92737313D01*
X239148823Y-92737313D01*
G37*
G36*
X220116928Y-93452764D02*
G01*
X220138009Y-93459160D01*
X220157445Y-93469548D01*
X220174476Y-93483524D01*
X220188452Y-93500555D01*
X220198840Y-93519991D01*
X220205236Y-93541072D01*
X220208000Y-93569140D01*
X220208000Y-94032860D01*
X220205236Y-94060928D01*
X220198840Y-94082009D01*
X220188452Y-94101445D01*
X220174476Y-94118476D01*
X220157445Y-94132452D01*
X220138009Y-94142840D01*
X220116928Y-94149236D01*
X220088860Y-94152000D01*
X218175140Y-94152000D01*
X218147072Y-94149236D01*
X218125991Y-94142840D01*
X218106555Y-94132452D01*
X218089524Y-94118476D01*
X218075548Y-94101445D01*
X218065160Y-94082009D01*
X218058764Y-94060928D01*
X218056000Y-94032860D01*
X218056000Y-93569140D01*
X218058764Y-93541072D01*
X218065160Y-93519991D01*
X218075548Y-93500555D01*
X218089524Y-93483524D01*
X218106555Y-93469548D01*
X218125991Y-93459160D01*
X218147072Y-93452764D01*
X218175140Y-93450000D01*
X220088860Y-93450000D01*
X220116928Y-93452764D01*
X220116928Y-93452764D01*
G37*
G36*
X229416928Y-93452764D02*
G01*
X229438009Y-93459160D01*
X229457445Y-93469548D01*
X229474476Y-93483524D01*
X229488452Y-93500555D01*
X229498840Y-93519991D01*
X229505236Y-93541072D01*
X229508000Y-93569140D01*
X229508000Y-94032860D01*
X229505236Y-94060928D01*
X229498840Y-94082009D01*
X229488452Y-94101445D01*
X229474476Y-94118476D01*
X229457445Y-94132452D01*
X229438009Y-94142840D01*
X229416928Y-94149236D01*
X229388860Y-94152000D01*
X227475140Y-94152000D01*
X227447072Y-94149236D01*
X227425991Y-94142840D01*
X227406555Y-94132452D01*
X227389524Y-94118476D01*
X227375548Y-94101445D01*
X227365160Y-94082009D01*
X227358764Y-94060928D01*
X227356000Y-94032860D01*
X227356000Y-93569140D01*
X227358764Y-93541072D01*
X227365160Y-93519991D01*
X227375548Y-93500555D01*
X227389524Y-93483524D01*
X227406555Y-93469548D01*
X227425991Y-93459160D01*
X227447072Y-93452764D01*
X227475140Y-93450000D01*
X229388860Y-93450000D01*
X229416928Y-93452764D01*
X229416928Y-93452764D01*
G37*
G36*
X216783000Y-93717000D02*
G01*
X215781000Y-93717000D01*
X215781000Y-92815000D01*
X216783000Y-92815000D01*
X216783000Y-93717000D01*
X216783000Y-93717000D01*
G37*
G36*
X200797487Y-91064996D02*
G01*
X201034253Y-91163068D01*
X201034255Y-91163069D01*
X201093751Y-91202823D01*
X201247339Y-91305447D01*
X201428553Y-91486661D01*
X201570932Y-91699747D01*
X201669004Y-91936513D01*
X201719000Y-92187861D01*
X201719000Y-92444139D01*
X201669004Y-92695487D01*
X201631522Y-92785976D01*
X201570931Y-92932255D01*
X201428553Y-93145339D01*
X201247339Y-93326553D01*
X201034255Y-93468931D01*
X201034254Y-93468932D01*
X201034253Y-93468932D01*
X200797487Y-93567004D01*
X200546139Y-93617000D01*
X200289861Y-93617000D01*
X200038513Y-93567004D01*
X199801747Y-93468932D01*
X199801746Y-93468932D01*
X199801745Y-93468931D01*
X199588661Y-93326553D01*
X199407447Y-93145339D01*
X199265069Y-92932255D01*
X199204478Y-92785976D01*
X199166996Y-92695487D01*
X199117000Y-92444139D01*
X199117000Y-92187861D01*
X199166996Y-91936513D01*
X199265068Y-91699747D01*
X199407447Y-91486661D01*
X199588661Y-91305447D01*
X199742249Y-91202823D01*
X199801745Y-91163069D01*
X199801747Y-91163068D01*
X200038513Y-91064996D01*
X200289861Y-91015000D01*
X200546139Y-91015000D01*
X200797487Y-91064996D01*
X200797487Y-91064996D01*
G37*
G36*
X195797487Y-91064996D02*
G01*
X196034253Y-91163068D01*
X196034255Y-91163069D01*
X196093751Y-91202823D01*
X196247339Y-91305447D01*
X196428553Y-91486661D01*
X196570932Y-91699747D01*
X196669004Y-91936513D01*
X196719000Y-92187861D01*
X196719000Y-92444139D01*
X196669004Y-92695487D01*
X196631522Y-92785976D01*
X196570931Y-92932255D01*
X196428553Y-93145339D01*
X196247339Y-93326553D01*
X196034255Y-93468931D01*
X196034254Y-93468932D01*
X196034253Y-93468932D01*
X195797487Y-93567004D01*
X195546139Y-93617000D01*
X195289861Y-93617000D01*
X195038513Y-93567004D01*
X194801747Y-93468932D01*
X194801746Y-93468932D01*
X194801745Y-93468931D01*
X194588661Y-93326553D01*
X194407447Y-93145339D01*
X194265069Y-92932255D01*
X194204478Y-92785976D01*
X194166996Y-92695487D01*
X194117000Y-92444139D01*
X194117000Y-92187861D01*
X194166996Y-91936513D01*
X194265068Y-91699747D01*
X194407447Y-91486661D01*
X194588661Y-91305447D01*
X194742249Y-91202823D01*
X194801745Y-91163069D01*
X194801747Y-91163068D01*
X195038513Y-91064996D01*
X195289861Y-91015000D01*
X195546139Y-91015000D01*
X195797487Y-91064996D01*
X195797487Y-91064996D01*
G37*
G36*
X205797487Y-91064996D02*
G01*
X206034253Y-91163068D01*
X206034255Y-91163069D01*
X206093751Y-91202823D01*
X206247339Y-91305447D01*
X206428553Y-91486661D01*
X206570932Y-91699747D01*
X206669004Y-91936513D01*
X206719000Y-92187861D01*
X206719000Y-92444139D01*
X206669004Y-92695487D01*
X206631522Y-92785976D01*
X206570931Y-92932255D01*
X206428553Y-93145339D01*
X206247339Y-93326553D01*
X206034255Y-93468931D01*
X206034254Y-93468932D01*
X206034253Y-93468932D01*
X205797487Y-93567004D01*
X205546139Y-93617000D01*
X205289861Y-93617000D01*
X205038513Y-93567004D01*
X204801747Y-93468932D01*
X204801746Y-93468932D01*
X204801745Y-93468931D01*
X204588661Y-93326553D01*
X204407447Y-93145339D01*
X204265069Y-92932255D01*
X204204478Y-92785976D01*
X204166996Y-92695487D01*
X204117000Y-92444139D01*
X204117000Y-92187861D01*
X204166996Y-91936513D01*
X204265068Y-91699747D01*
X204407447Y-91486661D01*
X204588661Y-91305447D01*
X204742249Y-91202823D01*
X204801745Y-91163069D01*
X204801747Y-91163068D01*
X205038513Y-91064996D01*
X205289861Y-91015000D01*
X205546139Y-91015000D01*
X205797487Y-91064996D01*
X205797487Y-91064996D01*
G37*
G36*
X211719000Y-93617000D02*
G01*
X209117000Y-93617000D01*
X209117000Y-91015000D01*
X211719000Y-91015000D01*
X211719000Y-93617000D01*
X211719000Y-93617000D01*
G37*
G36*
X219052442Y-90121518D02*
G01*
X219118627Y-90128037D01*
X219288466Y-90179557D01*
X219444991Y-90263222D01*
X219480729Y-90292552D01*
X219582186Y-90375814D01*
X219665448Y-90477271D01*
X219694778Y-90513009D01*
X219778443Y-90669534D01*
X219829963Y-90839373D01*
X219847359Y-91016000D01*
X219829963Y-91192627D01*
X219778443Y-91362466D01*
X219694778Y-91518991D01*
X219665448Y-91554729D01*
X219582186Y-91656186D01*
X219480729Y-91739448D01*
X219444991Y-91768778D01*
X219288466Y-91852443D01*
X219118627Y-91903963D01*
X219052443Y-91910481D01*
X218986260Y-91917000D01*
X218897740Y-91917000D01*
X218831557Y-91910481D01*
X218765373Y-91903963D01*
X218595534Y-91852443D01*
X218439009Y-91768778D01*
X218403271Y-91739448D01*
X218301814Y-91656186D01*
X218218552Y-91554729D01*
X218189222Y-91518991D01*
X218105557Y-91362466D01*
X218054037Y-91192627D01*
X218036641Y-91016000D01*
X218054037Y-90839373D01*
X218105557Y-90669534D01*
X218189222Y-90513009D01*
X218218552Y-90477271D01*
X218301814Y-90375814D01*
X218403271Y-90292552D01*
X218439009Y-90263222D01*
X218595534Y-90179557D01*
X218765373Y-90128037D01*
X218831558Y-90121518D01*
X218897740Y-90115000D01*
X218986260Y-90115000D01*
X219052442Y-90121518D01*
X219052442Y-90121518D01*
G37*
G36*
X221592442Y-90121518D02*
G01*
X221658627Y-90128037D01*
X221828466Y-90179557D01*
X221984991Y-90263222D01*
X222020729Y-90292552D01*
X222122186Y-90375814D01*
X222205448Y-90477271D01*
X222234778Y-90513009D01*
X222318443Y-90669534D01*
X222369963Y-90839373D01*
X222387359Y-91016000D01*
X222369963Y-91192627D01*
X222318443Y-91362466D01*
X222234778Y-91518991D01*
X222205448Y-91554729D01*
X222122186Y-91656186D01*
X222020729Y-91739448D01*
X221984991Y-91768778D01*
X221828466Y-91852443D01*
X221658627Y-91903963D01*
X221592443Y-91910481D01*
X221526260Y-91917000D01*
X221437740Y-91917000D01*
X221371557Y-91910481D01*
X221305373Y-91903963D01*
X221135534Y-91852443D01*
X220979009Y-91768778D01*
X220943271Y-91739448D01*
X220841814Y-91656186D01*
X220758552Y-91554729D01*
X220729222Y-91518991D01*
X220645557Y-91362466D01*
X220594037Y-91192627D01*
X220576641Y-91016000D01*
X220594037Y-90839373D01*
X220645557Y-90669534D01*
X220729222Y-90513009D01*
X220758552Y-90477271D01*
X220841814Y-90375814D01*
X220943271Y-90292552D01*
X220979009Y-90263222D01*
X221135534Y-90179557D01*
X221305373Y-90128037D01*
X221371558Y-90121518D01*
X221437740Y-90115000D01*
X221526260Y-90115000D01*
X221592442Y-90121518D01*
X221592442Y-90121518D01*
G37*
G36*
X224132442Y-90121518D02*
G01*
X224198627Y-90128037D01*
X224368466Y-90179557D01*
X224524991Y-90263222D01*
X224560729Y-90292552D01*
X224662186Y-90375814D01*
X224745448Y-90477271D01*
X224774778Y-90513009D01*
X224858443Y-90669534D01*
X224909963Y-90839373D01*
X224927359Y-91016000D01*
X224909963Y-91192627D01*
X224858443Y-91362466D01*
X224774778Y-91518991D01*
X224745448Y-91554729D01*
X224662186Y-91656186D01*
X224560729Y-91739448D01*
X224524991Y-91768778D01*
X224368466Y-91852443D01*
X224198627Y-91903963D01*
X224132443Y-91910481D01*
X224066260Y-91917000D01*
X223977740Y-91917000D01*
X223911557Y-91910481D01*
X223845373Y-91903963D01*
X223675534Y-91852443D01*
X223519009Y-91768778D01*
X223483271Y-91739448D01*
X223381814Y-91656186D01*
X223298552Y-91554729D01*
X223269222Y-91518991D01*
X223185557Y-91362466D01*
X223134037Y-91192627D01*
X223116641Y-91016000D01*
X223134037Y-90839373D01*
X223185557Y-90669534D01*
X223269222Y-90513009D01*
X223298552Y-90477271D01*
X223381814Y-90375814D01*
X223483271Y-90292552D01*
X223519009Y-90263222D01*
X223675534Y-90179557D01*
X223845373Y-90128037D01*
X223911558Y-90121518D01*
X223977740Y-90115000D01*
X224066260Y-90115000D01*
X224132442Y-90121518D01*
X224132442Y-90121518D01*
G37*
G36*
X227463000Y-91917000D02*
G01*
X225661000Y-91917000D01*
X225661000Y-90115000D01*
X227463000Y-90115000D01*
X227463000Y-91917000D01*
X227463000Y-91917000D01*
G37*
G36*
X239148823Y-90197313D02*
G01*
X239309242Y-90245976D01*
X239441906Y-90316886D01*
X239457078Y-90324996D01*
X239586659Y-90431341D01*
X239693004Y-90560922D01*
X239693005Y-90560924D01*
X239772024Y-90708758D01*
X239820687Y-90869177D01*
X239837117Y-91036000D01*
X239820687Y-91202823D01*
X239772024Y-91363242D01*
X239706055Y-91486661D01*
X239693004Y-91511078D01*
X239586659Y-91640659D01*
X239457078Y-91747004D01*
X239457076Y-91747005D01*
X239309242Y-91826024D01*
X239148823Y-91874687D01*
X239023804Y-91887000D01*
X238940196Y-91887000D01*
X238815177Y-91874687D01*
X238654758Y-91826024D01*
X238506924Y-91747005D01*
X238506922Y-91747004D01*
X238377341Y-91640659D01*
X238270996Y-91511078D01*
X238257945Y-91486661D01*
X238191976Y-91363242D01*
X238143313Y-91202823D01*
X238126883Y-91036000D01*
X238143313Y-90869177D01*
X238191976Y-90708758D01*
X238270995Y-90560924D01*
X238270996Y-90560922D01*
X238377341Y-90431341D01*
X238506922Y-90324996D01*
X238522094Y-90316886D01*
X238654758Y-90245976D01*
X238815177Y-90197313D01*
X238940196Y-90185000D01*
X239023804Y-90185000D01*
X239148823Y-90197313D01*
X239148823Y-90197313D01*
G37*
G36*
X231528823Y-90197313D02*
G01*
X231689242Y-90245976D01*
X231821906Y-90316886D01*
X231837078Y-90324996D01*
X231966659Y-90431341D01*
X232073004Y-90560922D01*
X232073005Y-90560924D01*
X232152024Y-90708758D01*
X232200687Y-90869177D01*
X232217117Y-91036000D01*
X232200687Y-91202823D01*
X232152024Y-91363242D01*
X232086055Y-91486661D01*
X232073004Y-91511078D01*
X231966659Y-91640659D01*
X231837078Y-91747004D01*
X231837076Y-91747005D01*
X231689242Y-91826024D01*
X231528823Y-91874687D01*
X231403804Y-91887000D01*
X231320196Y-91887000D01*
X231195177Y-91874687D01*
X231034758Y-91826024D01*
X230886924Y-91747005D01*
X230886922Y-91747004D01*
X230757341Y-91640659D01*
X230650996Y-91511078D01*
X230637945Y-91486661D01*
X230571976Y-91363242D01*
X230523313Y-91202823D01*
X230506883Y-91036000D01*
X230523313Y-90869177D01*
X230571976Y-90708758D01*
X230650995Y-90560924D01*
X230650996Y-90560922D01*
X230757341Y-90431341D01*
X230886922Y-90324996D01*
X230902094Y-90316886D01*
X231034758Y-90245976D01*
X231195177Y-90197313D01*
X231320196Y-90185000D01*
X231403804Y-90185000D01*
X231528823Y-90197313D01*
X231528823Y-90197313D01*
G37*
G36*
X252116239Y-81027467D02*
G01*
X252430282Y-81089934D01*
X253021926Y-81335001D01*
X253554392Y-81690784D01*
X254007216Y-82143608D01*
X254362999Y-82676074D01*
X254608066Y-83267718D01*
X254608066Y-83267719D01*
X254733000Y-83895803D01*
X254733000Y-84536197D01*
X254670533Y-84850239D01*
X254608066Y-85164282D01*
X254362999Y-85755926D01*
X254007216Y-86288392D01*
X253554392Y-86741216D01*
X253021926Y-87096999D01*
X252430282Y-87342066D01*
X252116239Y-87404533D01*
X251802197Y-87467000D01*
X251161803Y-87467000D01*
X250847761Y-87404533D01*
X250533718Y-87342066D01*
X249942074Y-87096999D01*
X249409608Y-86741216D01*
X248956784Y-86288392D01*
X248601001Y-85755926D01*
X248355934Y-85164282D01*
X248293467Y-84850239D01*
X248231000Y-84536197D01*
X248231000Y-83895803D01*
X248355934Y-83267719D01*
X248355934Y-83267718D01*
X248601001Y-82676074D01*
X248956784Y-82143608D01*
X249409608Y-81690784D01*
X249942074Y-81335001D01*
X250533718Y-81089934D01*
X250847761Y-81027467D01*
X251161803Y-80965000D01*
X251802197Y-80965000D01*
X252116239Y-81027467D01*
X252116239Y-81027467D01*
G37*
G36*
X181116239Y-81027467D02*
G01*
X181430282Y-81089934D01*
X182021926Y-81335001D01*
X182554392Y-81690784D01*
X183007216Y-82143608D01*
X183362999Y-82676074D01*
X183608066Y-83267718D01*
X183608066Y-83267719D01*
X183733000Y-83895803D01*
X183733000Y-84536197D01*
X183670533Y-84850239D01*
X183608066Y-85164282D01*
X183362999Y-85755926D01*
X183007216Y-86288392D01*
X182554392Y-86741216D01*
X182021926Y-87096999D01*
X181430282Y-87342066D01*
X181116239Y-87404533D01*
X180802197Y-87467000D01*
X180161803Y-87467000D01*
X179847761Y-87404533D01*
X179533718Y-87342066D01*
X178942074Y-87096999D01*
X178409608Y-86741216D01*
X177956784Y-86288392D01*
X177601001Y-85755926D01*
X177355934Y-85164282D01*
X177293467Y-84850239D01*
X177231000Y-84536197D01*
X177231000Y-83895803D01*
X177355934Y-83267719D01*
X177355934Y-83267718D01*
X177601001Y-82676074D01*
X177956784Y-82143608D01*
X178409608Y-81690784D01*
X178942074Y-81335001D01*
X179533718Y-81089934D01*
X179847761Y-81027467D01*
X180161803Y-80965000D01*
X180802197Y-80965000D01*
X181116239Y-81027467D01*
X181116239Y-81027467D01*
G37*
M02*
