G04 #@! TF.GenerationSoftware,KiCad,Pcbnew,5.1.2*
G04 #@! TF.CreationDate,2019-06-29T16:33:47+01:00*
G04 #@! TF.ProjectId,garage_receiver,67617261-6765-45f7-9265-636569766572,rev?*
G04 #@! TF.SameCoordinates,Original*
G04 #@! TF.FileFunction,Legend,Top*
G04 #@! TF.FilePolarity,Positive*
%FSLAX46Y46*%
G04 Gerber Fmt 4.6, Leading zero omitted, Abs format (unit mm)*
G04 Created by KiCad (PCBNEW 5.1.2) date 2019-06-29 16:33:47*
%MOMM*%
%LPD*%
G04 APERTURE LIST*
%ADD10C,0.150000*%
%ADD11C,0.300000*%
%ADD12C,0.120000*%
G04 APERTURE END LIST*
D10*
X240767714Y-93682666D02*
X241243904Y-93682666D01*
X240672476Y-93968380D02*
X241005809Y-92968380D01*
X241339142Y-93968380D01*
X242101047Y-92968380D02*
X241910571Y-92968380D01*
X241815333Y-93016000D01*
X241767714Y-93063619D01*
X241672476Y-93206476D01*
X241624857Y-93396952D01*
X241624857Y-93777904D01*
X241672476Y-93873142D01*
X241720095Y-93920761D01*
X241815333Y-93968380D01*
X242005809Y-93968380D01*
X242101047Y-93920761D01*
X242148666Y-93873142D01*
X242196285Y-93777904D01*
X242196285Y-93539809D01*
X242148666Y-93444571D01*
X242101047Y-93396952D01*
X242005809Y-93349333D01*
X241815333Y-93349333D01*
X241720095Y-93396952D01*
X241672476Y-93444571D01*
X241624857Y-93539809D01*
X240767714Y-91082666D02*
X241243904Y-91082666D01*
X240672476Y-91368380D02*
X241005809Y-90368380D01*
X241339142Y-91368380D01*
X241577238Y-90368380D02*
X242243904Y-90368380D01*
X241815333Y-91368380D01*
X240767714Y-98782666D02*
X241243904Y-98782666D01*
X240672476Y-99068380D02*
X241005809Y-98068380D01*
X241339142Y-99068380D01*
X242101047Y-98401714D02*
X242101047Y-99068380D01*
X241862952Y-98020761D02*
X241624857Y-98735047D01*
X242243904Y-98735047D01*
X240767714Y-96182666D02*
X241243904Y-96182666D01*
X240672476Y-96468380D02*
X241005809Y-95468380D01*
X241339142Y-96468380D01*
X242148666Y-95468380D02*
X241672476Y-95468380D01*
X241624857Y-95944571D01*
X241672476Y-95896952D01*
X241767714Y-95849333D01*
X242005809Y-95849333D01*
X242101047Y-95896952D01*
X242148666Y-95944571D01*
X242196285Y-96039809D01*
X242196285Y-96277904D01*
X242148666Y-96373142D01*
X242101047Y-96420761D01*
X242005809Y-96468380D01*
X241767714Y-96468380D01*
X241672476Y-96420761D01*
X241624857Y-96373142D01*
X240767714Y-103882666D02*
X241243904Y-103882666D01*
X240672476Y-104168380D02*
X241005809Y-103168380D01*
X241339142Y-104168380D01*
X241624857Y-103263619D02*
X241672476Y-103216000D01*
X241767714Y-103168380D01*
X242005809Y-103168380D01*
X242101047Y-103216000D01*
X242148666Y-103263619D01*
X242196285Y-103358857D01*
X242196285Y-103454095D01*
X242148666Y-103596952D01*
X241577238Y-104168380D01*
X242196285Y-104168380D01*
X240767714Y-101282666D02*
X241243904Y-101282666D01*
X240672476Y-101568380D02*
X241005809Y-100568380D01*
X241339142Y-101568380D01*
X241577238Y-100568380D02*
X242196285Y-100568380D01*
X241862952Y-100949333D01*
X242005809Y-100949333D01*
X242101047Y-100996952D01*
X242148666Y-101044571D01*
X242196285Y-101139809D01*
X242196285Y-101377904D01*
X242148666Y-101473142D01*
X242101047Y-101520761D01*
X242005809Y-101568380D01*
X241720095Y-101568380D01*
X241624857Y-101520761D01*
X241577238Y-101473142D01*
X240767714Y-106482666D02*
X241243904Y-106482666D01*
X240672476Y-106768380D02*
X241005809Y-105768380D01*
X241339142Y-106768380D01*
X242196285Y-106768380D02*
X241624857Y-106768380D01*
X241910571Y-106768380D02*
X241910571Y-105768380D01*
X241815333Y-105911238D01*
X241720095Y-106006476D01*
X241624857Y-106054095D01*
X240767714Y-109082666D02*
X241243904Y-109082666D01*
X240672476Y-109368380D02*
X241005809Y-108368380D01*
X241339142Y-109368380D01*
X241862952Y-108368380D02*
X241958190Y-108368380D01*
X242053428Y-108416000D01*
X242101047Y-108463619D01*
X242148666Y-108558857D01*
X242196285Y-108749333D01*
X242196285Y-108987428D01*
X242148666Y-109177904D01*
X242101047Y-109273142D01*
X242053428Y-109320761D01*
X241958190Y-109368380D01*
X241862952Y-109368380D01*
X241767714Y-109320761D01*
X241720095Y-109273142D01*
X241672476Y-109177904D01*
X241624857Y-108987428D01*
X241624857Y-108749333D01*
X241672476Y-108558857D01*
X241720095Y-108463619D01*
X241767714Y-108416000D01*
X241862952Y-108368380D01*
D11*
X193500809Y-114216000D02*
X193310333Y-114120761D01*
X193024619Y-114120761D01*
X192738904Y-114216000D01*
X192548428Y-114406476D01*
X192453190Y-114596952D01*
X192357952Y-114977904D01*
X192357952Y-115263619D01*
X192453190Y-115644571D01*
X192548428Y-115835047D01*
X192738904Y-116025523D01*
X193024619Y-116120761D01*
X193215095Y-116120761D01*
X193500809Y-116025523D01*
X193596047Y-115930285D01*
X193596047Y-115263619D01*
X193215095Y-115263619D01*
X195310333Y-116120761D02*
X195310333Y-115073142D01*
X195215095Y-114882666D01*
X195024619Y-114787428D01*
X194643666Y-114787428D01*
X194453190Y-114882666D01*
X195310333Y-116025523D02*
X195119857Y-116120761D01*
X194643666Y-116120761D01*
X194453190Y-116025523D01*
X194357952Y-115835047D01*
X194357952Y-115644571D01*
X194453190Y-115454095D01*
X194643666Y-115358857D01*
X195119857Y-115358857D01*
X195310333Y-115263619D01*
X196262714Y-116120761D02*
X196262714Y-114787428D01*
X196262714Y-115168380D02*
X196357952Y-114977904D01*
X196453190Y-114882666D01*
X196643666Y-114787428D01*
X196834142Y-114787428D01*
X198357952Y-116120761D02*
X198357952Y-115073142D01*
X198262714Y-114882666D01*
X198072238Y-114787428D01*
X197691285Y-114787428D01*
X197500809Y-114882666D01*
X198357952Y-116025523D02*
X198167476Y-116120761D01*
X197691285Y-116120761D01*
X197500809Y-116025523D01*
X197405571Y-115835047D01*
X197405571Y-115644571D01*
X197500809Y-115454095D01*
X197691285Y-115358857D01*
X198167476Y-115358857D01*
X198357952Y-115263619D01*
X200167476Y-114787428D02*
X200167476Y-116406476D01*
X200072238Y-116596952D01*
X199977000Y-116692190D01*
X199786523Y-116787428D01*
X199500809Y-116787428D01*
X199310333Y-116692190D01*
X200167476Y-116025523D02*
X199977000Y-116120761D01*
X199596047Y-116120761D01*
X199405571Y-116025523D01*
X199310333Y-115930285D01*
X199215095Y-115739809D01*
X199215095Y-115168380D01*
X199310333Y-114977904D01*
X199405571Y-114882666D01*
X199596047Y-114787428D01*
X199977000Y-114787428D01*
X200167476Y-114882666D01*
X201881761Y-116025523D02*
X201691285Y-116120761D01*
X201310333Y-116120761D01*
X201119857Y-116025523D01*
X201024619Y-115835047D01*
X201024619Y-115073142D01*
X201119857Y-114882666D01*
X201310333Y-114787428D01*
X201691285Y-114787428D01*
X201881761Y-114882666D01*
X201977000Y-115073142D01*
X201977000Y-115263619D01*
X201024619Y-115454095D01*
X205500809Y-116120761D02*
X204834142Y-115168380D01*
X204357952Y-116120761D02*
X204357952Y-114120761D01*
X205119857Y-114120761D01*
X205310333Y-114216000D01*
X205405571Y-114311238D01*
X205500809Y-114501714D01*
X205500809Y-114787428D01*
X205405571Y-114977904D01*
X205310333Y-115073142D01*
X205119857Y-115168380D01*
X204357952Y-115168380D01*
X207119857Y-116025523D02*
X206929380Y-116120761D01*
X206548428Y-116120761D01*
X206357952Y-116025523D01*
X206262714Y-115835047D01*
X206262714Y-115073142D01*
X206357952Y-114882666D01*
X206548428Y-114787428D01*
X206929380Y-114787428D01*
X207119857Y-114882666D01*
X207215095Y-115073142D01*
X207215095Y-115263619D01*
X206262714Y-115454095D01*
X208929380Y-116025523D02*
X208738904Y-116120761D01*
X208357952Y-116120761D01*
X208167476Y-116025523D01*
X208072238Y-115930285D01*
X207977000Y-115739809D01*
X207977000Y-115168380D01*
X208072238Y-114977904D01*
X208167476Y-114882666D01*
X208357952Y-114787428D01*
X208738904Y-114787428D01*
X208929380Y-114882666D01*
X210548428Y-116025523D02*
X210357952Y-116120761D01*
X209977000Y-116120761D01*
X209786523Y-116025523D01*
X209691285Y-115835047D01*
X209691285Y-115073142D01*
X209786523Y-114882666D01*
X209977000Y-114787428D01*
X210357952Y-114787428D01*
X210548428Y-114882666D01*
X210643666Y-115073142D01*
X210643666Y-115263619D01*
X209691285Y-115454095D01*
X211500809Y-116120761D02*
X211500809Y-114787428D01*
X211500809Y-114120761D02*
X211405571Y-114216000D01*
X211500809Y-114311238D01*
X211596047Y-114216000D01*
X211500809Y-114120761D01*
X211500809Y-114311238D01*
X212262714Y-114787428D02*
X212738904Y-116120761D01*
X213215095Y-114787428D01*
X214738904Y-116025523D02*
X214548428Y-116120761D01*
X214167476Y-116120761D01*
X213977000Y-116025523D01*
X213881761Y-115835047D01*
X213881761Y-115073142D01*
X213977000Y-114882666D01*
X214167476Y-114787428D01*
X214548428Y-114787428D01*
X214738904Y-114882666D01*
X214834142Y-115073142D01*
X214834142Y-115263619D01*
X213881761Y-115454095D01*
X215691285Y-116120761D02*
X215691285Y-114787428D01*
X215691285Y-115168380D02*
X215786523Y-114977904D01*
X215881761Y-114882666D01*
X216072238Y-114787428D01*
X216262714Y-114787428D01*
D10*
X192220095Y-118368380D02*
X192220095Y-117368380D01*
X192648666Y-118368380D02*
X192648666Y-117844571D01*
X192601047Y-117749333D01*
X192505809Y-117701714D01*
X192362952Y-117701714D01*
X192267714Y-117749333D01*
X192220095Y-117796952D01*
X192982000Y-117701714D02*
X193362952Y-117701714D01*
X193124857Y-117368380D02*
X193124857Y-118225523D01*
X193172476Y-118320761D01*
X193267714Y-118368380D01*
X193362952Y-118368380D01*
X193553428Y-117701714D02*
X193934380Y-117701714D01*
X193696285Y-117368380D02*
X193696285Y-118225523D01*
X193743904Y-118320761D01*
X193839142Y-118368380D01*
X193934380Y-118368380D01*
X194267714Y-117701714D02*
X194267714Y-118701714D01*
X194267714Y-117749333D02*
X194362952Y-117701714D01*
X194553428Y-117701714D01*
X194648666Y-117749333D01*
X194696285Y-117796952D01*
X194743904Y-117892190D01*
X194743904Y-118177904D01*
X194696285Y-118273142D01*
X194648666Y-118320761D01*
X194553428Y-118368380D01*
X194362952Y-118368380D01*
X194267714Y-118320761D01*
X195124857Y-118320761D02*
X195220095Y-118368380D01*
X195410571Y-118368380D01*
X195505809Y-118320761D01*
X195553428Y-118225523D01*
X195553428Y-118177904D01*
X195505809Y-118082666D01*
X195410571Y-118035047D01*
X195267714Y-118035047D01*
X195172476Y-117987428D01*
X195124857Y-117892190D01*
X195124857Y-117844571D01*
X195172476Y-117749333D01*
X195267714Y-117701714D01*
X195410571Y-117701714D01*
X195505809Y-117749333D01*
X195982000Y-118273142D02*
X196029619Y-118320761D01*
X195982000Y-118368380D01*
X195934380Y-118320761D01*
X195982000Y-118273142D01*
X195982000Y-118368380D01*
X195982000Y-117749333D02*
X196029619Y-117796952D01*
X195982000Y-117844571D01*
X195934380Y-117796952D01*
X195982000Y-117749333D01*
X195982000Y-117844571D01*
X197172476Y-117320761D02*
X196315333Y-118606476D01*
X198220095Y-117320761D02*
X197362952Y-118606476D01*
X198982000Y-117701714D02*
X198982000Y-118511238D01*
X198934380Y-118606476D01*
X198886761Y-118654095D01*
X198791523Y-118701714D01*
X198648666Y-118701714D01*
X198553428Y-118654095D01*
X198982000Y-118320761D02*
X198886761Y-118368380D01*
X198696285Y-118368380D01*
X198601047Y-118320761D01*
X198553428Y-118273142D01*
X198505809Y-118177904D01*
X198505809Y-117892190D01*
X198553428Y-117796952D01*
X198601047Y-117749333D01*
X198696285Y-117701714D01*
X198886761Y-117701714D01*
X198982000Y-117749333D01*
X199458190Y-118368380D02*
X199458190Y-117701714D01*
X199458190Y-117368380D02*
X199410571Y-117416000D01*
X199458190Y-117463619D01*
X199505809Y-117416000D01*
X199458190Y-117368380D01*
X199458190Y-117463619D01*
X199791523Y-117701714D02*
X200172476Y-117701714D01*
X199934380Y-117368380D02*
X199934380Y-118225523D01*
X199982000Y-118320761D01*
X200077238Y-118368380D01*
X200172476Y-118368380D01*
X200505809Y-118368380D02*
X200505809Y-117368380D01*
X200934380Y-118368380D02*
X200934380Y-117844571D01*
X200886761Y-117749333D01*
X200791523Y-117701714D01*
X200648666Y-117701714D01*
X200553428Y-117749333D01*
X200505809Y-117796952D01*
X201839142Y-117701714D02*
X201839142Y-118368380D01*
X201410571Y-117701714D02*
X201410571Y-118225523D01*
X201458190Y-118320761D01*
X201553428Y-118368380D01*
X201696285Y-118368380D01*
X201791523Y-118320761D01*
X201839142Y-118273142D01*
X202315333Y-118368380D02*
X202315333Y-117368380D01*
X202315333Y-117749333D02*
X202410571Y-117701714D01*
X202601047Y-117701714D01*
X202696285Y-117749333D01*
X202743904Y-117796952D01*
X202791523Y-117892190D01*
X202791523Y-118177904D01*
X202743904Y-118273142D01*
X202696285Y-118320761D01*
X202601047Y-118368380D01*
X202410571Y-118368380D01*
X202315333Y-118320761D01*
X203220095Y-118273142D02*
X203267714Y-118320761D01*
X203220095Y-118368380D01*
X203172476Y-118320761D01*
X203220095Y-118273142D01*
X203220095Y-118368380D01*
X204124857Y-118320761D02*
X204029619Y-118368380D01*
X203839142Y-118368380D01*
X203743904Y-118320761D01*
X203696285Y-118273142D01*
X203648666Y-118177904D01*
X203648666Y-117892190D01*
X203696285Y-117796952D01*
X203743904Y-117749333D01*
X203839142Y-117701714D01*
X204029619Y-117701714D01*
X204124857Y-117749333D01*
X204696285Y-118368380D02*
X204601047Y-118320761D01*
X204553428Y-118273142D01*
X204505809Y-118177904D01*
X204505809Y-117892190D01*
X204553428Y-117796952D01*
X204601047Y-117749333D01*
X204696285Y-117701714D01*
X204839142Y-117701714D01*
X204934380Y-117749333D01*
X204982000Y-117796952D01*
X205029619Y-117892190D01*
X205029619Y-118177904D01*
X204982000Y-118273142D01*
X204934380Y-118320761D01*
X204839142Y-118368380D01*
X204696285Y-118368380D01*
X205458190Y-118368380D02*
X205458190Y-117701714D01*
X205458190Y-117796952D02*
X205505809Y-117749333D01*
X205601047Y-117701714D01*
X205743904Y-117701714D01*
X205839142Y-117749333D01*
X205886761Y-117844571D01*
X205886761Y-118368380D01*
X205886761Y-117844571D02*
X205934380Y-117749333D01*
X206029619Y-117701714D01*
X206172476Y-117701714D01*
X206267714Y-117749333D01*
X206315333Y-117844571D01*
X206315333Y-118368380D01*
X207505809Y-117320761D02*
X206648666Y-118606476D01*
X208362952Y-117416000D02*
X208267714Y-117368380D01*
X208124857Y-117368380D01*
X207982000Y-117416000D01*
X207886761Y-117511238D01*
X207839142Y-117606476D01*
X207791523Y-117796952D01*
X207791523Y-117939809D01*
X207839142Y-118130285D01*
X207886761Y-118225523D01*
X207982000Y-118320761D01*
X208124857Y-118368380D01*
X208220095Y-118368380D01*
X208362952Y-118320761D01*
X208410571Y-118273142D01*
X208410571Y-117939809D01*
X208220095Y-117939809D01*
X208839142Y-117987428D02*
X209601047Y-117987428D01*
X210077238Y-118368380D02*
X210077238Y-117368380D01*
X210458190Y-117368380D01*
X210553428Y-117416000D01*
X210601047Y-117463619D01*
X210648666Y-117558857D01*
X210648666Y-117701714D01*
X210601047Y-117796952D01*
X210553428Y-117844571D01*
X210458190Y-117892190D01*
X210077238Y-117892190D01*
X211458190Y-118320761D02*
X211362952Y-118368380D01*
X211172476Y-118368380D01*
X211077238Y-118320761D01*
X211029619Y-118225523D01*
X211029619Y-117844571D01*
X211077238Y-117749333D01*
X211172476Y-117701714D01*
X211362952Y-117701714D01*
X211458190Y-117749333D01*
X211505809Y-117844571D01*
X211505809Y-117939809D01*
X211029619Y-118035047D01*
X211934380Y-118368380D02*
X211934380Y-117701714D01*
X211934380Y-117892190D02*
X211982000Y-117796952D01*
X212029619Y-117749333D01*
X212124857Y-117701714D01*
X212220095Y-117701714D01*
X212934380Y-118320761D02*
X212839142Y-118368380D01*
X212648666Y-118368380D01*
X212553428Y-118320761D01*
X212505809Y-118225523D01*
X212505809Y-117844571D01*
X212553428Y-117749333D01*
X212648666Y-117701714D01*
X212839142Y-117701714D01*
X212934380Y-117749333D01*
X212982000Y-117844571D01*
X212982000Y-117939809D01*
X212505809Y-118035047D01*
X213410571Y-118368380D02*
X213410571Y-117701714D01*
X213410571Y-117368380D02*
X213362952Y-117416000D01*
X213410571Y-117463619D01*
X213458190Y-117416000D01*
X213410571Y-117368380D01*
X213410571Y-117463619D01*
X213886761Y-118368380D02*
X213886761Y-117701714D01*
X213886761Y-117892190D02*
X213934380Y-117796952D01*
X213982000Y-117749333D01*
X214077238Y-117701714D01*
X214172476Y-117701714D01*
X214934380Y-118368380D02*
X214934380Y-117844571D01*
X214886761Y-117749333D01*
X214791523Y-117701714D01*
X214601047Y-117701714D01*
X214505809Y-117749333D01*
X214934380Y-118320761D02*
X214839142Y-118368380D01*
X214601047Y-118368380D01*
X214505809Y-118320761D01*
X214458190Y-118225523D01*
X214458190Y-118130285D01*
X214505809Y-118035047D01*
X214601047Y-117987428D01*
X214839142Y-117987428D01*
X214934380Y-117939809D01*
X216124857Y-117320761D02*
X215267714Y-118606476D01*
X216886761Y-117701714D02*
X216886761Y-118511238D01*
X216839142Y-118606476D01*
X216791523Y-118654095D01*
X216696285Y-118701714D01*
X216553428Y-118701714D01*
X216458190Y-118654095D01*
X216886761Y-118320761D02*
X216791523Y-118368380D01*
X216601047Y-118368380D01*
X216505809Y-118320761D01*
X216458190Y-118273142D01*
X216410571Y-118177904D01*
X216410571Y-117892190D01*
X216458190Y-117796952D01*
X216505809Y-117749333D01*
X216601047Y-117701714D01*
X216791523Y-117701714D01*
X216886761Y-117749333D01*
X217791523Y-118368380D02*
X217791523Y-117844571D01*
X217743904Y-117749333D01*
X217648666Y-117701714D01*
X217458190Y-117701714D01*
X217362952Y-117749333D01*
X217791523Y-118320761D02*
X217696285Y-118368380D01*
X217458190Y-118368380D01*
X217362952Y-118320761D01*
X217315333Y-118225523D01*
X217315333Y-118130285D01*
X217362952Y-118035047D01*
X217458190Y-117987428D01*
X217696285Y-117987428D01*
X217791523Y-117939809D01*
X218267714Y-118368380D02*
X218267714Y-117701714D01*
X218267714Y-117892190D02*
X218315333Y-117796952D01*
X218362952Y-117749333D01*
X218458190Y-117701714D01*
X218553428Y-117701714D01*
X219315333Y-118368380D02*
X219315333Y-117844571D01*
X219267714Y-117749333D01*
X219172476Y-117701714D01*
X218982000Y-117701714D01*
X218886761Y-117749333D01*
X219315333Y-118320761D02*
X219220095Y-118368380D01*
X218982000Y-118368380D01*
X218886761Y-118320761D01*
X218839142Y-118225523D01*
X218839142Y-118130285D01*
X218886761Y-118035047D01*
X218982000Y-117987428D01*
X219220095Y-117987428D01*
X219315333Y-117939809D01*
X220220095Y-117701714D02*
X220220095Y-118511238D01*
X220172476Y-118606476D01*
X220124857Y-118654095D01*
X220029619Y-118701714D01*
X219886761Y-118701714D01*
X219791523Y-118654095D01*
X220220095Y-118320761D02*
X220124857Y-118368380D01*
X219934380Y-118368380D01*
X219839142Y-118320761D01*
X219791523Y-118273142D01*
X219743904Y-118177904D01*
X219743904Y-117892190D01*
X219791523Y-117796952D01*
X219839142Y-117749333D01*
X219934380Y-117701714D01*
X220124857Y-117701714D01*
X220220095Y-117749333D01*
X221077238Y-118320761D02*
X220982000Y-118368380D01*
X220791523Y-118368380D01*
X220696285Y-118320761D01*
X220648666Y-118225523D01*
X220648666Y-117844571D01*
X220696285Y-117749333D01*
X220791523Y-117701714D01*
X220982000Y-117701714D01*
X221077238Y-117749333D01*
X221124857Y-117844571D01*
X221124857Y-117939809D01*
X220648666Y-118035047D01*
X221315333Y-118463619D02*
X222077238Y-118463619D01*
X222315333Y-118368380D02*
X222315333Y-117701714D01*
X222315333Y-117892190D02*
X222362952Y-117796952D01*
X222410571Y-117749333D01*
X222505809Y-117701714D01*
X222601047Y-117701714D01*
X223315333Y-118320761D02*
X223220095Y-118368380D01*
X223029619Y-118368380D01*
X222934380Y-118320761D01*
X222886761Y-118225523D01*
X222886761Y-117844571D01*
X222934380Y-117749333D01*
X223029619Y-117701714D01*
X223220095Y-117701714D01*
X223315333Y-117749333D01*
X223362952Y-117844571D01*
X223362952Y-117939809D01*
X222886761Y-118035047D01*
X224220095Y-118320761D02*
X224124857Y-118368380D01*
X223934380Y-118368380D01*
X223839142Y-118320761D01*
X223791523Y-118273142D01*
X223743904Y-118177904D01*
X223743904Y-117892190D01*
X223791523Y-117796952D01*
X223839142Y-117749333D01*
X223934380Y-117701714D01*
X224124857Y-117701714D01*
X224220095Y-117749333D01*
X225029619Y-118320761D02*
X224934380Y-118368380D01*
X224743904Y-118368380D01*
X224648666Y-118320761D01*
X224601047Y-118225523D01*
X224601047Y-117844571D01*
X224648666Y-117749333D01*
X224743904Y-117701714D01*
X224934380Y-117701714D01*
X225029619Y-117749333D01*
X225077238Y-117844571D01*
X225077238Y-117939809D01*
X224601047Y-118035047D01*
X225505809Y-118368380D02*
X225505809Y-117701714D01*
X225505809Y-117368380D02*
X225458190Y-117416000D01*
X225505809Y-117463619D01*
X225553428Y-117416000D01*
X225505809Y-117368380D01*
X225505809Y-117463619D01*
X225886761Y-117701714D02*
X226124857Y-118368380D01*
X226362952Y-117701714D01*
X227124857Y-118320761D02*
X227029619Y-118368380D01*
X226839142Y-118368380D01*
X226743904Y-118320761D01*
X226696285Y-118225523D01*
X226696285Y-117844571D01*
X226743904Y-117749333D01*
X226839142Y-117701714D01*
X227029619Y-117701714D01*
X227124857Y-117749333D01*
X227172476Y-117844571D01*
X227172476Y-117939809D01*
X226696285Y-118035047D01*
X227601047Y-118368380D02*
X227601047Y-117701714D01*
X227601047Y-117892190D02*
X227648666Y-117796952D01*
X227696285Y-117749333D01*
X227791523Y-117701714D01*
X227886761Y-117701714D01*
X226341523Y-88018380D02*
X225865333Y-88018380D01*
X225817714Y-88494571D01*
X225865333Y-88446952D01*
X225960571Y-88399333D01*
X226198666Y-88399333D01*
X226293904Y-88446952D01*
X226341523Y-88494571D01*
X226389142Y-88589809D01*
X226389142Y-88827904D01*
X226341523Y-88923142D01*
X226293904Y-88970761D01*
X226198666Y-89018380D01*
X225960571Y-89018380D01*
X225865333Y-88970761D01*
X225817714Y-88923142D01*
X226674857Y-88018380D02*
X227008190Y-89018380D01*
X227341523Y-88018380D01*
X221182000Y-89018380D02*
X221182000Y-88018380D01*
X221420095Y-88018380D01*
X221562952Y-88066000D01*
X221658190Y-88161238D01*
X221705809Y-88256476D01*
X221753428Y-88446952D01*
X221753428Y-88589809D01*
X221705809Y-88780285D01*
X221658190Y-88875523D01*
X221562952Y-88970761D01*
X221420095Y-89018380D01*
X221182000Y-89018380D01*
X222134380Y-88732666D02*
X222610571Y-88732666D01*
X222039142Y-89018380D02*
X222372476Y-88018380D01*
X222705809Y-89018380D01*
X222896285Y-88018380D02*
X223467714Y-88018380D01*
X223182000Y-89018380D02*
X223182000Y-88018380D01*
X223753428Y-88732666D02*
X224229619Y-88732666D01*
X223658190Y-89018380D02*
X223991523Y-88018380D01*
X224324857Y-89018380D01*
X218220095Y-88066000D02*
X218124857Y-88018380D01*
X217982000Y-88018380D01*
X217839142Y-88066000D01*
X217743904Y-88161238D01*
X217696285Y-88256476D01*
X217648666Y-88446952D01*
X217648666Y-88589809D01*
X217696285Y-88780285D01*
X217743904Y-88875523D01*
X217839142Y-88970761D01*
X217982000Y-89018380D01*
X218077238Y-89018380D01*
X218220095Y-88970761D01*
X218267714Y-88923142D01*
X218267714Y-88589809D01*
X218077238Y-88589809D01*
X218696285Y-89018380D02*
X218696285Y-88018380D01*
X219267714Y-89018380D01*
X219267714Y-88018380D01*
X219743904Y-89018380D02*
X219743904Y-88018380D01*
X219982000Y-88018380D01*
X220124857Y-88066000D01*
X220220095Y-88161238D01*
X220267714Y-88256476D01*
X220315333Y-88446952D01*
X220315333Y-88589809D01*
X220267714Y-88780285D01*
X220220095Y-88875523D01*
X220124857Y-88970761D01*
X219982000Y-89018380D01*
X219743904Y-89018380D01*
X218839142Y-85493380D02*
X218505809Y-85017190D01*
X218267714Y-85493380D02*
X218267714Y-84493380D01*
X218648666Y-84493380D01*
X218743904Y-84541000D01*
X218791523Y-84588619D01*
X218839142Y-84683857D01*
X218839142Y-84826714D01*
X218791523Y-84921952D01*
X218743904Y-84969571D01*
X218648666Y-85017190D01*
X218267714Y-85017190D01*
X219601047Y-84969571D02*
X219267714Y-84969571D01*
X219267714Y-85493380D02*
X219267714Y-84493380D01*
X219743904Y-84493380D01*
X221458190Y-85493380D02*
X221124857Y-85017190D01*
X220886761Y-85493380D02*
X220886761Y-84493380D01*
X221267714Y-84493380D01*
X221362952Y-84541000D01*
X221410571Y-84588619D01*
X221458190Y-84683857D01*
X221458190Y-84826714D01*
X221410571Y-84921952D01*
X221362952Y-84969571D01*
X221267714Y-85017190D01*
X220886761Y-85017190D01*
X222267714Y-85445761D02*
X222172476Y-85493380D01*
X221982000Y-85493380D01*
X221886761Y-85445761D01*
X221839142Y-85350523D01*
X221839142Y-84969571D01*
X221886761Y-84874333D01*
X221982000Y-84826714D01*
X222172476Y-84826714D01*
X222267714Y-84874333D01*
X222315333Y-84969571D01*
X222315333Y-85064809D01*
X221839142Y-85160047D01*
X223172476Y-85445761D02*
X223077238Y-85493380D01*
X222886761Y-85493380D01*
X222791523Y-85445761D01*
X222743904Y-85398142D01*
X222696285Y-85302904D01*
X222696285Y-85017190D01*
X222743904Y-84921952D01*
X222791523Y-84874333D01*
X222886761Y-84826714D01*
X223077238Y-84826714D01*
X223172476Y-84874333D01*
X223982000Y-85445761D02*
X223886761Y-85493380D01*
X223696285Y-85493380D01*
X223601047Y-85445761D01*
X223553428Y-85350523D01*
X223553428Y-84969571D01*
X223601047Y-84874333D01*
X223696285Y-84826714D01*
X223886761Y-84826714D01*
X223982000Y-84874333D01*
X224029619Y-84969571D01*
X224029619Y-85064809D01*
X223553428Y-85160047D01*
X224458190Y-85493380D02*
X224458190Y-84826714D01*
X224458190Y-84493380D02*
X224410571Y-84541000D01*
X224458190Y-84588619D01*
X224505809Y-84541000D01*
X224458190Y-84493380D01*
X224458190Y-84588619D01*
X224839142Y-84826714D02*
X225077238Y-85493380D01*
X225315333Y-84826714D01*
X226077238Y-85445761D02*
X225982000Y-85493380D01*
X225791523Y-85493380D01*
X225696285Y-85445761D01*
X225648666Y-85350523D01*
X225648666Y-84969571D01*
X225696285Y-84874333D01*
X225791523Y-84826714D01*
X225982000Y-84826714D01*
X226077238Y-84874333D01*
X226124857Y-84969571D01*
X226124857Y-85064809D01*
X225648666Y-85160047D01*
X226553428Y-85493380D02*
X226553428Y-84826714D01*
X226553428Y-85017190D02*
X226601047Y-84921952D01*
X226648666Y-84874333D01*
X226743904Y-84826714D01*
X226839142Y-84826714D01*
X218267714Y-86476714D02*
X218267714Y-87143380D01*
X218029619Y-86095761D02*
X217791523Y-86810047D01*
X218410571Y-86810047D01*
X218696285Y-86143380D02*
X219315333Y-86143380D01*
X218982000Y-86524333D01*
X219124857Y-86524333D01*
X219220095Y-86571952D01*
X219267714Y-86619571D01*
X219315333Y-86714809D01*
X219315333Y-86952904D01*
X219267714Y-87048142D01*
X219220095Y-87095761D01*
X219124857Y-87143380D01*
X218839142Y-87143380D01*
X218743904Y-87095761D01*
X218696285Y-87048142D01*
X219648666Y-86143380D02*
X220267714Y-86143380D01*
X219934380Y-86524333D01*
X220077238Y-86524333D01*
X220172476Y-86571952D01*
X220220095Y-86619571D01*
X220267714Y-86714809D01*
X220267714Y-86952904D01*
X220220095Y-87048142D01*
X220172476Y-87095761D01*
X220077238Y-87143380D01*
X219791523Y-87143380D01*
X219696285Y-87095761D01*
X219648666Y-87048142D01*
X221410571Y-86095761D02*
X220553428Y-87381476D01*
X221648666Y-86143380D02*
X222267714Y-86143380D01*
X221934380Y-86524333D01*
X222077238Y-86524333D01*
X222172476Y-86571952D01*
X222220095Y-86619571D01*
X222267714Y-86714809D01*
X222267714Y-86952904D01*
X222220095Y-87048142D01*
X222172476Y-87095761D01*
X222077238Y-87143380D01*
X221791523Y-87143380D01*
X221696285Y-87095761D01*
X221648666Y-87048142D01*
X223220095Y-87143380D02*
X222648666Y-87143380D01*
X222934380Y-87143380D02*
X222934380Y-86143380D01*
X222839142Y-86286238D01*
X222743904Y-86381476D01*
X222648666Y-86429095D01*
X224124857Y-86143380D02*
X223648666Y-86143380D01*
X223601047Y-86619571D01*
X223648666Y-86571952D01*
X223743904Y-86524333D01*
X223982000Y-86524333D01*
X224077238Y-86571952D01*
X224124857Y-86619571D01*
X224172476Y-86714809D01*
X224172476Y-86952904D01*
X224124857Y-87048142D01*
X224077238Y-87095761D01*
X223982000Y-87143380D01*
X223743904Y-87143380D01*
X223648666Y-87095761D01*
X223601047Y-87048142D01*
X224601047Y-87143380D02*
X224601047Y-86143380D01*
X224934380Y-86857666D01*
X225267714Y-86143380D01*
X225267714Y-87143380D01*
X225743904Y-87143380D02*
X225743904Y-86143380D01*
X225743904Y-86619571D02*
X226315333Y-86619571D01*
X226315333Y-87143380D02*
X226315333Y-86143380D01*
X226696285Y-86476714D02*
X227220095Y-86476714D01*
X226696285Y-87143380D01*
X227220095Y-87143380D01*
X192522491Y-112501714D02*
X192677252Y-113168380D01*
X192998681Y-112501714D01*
X193820110Y-113168380D02*
X193248681Y-113168380D01*
X193534395Y-113168380D02*
X193659395Y-112168380D01*
X193546300Y-112311238D01*
X193439157Y-112406476D01*
X193337967Y-112454095D01*
X194260586Y-113073142D02*
X194302252Y-113120761D01*
X194248681Y-113168380D01*
X194207014Y-113120761D01*
X194260586Y-113073142D01*
X194248681Y-113168380D01*
X195040348Y-112168380D02*
X195135586Y-112168380D01*
X195224872Y-112216000D01*
X195266538Y-112263619D01*
X195302252Y-112358857D01*
X195326062Y-112549333D01*
X195296300Y-112787428D01*
X195224872Y-112977904D01*
X195165348Y-113073142D01*
X195111776Y-113120761D01*
X195010586Y-113168380D01*
X194915348Y-113168380D01*
X194826062Y-113120761D01*
X194784395Y-113073142D01*
X194748681Y-112977904D01*
X194724872Y-112787428D01*
X194754633Y-112549333D01*
X194826062Y-112358857D01*
X194885586Y-112263619D01*
X194939157Y-112216000D01*
X195040348Y-112168380D01*
X195689157Y-113073142D02*
X195730824Y-113120761D01*
X195677252Y-113168380D01*
X195635586Y-113120761D01*
X195689157Y-113073142D01*
X195677252Y-113168380D01*
X196677252Y-113168380D02*
X196105824Y-113168380D01*
X196391538Y-113168380D02*
X196516538Y-112168380D01*
X196403443Y-112311238D01*
X196296300Y-112406476D01*
X196195110Y-112454095D01*
X209981523Y-87293142D02*
X209933904Y-87340761D01*
X209791047Y-87388380D01*
X209695809Y-87388380D01*
X209552952Y-87340761D01*
X209457714Y-87245523D01*
X209410095Y-87150285D01*
X209362476Y-86959809D01*
X209362476Y-86816952D01*
X209410095Y-86626476D01*
X209457714Y-86531238D01*
X209552952Y-86436000D01*
X209695809Y-86388380D01*
X209791047Y-86388380D01*
X209933904Y-86436000D01*
X209981523Y-86483619D01*
X210267238Y-86388380D02*
X210838666Y-86388380D01*
X210552952Y-87388380D02*
X210552952Y-86388380D01*
X211172000Y-87007428D02*
X211933904Y-87007428D01*
X211552952Y-87388380D02*
X211552952Y-86626476D01*
X204901523Y-87293142D02*
X204853904Y-87340761D01*
X204711047Y-87388380D01*
X204615809Y-87388380D01*
X204472952Y-87340761D01*
X204377714Y-87245523D01*
X204330095Y-87150285D01*
X204282476Y-86959809D01*
X204282476Y-86816952D01*
X204330095Y-86626476D01*
X204377714Y-86531238D01*
X204472952Y-86436000D01*
X204615809Y-86388380D01*
X204711047Y-86388380D01*
X204853904Y-86436000D01*
X204901523Y-86483619D01*
X205187238Y-86388380D02*
X205758666Y-86388380D01*
X205472952Y-87388380D02*
X205472952Y-86388380D01*
X206092000Y-87007428D02*
X206853904Y-87007428D01*
X193741523Y-86483619D02*
X193789142Y-86436000D01*
X193884380Y-86388380D01*
X194122476Y-86388380D01*
X194217714Y-86436000D01*
X194265333Y-86483619D01*
X194312952Y-86578857D01*
X194312952Y-86674095D01*
X194265333Y-86816952D01*
X193693904Y-87388380D01*
X194312952Y-87388380D01*
X195170095Y-86721714D02*
X195170095Y-87388380D01*
X194932000Y-86340761D02*
X194693904Y-87055047D01*
X195312952Y-87055047D01*
X195646285Y-87102666D02*
X196122476Y-87102666D01*
X195551047Y-87388380D02*
X195884380Y-86388380D01*
X196217714Y-87388380D01*
X197122476Y-87293142D02*
X197074857Y-87340761D01*
X196932000Y-87388380D01*
X196836761Y-87388380D01*
X196693904Y-87340761D01*
X196598666Y-87245523D01*
X196551047Y-87150285D01*
X196503428Y-86959809D01*
X196503428Y-86816952D01*
X196551047Y-86626476D01*
X196598666Y-86531238D01*
X196693904Y-86436000D01*
X196836761Y-86388380D01*
X196932000Y-86388380D01*
X197074857Y-86436000D01*
X197122476Y-86483619D01*
X199750095Y-86436000D02*
X199654857Y-86388380D01*
X199512000Y-86388380D01*
X199369142Y-86436000D01*
X199273904Y-86531238D01*
X199226285Y-86626476D01*
X199178666Y-86816952D01*
X199178666Y-86959809D01*
X199226285Y-87150285D01*
X199273904Y-87245523D01*
X199369142Y-87340761D01*
X199512000Y-87388380D01*
X199607238Y-87388380D01*
X199750095Y-87340761D01*
X199797714Y-87293142D01*
X199797714Y-86959809D01*
X199607238Y-86959809D01*
X200226285Y-87388380D02*
X200226285Y-86388380D01*
X200797714Y-87388380D01*
X200797714Y-86388380D01*
X201273904Y-87388380D02*
X201273904Y-86388380D01*
X201512000Y-86388380D01*
X201654857Y-86436000D01*
X201750095Y-86531238D01*
X201797714Y-86626476D01*
X201845333Y-86816952D01*
X201845333Y-86959809D01*
X201797714Y-87150285D01*
X201750095Y-87245523D01*
X201654857Y-87340761D01*
X201512000Y-87388380D01*
X201273904Y-87388380D01*
D12*
X216482000Y-108506000D02*
X214982000Y-108506000D01*
X216482000Y-108506000D02*
X217982000Y-108506000D01*
X216482000Y-111726000D02*
X214982000Y-111726000D01*
X216482000Y-111726000D02*
X219357000Y-111726000D01*
X214522000Y-92636000D02*
X215982000Y-92636000D01*
X214522000Y-95796000D02*
X216682000Y-95796000D01*
X214522000Y-95796000D02*
X214522000Y-94866000D01*
X214522000Y-92636000D02*
X214522000Y-93566000D01*
X213218000Y-88016000D02*
X211718000Y-88016000D01*
X213218000Y-89756000D02*
X213218000Y-88016000D01*
X196598000Y-91340000D02*
X196692000Y-91247000D01*
X194348000Y-93591000D02*
X194407000Y-93532000D01*
X196428000Y-91100000D02*
X196487000Y-91042000D01*
X194143000Y-93385000D02*
X194237000Y-93292000D01*
X201598000Y-91340000D02*
X201692000Y-91247000D01*
X199348000Y-93591000D02*
X199407000Y-93532000D01*
X201428000Y-91100000D02*
X201487000Y-91042000D01*
X199143000Y-93385000D02*
X199237000Y-93292000D01*
X206598000Y-91340000D02*
X206692000Y-91247000D01*
X204348000Y-93591000D02*
X204407000Y-93532000D01*
X206428000Y-91100000D02*
X206487000Y-91042000D01*
X204143000Y-93385000D02*
X204237000Y-93292000D01*
X192857000Y-97376000D02*
X192857000Y-88256000D01*
X212978000Y-97376000D02*
X212978000Y-88256000D01*
X212978000Y-88256000D02*
X192857000Y-88256000D01*
X212978000Y-97376000D02*
X192857000Y-97376000D01*
X212978000Y-89816000D02*
X192857000Y-89816000D01*
X196318000Y-95316000D02*
G75*
G03X196318000Y-95316000I-900000J0D01*
G01*
X197098000Y-92316000D02*
G75*
G03X197098000Y-92316000I-1680000J0D01*
G01*
X201318000Y-95316000D02*
G75*
G03X201318000Y-95316000I-900000J0D01*
G01*
X202098000Y-92316000D02*
G75*
G03X202098000Y-92316000I-1680000J0D01*
G01*
X206318000Y-95316000D02*
G75*
G03X206318000Y-95316000I-900000J0D01*
G01*
X207098000Y-92316000D02*
G75*
G03X207098000Y-92316000I-1680000J0D01*
G01*
X211318000Y-95316000D02*
G75*
G03X211318000Y-95316000I-900000J0D01*
G01*
X210388617Y-90635550D02*
G75*
G02X211207000Y-90832000I29383J-1680450D01*
G01*
X211901953Y-91526912D02*
G75*
G02X211902000Y-93105000I-1483953J-789088D01*
G01*
X211207088Y-93799953D02*
G75*
G02X209629000Y-93800000I-789088J1483953D01*
G01*
X208934047Y-93105088D02*
G75*
G02X208934000Y-91527000I1483953J789088D01*
G01*
X209629288Y-90832648D02*
G75*
G02X210418000Y-90636000I788712J-1483352D01*
G01*
X221123422Y-108506000D02*
X221640578Y-108506000D01*
X221123422Y-109926000D02*
X221640578Y-109926000D01*
X222040578Y-107926000D02*
X221523422Y-107926000D01*
X222040578Y-106506000D02*
X221523422Y-106506000D01*
X211840578Y-108706000D02*
X211323422Y-108706000D01*
X211840578Y-110126000D02*
X211323422Y-110126000D01*
X221123422Y-111926000D02*
X221640578Y-111926000D01*
X221123422Y-110506000D02*
X221640578Y-110506000D01*
X211323422Y-112126000D02*
X211840578Y-112126000D01*
X211323422Y-110706000D02*
X211840578Y-110706000D01*
X203868000Y-106394000D02*
X206808000Y-106394000D01*
X203868000Y-106154000D02*
X206808000Y-106154000D01*
X203868000Y-106274000D02*
X206808000Y-106274000D01*
X205338000Y-100714000D02*
X205338000Y-101734000D01*
X205338000Y-108194000D02*
X205338000Y-107174000D01*
X203868000Y-101734000D02*
X203868000Y-107174000D01*
X206808000Y-101734000D02*
X203868000Y-101734000D01*
X206808000Y-107174000D02*
X206808000Y-101734000D01*
X203868000Y-107174000D02*
X206808000Y-107174000D01*
X227642000Y-105791000D02*
X229457000Y-105791000D01*
X227642000Y-106026000D02*
X227642000Y-105791000D01*
X223782000Y-106026000D02*
X227642000Y-106026000D01*
X219922000Y-106026000D02*
X219922000Y-105791000D01*
X223782000Y-106026000D02*
X219922000Y-106026000D01*
X227642000Y-93006000D02*
X227642000Y-93241000D01*
X223782000Y-93006000D02*
X227642000Y-93006000D01*
X219922000Y-93006000D02*
X219922000Y-93241000D01*
X223782000Y-93006000D02*
X219922000Y-93006000D01*
X217502000Y-103116000D02*
G75*
G03X217502000Y-103116000I-5120000J0D01*
G01*
X207302000Y-103116000D02*
X217462000Y-103116000D01*
X207302000Y-103076000D02*
X217462000Y-103076000D01*
X207302000Y-103036000D02*
X217462000Y-103036000D01*
X207303000Y-102996000D02*
X217461000Y-102996000D01*
X207304000Y-102956000D02*
X217460000Y-102956000D01*
X207305000Y-102916000D02*
X217459000Y-102916000D01*
X207307000Y-102876000D02*
X217457000Y-102876000D01*
X207309000Y-102836000D02*
X217455000Y-102836000D01*
X207312000Y-102796000D02*
X217452000Y-102796000D01*
X207314000Y-102756000D02*
X217450000Y-102756000D01*
X207317000Y-102716000D02*
X217447000Y-102716000D01*
X207320000Y-102676000D02*
X217444000Y-102676000D01*
X207324000Y-102636000D02*
X217440000Y-102636000D01*
X207328000Y-102596000D02*
X217436000Y-102596000D01*
X207332000Y-102556000D02*
X217432000Y-102556000D01*
X207337000Y-102516000D02*
X217427000Y-102516000D01*
X207342000Y-102476000D02*
X217422000Y-102476000D01*
X207347000Y-102436000D02*
X217417000Y-102436000D01*
X207352000Y-102395000D02*
X217412000Y-102395000D01*
X207358000Y-102355000D02*
X217406000Y-102355000D01*
X207364000Y-102315000D02*
X217400000Y-102315000D01*
X207371000Y-102275000D02*
X217393000Y-102275000D01*
X207378000Y-102235000D02*
X217386000Y-102235000D01*
X207385000Y-102195000D02*
X217379000Y-102195000D01*
X207392000Y-102155000D02*
X217372000Y-102155000D01*
X207400000Y-102115000D02*
X217364000Y-102115000D01*
X207408000Y-102075000D02*
X217356000Y-102075000D01*
X207417000Y-102035000D02*
X217347000Y-102035000D01*
X207426000Y-101995000D02*
X217338000Y-101995000D01*
X207435000Y-101955000D02*
X217329000Y-101955000D01*
X207444000Y-101915000D02*
X217320000Y-101915000D01*
X207454000Y-101875000D02*
X217310000Y-101875000D01*
X207464000Y-101835000D02*
X211141000Y-101835000D01*
X213623000Y-101835000D02*
X217300000Y-101835000D01*
X207475000Y-101795000D02*
X211141000Y-101795000D01*
X213623000Y-101795000D02*
X217289000Y-101795000D01*
X207485000Y-101755000D02*
X211141000Y-101755000D01*
X213623000Y-101755000D02*
X217279000Y-101755000D01*
X207497000Y-101715000D02*
X211141000Y-101715000D01*
X213623000Y-101715000D02*
X217267000Y-101715000D01*
X207508000Y-101675000D02*
X211141000Y-101675000D01*
X213623000Y-101675000D02*
X217256000Y-101675000D01*
X207520000Y-101635000D02*
X211141000Y-101635000D01*
X213623000Y-101635000D02*
X217244000Y-101635000D01*
X207532000Y-101595000D02*
X211141000Y-101595000D01*
X213623000Y-101595000D02*
X217232000Y-101595000D01*
X207545000Y-101555000D02*
X211141000Y-101555000D01*
X213623000Y-101555000D02*
X217219000Y-101555000D01*
X207558000Y-101515000D02*
X211141000Y-101515000D01*
X213623000Y-101515000D02*
X217206000Y-101515000D01*
X207571000Y-101475000D02*
X211141000Y-101475000D01*
X213623000Y-101475000D02*
X217193000Y-101475000D01*
X207585000Y-101435000D02*
X211141000Y-101435000D01*
X213623000Y-101435000D02*
X217179000Y-101435000D01*
X207599000Y-101395000D02*
X211141000Y-101395000D01*
X213623000Y-101395000D02*
X217165000Y-101395000D01*
X207614000Y-101355000D02*
X211141000Y-101355000D01*
X213623000Y-101355000D02*
X217150000Y-101355000D01*
X207628000Y-101315000D02*
X211141000Y-101315000D01*
X213623000Y-101315000D02*
X217136000Y-101315000D01*
X207644000Y-101275000D02*
X211141000Y-101275000D01*
X213623000Y-101275000D02*
X217120000Y-101275000D01*
X207659000Y-101235000D02*
X211141000Y-101235000D01*
X213623000Y-101235000D02*
X217105000Y-101235000D01*
X207675000Y-101195000D02*
X211141000Y-101195000D01*
X213623000Y-101195000D02*
X217089000Y-101195000D01*
X207692000Y-101155000D02*
X211141000Y-101155000D01*
X213623000Y-101155000D02*
X217072000Y-101155000D01*
X207708000Y-101115000D02*
X211141000Y-101115000D01*
X213623000Y-101115000D02*
X217056000Y-101115000D01*
X207725000Y-101075000D02*
X211141000Y-101075000D01*
X213623000Y-101075000D02*
X217039000Y-101075000D01*
X207743000Y-101035000D02*
X211141000Y-101035000D01*
X213623000Y-101035000D02*
X217021000Y-101035000D01*
X207761000Y-100995000D02*
X211141000Y-100995000D01*
X213623000Y-100995000D02*
X217003000Y-100995000D01*
X207779000Y-100955000D02*
X211141000Y-100955000D01*
X213623000Y-100955000D02*
X216985000Y-100955000D01*
X207798000Y-100915000D02*
X211141000Y-100915000D01*
X213623000Y-100915000D02*
X216966000Y-100915000D01*
X207818000Y-100875000D02*
X211141000Y-100875000D01*
X213623000Y-100875000D02*
X216946000Y-100875000D01*
X207837000Y-100835000D02*
X211141000Y-100835000D01*
X213623000Y-100835000D02*
X216927000Y-100835000D01*
X207857000Y-100795000D02*
X211141000Y-100795000D01*
X213623000Y-100795000D02*
X216907000Y-100795000D01*
X207878000Y-100755000D02*
X211141000Y-100755000D01*
X213623000Y-100755000D02*
X216886000Y-100755000D01*
X207899000Y-100715000D02*
X211141000Y-100715000D01*
X213623000Y-100715000D02*
X216865000Y-100715000D01*
X207920000Y-100675000D02*
X211141000Y-100675000D01*
X213623000Y-100675000D02*
X216844000Y-100675000D01*
X207942000Y-100635000D02*
X211141000Y-100635000D01*
X213623000Y-100635000D02*
X216822000Y-100635000D01*
X207965000Y-100595000D02*
X211141000Y-100595000D01*
X213623000Y-100595000D02*
X216799000Y-100595000D01*
X207987000Y-100555000D02*
X211141000Y-100555000D01*
X213623000Y-100555000D02*
X216777000Y-100555000D01*
X208011000Y-100515000D02*
X211141000Y-100515000D01*
X213623000Y-100515000D02*
X216753000Y-100515000D01*
X208035000Y-100475000D02*
X211141000Y-100475000D01*
X213623000Y-100475000D02*
X216729000Y-100475000D01*
X208059000Y-100435000D02*
X211141000Y-100435000D01*
X213623000Y-100435000D02*
X216705000Y-100435000D01*
X208084000Y-100395000D02*
X211141000Y-100395000D01*
X213623000Y-100395000D02*
X216680000Y-100395000D01*
X208109000Y-100355000D02*
X211141000Y-100355000D01*
X213623000Y-100355000D02*
X216655000Y-100355000D01*
X208135000Y-100315000D02*
X211141000Y-100315000D01*
X213623000Y-100315000D02*
X216629000Y-100315000D01*
X208161000Y-100275000D02*
X211141000Y-100275000D01*
X213623000Y-100275000D02*
X216603000Y-100275000D01*
X208188000Y-100235000D02*
X211141000Y-100235000D01*
X213623000Y-100235000D02*
X216576000Y-100235000D01*
X208216000Y-100195000D02*
X211141000Y-100195000D01*
X213623000Y-100195000D02*
X216548000Y-100195000D01*
X208244000Y-100155000D02*
X211141000Y-100155000D01*
X213623000Y-100155000D02*
X216520000Y-100155000D01*
X208272000Y-100115000D02*
X211141000Y-100115000D01*
X213623000Y-100115000D02*
X216492000Y-100115000D01*
X208302000Y-100075000D02*
X211141000Y-100075000D01*
X213623000Y-100075000D02*
X216462000Y-100075000D01*
X208332000Y-100035000D02*
X211141000Y-100035000D01*
X213623000Y-100035000D02*
X216432000Y-100035000D01*
X208362000Y-99995000D02*
X211141000Y-99995000D01*
X213623000Y-99995000D02*
X216402000Y-99995000D01*
X208393000Y-99955000D02*
X211141000Y-99955000D01*
X213623000Y-99955000D02*
X216371000Y-99955000D01*
X208425000Y-99915000D02*
X211141000Y-99915000D01*
X213623000Y-99915000D02*
X216339000Y-99915000D01*
X208457000Y-99875000D02*
X211141000Y-99875000D01*
X213623000Y-99875000D02*
X216307000Y-99875000D01*
X208490000Y-99835000D02*
X211141000Y-99835000D01*
X213623000Y-99835000D02*
X216274000Y-99835000D01*
X208524000Y-99795000D02*
X211141000Y-99795000D01*
X213623000Y-99795000D02*
X216240000Y-99795000D01*
X208558000Y-99755000D02*
X211141000Y-99755000D01*
X213623000Y-99755000D02*
X216206000Y-99755000D01*
X208593000Y-99715000D02*
X211141000Y-99715000D01*
X213623000Y-99715000D02*
X216171000Y-99715000D01*
X208629000Y-99675000D02*
X211141000Y-99675000D01*
X213623000Y-99675000D02*
X216135000Y-99675000D01*
X208666000Y-99635000D02*
X211141000Y-99635000D01*
X213623000Y-99635000D02*
X216098000Y-99635000D01*
X208703000Y-99595000D02*
X211141000Y-99595000D01*
X213623000Y-99595000D02*
X216061000Y-99595000D01*
X208742000Y-99555000D02*
X211141000Y-99555000D01*
X213623000Y-99555000D02*
X216022000Y-99555000D01*
X208781000Y-99515000D02*
X211141000Y-99515000D01*
X213623000Y-99515000D02*
X215983000Y-99515000D01*
X208821000Y-99475000D02*
X211141000Y-99475000D01*
X213623000Y-99475000D02*
X215943000Y-99475000D01*
X208862000Y-99435000D02*
X211141000Y-99435000D01*
X213623000Y-99435000D02*
X215902000Y-99435000D01*
X208904000Y-99395000D02*
X211141000Y-99395000D01*
X213623000Y-99395000D02*
X215860000Y-99395000D01*
X208946000Y-99355000D02*
X215818000Y-99355000D01*
X208990000Y-99315000D02*
X215774000Y-99315000D01*
X209035000Y-99275000D02*
X215729000Y-99275000D01*
X209081000Y-99235000D02*
X215683000Y-99235000D01*
X209128000Y-99195000D02*
X215636000Y-99195000D01*
X209176000Y-99155000D02*
X215588000Y-99155000D01*
X209226000Y-99115000D02*
X215538000Y-99115000D01*
X209276000Y-99075000D02*
X215488000Y-99075000D01*
X209328000Y-99035000D02*
X215436000Y-99035000D01*
X209382000Y-98995000D02*
X215382000Y-98995000D01*
X209437000Y-98955000D02*
X215327000Y-98955000D01*
X209493000Y-98915000D02*
X215271000Y-98915000D01*
X209552000Y-98875000D02*
X215212000Y-98875000D01*
X209612000Y-98835000D02*
X215152000Y-98835000D01*
X209673000Y-98795000D02*
X215091000Y-98795000D01*
X209737000Y-98755000D02*
X215027000Y-98755000D01*
X209803000Y-98715000D02*
X214961000Y-98715000D01*
X209872000Y-98675000D02*
X214892000Y-98675000D01*
X209943000Y-98635000D02*
X214821000Y-98635000D01*
X210017000Y-98595000D02*
X214747000Y-98595000D01*
X210093000Y-98555000D02*
X214671000Y-98555000D01*
X210173000Y-98515000D02*
X214591000Y-98515000D01*
X210257000Y-98475000D02*
X214507000Y-98475000D01*
X210345000Y-98435000D02*
X214419000Y-98435000D01*
X210438000Y-98395000D02*
X214326000Y-98395000D01*
X210536000Y-98355000D02*
X214228000Y-98355000D01*
X210640000Y-98315000D02*
X214124000Y-98315000D01*
X210752000Y-98275000D02*
X214012000Y-98275000D01*
X210872000Y-98235000D02*
X213892000Y-98235000D01*
X211004000Y-98195000D02*
X213760000Y-98195000D01*
X211152000Y-98155000D02*
X213612000Y-98155000D01*
X211320000Y-98115000D02*
X213444000Y-98115000D01*
X211520000Y-98075000D02*
X213244000Y-98075000D01*
X211783000Y-98035000D02*
X212981000Y-98035000D01*
X209507000Y-108595646D02*
X209507000Y-107595646D01*
X209007000Y-108095646D02*
X210007000Y-108095646D01*
X225292000Y-89686000D02*
X225292000Y-92346000D01*
X225292000Y-89686000D02*
X217612000Y-89686000D01*
X217612000Y-89686000D02*
X217612000Y-92346000D01*
X225292000Y-92346000D02*
X217612000Y-92346000D01*
X227892000Y-92346000D02*
X226562000Y-92346000D01*
X227892000Y-91016000D02*
X227892000Y-92346000D01*
X202998000Y-102514000D02*
X200058000Y-102514000D01*
X202998000Y-102754000D02*
X200058000Y-102754000D01*
X202998000Y-102634000D02*
X200058000Y-102634000D01*
X201528000Y-108194000D02*
X201528000Y-107174000D01*
X201528000Y-100714000D02*
X201528000Y-101734000D01*
X202998000Y-107174000D02*
X202998000Y-101734000D01*
X200058000Y-107174000D02*
X202998000Y-107174000D01*
X200058000Y-101734000D02*
X200058000Y-107174000D01*
X202998000Y-101734000D02*
X200058000Y-101734000D01*
X208072000Y-109157422D02*
X208072000Y-109674578D01*
X209492000Y-109157422D02*
X209492000Y-109674578D01*
X240122000Y-111236000D02*
X230222000Y-111236000D01*
X240122000Y-88615000D02*
X230222000Y-88615000D01*
X240122000Y-111236000D02*
X240122000Y-88615000D01*
X230222000Y-111236000D02*
X230222000Y-88615000D01*
X240362000Y-111476000D02*
X238978000Y-111476000D01*
X240362000Y-111476000D02*
X240362000Y-110093000D01*
X237202000Y-109451000D02*
X237202000Y-108181000D01*
X237202000Y-108181000D02*
X233142000Y-108181000D01*
X233142000Y-108181000D02*
X233142000Y-109451000D01*
X233142000Y-109451000D02*
X237202000Y-109451000D01*
X237202000Y-109331000D02*
X235848667Y-109331000D01*
X237202000Y-109211000D02*
X235848667Y-109211000D01*
X237202000Y-109091000D02*
X235848667Y-109091000D01*
X237202000Y-108971000D02*
X235848667Y-108971000D01*
X237202000Y-108851000D02*
X235848667Y-108851000D01*
X237202000Y-108731000D02*
X235848667Y-108731000D01*
X237202000Y-108611000D02*
X235848667Y-108611000D01*
X237202000Y-108491000D02*
X235848667Y-108491000D01*
X237202000Y-108371000D02*
X235848667Y-108371000D01*
X237202000Y-108251000D02*
X235848667Y-108251000D01*
X235848667Y-109451000D02*
X235848667Y-108181000D01*
X237202000Y-106911000D02*
X237202000Y-105641000D01*
X237202000Y-105641000D02*
X233142000Y-105641000D01*
X233142000Y-105641000D02*
X233142000Y-106911000D01*
X233142000Y-106911000D02*
X237202000Y-106911000D01*
X237202000Y-106791000D02*
X235848667Y-106791000D01*
X237202000Y-106671000D02*
X235848667Y-106671000D01*
X237202000Y-106551000D02*
X235848667Y-106551000D01*
X237202000Y-106431000D02*
X235848667Y-106431000D01*
X237202000Y-106311000D02*
X235848667Y-106311000D01*
X237202000Y-106191000D02*
X235848667Y-106191000D01*
X237202000Y-106071000D02*
X235848667Y-106071000D01*
X237202000Y-105951000D02*
X235848667Y-105951000D01*
X237202000Y-105831000D02*
X235848667Y-105831000D01*
X237202000Y-105711000D02*
X235848667Y-105711000D01*
X235848667Y-106911000D02*
X235848667Y-105641000D01*
X237202000Y-104371000D02*
X237202000Y-103101000D01*
X237202000Y-103101000D02*
X233142000Y-103101000D01*
X233142000Y-103101000D02*
X233142000Y-104371000D01*
X233142000Y-104371000D02*
X237202000Y-104371000D01*
X237202000Y-104251000D02*
X235848667Y-104251000D01*
X237202000Y-104131000D02*
X235848667Y-104131000D01*
X237202000Y-104011000D02*
X235848667Y-104011000D01*
X237202000Y-103891000D02*
X235848667Y-103891000D01*
X237202000Y-103771000D02*
X235848667Y-103771000D01*
X237202000Y-103651000D02*
X235848667Y-103651000D01*
X237202000Y-103531000D02*
X235848667Y-103531000D01*
X237202000Y-103411000D02*
X235848667Y-103411000D01*
X237202000Y-103291000D02*
X235848667Y-103291000D01*
X237202000Y-103171000D02*
X235848667Y-103171000D01*
X235848667Y-104371000D02*
X235848667Y-103101000D01*
X237202000Y-101831000D02*
X237202000Y-100561000D01*
X237202000Y-100561000D02*
X233142000Y-100561000D01*
X233142000Y-100561000D02*
X233142000Y-101831000D01*
X233142000Y-101831000D02*
X237202000Y-101831000D01*
X237202000Y-101711000D02*
X235848667Y-101711000D01*
X237202000Y-101591000D02*
X235848667Y-101591000D01*
X237202000Y-101471000D02*
X235848667Y-101471000D01*
X237202000Y-101351000D02*
X235848667Y-101351000D01*
X237202000Y-101231000D02*
X235848667Y-101231000D01*
X237202000Y-101111000D02*
X235848667Y-101111000D01*
X237202000Y-100991000D02*
X235848667Y-100991000D01*
X237202000Y-100871000D02*
X235848667Y-100871000D01*
X237202000Y-100751000D02*
X235848667Y-100751000D01*
X237202000Y-100631000D02*
X235848667Y-100631000D01*
X235848667Y-101831000D02*
X235848667Y-100561000D01*
X237202000Y-99291000D02*
X237202000Y-98021000D01*
X237202000Y-98021000D02*
X233142000Y-98021000D01*
X233142000Y-98021000D02*
X233142000Y-99291000D01*
X233142000Y-99291000D02*
X237202000Y-99291000D01*
X237202000Y-99171000D02*
X235848667Y-99171000D01*
X237202000Y-99051000D02*
X235848667Y-99051000D01*
X237202000Y-98931000D02*
X235848667Y-98931000D01*
X237202000Y-98811000D02*
X235848667Y-98811000D01*
X237202000Y-98691000D02*
X235848667Y-98691000D01*
X237202000Y-98571000D02*
X235848667Y-98571000D01*
X237202000Y-98451000D02*
X235848667Y-98451000D01*
X237202000Y-98331000D02*
X235848667Y-98331000D01*
X237202000Y-98211000D02*
X235848667Y-98211000D01*
X237202000Y-98091000D02*
X235848667Y-98091000D01*
X235848667Y-99291000D02*
X235848667Y-98021000D01*
X237202000Y-96751000D02*
X237202000Y-95481000D01*
X237202000Y-95481000D02*
X233142000Y-95481000D01*
X233142000Y-95481000D02*
X233142000Y-96751000D01*
X233142000Y-96751000D02*
X237202000Y-96751000D01*
X237202000Y-96631000D02*
X235848667Y-96631000D01*
X237202000Y-96511000D02*
X235848667Y-96511000D01*
X237202000Y-96391000D02*
X235848667Y-96391000D01*
X237202000Y-96271000D02*
X235848667Y-96271000D01*
X237202000Y-96151000D02*
X235848667Y-96151000D01*
X237202000Y-96031000D02*
X235848667Y-96031000D01*
X237202000Y-95911000D02*
X235848667Y-95911000D01*
X237202000Y-95791000D02*
X235848667Y-95791000D01*
X237202000Y-95671000D02*
X235848667Y-95671000D01*
X237202000Y-95551000D02*
X235848667Y-95551000D01*
X235848667Y-96751000D02*
X235848667Y-95481000D01*
X237202000Y-94211000D02*
X237202000Y-92941000D01*
X237202000Y-92941000D02*
X233142000Y-92941000D01*
X233142000Y-92941000D02*
X233142000Y-94211000D01*
X233142000Y-94211000D02*
X237202000Y-94211000D01*
X237202000Y-94091000D02*
X235848667Y-94091000D01*
X237202000Y-93971000D02*
X235848667Y-93971000D01*
X237202000Y-93851000D02*
X235848667Y-93851000D01*
X237202000Y-93731000D02*
X235848667Y-93731000D01*
X237202000Y-93611000D02*
X235848667Y-93611000D01*
X237202000Y-93491000D02*
X235848667Y-93491000D01*
X237202000Y-93371000D02*
X235848667Y-93371000D01*
X237202000Y-93251000D02*
X235848667Y-93251000D01*
X237202000Y-93131000D02*
X235848667Y-93131000D01*
X237202000Y-93011000D02*
X235848667Y-93011000D01*
X235848667Y-94211000D02*
X235848667Y-92941000D01*
X237202000Y-91671000D02*
X237202000Y-90401000D01*
X237202000Y-90401000D02*
X233142000Y-90401000D01*
X233142000Y-90401000D02*
X233142000Y-91671000D01*
X233142000Y-91671000D02*
X237202000Y-91671000D01*
X237202000Y-91551000D02*
X235848667Y-91551000D01*
X237202000Y-91431000D02*
X235848667Y-91431000D01*
X237202000Y-91311000D02*
X235848667Y-91311000D01*
X237202000Y-91191000D02*
X235848667Y-91191000D01*
X237202000Y-91071000D02*
X235848667Y-91071000D01*
X237202000Y-90951000D02*
X235848667Y-90951000D01*
X237202000Y-90831000D02*
X235848667Y-90831000D01*
X237202000Y-90711000D02*
X235848667Y-90711000D01*
X237202000Y-90591000D02*
X235848667Y-90591000D01*
X237202000Y-90471000D02*
X235848667Y-90471000D01*
X235848667Y-91671000D02*
X235848667Y-90401000D01*
X195378000Y-102514000D02*
X192438000Y-102514000D01*
X195378000Y-102754000D02*
X192438000Y-102754000D01*
X195378000Y-102634000D02*
X192438000Y-102634000D01*
X193908000Y-108194000D02*
X193908000Y-107174000D01*
X193908000Y-100714000D02*
X193908000Y-101734000D01*
X195378000Y-107174000D02*
X195378000Y-101734000D01*
X192438000Y-107174000D02*
X195378000Y-107174000D01*
X192438000Y-101734000D02*
X192438000Y-107174000D01*
X195378000Y-101734000D02*
X192438000Y-101734000D01*
X196248000Y-106394000D02*
X199188000Y-106394000D01*
X196248000Y-106154000D02*
X199188000Y-106154000D01*
X196248000Y-106274000D02*
X199188000Y-106274000D01*
X197718000Y-100714000D02*
X197718000Y-101734000D01*
X197718000Y-108194000D02*
X197718000Y-107174000D01*
X196248000Y-101734000D02*
X196248000Y-107174000D01*
X199188000Y-101734000D02*
X196248000Y-101734000D01*
X199188000Y-107174000D02*
X199188000Y-101734000D01*
X196248000Y-107174000D02*
X199188000Y-107174000D01*
X215723422Y-97826000D02*
X216240578Y-97826000D01*
X215723422Y-96406000D02*
X216240578Y-96406000D01*
D10*
X215720095Y-112168380D02*
X215720095Y-112977904D01*
X215767714Y-113073142D01*
X215815333Y-113120761D01*
X215910571Y-113168380D01*
X216101047Y-113168380D01*
X216196285Y-113120761D01*
X216243904Y-113073142D01*
X216291523Y-112977904D01*
X216291523Y-112168380D01*
X216720095Y-112263619D02*
X216767714Y-112216000D01*
X216862952Y-112168380D01*
X217101047Y-112168380D01*
X217196285Y-112216000D01*
X217243904Y-112263619D01*
X217291523Y-112358857D01*
X217291523Y-112454095D01*
X217243904Y-112596952D01*
X216672476Y-113168380D01*
X217291523Y-113168380D01*
X215186761Y-92363619D02*
X215091523Y-92316000D01*
X214996285Y-92220761D01*
X214853428Y-92077904D01*
X214758190Y-92030285D01*
X214662952Y-92030285D01*
X214710571Y-92268380D02*
X214615333Y-92220761D01*
X214520095Y-92125523D01*
X214472476Y-91935047D01*
X214472476Y-91601714D01*
X214520095Y-91411238D01*
X214615333Y-91316000D01*
X214710571Y-91268380D01*
X214901047Y-91268380D01*
X214996285Y-91316000D01*
X215091523Y-91411238D01*
X215139142Y-91601714D01*
X215139142Y-91935047D01*
X215091523Y-92125523D01*
X214996285Y-92220761D01*
X214901047Y-92268380D01*
X214710571Y-92268380D01*
X216091523Y-92268380D02*
X215520095Y-92268380D01*
X215805809Y-92268380D02*
X215805809Y-91268380D01*
X215710571Y-91411238D01*
X215615333Y-91506476D01*
X215520095Y-91554095D01*
X250720095Y-111468380D02*
X250720095Y-110468380D01*
X250720095Y-110944571D02*
X251291523Y-110944571D01*
X251291523Y-111468380D02*
X251291523Y-110468380D01*
X252196285Y-110801714D02*
X252196285Y-111468380D01*
X251958190Y-110420761D02*
X251720095Y-111135047D01*
X252339142Y-111135047D01*
X179720095Y-111468380D02*
X179720095Y-110468380D01*
X179720095Y-110944571D02*
X180291523Y-110944571D01*
X180291523Y-111468380D02*
X180291523Y-110468380D01*
X180672476Y-110468380D02*
X181291523Y-110468380D01*
X180958190Y-110849333D01*
X181101047Y-110849333D01*
X181196285Y-110896952D01*
X181243904Y-110944571D01*
X181291523Y-111039809D01*
X181291523Y-111277904D01*
X181243904Y-111373142D01*
X181196285Y-111420761D01*
X181101047Y-111468380D01*
X180815333Y-111468380D01*
X180720095Y-111420761D01*
X180672476Y-111373142D01*
X250720095Y-80468380D02*
X250720095Y-79468380D01*
X250720095Y-79944571D02*
X251291523Y-79944571D01*
X251291523Y-80468380D02*
X251291523Y-79468380D01*
X251720095Y-79563619D02*
X251767714Y-79516000D01*
X251862952Y-79468380D01*
X252101047Y-79468380D01*
X252196285Y-79516000D01*
X252243904Y-79563619D01*
X252291523Y-79658857D01*
X252291523Y-79754095D01*
X252243904Y-79896952D01*
X251672476Y-80468380D01*
X252291523Y-80468380D01*
X179720095Y-80468380D02*
X179720095Y-79468380D01*
X179720095Y-79944571D02*
X180291523Y-79944571D01*
X180291523Y-80468380D02*
X180291523Y-79468380D01*
X181291523Y-80468380D02*
X180720095Y-80468380D01*
X181005809Y-80468380D02*
X181005809Y-79468380D01*
X180910571Y-79611238D01*
X180815333Y-79706476D01*
X180720095Y-79754095D01*
X202448666Y-93595380D02*
X202448666Y-94309666D01*
X202401047Y-94452523D01*
X202305809Y-94547761D01*
X202162952Y-94595380D01*
X202067714Y-94595380D01*
X202877238Y-93690619D02*
X202924857Y-93643000D01*
X203020095Y-93595380D01*
X203258190Y-93595380D01*
X203353428Y-93643000D01*
X203401047Y-93690619D01*
X203448666Y-93785857D01*
X203448666Y-93881095D01*
X203401047Y-94023952D01*
X202829619Y-94595380D01*
X203448666Y-94595380D01*
X224115333Y-109668380D02*
X223782000Y-109192190D01*
X223543904Y-109668380D02*
X223543904Y-108668380D01*
X223924857Y-108668380D01*
X224020095Y-108716000D01*
X224067714Y-108763619D01*
X224115333Y-108858857D01*
X224115333Y-109001714D01*
X224067714Y-109096952D01*
X224020095Y-109144571D01*
X223924857Y-109192190D01*
X223543904Y-109192190D01*
X224972476Y-109001714D02*
X224972476Y-109668380D01*
X224734380Y-108620761D02*
X224496285Y-109335047D01*
X225115333Y-109335047D01*
X224315333Y-107668380D02*
X223982000Y-107192190D01*
X223743904Y-107668380D02*
X223743904Y-106668380D01*
X224124857Y-106668380D01*
X224220095Y-106716000D01*
X224267714Y-106763619D01*
X224315333Y-106858857D01*
X224315333Y-107001714D01*
X224267714Y-107096952D01*
X224220095Y-107144571D01*
X224124857Y-107192190D01*
X223743904Y-107192190D01*
X225267714Y-107668380D02*
X224696285Y-107668380D01*
X224982000Y-107668380D02*
X224982000Y-106668380D01*
X224886761Y-106811238D01*
X224791523Y-106906476D01*
X224696285Y-106954095D01*
X212215333Y-108073142D02*
X212167714Y-108120761D01*
X212024857Y-108168380D01*
X211929619Y-108168380D01*
X211786761Y-108120761D01*
X211691523Y-108025523D01*
X211643904Y-107930285D01*
X211596285Y-107739809D01*
X211596285Y-107596952D01*
X211643904Y-107406476D01*
X211691523Y-107311238D01*
X211786761Y-107216000D01*
X211929619Y-107168380D01*
X212024857Y-107168380D01*
X212167714Y-107216000D01*
X212215333Y-107263619D01*
X213120095Y-107168380D02*
X212643904Y-107168380D01*
X212596285Y-107644571D01*
X212643904Y-107596952D01*
X212739142Y-107549333D01*
X212977238Y-107549333D01*
X213072476Y-107596952D01*
X213120095Y-107644571D01*
X213167714Y-107739809D01*
X213167714Y-107977904D01*
X213120095Y-108073142D01*
X213072476Y-108120761D01*
X212977238Y-108168380D01*
X212739142Y-108168380D01*
X212643904Y-108120761D01*
X212596285Y-108073142D01*
X224015333Y-111573142D02*
X223967714Y-111620761D01*
X223824857Y-111668380D01*
X223729619Y-111668380D01*
X223586761Y-111620761D01*
X223491523Y-111525523D01*
X223443904Y-111430285D01*
X223396285Y-111239809D01*
X223396285Y-111096952D01*
X223443904Y-110906476D01*
X223491523Y-110811238D01*
X223586761Y-110716000D01*
X223729619Y-110668380D01*
X223824857Y-110668380D01*
X223967714Y-110716000D01*
X224015333Y-110763619D01*
X224872476Y-111001714D02*
X224872476Y-111668380D01*
X224634380Y-110620761D02*
X224396285Y-111335047D01*
X225015333Y-111335047D01*
X211415333Y-113473142D02*
X211367714Y-113520761D01*
X211224857Y-113568380D01*
X211129619Y-113568380D01*
X210986761Y-113520761D01*
X210891523Y-113425523D01*
X210843904Y-113330285D01*
X210796285Y-113139809D01*
X210796285Y-112996952D01*
X210843904Y-112806476D01*
X210891523Y-112711238D01*
X210986761Y-112616000D01*
X211129619Y-112568380D01*
X211224857Y-112568380D01*
X211367714Y-112616000D01*
X211415333Y-112663619D01*
X211796285Y-112663619D02*
X211843904Y-112616000D01*
X211939142Y-112568380D01*
X212177238Y-112568380D01*
X212272476Y-112616000D01*
X212320095Y-112663619D01*
X212367714Y-112758857D01*
X212367714Y-112854095D01*
X212320095Y-112996952D01*
X211748666Y-113568380D01*
X212367714Y-113568380D01*
X205790380Y-105192095D02*
X204790380Y-105192095D01*
X204790380Y-104954000D01*
X204838000Y-104811142D01*
X204933238Y-104715904D01*
X205028476Y-104668285D01*
X205218952Y-104620666D01*
X205361809Y-104620666D01*
X205552285Y-104668285D01*
X205647523Y-104715904D01*
X205742761Y-104811142D01*
X205790380Y-104954000D01*
X205790380Y-105192095D01*
X205123714Y-103763523D02*
X205790380Y-103763523D01*
X204742761Y-104001619D02*
X205457047Y-104239714D01*
X205457047Y-103620666D01*
X223020095Y-99222380D02*
X223020095Y-100031904D01*
X223067714Y-100127142D01*
X223115333Y-100174761D01*
X223210571Y-100222380D01*
X223401047Y-100222380D01*
X223496285Y-100174761D01*
X223543904Y-100127142D01*
X223591523Y-100031904D01*
X223591523Y-99222380D01*
X224591523Y-100222380D02*
X224020095Y-100222380D01*
X224305809Y-100222380D02*
X224305809Y-99222380D01*
X224210571Y-99365238D01*
X224115333Y-99460476D01*
X224020095Y-99508095D01*
X215136333Y-105173142D02*
X215088714Y-105220761D01*
X214945857Y-105268380D01*
X214850619Y-105268380D01*
X214707761Y-105220761D01*
X214612523Y-105125523D01*
X214564904Y-105030285D01*
X214517285Y-104839809D01*
X214517285Y-104696952D01*
X214564904Y-104506476D01*
X214612523Y-104411238D01*
X214707761Y-104316000D01*
X214850619Y-104268380D01*
X214945857Y-104268380D01*
X215088714Y-104316000D01*
X215136333Y-104363619D01*
X216088714Y-105268380D02*
X215517285Y-105268380D01*
X215803000Y-105268380D02*
X215803000Y-104268380D01*
X215707761Y-104411238D01*
X215612523Y-104506476D01*
X215517285Y-104554095D01*
X228828666Y-90268380D02*
X228828666Y-90982666D01*
X228781047Y-91125523D01*
X228685809Y-91220761D01*
X228542952Y-91268380D01*
X228447714Y-91268380D01*
X229828666Y-91268380D02*
X229257238Y-91268380D01*
X229542952Y-91268380D02*
X229542952Y-90268380D01*
X229447714Y-90411238D01*
X229352476Y-90506476D01*
X229257238Y-90554095D01*
X201980380Y-105192095D02*
X200980380Y-105192095D01*
X200980380Y-104954000D01*
X201028000Y-104811142D01*
X201123238Y-104715904D01*
X201218476Y-104668285D01*
X201408952Y-104620666D01*
X201551809Y-104620666D01*
X201742285Y-104668285D01*
X201837523Y-104715904D01*
X201932761Y-104811142D01*
X201980380Y-104954000D01*
X201980380Y-105192095D01*
X200980380Y-104287333D02*
X200980380Y-103668285D01*
X201361333Y-104001619D01*
X201361333Y-103858761D01*
X201408952Y-103763523D01*
X201456571Y-103715904D01*
X201551809Y-103668285D01*
X201789904Y-103668285D01*
X201885142Y-103715904D01*
X201932761Y-103763523D01*
X201980380Y-103858761D01*
X201980380Y-104144476D01*
X201932761Y-104239714D01*
X201885142Y-104287333D01*
X208615333Y-112268380D02*
X208282000Y-111792190D01*
X208043904Y-112268380D02*
X208043904Y-111268380D01*
X208424857Y-111268380D01*
X208520095Y-111316000D01*
X208567714Y-111363619D01*
X208615333Y-111458857D01*
X208615333Y-111601714D01*
X208567714Y-111696952D01*
X208520095Y-111744571D01*
X208424857Y-111792190D01*
X208043904Y-111792190D01*
X208996285Y-111363619D02*
X209043904Y-111316000D01*
X209139142Y-111268380D01*
X209377238Y-111268380D01*
X209472476Y-111316000D01*
X209520095Y-111363619D01*
X209567714Y-111458857D01*
X209567714Y-111554095D01*
X209520095Y-111696952D01*
X208948666Y-112268380D01*
X209567714Y-112268380D01*
X233838666Y-112640761D02*
X233981523Y-112688380D01*
X234219619Y-112688380D01*
X234314857Y-112640761D01*
X234362476Y-112593142D01*
X234410095Y-112497904D01*
X234410095Y-112402666D01*
X234362476Y-112307428D01*
X234314857Y-112259809D01*
X234219619Y-112212190D01*
X234029142Y-112164571D01*
X233933904Y-112116952D01*
X233886285Y-112069333D01*
X233838666Y-111974095D01*
X233838666Y-111878857D01*
X233886285Y-111783619D01*
X233933904Y-111736000D01*
X234029142Y-111688380D01*
X234267238Y-111688380D01*
X234410095Y-111736000D01*
X234743428Y-111688380D02*
X234981523Y-112688380D01*
X235172000Y-111974095D01*
X235362476Y-112688380D01*
X235600571Y-111688380D01*
X236505333Y-112688380D02*
X235933904Y-112688380D01*
X236219619Y-112688380D02*
X236219619Y-111688380D01*
X236124380Y-111831238D01*
X236029142Y-111926476D01*
X235933904Y-111974095D01*
X194360380Y-105192095D02*
X193360380Y-105192095D01*
X193360380Y-104954000D01*
X193408000Y-104811142D01*
X193503238Y-104715904D01*
X193598476Y-104668285D01*
X193788952Y-104620666D01*
X193931809Y-104620666D01*
X194122285Y-104668285D01*
X194217523Y-104715904D01*
X194312761Y-104811142D01*
X194360380Y-104954000D01*
X194360380Y-105192095D01*
X193455619Y-104239714D02*
X193408000Y-104192095D01*
X193360380Y-104096857D01*
X193360380Y-103858761D01*
X193408000Y-103763523D01*
X193455619Y-103715904D01*
X193550857Y-103668285D01*
X193646095Y-103668285D01*
X193788952Y-103715904D01*
X194360380Y-104287333D01*
X194360380Y-103668285D01*
X198170380Y-105192095D02*
X197170380Y-105192095D01*
X197170380Y-104954000D01*
X197218000Y-104811142D01*
X197313238Y-104715904D01*
X197408476Y-104668285D01*
X197598952Y-104620666D01*
X197741809Y-104620666D01*
X197932285Y-104668285D01*
X198027523Y-104715904D01*
X198122761Y-104811142D01*
X198170380Y-104954000D01*
X198170380Y-105192095D01*
X198170380Y-103668285D02*
X198170380Y-104239714D01*
X198170380Y-103954000D02*
X197170380Y-103954000D01*
X197313238Y-104049238D01*
X197408476Y-104144476D01*
X197456095Y-104239714D01*
X216715333Y-99268380D02*
X216382000Y-98792190D01*
X216143904Y-99268380D02*
X216143904Y-98268380D01*
X216524857Y-98268380D01*
X216620095Y-98316000D01*
X216667714Y-98363619D01*
X216715333Y-98458857D01*
X216715333Y-98601714D01*
X216667714Y-98696952D01*
X216620095Y-98744571D01*
X216524857Y-98792190D01*
X216143904Y-98792190D01*
X217048666Y-98268380D02*
X217667714Y-98268380D01*
X217334380Y-98649333D01*
X217477238Y-98649333D01*
X217572476Y-98696952D01*
X217620095Y-98744571D01*
X217667714Y-98839809D01*
X217667714Y-99077904D01*
X217620095Y-99173142D01*
X217572476Y-99220761D01*
X217477238Y-99268380D01*
X217191523Y-99268380D01*
X217096285Y-99220761D01*
X217048666Y-99173142D01*
M02*
