M48
; DRILL file {KiCad 5.1.2} date Fri 21 Jun 2019 11:02:51 PM WEST
; FORMAT={-:-/ absolute / inch / decimal}
; #@! TF.CreationDate,2019-06-21T23:02:51+01:00
; #@! TF.GenerationSoftware,Kicad,Pcbnew,5.1.2
; #@! TF.FileFunction,Plated,1,2,PTH
FMAT,2
INCH
T1C0.0157
T2C0.0236
T3C0.0315
T4C0.0394
T5C0.0433
T6C0.0512
%
G90
G05
T1
X8.105Y-3.935
X8.2666Y-3.7316
X8.27Y-3.635
X8.4186Y-3.8464
X8.48Y-3.805
X8.79Y-3.8
X9.105Y-3.985
X9.1147Y-3.6012
X9.155Y-4.005
X9.155Y-3.615
T2
X8.48Y-3.8659
X8.48Y-3.925
T3
X8.57Y-3.4963
X8.57Y-3.575
X8.6Y-4.165
X8.6Y-4.465
X8.7Y-4.165
X8.7Y-4.465
X8.8Y-4.165
X8.8Y-4.465
X8.9Y-4.165
X8.9Y-4.465
X9.0Y-4.165
X9.0Y-4.465
X9.1Y-4.165
X9.1Y-4.465
X9.2Y-4.165
X9.2Y-4.465
X9.3Y-4.165
X9.3Y-4.465
X8.34Y-3.375
X8.5369Y-3.375
T4
X8.17Y-4.11
X8.3669Y-4.11
X8.8Y-3.405
X8.9Y-3.405
X9.0Y-3.405
X9.1Y-3.405
T5
X7.67Y-3.81
X7.67Y-4.21
X7.52Y-3.81
X7.52Y-4.21
X7.97Y-3.81
X7.97Y-4.21
X7.82Y-3.81
X7.82Y-4.21
T6
X7.5794Y-3.535
X7.7763Y-3.535
X7.9731Y-3.535
X8.17Y-3.535
T0
M30
