M48
; DRILL file {KiCad 5.1.2} date Sun 23 Jun 2019 03:04:09 PM WEST
; FORMAT={-:-/ absolute / inch / decimal}
; #@! TF.CreationDate,2019-06-23T15:04:09+01:00
; #@! TF.GenerationSoftware,Kicad,Pcbnew,5.1.2
; #@! TF.FileFunction,Plated,1,2,PTH
FMAT,2
INCH
T1C0.0079
T2C0.0157
T3C0.0197
T4C0.0315
T5C0.0394
T6C0.0433
T7C0.0512
T8C0.1260
%
G90
G05
T1
X8.5013Y-4.3097
X8.5013Y-4.3609
X8.5446Y-4.3097
X8.5446Y-4.3609
T2
X8.2709Y-4.1699
X8.3457Y-4.2447
X8.4363Y-4.3983
X8.4383Y-4.2152
X8.456Y-4.4613
X8.6253Y-4.4258
X8.7158Y-4.3392
X9.019Y-3.6502
T3
X9.8064Y-3.3156
X9.8341Y-3.2488
X9.8341Y-3.3824
X9.9009Y-3.2211
X9.9009Y-3.4101
X9.9677Y-3.2488
X9.9677Y-3.3824
X9.9954Y-3.3156
X7.0111Y-4.5361
X7.0388Y-4.4692
X7.0388Y-4.6029
X7.1056Y-4.4416
X7.1056Y-4.6306
X7.1724Y-4.4692
X7.1724Y-4.6029
X7.2001Y-4.5361
X7.0111Y-3.3156
X7.0388Y-3.2488
X7.0388Y-3.3824
X7.1056Y-3.2211
X7.1056Y-3.4101
X7.1724Y-3.2488
X7.1724Y-3.3824
X7.2001Y-3.3156
X9.8064Y-4.5361
X9.8341Y-4.4692
X9.8341Y-4.6029
X9.9009Y-4.4416
X9.9009Y-4.6306
X9.9677Y-4.4692
X9.9677Y-4.6029
X9.9954Y-4.5361
T4
X9.1087Y-3.5841
X9.1087Y-3.6841
X9.1087Y-3.7841
X9.1087Y-3.8841
X9.1087Y-3.9841
X9.1087Y-4.0841
X9.1087Y-4.1841
X9.1087Y-4.2841
X9.4087Y-3.5841
X9.4087Y-3.6841
X9.4087Y-3.7841
X9.4087Y-3.8841
X9.4087Y-3.9841
X9.4087Y-4.0841
X9.4087Y-4.1841
X9.4087Y-4.2841
T5
X8.6198Y-3.5833
X8.7198Y-3.5833
X8.8198Y-3.5833
X8.9198Y-3.5833
X8.3615Y-3.9613
X8.3615Y-4.1581
T6
X7.7842Y-3.9124
X7.7842Y-4.3124
X7.9342Y-3.9124
X7.9342Y-4.3124
X7.6342Y-3.9124
X7.6342Y-4.3124
X8.0842Y-3.9124
X8.0842Y-4.3124
T7
X7.6936Y-3.6345
X7.8905Y-3.6345
X8.0873Y-3.6345
X8.2842Y-3.6345
T8
X9.9009Y-3.3156
X7.1056Y-4.5361
X7.1056Y-3.3156
X9.9009Y-4.5361
T0
M30
