G04 #@! TF.GenerationSoftware,KiCad,Pcbnew,5.1.2*
G04 #@! TF.CreationDate,2019-06-21T22:24:25+01:00*
G04 #@! TF.ProjectId,garage_receiver,67617261-6765-45f7-9265-636569766572,rev?*
G04 #@! TF.SameCoordinates,Original*
G04 #@! TF.FileFunction,Soldermask,Bot*
G04 #@! TF.FilePolarity,Negative*
%FSLAX46Y46*%
G04 Gerber Fmt 4.6, Leading zero omitted, Abs format (unit mm)*
G04 Created by KiCad (PCBNEW 5.1.2) date 2019-06-21 22:24:25*
%MOMM*%
%LPD*%
G04 APERTURE LIST*
%ADD10C,0.100000*%
G04 APERTURE END LIST*
D10*
G36*
X253857256Y-115607298D02*
G01*
X253963579Y-115628447D01*
X254264042Y-115752903D01*
X254534451Y-115933585D01*
X254764415Y-116163549D01*
X254945097Y-116433958D01*
X255069553Y-116734421D01*
X255133000Y-117053391D01*
X255133000Y-117378609D01*
X255069553Y-117697579D01*
X254945097Y-117998042D01*
X254764415Y-118268451D01*
X254534451Y-118498415D01*
X254264042Y-118679097D01*
X253963579Y-118803553D01*
X253857256Y-118824702D01*
X253644611Y-118867000D01*
X253319389Y-118867000D01*
X253106744Y-118824702D01*
X253000421Y-118803553D01*
X252699958Y-118679097D01*
X252429549Y-118498415D01*
X252199585Y-118268451D01*
X252018903Y-117998042D01*
X251894447Y-117697579D01*
X251831000Y-117378609D01*
X251831000Y-117053391D01*
X251894447Y-116734421D01*
X252018903Y-116433958D01*
X252199585Y-116163549D01*
X252429549Y-115933585D01*
X252699958Y-115752903D01*
X253000421Y-115628447D01*
X253106744Y-115607298D01*
X253319389Y-115565000D01*
X253644611Y-115565000D01*
X253857256Y-115607298D01*
X253857256Y-115607298D01*
G37*
G36*
X178857256Y-115607298D02*
G01*
X178963579Y-115628447D01*
X179264042Y-115752903D01*
X179534451Y-115933585D01*
X179764415Y-116163549D01*
X179945097Y-116433958D01*
X180069553Y-116734421D01*
X180133000Y-117053391D01*
X180133000Y-117378609D01*
X180069553Y-117697579D01*
X179945097Y-117998042D01*
X179764415Y-118268451D01*
X179534451Y-118498415D01*
X179264042Y-118679097D01*
X178963579Y-118803553D01*
X178857256Y-118824702D01*
X178644611Y-118867000D01*
X178319389Y-118867000D01*
X178106744Y-118824702D01*
X178000421Y-118803553D01*
X177699958Y-118679097D01*
X177429549Y-118498415D01*
X177199585Y-118268451D01*
X177018903Y-117998042D01*
X176894447Y-117697579D01*
X176831000Y-117378609D01*
X176831000Y-117053391D01*
X176894447Y-116734421D01*
X177018903Y-116433958D01*
X177199585Y-116163549D01*
X177429549Y-115933585D01*
X177699958Y-115752903D01*
X178000421Y-115628447D01*
X178106744Y-115607298D01*
X178319389Y-115565000D01*
X178644611Y-115565000D01*
X178857256Y-115607298D01*
X178857256Y-115607298D01*
G37*
G36*
X236386823Y-112572313D02*
G01*
X236547242Y-112620976D01*
X236679906Y-112691886D01*
X236695078Y-112699996D01*
X236824659Y-112806341D01*
X236931004Y-112935922D01*
X236931005Y-112935924D01*
X237010024Y-113083758D01*
X237058687Y-113244177D01*
X237075117Y-113411000D01*
X237058687Y-113577823D01*
X237010024Y-113738242D01*
X236939114Y-113870906D01*
X236931004Y-113886078D01*
X236824659Y-114015659D01*
X236695078Y-114122004D01*
X236695076Y-114122005D01*
X236547242Y-114201024D01*
X236386823Y-114249687D01*
X236261804Y-114262000D01*
X236178196Y-114262000D01*
X236053177Y-114249687D01*
X235892758Y-114201024D01*
X235744924Y-114122005D01*
X235744922Y-114122004D01*
X235615341Y-114015659D01*
X235508996Y-113886078D01*
X235500886Y-113870906D01*
X235429976Y-113738242D01*
X235381313Y-113577823D01*
X235364883Y-113411000D01*
X235381313Y-113244177D01*
X235429976Y-113083758D01*
X235508995Y-112935924D01*
X235508996Y-112935922D01*
X235615341Y-112806341D01*
X235744922Y-112699996D01*
X235760094Y-112691886D01*
X235892758Y-112620976D01*
X236053177Y-112572313D01*
X236178196Y-112560000D01*
X236261804Y-112560000D01*
X236386823Y-112572313D01*
X236386823Y-112572313D01*
G37*
G36*
X231306823Y-112572313D02*
G01*
X231467242Y-112620976D01*
X231599906Y-112691886D01*
X231615078Y-112699996D01*
X231744659Y-112806341D01*
X231851004Y-112935922D01*
X231851005Y-112935924D01*
X231930024Y-113083758D01*
X231978687Y-113244177D01*
X231995117Y-113411000D01*
X231978687Y-113577823D01*
X231930024Y-113738242D01*
X231859114Y-113870906D01*
X231851004Y-113886078D01*
X231744659Y-114015659D01*
X231615078Y-114122004D01*
X231615076Y-114122005D01*
X231467242Y-114201024D01*
X231306823Y-114249687D01*
X231181804Y-114262000D01*
X231098196Y-114262000D01*
X230973177Y-114249687D01*
X230812758Y-114201024D01*
X230664924Y-114122005D01*
X230664922Y-114122004D01*
X230535341Y-114015659D01*
X230428996Y-113886078D01*
X230420886Y-113870906D01*
X230349976Y-113738242D01*
X230301313Y-113577823D01*
X230284883Y-113411000D01*
X230301313Y-113244177D01*
X230349976Y-113083758D01*
X230428995Y-112935924D01*
X230428996Y-112935922D01*
X230535341Y-112806341D01*
X230664922Y-112699996D01*
X230680094Y-112691886D01*
X230812758Y-112620976D01*
X230973177Y-112572313D01*
X231098196Y-112560000D01*
X231181804Y-112560000D01*
X231306823Y-112572313D01*
X231306823Y-112572313D01*
G37*
G36*
X228766823Y-112572313D02*
G01*
X228927242Y-112620976D01*
X229059906Y-112691886D01*
X229075078Y-112699996D01*
X229204659Y-112806341D01*
X229311004Y-112935922D01*
X229311005Y-112935924D01*
X229390024Y-113083758D01*
X229438687Y-113244177D01*
X229455117Y-113411000D01*
X229438687Y-113577823D01*
X229390024Y-113738242D01*
X229319114Y-113870906D01*
X229311004Y-113886078D01*
X229204659Y-114015659D01*
X229075078Y-114122004D01*
X229075076Y-114122005D01*
X228927242Y-114201024D01*
X228766823Y-114249687D01*
X228641804Y-114262000D01*
X228558196Y-114262000D01*
X228433177Y-114249687D01*
X228272758Y-114201024D01*
X228124924Y-114122005D01*
X228124922Y-114122004D01*
X227995341Y-114015659D01*
X227888996Y-113886078D01*
X227880886Y-113870906D01*
X227809976Y-113738242D01*
X227761313Y-113577823D01*
X227744883Y-113411000D01*
X227761313Y-113244177D01*
X227809976Y-113083758D01*
X227888995Y-112935924D01*
X227888996Y-112935922D01*
X227995341Y-112806341D01*
X228124922Y-112699996D01*
X228140094Y-112691886D01*
X228272758Y-112620976D01*
X228433177Y-112572313D01*
X228558196Y-112560000D01*
X228641804Y-112560000D01*
X228766823Y-112572313D01*
X228766823Y-112572313D01*
G37*
G36*
X226226823Y-112572313D02*
G01*
X226387242Y-112620976D01*
X226519906Y-112691886D01*
X226535078Y-112699996D01*
X226664659Y-112806341D01*
X226771004Y-112935922D01*
X226771005Y-112935924D01*
X226850024Y-113083758D01*
X226898687Y-113244177D01*
X226915117Y-113411000D01*
X226898687Y-113577823D01*
X226850024Y-113738242D01*
X226779114Y-113870906D01*
X226771004Y-113886078D01*
X226664659Y-114015659D01*
X226535078Y-114122004D01*
X226535076Y-114122005D01*
X226387242Y-114201024D01*
X226226823Y-114249687D01*
X226101804Y-114262000D01*
X226018196Y-114262000D01*
X225893177Y-114249687D01*
X225732758Y-114201024D01*
X225584924Y-114122005D01*
X225584922Y-114122004D01*
X225455341Y-114015659D01*
X225348996Y-113886078D01*
X225340886Y-113870906D01*
X225269976Y-113738242D01*
X225221313Y-113577823D01*
X225204883Y-113411000D01*
X225221313Y-113244177D01*
X225269976Y-113083758D01*
X225348995Y-112935924D01*
X225348996Y-112935922D01*
X225455341Y-112806341D01*
X225584922Y-112699996D01*
X225600094Y-112691886D01*
X225732758Y-112620976D01*
X225893177Y-112572313D01*
X226018196Y-112560000D01*
X226101804Y-112560000D01*
X226226823Y-112572313D01*
X226226823Y-112572313D01*
G37*
G36*
X223686823Y-112572313D02*
G01*
X223847242Y-112620976D01*
X223979906Y-112691886D01*
X223995078Y-112699996D01*
X224124659Y-112806341D01*
X224231004Y-112935922D01*
X224231005Y-112935924D01*
X224310024Y-113083758D01*
X224358687Y-113244177D01*
X224375117Y-113411000D01*
X224358687Y-113577823D01*
X224310024Y-113738242D01*
X224239114Y-113870906D01*
X224231004Y-113886078D01*
X224124659Y-114015659D01*
X223995078Y-114122004D01*
X223995076Y-114122005D01*
X223847242Y-114201024D01*
X223686823Y-114249687D01*
X223561804Y-114262000D01*
X223478196Y-114262000D01*
X223353177Y-114249687D01*
X223192758Y-114201024D01*
X223044924Y-114122005D01*
X223044922Y-114122004D01*
X222915341Y-114015659D01*
X222808996Y-113886078D01*
X222800886Y-113870906D01*
X222729976Y-113738242D01*
X222681313Y-113577823D01*
X222664883Y-113411000D01*
X222681313Y-113244177D01*
X222729976Y-113083758D01*
X222808995Y-112935924D01*
X222808996Y-112935922D01*
X222915341Y-112806341D01*
X223044922Y-112699996D01*
X223060094Y-112691886D01*
X223192758Y-112620976D01*
X223353177Y-112572313D01*
X223478196Y-112560000D01*
X223561804Y-112560000D01*
X223686823Y-112572313D01*
X223686823Y-112572313D01*
G37*
G36*
X221146823Y-112572313D02*
G01*
X221307242Y-112620976D01*
X221439906Y-112691886D01*
X221455078Y-112699996D01*
X221584659Y-112806341D01*
X221691004Y-112935922D01*
X221691005Y-112935924D01*
X221770024Y-113083758D01*
X221818687Y-113244177D01*
X221835117Y-113411000D01*
X221818687Y-113577823D01*
X221770024Y-113738242D01*
X221699114Y-113870906D01*
X221691004Y-113886078D01*
X221584659Y-114015659D01*
X221455078Y-114122004D01*
X221455076Y-114122005D01*
X221307242Y-114201024D01*
X221146823Y-114249687D01*
X221021804Y-114262000D01*
X220938196Y-114262000D01*
X220813177Y-114249687D01*
X220652758Y-114201024D01*
X220504924Y-114122005D01*
X220504922Y-114122004D01*
X220375341Y-114015659D01*
X220268996Y-113886078D01*
X220260886Y-113870906D01*
X220189976Y-113738242D01*
X220141313Y-113577823D01*
X220124883Y-113411000D01*
X220141313Y-113244177D01*
X220189976Y-113083758D01*
X220268995Y-112935924D01*
X220268996Y-112935922D01*
X220375341Y-112806341D01*
X220504922Y-112699996D01*
X220520094Y-112691886D01*
X220652758Y-112620976D01*
X220813177Y-112572313D01*
X220938196Y-112560000D01*
X221021804Y-112560000D01*
X221146823Y-112572313D01*
X221146823Y-112572313D01*
G37*
G36*
X219291000Y-114262000D02*
G01*
X217589000Y-114262000D01*
X217589000Y-112560000D01*
X219291000Y-112560000D01*
X219291000Y-114262000D01*
X219291000Y-114262000D01*
G37*
G36*
X233846823Y-112572313D02*
G01*
X234007242Y-112620976D01*
X234139906Y-112691886D01*
X234155078Y-112699996D01*
X234284659Y-112806341D01*
X234391004Y-112935922D01*
X234391005Y-112935924D01*
X234470024Y-113083758D01*
X234518687Y-113244177D01*
X234535117Y-113411000D01*
X234518687Y-113577823D01*
X234470024Y-113738242D01*
X234399114Y-113870906D01*
X234391004Y-113886078D01*
X234284659Y-114015659D01*
X234155078Y-114122004D01*
X234155076Y-114122005D01*
X234007242Y-114201024D01*
X233846823Y-114249687D01*
X233721804Y-114262000D01*
X233638196Y-114262000D01*
X233513177Y-114249687D01*
X233352758Y-114201024D01*
X233204924Y-114122005D01*
X233204922Y-114122004D01*
X233075341Y-114015659D01*
X232968996Y-113886078D01*
X232960886Y-113870906D01*
X232889976Y-113738242D01*
X232841313Y-113577823D01*
X232824883Y-113411000D01*
X232841313Y-113244177D01*
X232889976Y-113083758D01*
X232968995Y-112935924D01*
X232968996Y-112935922D01*
X233075341Y-112806341D01*
X233204922Y-112699996D01*
X233220094Y-112691886D01*
X233352758Y-112620976D01*
X233513177Y-112572313D01*
X233638196Y-112560000D01*
X233721804Y-112560000D01*
X233846823Y-112572313D01*
X233846823Y-112572313D01*
G37*
G36*
X198765769Y-105791000D02*
G01*
X198853635Y-105799654D01*
X199070600Y-105865470D01*
X199070602Y-105865471D01*
X199270555Y-105972347D01*
X199445818Y-106116182D01*
X199589653Y-106291445D01*
X199696529Y-106491398D01*
X199696530Y-106491400D01*
X199738479Y-106629686D01*
X199762346Y-106708366D01*
X199784569Y-106934000D01*
X199762346Y-107159634D01*
X199696529Y-107376602D01*
X199589653Y-107576555D01*
X199445818Y-107751818D01*
X199270555Y-107895653D01*
X199070602Y-108002529D01*
X199070600Y-108002530D01*
X198853635Y-108068346D01*
X198797271Y-108073897D01*
X198684545Y-108085000D01*
X198571455Y-108085000D01*
X198458729Y-108073897D01*
X198402365Y-108068346D01*
X198185400Y-108002530D01*
X198185398Y-108002529D01*
X197985445Y-107895653D01*
X197810182Y-107751818D01*
X197666347Y-107576555D01*
X197559471Y-107376602D01*
X197493654Y-107159634D01*
X197471431Y-106934000D01*
X197493654Y-106708366D01*
X197517521Y-106629686D01*
X197559470Y-106491400D01*
X197559471Y-106491398D01*
X197666347Y-106291445D01*
X197810182Y-106116182D01*
X197985445Y-105972347D01*
X198185398Y-105865471D01*
X198185400Y-105865470D01*
X198402365Y-105799654D01*
X198490231Y-105791000D01*
X198571455Y-105783000D01*
X198684545Y-105783000D01*
X198765769Y-105791000D01*
X198765769Y-105791000D01*
G37*
G36*
X203589000Y-108085000D02*
G01*
X201287000Y-108085000D01*
X201287000Y-105783000D01*
X203589000Y-105783000D01*
X203589000Y-108085000D01*
X203589000Y-108085000D01*
G37*
G36*
X191145769Y-105791000D02*
G01*
X191233635Y-105799654D01*
X191450600Y-105865470D01*
X191450602Y-105865471D01*
X191650555Y-105972347D01*
X191825818Y-106116182D01*
X191969653Y-106291445D01*
X192076529Y-106491398D01*
X192076530Y-106491400D01*
X192118479Y-106629686D01*
X192142346Y-106708366D01*
X192164569Y-106934000D01*
X192142346Y-107159634D01*
X192076529Y-107376602D01*
X191969653Y-107576555D01*
X191825818Y-107751818D01*
X191650555Y-107895653D01*
X191450602Y-108002529D01*
X191450600Y-108002530D01*
X191233635Y-108068346D01*
X191177271Y-108073897D01*
X191064545Y-108085000D01*
X190951455Y-108085000D01*
X190838729Y-108073897D01*
X190782365Y-108068346D01*
X190565400Y-108002530D01*
X190565398Y-108002529D01*
X190365445Y-107895653D01*
X190190182Y-107751818D01*
X190046347Y-107576555D01*
X189939471Y-107376602D01*
X189873654Y-107159634D01*
X189851431Y-106934000D01*
X189873654Y-106708366D01*
X189897521Y-106629686D01*
X189939470Y-106491400D01*
X189939471Y-106491398D01*
X190046347Y-106291445D01*
X190190182Y-106116182D01*
X190365445Y-105972347D01*
X190565398Y-105865471D01*
X190565400Y-105865470D01*
X190782365Y-105799654D01*
X190870231Y-105791000D01*
X190951455Y-105783000D01*
X191064545Y-105783000D01*
X191145769Y-105791000D01*
X191145769Y-105791000D01*
G37*
G36*
X195969000Y-108085000D02*
G01*
X193667000Y-108085000D01*
X193667000Y-105783000D01*
X195969000Y-105783000D01*
X195969000Y-108085000D01*
X195969000Y-108085000D01*
G37*
G36*
X218606823Y-104952313D02*
G01*
X218767242Y-105000976D01*
X218885101Y-105063973D01*
X218915078Y-105079996D01*
X219044659Y-105186341D01*
X219151004Y-105315922D01*
X219156062Y-105325385D01*
X219230024Y-105463758D01*
X219278687Y-105624177D01*
X219295117Y-105791000D01*
X219278687Y-105957823D01*
X219230024Y-106118242D01*
X219159114Y-106250906D01*
X219151004Y-106266078D01*
X219044659Y-106395659D01*
X218915078Y-106502004D01*
X218915076Y-106502005D01*
X218767242Y-106581024D01*
X218606823Y-106629687D01*
X218481804Y-106642000D01*
X218398196Y-106642000D01*
X218273177Y-106629687D01*
X218112758Y-106581024D01*
X217964924Y-106502005D01*
X217964922Y-106502004D01*
X217835341Y-106395659D01*
X217728996Y-106266078D01*
X217720886Y-106250906D01*
X217649976Y-106118242D01*
X217601313Y-105957823D01*
X217584883Y-105791000D01*
X217601313Y-105624177D01*
X217649976Y-105463758D01*
X217723938Y-105325385D01*
X217728996Y-105315922D01*
X217835341Y-105186341D01*
X217964922Y-105079996D01*
X217994899Y-105063973D01*
X218112758Y-105000976D01*
X218273177Y-104952313D01*
X218398196Y-104940000D01*
X218481804Y-104940000D01*
X218606823Y-104952313D01*
X218606823Y-104952313D01*
G37*
G36*
X228766823Y-104952313D02*
G01*
X228927242Y-105000976D01*
X229045101Y-105063973D01*
X229075078Y-105079996D01*
X229204659Y-105186341D01*
X229311004Y-105315922D01*
X229316062Y-105325385D01*
X229390024Y-105463758D01*
X229438687Y-105624177D01*
X229455117Y-105791000D01*
X229438687Y-105957823D01*
X229390024Y-106118242D01*
X229319114Y-106250906D01*
X229311004Y-106266078D01*
X229204659Y-106395659D01*
X229075078Y-106502004D01*
X229075076Y-106502005D01*
X228927242Y-106581024D01*
X228766823Y-106629687D01*
X228641804Y-106642000D01*
X228558196Y-106642000D01*
X228433177Y-106629687D01*
X228272758Y-106581024D01*
X228124924Y-106502005D01*
X228124922Y-106502004D01*
X227995341Y-106395659D01*
X227888996Y-106266078D01*
X227880886Y-106250906D01*
X227809976Y-106118242D01*
X227761313Y-105957823D01*
X227744883Y-105791000D01*
X227761313Y-105624177D01*
X227809976Y-105463758D01*
X227883938Y-105325385D01*
X227888996Y-105315922D01*
X227995341Y-105186341D01*
X228124922Y-105079996D01*
X228154899Y-105063973D01*
X228272758Y-105000976D01*
X228433177Y-104952313D01*
X228558196Y-104940000D01*
X228641804Y-104940000D01*
X228766823Y-104952313D01*
X228766823Y-104952313D01*
G37*
G36*
X231306823Y-104952313D02*
G01*
X231467242Y-105000976D01*
X231585101Y-105063973D01*
X231615078Y-105079996D01*
X231744659Y-105186341D01*
X231851004Y-105315922D01*
X231856062Y-105325385D01*
X231930024Y-105463758D01*
X231978687Y-105624177D01*
X231995117Y-105791000D01*
X231978687Y-105957823D01*
X231930024Y-106118242D01*
X231859114Y-106250906D01*
X231851004Y-106266078D01*
X231744659Y-106395659D01*
X231615078Y-106502004D01*
X231615076Y-106502005D01*
X231467242Y-106581024D01*
X231306823Y-106629687D01*
X231181804Y-106642000D01*
X231098196Y-106642000D01*
X230973177Y-106629687D01*
X230812758Y-106581024D01*
X230664924Y-106502005D01*
X230664922Y-106502004D01*
X230535341Y-106395659D01*
X230428996Y-106266078D01*
X230420886Y-106250906D01*
X230349976Y-106118242D01*
X230301313Y-105957823D01*
X230284883Y-105791000D01*
X230301313Y-105624177D01*
X230349976Y-105463758D01*
X230423938Y-105325385D01*
X230428996Y-105315922D01*
X230535341Y-105186341D01*
X230664922Y-105079996D01*
X230694899Y-105063973D01*
X230812758Y-105000976D01*
X230973177Y-104952313D01*
X231098196Y-104940000D01*
X231181804Y-104940000D01*
X231306823Y-104952313D01*
X231306823Y-104952313D01*
G37*
G36*
X223686823Y-104952313D02*
G01*
X223847242Y-105000976D01*
X223965101Y-105063973D01*
X223995078Y-105079996D01*
X224124659Y-105186341D01*
X224231004Y-105315922D01*
X224236062Y-105325385D01*
X224310024Y-105463758D01*
X224358687Y-105624177D01*
X224375117Y-105791000D01*
X224358687Y-105957823D01*
X224310024Y-106118242D01*
X224239114Y-106250906D01*
X224231004Y-106266078D01*
X224124659Y-106395659D01*
X223995078Y-106502004D01*
X223995076Y-106502005D01*
X223847242Y-106581024D01*
X223686823Y-106629687D01*
X223561804Y-106642000D01*
X223478196Y-106642000D01*
X223353177Y-106629687D01*
X223192758Y-106581024D01*
X223044924Y-106502005D01*
X223044922Y-106502004D01*
X222915341Y-106395659D01*
X222808996Y-106266078D01*
X222800886Y-106250906D01*
X222729976Y-106118242D01*
X222681313Y-105957823D01*
X222664883Y-105791000D01*
X222681313Y-105624177D01*
X222729976Y-105463758D01*
X222803938Y-105325385D01*
X222808996Y-105315922D01*
X222915341Y-105186341D01*
X223044922Y-105079996D01*
X223074899Y-105063973D01*
X223192758Y-105000976D01*
X223353177Y-104952313D01*
X223478196Y-104940000D01*
X223561804Y-104940000D01*
X223686823Y-104952313D01*
X223686823Y-104952313D01*
G37*
G36*
X221146823Y-104952313D02*
G01*
X221307242Y-105000976D01*
X221425101Y-105063973D01*
X221455078Y-105079996D01*
X221584659Y-105186341D01*
X221691004Y-105315922D01*
X221696062Y-105325385D01*
X221770024Y-105463758D01*
X221818687Y-105624177D01*
X221835117Y-105791000D01*
X221818687Y-105957823D01*
X221770024Y-106118242D01*
X221699114Y-106250906D01*
X221691004Y-106266078D01*
X221584659Y-106395659D01*
X221455078Y-106502004D01*
X221455076Y-106502005D01*
X221307242Y-106581024D01*
X221146823Y-106629687D01*
X221021804Y-106642000D01*
X220938196Y-106642000D01*
X220813177Y-106629687D01*
X220652758Y-106581024D01*
X220504924Y-106502005D01*
X220504922Y-106502004D01*
X220375341Y-106395659D01*
X220268996Y-106266078D01*
X220260886Y-106250906D01*
X220189976Y-106118242D01*
X220141313Y-105957823D01*
X220124883Y-105791000D01*
X220141313Y-105624177D01*
X220189976Y-105463758D01*
X220263938Y-105325385D01*
X220268996Y-105315922D01*
X220375341Y-105186341D01*
X220504922Y-105079996D01*
X220534899Y-105063973D01*
X220652758Y-105000976D01*
X220813177Y-104952313D01*
X220938196Y-104940000D01*
X221021804Y-104940000D01*
X221146823Y-104952313D01*
X221146823Y-104952313D01*
G37*
G36*
X236386823Y-104952313D02*
G01*
X236547242Y-105000976D01*
X236665101Y-105063973D01*
X236695078Y-105079996D01*
X236824659Y-105186341D01*
X236931004Y-105315922D01*
X236936062Y-105325385D01*
X237010024Y-105463758D01*
X237058687Y-105624177D01*
X237075117Y-105791000D01*
X237058687Y-105957823D01*
X237010024Y-106118242D01*
X236939114Y-106250906D01*
X236931004Y-106266078D01*
X236824659Y-106395659D01*
X236695078Y-106502004D01*
X236695076Y-106502005D01*
X236547242Y-106581024D01*
X236386823Y-106629687D01*
X236261804Y-106642000D01*
X236178196Y-106642000D01*
X236053177Y-106629687D01*
X235892758Y-106581024D01*
X235744924Y-106502005D01*
X235744922Y-106502004D01*
X235615341Y-106395659D01*
X235508996Y-106266078D01*
X235500886Y-106250906D01*
X235429976Y-106118242D01*
X235381313Y-105957823D01*
X235364883Y-105791000D01*
X235381313Y-105624177D01*
X235429976Y-105463758D01*
X235503938Y-105325385D01*
X235508996Y-105315922D01*
X235615341Y-105186341D01*
X235744922Y-105079996D01*
X235774899Y-105063973D01*
X235892758Y-105000976D01*
X236053177Y-104952313D01*
X236178196Y-104940000D01*
X236261804Y-104940000D01*
X236386823Y-104952313D01*
X236386823Y-104952313D01*
G37*
G36*
X226226823Y-104952313D02*
G01*
X226387242Y-105000976D01*
X226505101Y-105063973D01*
X226535078Y-105079996D01*
X226664659Y-105186341D01*
X226771004Y-105315922D01*
X226776062Y-105325385D01*
X226850024Y-105463758D01*
X226898687Y-105624177D01*
X226915117Y-105791000D01*
X226898687Y-105957823D01*
X226850024Y-106118242D01*
X226779114Y-106250906D01*
X226771004Y-106266078D01*
X226664659Y-106395659D01*
X226535078Y-106502004D01*
X226535076Y-106502005D01*
X226387242Y-106581024D01*
X226226823Y-106629687D01*
X226101804Y-106642000D01*
X226018196Y-106642000D01*
X225893177Y-106629687D01*
X225732758Y-106581024D01*
X225584924Y-106502005D01*
X225584922Y-106502004D01*
X225455341Y-106395659D01*
X225348996Y-106266078D01*
X225340886Y-106250906D01*
X225269976Y-106118242D01*
X225221313Y-105957823D01*
X225204883Y-105791000D01*
X225221313Y-105624177D01*
X225269976Y-105463758D01*
X225343938Y-105325385D01*
X225348996Y-105315922D01*
X225455341Y-105186341D01*
X225584922Y-105079996D01*
X225614899Y-105063973D01*
X225732758Y-105000976D01*
X225893177Y-104952313D01*
X226018196Y-104940000D01*
X226101804Y-104940000D01*
X226226823Y-104952313D01*
X226226823Y-104952313D01*
G37*
G36*
X233846823Y-104952313D02*
G01*
X234007242Y-105000976D01*
X234125101Y-105063973D01*
X234155078Y-105079996D01*
X234284659Y-105186341D01*
X234391004Y-105315922D01*
X234396062Y-105325385D01*
X234470024Y-105463758D01*
X234518687Y-105624177D01*
X234535117Y-105791000D01*
X234518687Y-105957823D01*
X234470024Y-106118242D01*
X234399114Y-106250906D01*
X234391004Y-106266078D01*
X234284659Y-106395659D01*
X234155078Y-106502004D01*
X234155076Y-106502005D01*
X234007242Y-106581024D01*
X233846823Y-106629687D01*
X233721804Y-106642000D01*
X233638196Y-106642000D01*
X233513177Y-106629687D01*
X233352758Y-106581024D01*
X233204924Y-106502005D01*
X233204922Y-106502004D01*
X233075341Y-106395659D01*
X232968996Y-106266078D01*
X232960886Y-106250906D01*
X232889976Y-106118242D01*
X232841313Y-105957823D01*
X232824883Y-105791000D01*
X232841313Y-105624177D01*
X232889976Y-105463758D01*
X232963938Y-105325385D01*
X232968996Y-105315922D01*
X233075341Y-105186341D01*
X233204922Y-105079996D01*
X233234899Y-105063973D01*
X233352758Y-105000976D01*
X233513177Y-104952313D01*
X233638196Y-104940000D01*
X233721804Y-104940000D01*
X233846823Y-104952313D01*
X233846823Y-104952313D01*
G37*
G36*
X212824564Y-103383389D02*
G01*
X213015833Y-103462615D01*
X213015835Y-103462616D01*
X213187973Y-103577635D01*
X213334365Y-103724027D01*
X213449385Y-103896167D01*
X213528611Y-104087436D01*
X213569000Y-104290484D01*
X213569000Y-104497516D01*
X213528611Y-104700564D01*
X213449385Y-104891833D01*
X213449384Y-104891835D01*
X213334365Y-105063973D01*
X213187973Y-105210365D01*
X213015835Y-105325384D01*
X213015834Y-105325385D01*
X213015833Y-105325385D01*
X212824564Y-105404611D01*
X212621516Y-105445000D01*
X212414484Y-105445000D01*
X212211436Y-105404611D01*
X212020167Y-105325385D01*
X212020166Y-105325385D01*
X212020165Y-105325384D01*
X211848027Y-105210365D01*
X211701635Y-105063973D01*
X211586616Y-104891835D01*
X211586615Y-104891833D01*
X211507389Y-104700564D01*
X211467000Y-104497516D01*
X211467000Y-104290484D01*
X211507389Y-104087436D01*
X211586615Y-103896167D01*
X211701635Y-103724027D01*
X211848027Y-103577635D01*
X212020165Y-103462616D01*
X212020167Y-103462615D01*
X212211436Y-103383389D01*
X212414484Y-103343000D01*
X212621516Y-103343000D01*
X212824564Y-103383389D01*
X212824564Y-103383389D01*
G37*
G36*
X208569000Y-105445000D02*
G01*
X206467000Y-105445000D01*
X206467000Y-103343000D01*
X208569000Y-103343000D01*
X208569000Y-105445000D01*
X208569000Y-105445000D01*
G37*
G36*
X215581890Y-97569017D02*
G01*
X215700364Y-97618091D01*
X215806988Y-97689335D01*
X215897665Y-97780012D01*
X215968909Y-97886636D01*
X216017983Y-98005110D01*
X216043000Y-98130882D01*
X216043000Y-98259118D01*
X216017983Y-98384890D01*
X215968909Y-98503364D01*
X215897665Y-98609988D01*
X215806988Y-98700665D01*
X215700364Y-98771909D01*
X215700363Y-98771910D01*
X215700362Y-98771910D01*
X215624056Y-98803517D01*
X215602445Y-98815068D01*
X215583503Y-98830613D01*
X215567958Y-98849555D01*
X215556407Y-98871166D01*
X215549294Y-98894615D01*
X215546892Y-98919001D01*
X215549294Y-98943387D01*
X215556407Y-98966836D01*
X215567958Y-98988447D01*
X215583503Y-99007389D01*
X215602445Y-99022934D01*
X215624056Y-99034485D01*
X215647505Y-99041598D01*
X215671891Y-99044000D01*
X216043000Y-99044000D01*
X216043000Y-100346000D01*
X214741000Y-100346000D01*
X214741000Y-99044000D01*
X215112109Y-99044000D01*
X215136495Y-99041598D01*
X215159944Y-99034485D01*
X215181555Y-99022934D01*
X215200497Y-99007389D01*
X215216042Y-98988447D01*
X215227593Y-98966836D01*
X215234706Y-98943387D01*
X215237108Y-98919001D01*
X215234706Y-98894615D01*
X215227593Y-98871166D01*
X215216042Y-98849555D01*
X215200497Y-98830613D01*
X215181555Y-98815068D01*
X215159944Y-98803517D01*
X215083638Y-98771910D01*
X215083637Y-98771910D01*
X215083636Y-98771909D01*
X214977012Y-98700665D01*
X214886335Y-98609988D01*
X214815091Y-98503364D01*
X214766017Y-98384890D01*
X214741000Y-98259118D01*
X214741000Y-98130882D01*
X214766017Y-98005110D01*
X214815091Y-97886636D01*
X214886335Y-97780012D01*
X214977012Y-97689335D01*
X215083636Y-97618091D01*
X215202110Y-97569017D01*
X215327881Y-97544000D01*
X215456119Y-97544000D01*
X215581890Y-97569017D01*
X215581890Y-97569017D01*
G37*
G36*
X202607271Y-95634103D02*
G01*
X202663635Y-95639654D01*
X202880600Y-95705470D01*
X202880602Y-95705471D01*
X203080555Y-95812347D01*
X203255818Y-95956182D01*
X203399653Y-96131445D01*
X203506529Y-96331398D01*
X203572346Y-96548366D01*
X203594569Y-96774000D01*
X203572346Y-96999634D01*
X203506529Y-97216602D01*
X203399653Y-97416555D01*
X203255818Y-97591818D01*
X203080555Y-97735653D01*
X202880602Y-97842529D01*
X202880600Y-97842530D01*
X202663635Y-97908346D01*
X202607271Y-97913897D01*
X202494545Y-97925000D01*
X202381455Y-97925000D01*
X202268729Y-97913897D01*
X202212365Y-97908346D01*
X201995400Y-97842530D01*
X201995398Y-97842529D01*
X201795445Y-97735653D01*
X201620182Y-97591818D01*
X201476347Y-97416555D01*
X201369471Y-97216602D01*
X201303654Y-96999634D01*
X201281431Y-96774000D01*
X201303654Y-96548366D01*
X201369471Y-96331398D01*
X201476347Y-96131445D01*
X201620182Y-95956182D01*
X201795445Y-95812347D01*
X201995398Y-95705471D01*
X201995400Y-95705470D01*
X202212365Y-95639654D01*
X202268729Y-95634103D01*
X202381455Y-95623000D01*
X202494545Y-95623000D01*
X202607271Y-95634103D01*
X202607271Y-95634103D01*
G37*
G36*
X192159000Y-97925000D02*
G01*
X189857000Y-97925000D01*
X189857000Y-95623000D01*
X192159000Y-95623000D01*
X192159000Y-97925000D01*
X192159000Y-97925000D01*
G37*
G36*
X194987271Y-95634103D02*
G01*
X195043635Y-95639654D01*
X195260600Y-95705470D01*
X195260602Y-95705471D01*
X195460555Y-95812347D01*
X195635818Y-95956182D01*
X195779653Y-96131445D01*
X195886529Y-96331398D01*
X195952346Y-96548366D01*
X195974569Y-96774000D01*
X195952346Y-96999634D01*
X195886529Y-97216602D01*
X195779653Y-97416555D01*
X195635818Y-97591818D01*
X195460555Y-97735653D01*
X195260602Y-97842529D01*
X195260600Y-97842530D01*
X195043635Y-97908346D01*
X194987271Y-97913897D01*
X194874545Y-97925000D01*
X194761455Y-97925000D01*
X194648729Y-97913897D01*
X194592365Y-97908346D01*
X194375400Y-97842530D01*
X194375398Y-97842529D01*
X194175445Y-97735653D01*
X194000182Y-97591818D01*
X193856347Y-97416555D01*
X193749471Y-97216602D01*
X193683654Y-96999634D01*
X193661431Y-96774000D01*
X193683654Y-96548366D01*
X193749471Y-96331398D01*
X193856347Y-96131445D01*
X194000182Y-95956182D01*
X194175445Y-95812347D01*
X194375398Y-95705471D01*
X194375400Y-95705470D01*
X194592365Y-95639654D01*
X194648729Y-95634103D01*
X194761455Y-95623000D01*
X194874545Y-95623000D01*
X194987271Y-95634103D01*
X194987271Y-95634103D01*
G37*
G36*
X199779000Y-97925000D02*
G01*
X197477000Y-97925000D01*
X197477000Y-95623000D01*
X199779000Y-95623000D01*
X199779000Y-97925000D01*
X199779000Y-97925000D01*
G37*
G36*
X218529000Y-91656000D02*
G01*
X216827000Y-91656000D01*
X216827000Y-89954000D01*
X218529000Y-89954000D01*
X218529000Y-91656000D01*
X218529000Y-91656000D01*
G37*
G36*
X202897487Y-88537996D02*
G01*
X203134253Y-88636068D01*
X203134255Y-88636069D01*
X203261639Y-88721184D01*
X203347339Y-88778447D01*
X203528553Y-88959661D01*
X203670932Y-89172747D01*
X203769004Y-89409513D01*
X203819000Y-89660861D01*
X203819000Y-89917139D01*
X203769004Y-90168487D01*
X203670932Y-90405253D01*
X203670931Y-90405255D01*
X203528553Y-90618339D01*
X203347339Y-90799553D01*
X203134255Y-90941931D01*
X203134254Y-90941932D01*
X203134253Y-90941932D01*
X202897487Y-91040004D01*
X202646139Y-91090000D01*
X202389861Y-91090000D01*
X202138513Y-91040004D01*
X201901747Y-90941932D01*
X201901746Y-90941932D01*
X201901745Y-90941931D01*
X201688661Y-90799553D01*
X201507447Y-90618339D01*
X201365069Y-90405255D01*
X201365068Y-90405253D01*
X201266996Y-90168487D01*
X201217000Y-89917139D01*
X201217000Y-89660861D01*
X201266996Y-89409513D01*
X201365068Y-89172747D01*
X201507447Y-88959661D01*
X201688661Y-88778447D01*
X201774361Y-88721184D01*
X201901745Y-88636069D01*
X201901747Y-88636068D01*
X202138513Y-88537996D01*
X202389861Y-88488000D01*
X202646139Y-88488000D01*
X202897487Y-88537996D01*
X202897487Y-88537996D01*
G37*
G36*
X192897487Y-88537996D02*
G01*
X193134253Y-88636068D01*
X193134255Y-88636069D01*
X193261639Y-88721184D01*
X193347339Y-88778447D01*
X193528553Y-88959661D01*
X193670932Y-89172747D01*
X193769004Y-89409513D01*
X193819000Y-89660861D01*
X193819000Y-89917139D01*
X193769004Y-90168487D01*
X193670932Y-90405253D01*
X193670931Y-90405255D01*
X193528553Y-90618339D01*
X193347339Y-90799553D01*
X193134255Y-90941931D01*
X193134254Y-90941932D01*
X193134253Y-90941932D01*
X192897487Y-91040004D01*
X192646139Y-91090000D01*
X192389861Y-91090000D01*
X192138513Y-91040004D01*
X191901747Y-90941932D01*
X191901746Y-90941932D01*
X191901745Y-90941931D01*
X191688661Y-90799553D01*
X191507447Y-90618339D01*
X191365069Y-90405255D01*
X191365068Y-90405253D01*
X191266996Y-90168487D01*
X191217000Y-89917139D01*
X191217000Y-89660861D01*
X191266996Y-89409513D01*
X191365068Y-89172747D01*
X191507447Y-88959661D01*
X191688661Y-88778447D01*
X191774361Y-88721184D01*
X191901745Y-88636069D01*
X191901747Y-88636068D01*
X192138513Y-88537996D01*
X192389861Y-88488000D01*
X192646139Y-88488000D01*
X192897487Y-88537996D01*
X192897487Y-88537996D01*
G37*
G36*
X197897487Y-88537996D02*
G01*
X198134253Y-88636068D01*
X198134255Y-88636069D01*
X198261639Y-88721184D01*
X198347339Y-88778447D01*
X198528553Y-88959661D01*
X198670932Y-89172747D01*
X198769004Y-89409513D01*
X198819000Y-89660861D01*
X198819000Y-89917139D01*
X198769004Y-90168487D01*
X198670932Y-90405253D01*
X198670931Y-90405255D01*
X198528553Y-90618339D01*
X198347339Y-90799553D01*
X198134255Y-90941931D01*
X198134254Y-90941932D01*
X198134253Y-90941932D01*
X197897487Y-91040004D01*
X197646139Y-91090000D01*
X197389861Y-91090000D01*
X197138513Y-91040004D01*
X196901747Y-90941932D01*
X196901746Y-90941932D01*
X196901745Y-90941931D01*
X196688661Y-90799553D01*
X196507447Y-90618339D01*
X196365069Y-90405255D01*
X196365068Y-90405253D01*
X196266996Y-90168487D01*
X196217000Y-89917139D01*
X196217000Y-89660861D01*
X196266996Y-89409513D01*
X196365068Y-89172747D01*
X196507447Y-88959661D01*
X196688661Y-88778447D01*
X196774361Y-88721184D01*
X196901745Y-88636069D01*
X196901747Y-88636068D01*
X197138513Y-88537996D01*
X197389861Y-88488000D01*
X197646139Y-88488000D01*
X197897487Y-88537996D01*
X197897487Y-88537996D01*
G37*
G36*
X208819000Y-91090000D02*
G01*
X206217000Y-91090000D01*
X206217000Y-88488000D01*
X208819000Y-88488000D01*
X208819000Y-91090000D01*
X208819000Y-91090000D01*
G37*
G36*
X217926228Y-87986703D02*
G01*
X218081100Y-88050853D01*
X218220481Y-88143985D01*
X218339015Y-88262519D01*
X218432147Y-88401900D01*
X218496297Y-88556772D01*
X218529000Y-88721184D01*
X218529000Y-88888816D01*
X218496297Y-89053228D01*
X218432147Y-89208100D01*
X218339015Y-89347481D01*
X218220481Y-89466015D01*
X218081100Y-89559147D01*
X217926228Y-89623297D01*
X217761816Y-89656000D01*
X217594184Y-89656000D01*
X217429772Y-89623297D01*
X217274900Y-89559147D01*
X217135519Y-89466015D01*
X217016985Y-89347481D01*
X216923853Y-89208100D01*
X216859703Y-89053228D01*
X216827000Y-88888816D01*
X216827000Y-88721184D01*
X216859703Y-88556772D01*
X216923853Y-88401900D01*
X217016985Y-88262519D01*
X217135519Y-88143985D01*
X217274900Y-88050853D01*
X217429772Y-87986703D01*
X217594184Y-87954000D01*
X217761816Y-87954000D01*
X217926228Y-87986703D01*
X217926228Y-87986703D01*
G37*
G36*
X228710442Y-85592518D02*
G01*
X228776627Y-85599037D01*
X228946466Y-85650557D01*
X229102991Y-85734222D01*
X229138729Y-85763552D01*
X229240186Y-85846814D01*
X229323448Y-85948271D01*
X229352778Y-85984009D01*
X229436443Y-86140534D01*
X229487963Y-86310373D01*
X229505359Y-86487000D01*
X229487963Y-86663627D01*
X229436443Y-86833466D01*
X229352778Y-86989991D01*
X229323448Y-87025729D01*
X229240186Y-87127186D01*
X229138729Y-87210448D01*
X229102991Y-87239778D01*
X228946466Y-87323443D01*
X228776627Y-87374963D01*
X228710442Y-87381482D01*
X228644260Y-87388000D01*
X228555740Y-87388000D01*
X228489558Y-87381482D01*
X228423373Y-87374963D01*
X228253534Y-87323443D01*
X228097009Y-87239778D01*
X228061271Y-87210448D01*
X227959814Y-87127186D01*
X227876552Y-87025729D01*
X227847222Y-86989991D01*
X227763557Y-86833466D01*
X227712037Y-86663627D01*
X227694641Y-86487000D01*
X227712037Y-86310373D01*
X227763557Y-86140534D01*
X227847222Y-85984009D01*
X227876552Y-85948271D01*
X227959814Y-85846814D01*
X228061271Y-85763552D01*
X228097009Y-85734222D01*
X228253534Y-85650557D01*
X228423373Y-85599037D01*
X228489558Y-85592518D01*
X228555740Y-85586000D01*
X228644260Y-85586000D01*
X228710442Y-85592518D01*
X228710442Y-85592518D01*
G37*
G36*
X232041000Y-87388000D02*
G01*
X230239000Y-87388000D01*
X230239000Y-85586000D01*
X232041000Y-85586000D01*
X232041000Y-87388000D01*
X232041000Y-87388000D01*
G37*
G36*
X223630442Y-85592518D02*
G01*
X223696627Y-85599037D01*
X223866466Y-85650557D01*
X224022991Y-85734222D01*
X224058729Y-85763552D01*
X224160186Y-85846814D01*
X224243448Y-85948271D01*
X224272778Y-85984009D01*
X224356443Y-86140534D01*
X224407963Y-86310373D01*
X224425359Y-86487000D01*
X224407963Y-86663627D01*
X224356443Y-86833466D01*
X224272778Y-86989991D01*
X224243448Y-87025729D01*
X224160186Y-87127186D01*
X224058729Y-87210448D01*
X224022991Y-87239778D01*
X223866466Y-87323443D01*
X223696627Y-87374963D01*
X223630442Y-87381482D01*
X223564260Y-87388000D01*
X223475740Y-87388000D01*
X223409558Y-87381482D01*
X223343373Y-87374963D01*
X223173534Y-87323443D01*
X223017009Y-87239778D01*
X222981271Y-87210448D01*
X222879814Y-87127186D01*
X222796552Y-87025729D01*
X222767222Y-86989991D01*
X222683557Y-86833466D01*
X222632037Y-86663627D01*
X222614641Y-86487000D01*
X222632037Y-86310373D01*
X222683557Y-86140534D01*
X222767222Y-85984009D01*
X222796552Y-85948271D01*
X222879814Y-85846814D01*
X222981271Y-85763552D01*
X223017009Y-85734222D01*
X223173534Y-85650557D01*
X223343373Y-85599037D01*
X223409558Y-85592518D01*
X223475740Y-85586000D01*
X223564260Y-85586000D01*
X223630442Y-85592518D01*
X223630442Y-85592518D01*
G37*
G36*
X226170442Y-85592518D02*
G01*
X226236627Y-85599037D01*
X226406466Y-85650557D01*
X226562991Y-85734222D01*
X226598729Y-85763552D01*
X226700186Y-85846814D01*
X226783448Y-85948271D01*
X226812778Y-85984009D01*
X226896443Y-86140534D01*
X226947963Y-86310373D01*
X226965359Y-86487000D01*
X226947963Y-86663627D01*
X226896443Y-86833466D01*
X226812778Y-86989991D01*
X226783448Y-87025729D01*
X226700186Y-87127186D01*
X226598729Y-87210448D01*
X226562991Y-87239778D01*
X226406466Y-87323443D01*
X226236627Y-87374963D01*
X226170442Y-87381482D01*
X226104260Y-87388000D01*
X226015740Y-87388000D01*
X225949558Y-87381482D01*
X225883373Y-87374963D01*
X225713534Y-87323443D01*
X225557009Y-87239778D01*
X225521271Y-87210448D01*
X225419814Y-87127186D01*
X225336552Y-87025729D01*
X225307222Y-86989991D01*
X225223557Y-86833466D01*
X225172037Y-86663627D01*
X225154641Y-86487000D01*
X225172037Y-86310373D01*
X225223557Y-86140534D01*
X225307222Y-85984009D01*
X225336552Y-85948271D01*
X225419814Y-85846814D01*
X225521271Y-85763552D01*
X225557009Y-85734222D01*
X225713534Y-85650557D01*
X225883373Y-85599037D01*
X225949558Y-85592518D01*
X226015740Y-85586000D01*
X226104260Y-85586000D01*
X226170442Y-85592518D01*
X226170442Y-85592518D01*
G37*
G36*
X217084228Y-84906703D02*
G01*
X217239100Y-84970853D01*
X217378481Y-85063985D01*
X217497015Y-85182519D01*
X217590147Y-85321900D01*
X217654297Y-85476772D01*
X217687000Y-85641184D01*
X217687000Y-85808816D01*
X217654297Y-85973228D01*
X217590147Y-86128100D01*
X217497015Y-86267481D01*
X217378481Y-86386015D01*
X217239100Y-86479147D01*
X217084228Y-86543297D01*
X216919816Y-86576000D01*
X216752184Y-86576000D01*
X216587772Y-86543297D01*
X216432900Y-86479147D01*
X216293519Y-86386015D01*
X216174985Y-86267481D01*
X216081853Y-86128100D01*
X216017703Y-85973228D01*
X215985000Y-85808816D01*
X215985000Y-85641184D01*
X216017703Y-85476772D01*
X216081853Y-85321900D01*
X216174985Y-85182519D01*
X216293519Y-85063985D01*
X216432900Y-84970853D01*
X216587772Y-84906703D01*
X216752184Y-84874000D01*
X216919816Y-84874000D01*
X217084228Y-84906703D01*
X217084228Y-84906703D01*
G37*
G36*
X212084228Y-84906703D02*
G01*
X212239100Y-84970853D01*
X212378481Y-85063985D01*
X212497015Y-85182519D01*
X212590147Y-85321900D01*
X212654297Y-85476772D01*
X212687000Y-85641184D01*
X212687000Y-85808816D01*
X212654297Y-85973228D01*
X212590147Y-86128100D01*
X212497015Y-86267481D01*
X212378481Y-86386015D01*
X212239100Y-86479147D01*
X212084228Y-86543297D01*
X211919816Y-86576000D01*
X211752184Y-86576000D01*
X211587772Y-86543297D01*
X211432900Y-86479147D01*
X211293519Y-86386015D01*
X211174985Y-86267481D01*
X211081853Y-86128100D01*
X211017703Y-85973228D01*
X210985000Y-85808816D01*
X210985000Y-85641184D01*
X211017703Y-85476772D01*
X211081853Y-85321900D01*
X211174985Y-85182519D01*
X211293519Y-85063985D01*
X211432900Y-84970853D01*
X211587772Y-84906703D01*
X211752184Y-84874000D01*
X211919816Y-84874000D01*
X212084228Y-84906703D01*
X212084228Y-84906703D01*
G37*
G36*
X253857256Y-80607298D02*
G01*
X253963579Y-80628447D01*
X254264042Y-80752903D01*
X254534451Y-80933585D01*
X254764415Y-81163549D01*
X254945097Y-81433958D01*
X255069553Y-81734421D01*
X255133000Y-82053391D01*
X255133000Y-82378609D01*
X255069553Y-82697579D01*
X254945097Y-82998042D01*
X254764415Y-83268451D01*
X254534451Y-83498415D01*
X254264042Y-83679097D01*
X253963579Y-83803553D01*
X253857256Y-83824702D01*
X253644611Y-83867000D01*
X253319389Y-83867000D01*
X253106744Y-83824702D01*
X253000421Y-83803553D01*
X252699958Y-83679097D01*
X252429549Y-83498415D01*
X252199585Y-83268451D01*
X252018903Y-82998042D01*
X251894447Y-82697579D01*
X251831000Y-82378609D01*
X251831000Y-82053391D01*
X251894447Y-81734421D01*
X252018903Y-81433958D01*
X252199585Y-81163549D01*
X252429549Y-80933585D01*
X252699958Y-80752903D01*
X253000421Y-80628447D01*
X253106744Y-80607298D01*
X253319389Y-80565000D01*
X253644611Y-80565000D01*
X253857256Y-80607298D01*
X253857256Y-80607298D01*
G37*
G36*
X178857256Y-80607298D02*
G01*
X178963579Y-80628447D01*
X179264042Y-80752903D01*
X179534451Y-80933585D01*
X179764415Y-81163549D01*
X179945097Y-81433958D01*
X180069553Y-81734421D01*
X180133000Y-82053391D01*
X180133000Y-82378609D01*
X180069553Y-82697579D01*
X179945097Y-82998042D01*
X179764415Y-83268451D01*
X179534451Y-83498415D01*
X179264042Y-83679097D01*
X178963579Y-83803553D01*
X178857256Y-83824702D01*
X178644611Y-83867000D01*
X178319389Y-83867000D01*
X178106744Y-83824702D01*
X178000421Y-83803553D01*
X177699958Y-83679097D01*
X177429549Y-83498415D01*
X177199585Y-83268451D01*
X177018903Y-82998042D01*
X176894447Y-82697579D01*
X176831000Y-82378609D01*
X176831000Y-82053391D01*
X176894447Y-81734421D01*
X177018903Y-81433958D01*
X177199585Y-81163549D01*
X177429549Y-80933585D01*
X177699958Y-80752903D01*
X178000421Y-80628447D01*
X178106744Y-80607298D01*
X178319389Y-80565000D01*
X178644611Y-80565000D01*
X178857256Y-80607298D01*
X178857256Y-80607298D01*
G37*
M02*
