G04 #@! TF.GenerationSoftware,KiCad,Pcbnew,5.1.2*
G04 #@! TF.CreationDate,2019-06-23T16:02:38+01:00*
G04 #@! TF.ProjectId,garage_receiver,67617261-6765-45f7-9265-636569766572,rev?*
G04 #@! TF.SameCoordinates,Original*
G04 #@! TF.FileFunction,Soldermask,Bot*
G04 #@! TF.FilePolarity,Negative*
%FSLAX46Y46*%
G04 Gerber Fmt 4.6, Leading zero omitted, Abs format (unit mm)*
G04 Created by KiCad (PCBNEW 5.1.2) date 2019-06-23 16:02:38*
%MOMM*%
%LPD*%
G04 APERTURE LIST*
%ADD10C,0.100000*%
G04 APERTURE END LIST*
D10*
G36*
X252430279Y-112089933D02*
G01*
X252430281Y-112089934D01*
X252430282Y-112089934D01*
X253021926Y-112335001D01*
X253199012Y-112453326D01*
X253554391Y-112690782D01*
X254007218Y-113143609D01*
X254170108Y-113387392D01*
X254362999Y-113676074D01*
X254608066Y-114267718D01*
X254608067Y-114267721D01*
X254733000Y-114895802D01*
X254733000Y-115536198D01*
X254706982Y-115667000D01*
X254608066Y-116164282D01*
X254362999Y-116755926D01*
X254345908Y-116781504D01*
X254007218Y-117288391D01*
X253554391Y-117741218D01*
X253217510Y-117966314D01*
X253021926Y-118096999D01*
X252430282Y-118342066D01*
X252430281Y-118342066D01*
X252430279Y-118342067D01*
X251802198Y-118467000D01*
X251161802Y-118467000D01*
X250533721Y-118342067D01*
X250533719Y-118342066D01*
X250533718Y-118342066D01*
X249942074Y-118096999D01*
X249746490Y-117966314D01*
X249409609Y-117741218D01*
X248956782Y-117288391D01*
X248618092Y-116781504D01*
X248601001Y-116755926D01*
X248355934Y-116164282D01*
X248257019Y-115667000D01*
X248231000Y-115536198D01*
X248231000Y-114895802D01*
X248355933Y-114267721D01*
X248355934Y-114267718D01*
X248601001Y-113676074D01*
X248793892Y-113387392D01*
X248956782Y-113143609D01*
X249409609Y-112690782D01*
X249764988Y-112453326D01*
X249942074Y-112335001D01*
X250533718Y-112089934D01*
X250533719Y-112089934D01*
X250533721Y-112089933D01*
X251161802Y-111965000D01*
X251802198Y-111965000D01*
X252430279Y-112089933D01*
X252430279Y-112089933D01*
G37*
G36*
X181430279Y-112089933D02*
G01*
X181430281Y-112089934D01*
X181430282Y-112089934D01*
X182021926Y-112335001D01*
X182199012Y-112453326D01*
X182554391Y-112690782D01*
X183007218Y-113143609D01*
X183170108Y-113387392D01*
X183362999Y-113676074D01*
X183608066Y-114267718D01*
X183608067Y-114267721D01*
X183733000Y-114895802D01*
X183733000Y-115536198D01*
X183706982Y-115667000D01*
X183608066Y-116164282D01*
X183362999Y-116755926D01*
X183345908Y-116781504D01*
X183007218Y-117288391D01*
X182554391Y-117741218D01*
X182217510Y-117966314D01*
X182021926Y-118096999D01*
X181430282Y-118342066D01*
X181430281Y-118342066D01*
X181430279Y-118342067D01*
X180802198Y-118467000D01*
X180161802Y-118467000D01*
X179533721Y-118342067D01*
X179533719Y-118342066D01*
X179533718Y-118342066D01*
X178942074Y-118096999D01*
X178746490Y-117966314D01*
X178409609Y-117741218D01*
X177956782Y-117288391D01*
X177618092Y-116781504D01*
X177601001Y-116755926D01*
X177355934Y-116164282D01*
X177257019Y-115667000D01*
X177231000Y-115536198D01*
X177231000Y-114895802D01*
X177355933Y-114267721D01*
X177355934Y-114267718D01*
X177601001Y-113676074D01*
X177793892Y-113387392D01*
X177956782Y-113143609D01*
X178409609Y-112690782D01*
X178764988Y-112453326D01*
X178942074Y-112335001D01*
X179533718Y-112089934D01*
X179533719Y-112089934D01*
X179533721Y-112089933D01*
X180161802Y-111965000D01*
X180802198Y-111965000D01*
X181430279Y-112089933D01*
X181430279Y-112089933D01*
G37*
G36*
X201753635Y-108399654D02*
G01*
X201825957Y-108421593D01*
X201970596Y-108465468D01*
X201970599Y-108465470D01*
X201970600Y-108465470D01*
X202170555Y-108572348D01*
X202345818Y-108716182D01*
X202489652Y-108891445D01*
X202538496Y-108982825D01*
X202596532Y-109091404D01*
X202640407Y-109236043D01*
X202662346Y-109308365D01*
X202684569Y-109534000D01*
X202662346Y-109759635D01*
X202662345Y-109759637D01*
X202596532Y-109976596D01*
X202596530Y-109976599D01*
X202596530Y-109976600D01*
X202489652Y-110176555D01*
X202345818Y-110351818D01*
X202170555Y-110495652D01*
X201970596Y-110602532D01*
X201825957Y-110646407D01*
X201753635Y-110668346D01*
X201584543Y-110685000D01*
X201471457Y-110685000D01*
X201302365Y-110668346D01*
X201230043Y-110646407D01*
X201085404Y-110602532D01*
X200885445Y-110495652D01*
X200710182Y-110351818D01*
X200566348Y-110176555D01*
X200459470Y-109976600D01*
X200459470Y-109976599D01*
X200459468Y-109976596D01*
X200393655Y-109759637D01*
X200393654Y-109759635D01*
X200371431Y-109534000D01*
X200393654Y-109308365D01*
X200415593Y-109236043D01*
X200459468Y-109091404D01*
X200517505Y-108982825D01*
X200566348Y-108891445D01*
X200710182Y-108716182D01*
X200885445Y-108572348D01*
X201085400Y-108465470D01*
X201085401Y-108465470D01*
X201085404Y-108465468D01*
X201230043Y-108421593D01*
X201302365Y-108399654D01*
X201471457Y-108383000D01*
X201584543Y-108383000D01*
X201753635Y-108399654D01*
X201753635Y-108399654D01*
G37*
G36*
X194133635Y-108399654D02*
G01*
X194205957Y-108421593D01*
X194350596Y-108465468D01*
X194350599Y-108465470D01*
X194350600Y-108465470D01*
X194550555Y-108572348D01*
X194725818Y-108716182D01*
X194869652Y-108891445D01*
X194918496Y-108982825D01*
X194976532Y-109091404D01*
X195020407Y-109236043D01*
X195042346Y-109308365D01*
X195064569Y-109534000D01*
X195042346Y-109759635D01*
X195042345Y-109759637D01*
X194976532Y-109976596D01*
X194976530Y-109976599D01*
X194976530Y-109976600D01*
X194869652Y-110176555D01*
X194725818Y-110351818D01*
X194550555Y-110495652D01*
X194350596Y-110602532D01*
X194205957Y-110646407D01*
X194133635Y-110668346D01*
X193964543Y-110685000D01*
X193851457Y-110685000D01*
X193682365Y-110668346D01*
X193610043Y-110646407D01*
X193465404Y-110602532D01*
X193265445Y-110495652D01*
X193090182Y-110351818D01*
X192946348Y-110176555D01*
X192839470Y-109976600D01*
X192839470Y-109976599D01*
X192839468Y-109976596D01*
X192773655Y-109759637D01*
X192773654Y-109759635D01*
X192751431Y-109534000D01*
X192773654Y-109308365D01*
X192795593Y-109236043D01*
X192839468Y-109091404D01*
X192897505Y-108982825D01*
X192946348Y-108891445D01*
X193090182Y-108716182D01*
X193265445Y-108572348D01*
X193465400Y-108465470D01*
X193465401Y-108465470D01*
X193465404Y-108465468D01*
X193610043Y-108421593D01*
X193682365Y-108399654D01*
X193851457Y-108383000D01*
X193964543Y-108383000D01*
X194133635Y-108399654D01*
X194133635Y-108399654D01*
G37*
G36*
X198869000Y-110685000D02*
G01*
X196567000Y-110685000D01*
X196567000Y-108383000D01*
X198869000Y-108383000D01*
X198869000Y-110685000D01*
X198869000Y-110685000D01*
G37*
G36*
X206489000Y-110685000D02*
G01*
X204187000Y-110685000D01*
X204187000Y-108383000D01*
X206489000Y-108383000D01*
X206489000Y-110685000D01*
X206489000Y-110685000D01*
G37*
G36*
X239833000Y-109667000D02*
G01*
X238131000Y-109667000D01*
X238131000Y-107965000D01*
X239833000Y-107965000D01*
X239833000Y-109667000D01*
X239833000Y-109667000D01*
G37*
G36*
X231528826Y-107977314D02*
G01*
X231689236Y-108025973D01*
X231837078Y-108104996D01*
X231966659Y-108211341D01*
X232073004Y-108340922D01*
X232152027Y-108488764D01*
X232200686Y-108649174D01*
X232217118Y-108816000D01*
X232200686Y-108982826D01*
X232152027Y-109143236D01*
X232073004Y-109291078D01*
X231966659Y-109420659D01*
X231837078Y-109527004D01*
X231689236Y-109606027D01*
X231528826Y-109654686D01*
X231403805Y-109667000D01*
X231320195Y-109667000D01*
X231195174Y-109654686D01*
X231034764Y-109606027D01*
X230886922Y-109527004D01*
X230757341Y-109420659D01*
X230650996Y-109291078D01*
X230571973Y-109143236D01*
X230523314Y-108982826D01*
X230506882Y-108816000D01*
X230523314Y-108649174D01*
X230571973Y-108488764D01*
X230650996Y-108340922D01*
X230757341Y-108211341D01*
X230886922Y-108104996D01*
X231034764Y-108025973D01*
X231195174Y-107977314D01*
X231320195Y-107965000D01*
X231403805Y-107965000D01*
X231528826Y-107977314D01*
X231528826Y-107977314D01*
G37*
G36*
X239148826Y-105437314D02*
G01*
X239309236Y-105485973D01*
X239457078Y-105564996D01*
X239586659Y-105671341D01*
X239693004Y-105800922D01*
X239772027Y-105948764D01*
X239820686Y-106109174D01*
X239837118Y-106276000D01*
X239820686Y-106442826D01*
X239772027Y-106603236D01*
X239693004Y-106751078D01*
X239586659Y-106880659D01*
X239457078Y-106987004D01*
X239309236Y-107066027D01*
X239148826Y-107114686D01*
X239023805Y-107127000D01*
X238940195Y-107127000D01*
X238815174Y-107114686D01*
X238654764Y-107066027D01*
X238506922Y-106987004D01*
X238377341Y-106880659D01*
X238270996Y-106751078D01*
X238191973Y-106603236D01*
X238143314Y-106442826D01*
X238126882Y-106276000D01*
X238143314Y-106109174D01*
X238191973Y-105948764D01*
X238270996Y-105800922D01*
X238377341Y-105671341D01*
X238506922Y-105564996D01*
X238654764Y-105485973D01*
X238815174Y-105437314D01*
X238940195Y-105425000D01*
X239023805Y-105425000D01*
X239148826Y-105437314D01*
X239148826Y-105437314D01*
G37*
G36*
X231528826Y-105437314D02*
G01*
X231689236Y-105485973D01*
X231837078Y-105564996D01*
X231966659Y-105671341D01*
X232073004Y-105800922D01*
X232152027Y-105948764D01*
X232200686Y-106109174D01*
X232217118Y-106276000D01*
X232200686Y-106442826D01*
X232152027Y-106603236D01*
X232073004Y-106751078D01*
X231966659Y-106880659D01*
X231837078Y-106987004D01*
X231689236Y-107066027D01*
X231528826Y-107114686D01*
X231403805Y-107127000D01*
X231320195Y-107127000D01*
X231195174Y-107114686D01*
X231034764Y-107066027D01*
X230886922Y-106987004D01*
X230757341Y-106880659D01*
X230650996Y-106751078D01*
X230571973Y-106603236D01*
X230523314Y-106442826D01*
X230506882Y-106276000D01*
X230523314Y-106109174D01*
X230571973Y-105948764D01*
X230650996Y-105800922D01*
X230757341Y-105671341D01*
X230886922Y-105564996D01*
X231034764Y-105485973D01*
X231195174Y-105437314D01*
X231320195Y-105425000D01*
X231403805Y-105425000D01*
X231528826Y-105437314D01*
X231528826Y-105437314D01*
G37*
G36*
X213433000Y-106667000D02*
G01*
X211331000Y-106667000D01*
X211331000Y-104565000D01*
X213433000Y-104565000D01*
X213433000Y-106667000D01*
X213433000Y-106667000D01*
G37*
G36*
X239148826Y-102897314D02*
G01*
X239309236Y-102945973D01*
X239457078Y-103024996D01*
X239586659Y-103131341D01*
X239693004Y-103260922D01*
X239772027Y-103408764D01*
X239820686Y-103569174D01*
X239837118Y-103736000D01*
X239820686Y-103902826D01*
X239772027Y-104063236D01*
X239693004Y-104211078D01*
X239586659Y-104340659D01*
X239457078Y-104447004D01*
X239309236Y-104526027D01*
X239148826Y-104574686D01*
X239023805Y-104587000D01*
X238940195Y-104587000D01*
X238815174Y-104574686D01*
X238654764Y-104526027D01*
X238506922Y-104447004D01*
X238377341Y-104340659D01*
X238270996Y-104211078D01*
X238191973Y-104063236D01*
X238143314Y-103902826D01*
X238126882Y-103736000D01*
X238143314Y-103569174D01*
X238191973Y-103408764D01*
X238270996Y-103260922D01*
X238377341Y-103131341D01*
X238506922Y-103024996D01*
X238654764Y-102945973D01*
X238815174Y-102897314D01*
X238940195Y-102885000D01*
X239023805Y-102885000D01*
X239148826Y-102897314D01*
X239148826Y-102897314D01*
G37*
G36*
X231528826Y-102897314D02*
G01*
X231689236Y-102945973D01*
X231837078Y-103024996D01*
X231966659Y-103131341D01*
X232073004Y-103260922D01*
X232152027Y-103408764D01*
X232200686Y-103569174D01*
X232217118Y-103736000D01*
X232200686Y-103902826D01*
X232152027Y-104063236D01*
X232073004Y-104211078D01*
X231966659Y-104340659D01*
X231837078Y-104447004D01*
X231689236Y-104526027D01*
X231528826Y-104574686D01*
X231403805Y-104587000D01*
X231320195Y-104587000D01*
X231195174Y-104574686D01*
X231034764Y-104526027D01*
X230886922Y-104447004D01*
X230757341Y-104340659D01*
X230650996Y-104211078D01*
X230571973Y-104063236D01*
X230523314Y-103902826D01*
X230506882Y-103736000D01*
X230523314Y-103569174D01*
X230571973Y-103408764D01*
X230650996Y-103260922D01*
X230757341Y-103131341D01*
X230886922Y-103024996D01*
X231034764Y-102945973D01*
X231195174Y-102897314D01*
X231320195Y-102885000D01*
X231403805Y-102885000D01*
X231528826Y-102897314D01*
X231528826Y-102897314D01*
G37*
G36*
X231528826Y-100357314D02*
G01*
X231689236Y-100405973D01*
X231837078Y-100484996D01*
X231966659Y-100591341D01*
X232073004Y-100720922D01*
X232152027Y-100868764D01*
X232200686Y-101029174D01*
X232217118Y-101196000D01*
X232200686Y-101362826D01*
X232152027Y-101523236D01*
X232073004Y-101671078D01*
X231966659Y-101800659D01*
X231837078Y-101907004D01*
X231689236Y-101986027D01*
X231528826Y-102034686D01*
X231403805Y-102047000D01*
X231320195Y-102047000D01*
X231195174Y-102034686D01*
X231034764Y-101986027D01*
X230886922Y-101907004D01*
X230757341Y-101800659D01*
X230650996Y-101671078D01*
X230571973Y-101523236D01*
X230523314Y-101362826D01*
X230506882Y-101196000D01*
X230523314Y-101029174D01*
X230571973Y-100868764D01*
X230650996Y-100720922D01*
X230757341Y-100591341D01*
X230886922Y-100484996D01*
X231034764Y-100405973D01*
X231195174Y-100357314D01*
X231320195Y-100345000D01*
X231403805Y-100345000D01*
X231528826Y-100357314D01*
X231528826Y-100357314D01*
G37*
G36*
X239148826Y-100357314D02*
G01*
X239309236Y-100405973D01*
X239457078Y-100484996D01*
X239586659Y-100591341D01*
X239693004Y-100720922D01*
X239772027Y-100868764D01*
X239820686Y-101029174D01*
X239837118Y-101196000D01*
X239820686Y-101362826D01*
X239772027Y-101523236D01*
X239693004Y-101671078D01*
X239586659Y-101800659D01*
X239457078Y-101907004D01*
X239309236Y-101986027D01*
X239148826Y-102034686D01*
X239023805Y-102047000D01*
X238940195Y-102047000D01*
X238815174Y-102034686D01*
X238654764Y-101986027D01*
X238506922Y-101907004D01*
X238377341Y-101800659D01*
X238270996Y-101671078D01*
X238191973Y-101523236D01*
X238143314Y-101362826D01*
X238126882Y-101196000D01*
X238143314Y-101029174D01*
X238191973Y-100868764D01*
X238270996Y-100720922D01*
X238377341Y-100591341D01*
X238506922Y-100484996D01*
X238654764Y-100405973D01*
X238815174Y-100357314D01*
X238940195Y-100345000D01*
X239023805Y-100345000D01*
X239148826Y-100357314D01*
X239148826Y-100357314D01*
G37*
G36*
X212688563Y-99605389D02*
G01*
X212879837Y-99684617D01*
X213051973Y-99799634D01*
X213198366Y-99946027D01*
X213313383Y-100118163D01*
X213392611Y-100309437D01*
X213433000Y-100512484D01*
X213433000Y-100719516D01*
X213392611Y-100922563D01*
X213313383Y-101113837D01*
X213198366Y-101285973D01*
X213051973Y-101432366D01*
X212879837Y-101547383D01*
X212688563Y-101626611D01*
X212485516Y-101667000D01*
X212278484Y-101667000D01*
X212075437Y-101626611D01*
X211884163Y-101547383D01*
X211712027Y-101432366D01*
X211565634Y-101285973D01*
X211450617Y-101113837D01*
X211371389Y-100922563D01*
X211331000Y-100719516D01*
X211331000Y-100512484D01*
X211371389Y-100309437D01*
X211450617Y-100118163D01*
X211565634Y-99946027D01*
X211712027Y-99799634D01*
X211884163Y-99684617D01*
X212075437Y-99605389D01*
X212278484Y-99565000D01*
X212485516Y-99565000D01*
X212688563Y-99605389D01*
X212688563Y-99605389D01*
G37*
G36*
X202679000Y-100525000D02*
G01*
X200377000Y-100525000D01*
X200377000Y-98223000D01*
X202679000Y-98223000D01*
X202679000Y-100525000D01*
X202679000Y-100525000D01*
G37*
G36*
X195059000Y-100525000D02*
G01*
X192757000Y-100525000D01*
X192757000Y-98223000D01*
X195059000Y-98223000D01*
X195059000Y-100525000D01*
X195059000Y-100525000D01*
G37*
G36*
X205563635Y-98239654D02*
G01*
X205635957Y-98261593D01*
X205780596Y-98305468D01*
X205780599Y-98305470D01*
X205780600Y-98305470D01*
X205980555Y-98412348D01*
X206155818Y-98556182D01*
X206299652Y-98731445D01*
X206348496Y-98822825D01*
X206406532Y-98931404D01*
X206450407Y-99076043D01*
X206472346Y-99148365D01*
X206494569Y-99374000D01*
X206472346Y-99599635D01*
X206470600Y-99605390D01*
X206406532Y-99816596D01*
X206406530Y-99816599D01*
X206406530Y-99816600D01*
X206299652Y-100016555D01*
X206155818Y-100191818D01*
X206012498Y-100309437D01*
X205980555Y-100335652D01*
X205780596Y-100442532D01*
X205640609Y-100484996D01*
X205563635Y-100508346D01*
X205394543Y-100525000D01*
X205281457Y-100525000D01*
X205112365Y-100508346D01*
X205035391Y-100484996D01*
X204895404Y-100442532D01*
X204695445Y-100335652D01*
X204663502Y-100309437D01*
X204520182Y-100191818D01*
X204376348Y-100016555D01*
X204269470Y-99816600D01*
X204269470Y-99816599D01*
X204269468Y-99816596D01*
X204205400Y-99605390D01*
X204203654Y-99599635D01*
X204181431Y-99374000D01*
X204203654Y-99148365D01*
X204225593Y-99076043D01*
X204269468Y-98931404D01*
X204327505Y-98822825D01*
X204376348Y-98731445D01*
X204520182Y-98556182D01*
X204695445Y-98412348D01*
X204895400Y-98305470D01*
X204895401Y-98305470D01*
X204895404Y-98305468D01*
X205040043Y-98261593D01*
X205112365Y-98239654D01*
X205281457Y-98223000D01*
X205394543Y-98223000D01*
X205563635Y-98239654D01*
X205563635Y-98239654D01*
G37*
G36*
X197943635Y-98239654D02*
G01*
X198015957Y-98261593D01*
X198160596Y-98305468D01*
X198160599Y-98305470D01*
X198160600Y-98305470D01*
X198360555Y-98412348D01*
X198535818Y-98556182D01*
X198679652Y-98731445D01*
X198728496Y-98822825D01*
X198786532Y-98931404D01*
X198830407Y-99076043D01*
X198852346Y-99148365D01*
X198874569Y-99374000D01*
X198852346Y-99599635D01*
X198850600Y-99605390D01*
X198786532Y-99816596D01*
X198786530Y-99816599D01*
X198786530Y-99816600D01*
X198679652Y-100016555D01*
X198535818Y-100191818D01*
X198392498Y-100309437D01*
X198360555Y-100335652D01*
X198160596Y-100442532D01*
X198020609Y-100484996D01*
X197943635Y-100508346D01*
X197774543Y-100525000D01*
X197661457Y-100525000D01*
X197492365Y-100508346D01*
X197415391Y-100484996D01*
X197275404Y-100442532D01*
X197075445Y-100335652D01*
X197043502Y-100309437D01*
X196900182Y-100191818D01*
X196756348Y-100016555D01*
X196649470Y-99816600D01*
X196649470Y-99816599D01*
X196649468Y-99816596D01*
X196585400Y-99605390D01*
X196583654Y-99599635D01*
X196561431Y-99374000D01*
X196583654Y-99148365D01*
X196605593Y-99076043D01*
X196649468Y-98931404D01*
X196707505Y-98822825D01*
X196756348Y-98731445D01*
X196900182Y-98556182D01*
X197075445Y-98412348D01*
X197275400Y-98305470D01*
X197275401Y-98305470D01*
X197275404Y-98305468D01*
X197420043Y-98261593D01*
X197492365Y-98239654D01*
X197661457Y-98223000D01*
X197774543Y-98223000D01*
X197943635Y-98239654D01*
X197943635Y-98239654D01*
G37*
G36*
X231528826Y-97817314D02*
G01*
X231689236Y-97865973D01*
X231837078Y-97944996D01*
X231966659Y-98051341D01*
X232073004Y-98180922D01*
X232152027Y-98328764D01*
X232200686Y-98489174D01*
X232217118Y-98656000D01*
X232200686Y-98822826D01*
X232152027Y-98983236D01*
X232073004Y-99131078D01*
X231966659Y-99260659D01*
X231837078Y-99367004D01*
X231689236Y-99446027D01*
X231528826Y-99494686D01*
X231403805Y-99507000D01*
X231320195Y-99507000D01*
X231195174Y-99494686D01*
X231034764Y-99446027D01*
X230886922Y-99367004D01*
X230757341Y-99260659D01*
X230650996Y-99131078D01*
X230571973Y-98983236D01*
X230523314Y-98822826D01*
X230506882Y-98656000D01*
X230523314Y-98489174D01*
X230571973Y-98328764D01*
X230650996Y-98180922D01*
X230757341Y-98051341D01*
X230886922Y-97944996D01*
X231034764Y-97865973D01*
X231195174Y-97817314D01*
X231320195Y-97805000D01*
X231403805Y-97805000D01*
X231528826Y-97817314D01*
X231528826Y-97817314D01*
G37*
G36*
X239148826Y-97817314D02*
G01*
X239309236Y-97865973D01*
X239457078Y-97944996D01*
X239586659Y-98051341D01*
X239693004Y-98180922D01*
X239772027Y-98328764D01*
X239820686Y-98489174D01*
X239837118Y-98656000D01*
X239820686Y-98822826D01*
X239772027Y-98983236D01*
X239693004Y-99131078D01*
X239586659Y-99260659D01*
X239457078Y-99367004D01*
X239309236Y-99446027D01*
X239148826Y-99494686D01*
X239023805Y-99507000D01*
X238940195Y-99507000D01*
X238815174Y-99494686D01*
X238654764Y-99446027D01*
X238506922Y-99367004D01*
X238377341Y-99260659D01*
X238270996Y-99131078D01*
X238191973Y-98983236D01*
X238143314Y-98822826D01*
X238126882Y-98656000D01*
X238143314Y-98489174D01*
X238191973Y-98328764D01*
X238270996Y-98180922D01*
X238377341Y-98051341D01*
X238506922Y-97944996D01*
X238654764Y-97865973D01*
X238815174Y-97817314D01*
X238940195Y-97805000D01*
X239023805Y-97805000D01*
X239148826Y-97817314D01*
X239148826Y-97817314D01*
G37*
G36*
X231528826Y-95277314D02*
G01*
X231689236Y-95325973D01*
X231837078Y-95404996D01*
X231966659Y-95511341D01*
X232073004Y-95640922D01*
X232152027Y-95788764D01*
X232200686Y-95949174D01*
X232217118Y-96116000D01*
X232200686Y-96282826D01*
X232152027Y-96443236D01*
X232073004Y-96591078D01*
X231966659Y-96720659D01*
X231837078Y-96827004D01*
X231689236Y-96906027D01*
X231528826Y-96954686D01*
X231403805Y-96967000D01*
X231320195Y-96967000D01*
X231195174Y-96954686D01*
X231034764Y-96906027D01*
X230886922Y-96827004D01*
X230757341Y-96720659D01*
X230650996Y-96591078D01*
X230571973Y-96443236D01*
X230523314Y-96282826D01*
X230506882Y-96116000D01*
X230523314Y-95949174D01*
X230571973Y-95788764D01*
X230650996Y-95640922D01*
X230757341Y-95511341D01*
X230886922Y-95404996D01*
X231034764Y-95325973D01*
X231195174Y-95277314D01*
X231320195Y-95265000D01*
X231403805Y-95265000D01*
X231528826Y-95277314D01*
X231528826Y-95277314D01*
G37*
G36*
X239148826Y-95277314D02*
G01*
X239309236Y-95325973D01*
X239457078Y-95404996D01*
X239586659Y-95511341D01*
X239693004Y-95640922D01*
X239772027Y-95788764D01*
X239820686Y-95949174D01*
X239837118Y-96116000D01*
X239820686Y-96282826D01*
X239772027Y-96443236D01*
X239693004Y-96591078D01*
X239586659Y-96720659D01*
X239457078Y-96827004D01*
X239309236Y-96906027D01*
X239148826Y-96954686D01*
X239023805Y-96967000D01*
X238940195Y-96967000D01*
X238815174Y-96954686D01*
X238654764Y-96906027D01*
X238506922Y-96827004D01*
X238377341Y-96720659D01*
X238270996Y-96591078D01*
X238191973Y-96443236D01*
X238143314Y-96282826D01*
X238126882Y-96116000D01*
X238143314Y-95949174D01*
X238191973Y-95788764D01*
X238270996Y-95640922D01*
X238377341Y-95511341D01*
X238506922Y-95404996D01*
X238654764Y-95325973D01*
X238815174Y-95277314D01*
X238940195Y-95265000D01*
X239023805Y-95265000D01*
X239148826Y-95277314D01*
X239148826Y-95277314D01*
G37*
G36*
X231528826Y-92737314D02*
G01*
X231689236Y-92785973D01*
X231837078Y-92864996D01*
X231966659Y-92971341D01*
X232073004Y-93100922D01*
X232152027Y-93248764D01*
X232200686Y-93409174D01*
X232217118Y-93576000D01*
X232200686Y-93742826D01*
X232152027Y-93903236D01*
X232073004Y-94051078D01*
X231966659Y-94180659D01*
X231837078Y-94287004D01*
X231689236Y-94366027D01*
X231528826Y-94414686D01*
X231403805Y-94427000D01*
X231320195Y-94427000D01*
X231195174Y-94414686D01*
X231034764Y-94366027D01*
X230886922Y-94287004D01*
X230757341Y-94180659D01*
X230650996Y-94051078D01*
X230571973Y-93903236D01*
X230523314Y-93742826D01*
X230506882Y-93576000D01*
X230523314Y-93409174D01*
X230571973Y-93248764D01*
X230650996Y-93100922D01*
X230757341Y-92971341D01*
X230886922Y-92864996D01*
X231034764Y-92785973D01*
X231195174Y-92737314D01*
X231320195Y-92725000D01*
X231403805Y-92725000D01*
X231528826Y-92737314D01*
X231528826Y-92737314D01*
G37*
G36*
X239148826Y-92737314D02*
G01*
X239309236Y-92785973D01*
X239457078Y-92864996D01*
X239586659Y-92971341D01*
X239693004Y-93100922D01*
X239772027Y-93248764D01*
X239820686Y-93409174D01*
X239837118Y-93576000D01*
X239820686Y-93742826D01*
X239772027Y-93903236D01*
X239693004Y-94051078D01*
X239586659Y-94180659D01*
X239457078Y-94287004D01*
X239309236Y-94366027D01*
X239148826Y-94414686D01*
X239023805Y-94427000D01*
X238940195Y-94427000D01*
X238815174Y-94414686D01*
X238654764Y-94366027D01*
X238506922Y-94287004D01*
X238377341Y-94180659D01*
X238270996Y-94051078D01*
X238191973Y-93903236D01*
X238143314Y-93742826D01*
X238126882Y-93576000D01*
X238143314Y-93409174D01*
X238191973Y-93248764D01*
X238270996Y-93100922D01*
X238377341Y-92971341D01*
X238506922Y-92864996D01*
X238654764Y-92785973D01*
X238815174Y-92737314D01*
X238940195Y-92725000D01*
X239023805Y-92725000D01*
X239148826Y-92737314D01*
X239148826Y-92737314D01*
G37*
G36*
X211719000Y-93617000D02*
G01*
X209117000Y-93617000D01*
X209117000Y-91015000D01*
X211719000Y-91015000D01*
X211719000Y-93617000D01*
X211719000Y-93617000D01*
G37*
G36*
X195797486Y-91064996D02*
G01*
X196034257Y-91163070D01*
X196247339Y-91305446D01*
X196428554Y-91486661D01*
X196570930Y-91699743D01*
X196669004Y-91936514D01*
X196719000Y-92187861D01*
X196719000Y-92444139D01*
X196669004Y-92695486D01*
X196669003Y-92695488D01*
X196598791Y-92864996D01*
X196570930Y-92932257D01*
X196428554Y-93145339D01*
X196247339Y-93326554D01*
X196034257Y-93468930D01*
X195797486Y-93567004D01*
X195546139Y-93617000D01*
X195289861Y-93617000D01*
X195038514Y-93567004D01*
X194801743Y-93468930D01*
X194588661Y-93326554D01*
X194407446Y-93145339D01*
X194265070Y-92932257D01*
X194237210Y-92864996D01*
X194166997Y-92695488D01*
X194166996Y-92695486D01*
X194117000Y-92444139D01*
X194117000Y-92187861D01*
X194166996Y-91936514D01*
X194265070Y-91699743D01*
X194407446Y-91486661D01*
X194588661Y-91305446D01*
X194801743Y-91163070D01*
X195038514Y-91064996D01*
X195289861Y-91015000D01*
X195546139Y-91015000D01*
X195797486Y-91064996D01*
X195797486Y-91064996D01*
G37*
G36*
X200797486Y-91064996D02*
G01*
X201034257Y-91163070D01*
X201247339Y-91305446D01*
X201428554Y-91486661D01*
X201570930Y-91699743D01*
X201669004Y-91936514D01*
X201719000Y-92187861D01*
X201719000Y-92444139D01*
X201669004Y-92695486D01*
X201669003Y-92695488D01*
X201598791Y-92864996D01*
X201570930Y-92932257D01*
X201428554Y-93145339D01*
X201247339Y-93326554D01*
X201034257Y-93468930D01*
X200797486Y-93567004D01*
X200546139Y-93617000D01*
X200289861Y-93617000D01*
X200038514Y-93567004D01*
X199801743Y-93468930D01*
X199588661Y-93326554D01*
X199407446Y-93145339D01*
X199265070Y-92932257D01*
X199237210Y-92864996D01*
X199166997Y-92695488D01*
X199166996Y-92695486D01*
X199117000Y-92444139D01*
X199117000Y-92187861D01*
X199166996Y-91936514D01*
X199265070Y-91699743D01*
X199407446Y-91486661D01*
X199588661Y-91305446D01*
X199801743Y-91163070D01*
X200038514Y-91064996D01*
X200289861Y-91015000D01*
X200546139Y-91015000D01*
X200797486Y-91064996D01*
X200797486Y-91064996D01*
G37*
G36*
X205797486Y-91064996D02*
G01*
X206034257Y-91163070D01*
X206247339Y-91305446D01*
X206428554Y-91486661D01*
X206570930Y-91699743D01*
X206669004Y-91936514D01*
X206719000Y-92187861D01*
X206719000Y-92444139D01*
X206669004Y-92695486D01*
X206669003Y-92695488D01*
X206598791Y-92864996D01*
X206570930Y-92932257D01*
X206428554Y-93145339D01*
X206247339Y-93326554D01*
X206034257Y-93468930D01*
X205797486Y-93567004D01*
X205546139Y-93617000D01*
X205289861Y-93617000D01*
X205038514Y-93567004D01*
X204801743Y-93468930D01*
X204588661Y-93326554D01*
X204407446Y-93145339D01*
X204265070Y-92932257D01*
X204237210Y-92864996D01*
X204166997Y-92695488D01*
X204166996Y-92695486D01*
X204117000Y-92444139D01*
X204117000Y-92187861D01*
X204166996Y-91936514D01*
X204265070Y-91699743D01*
X204407446Y-91486661D01*
X204588661Y-91305446D01*
X204801743Y-91163070D01*
X205038514Y-91064996D01*
X205289861Y-91015000D01*
X205546139Y-91015000D01*
X205797486Y-91064996D01*
X205797486Y-91064996D01*
G37*
G36*
X221658628Y-90128037D02*
G01*
X221828463Y-90179555D01*
X221984991Y-90263221D01*
X222122186Y-90375814D01*
X222234779Y-90513009D01*
X222318445Y-90669537D01*
X222369963Y-90839372D01*
X222387360Y-91016000D01*
X222369963Y-91192628D01*
X222318445Y-91362463D01*
X222234779Y-91518991D01*
X222122186Y-91656186D01*
X221984991Y-91768779D01*
X221828463Y-91852445D01*
X221658628Y-91903963D01*
X221526263Y-91917000D01*
X221437737Y-91917000D01*
X221305372Y-91903963D01*
X221135537Y-91852445D01*
X220979009Y-91768779D01*
X220841814Y-91656186D01*
X220729221Y-91518991D01*
X220645555Y-91362463D01*
X220594037Y-91192628D01*
X220576640Y-91016000D01*
X220594037Y-90839372D01*
X220645555Y-90669537D01*
X220729221Y-90513009D01*
X220841814Y-90375814D01*
X220979009Y-90263221D01*
X221135537Y-90179555D01*
X221305372Y-90128037D01*
X221437737Y-90115000D01*
X221526263Y-90115000D01*
X221658628Y-90128037D01*
X221658628Y-90128037D01*
G37*
G36*
X224198628Y-90128037D02*
G01*
X224368463Y-90179555D01*
X224524991Y-90263221D01*
X224662186Y-90375814D01*
X224774779Y-90513009D01*
X224858445Y-90669537D01*
X224909963Y-90839372D01*
X224927360Y-91016000D01*
X224909963Y-91192628D01*
X224858445Y-91362463D01*
X224774779Y-91518991D01*
X224662186Y-91656186D01*
X224524991Y-91768779D01*
X224368463Y-91852445D01*
X224198628Y-91903963D01*
X224066263Y-91917000D01*
X223977737Y-91917000D01*
X223845372Y-91903963D01*
X223675537Y-91852445D01*
X223519009Y-91768779D01*
X223381814Y-91656186D01*
X223269221Y-91518991D01*
X223185555Y-91362463D01*
X223134037Y-91192628D01*
X223116640Y-91016000D01*
X223134037Y-90839372D01*
X223185555Y-90669537D01*
X223269221Y-90513009D01*
X223381814Y-90375814D01*
X223519009Y-90263221D01*
X223675537Y-90179555D01*
X223845372Y-90128037D01*
X223977737Y-90115000D01*
X224066263Y-90115000D01*
X224198628Y-90128037D01*
X224198628Y-90128037D01*
G37*
G36*
X227463000Y-91917000D02*
G01*
X225661000Y-91917000D01*
X225661000Y-90115000D01*
X227463000Y-90115000D01*
X227463000Y-91917000D01*
X227463000Y-91917000D01*
G37*
G36*
X219118628Y-90128037D02*
G01*
X219288463Y-90179555D01*
X219444991Y-90263221D01*
X219582186Y-90375814D01*
X219694779Y-90513009D01*
X219778445Y-90669537D01*
X219829963Y-90839372D01*
X219847360Y-91016000D01*
X219829963Y-91192628D01*
X219778445Y-91362463D01*
X219694779Y-91518991D01*
X219582186Y-91656186D01*
X219444991Y-91768779D01*
X219288463Y-91852445D01*
X219118628Y-91903963D01*
X218986263Y-91917000D01*
X218897737Y-91917000D01*
X218765372Y-91903963D01*
X218595537Y-91852445D01*
X218439009Y-91768779D01*
X218301814Y-91656186D01*
X218189221Y-91518991D01*
X218105555Y-91362463D01*
X218054037Y-91192628D01*
X218036640Y-91016000D01*
X218054037Y-90839372D01*
X218105555Y-90669537D01*
X218189221Y-90513009D01*
X218301814Y-90375814D01*
X218439009Y-90263221D01*
X218595537Y-90179555D01*
X218765372Y-90128037D01*
X218897737Y-90115000D01*
X218986263Y-90115000D01*
X219118628Y-90128037D01*
X219118628Y-90128037D01*
G37*
G36*
X231528826Y-90197314D02*
G01*
X231689236Y-90245973D01*
X231837078Y-90324996D01*
X231966659Y-90431341D01*
X232073004Y-90560922D01*
X232152027Y-90708764D01*
X232200686Y-90869174D01*
X232217118Y-91036000D01*
X232200686Y-91202826D01*
X232152027Y-91363236D01*
X232073004Y-91511078D01*
X231966659Y-91640659D01*
X231837078Y-91747004D01*
X231689236Y-91826027D01*
X231528826Y-91874686D01*
X231403805Y-91887000D01*
X231320195Y-91887000D01*
X231195174Y-91874686D01*
X231034764Y-91826027D01*
X230886922Y-91747004D01*
X230757341Y-91640659D01*
X230650996Y-91511078D01*
X230571973Y-91363236D01*
X230523314Y-91202826D01*
X230506882Y-91036000D01*
X230523314Y-90869174D01*
X230571973Y-90708764D01*
X230650996Y-90560922D01*
X230757341Y-90431341D01*
X230886922Y-90324996D01*
X231034764Y-90245973D01*
X231195174Y-90197314D01*
X231320195Y-90185000D01*
X231403805Y-90185000D01*
X231528826Y-90197314D01*
X231528826Y-90197314D01*
G37*
G36*
X239148826Y-90197314D02*
G01*
X239309236Y-90245973D01*
X239457078Y-90324996D01*
X239586659Y-90431341D01*
X239693004Y-90560922D01*
X239772027Y-90708764D01*
X239820686Y-90869174D01*
X239837118Y-91036000D01*
X239820686Y-91202826D01*
X239772027Y-91363236D01*
X239693004Y-91511078D01*
X239586659Y-91640659D01*
X239457078Y-91747004D01*
X239309236Y-91826027D01*
X239148826Y-91874686D01*
X239023805Y-91887000D01*
X238940195Y-91887000D01*
X238815174Y-91874686D01*
X238654764Y-91826027D01*
X238506922Y-91747004D01*
X238377341Y-91640659D01*
X238270996Y-91511078D01*
X238191973Y-91363236D01*
X238143314Y-91202826D01*
X238126882Y-91036000D01*
X238143314Y-90869174D01*
X238191973Y-90708764D01*
X238270996Y-90560922D01*
X238377341Y-90431341D01*
X238506922Y-90324996D01*
X238654764Y-90245973D01*
X238815174Y-90197314D01*
X238940195Y-90185000D01*
X239023805Y-90185000D01*
X239148826Y-90197314D01*
X239148826Y-90197314D01*
G37*
G36*
X252430279Y-81089933D02*
G01*
X252430281Y-81089934D01*
X252430282Y-81089934D01*
X253021926Y-81335001D01*
X253199012Y-81453326D01*
X253554391Y-81690782D01*
X254007218Y-82143609D01*
X254170108Y-82387392D01*
X254362999Y-82676074D01*
X254608066Y-83267718D01*
X254608067Y-83267721D01*
X254733000Y-83895802D01*
X254733000Y-84536198D01*
X254706982Y-84667000D01*
X254608066Y-85164282D01*
X254362999Y-85755926D01*
X254345908Y-85781504D01*
X254007218Y-86288391D01*
X253554391Y-86741218D01*
X253217510Y-86966314D01*
X253021926Y-87096999D01*
X252430282Y-87342066D01*
X252430281Y-87342066D01*
X252430279Y-87342067D01*
X251802198Y-87467000D01*
X251161802Y-87467000D01*
X250533721Y-87342067D01*
X250533719Y-87342066D01*
X250533718Y-87342066D01*
X249942074Y-87096999D01*
X249746490Y-86966314D01*
X249409609Y-86741218D01*
X248956782Y-86288391D01*
X248618092Y-85781504D01*
X248601001Y-85755926D01*
X248355934Y-85164282D01*
X248257019Y-84667000D01*
X248231000Y-84536198D01*
X248231000Y-83895802D01*
X248355933Y-83267721D01*
X248355934Y-83267718D01*
X248601001Y-82676074D01*
X248793892Y-82387392D01*
X248956782Y-82143609D01*
X249409609Y-81690782D01*
X249764988Y-81453326D01*
X249942074Y-81335001D01*
X250533718Y-81089934D01*
X250533719Y-81089934D01*
X250533721Y-81089933D01*
X251161802Y-80965000D01*
X251802198Y-80965000D01*
X252430279Y-81089933D01*
X252430279Y-81089933D01*
G37*
G36*
X181430279Y-81089933D02*
G01*
X181430281Y-81089934D01*
X181430282Y-81089934D01*
X182021926Y-81335001D01*
X182199012Y-81453326D01*
X182554391Y-81690782D01*
X183007218Y-82143609D01*
X183170108Y-82387392D01*
X183362999Y-82676074D01*
X183608066Y-83267718D01*
X183608067Y-83267721D01*
X183733000Y-83895802D01*
X183733000Y-84536198D01*
X183706982Y-84667000D01*
X183608066Y-85164282D01*
X183362999Y-85755926D01*
X183345908Y-85781504D01*
X183007218Y-86288391D01*
X182554391Y-86741218D01*
X182217510Y-86966314D01*
X182021926Y-87096999D01*
X181430282Y-87342066D01*
X181430281Y-87342066D01*
X181430279Y-87342067D01*
X180802198Y-87467000D01*
X180161802Y-87467000D01*
X179533721Y-87342067D01*
X179533719Y-87342066D01*
X179533718Y-87342066D01*
X178942074Y-87096999D01*
X178746490Y-86966314D01*
X178409609Y-86741218D01*
X177956782Y-86288391D01*
X177618092Y-85781504D01*
X177601001Y-85755926D01*
X177355934Y-85164282D01*
X177257019Y-84667000D01*
X177231000Y-84536198D01*
X177231000Y-83895802D01*
X177355933Y-83267721D01*
X177355934Y-83267718D01*
X177601001Y-82676074D01*
X177793892Y-82387392D01*
X177956782Y-82143609D01*
X178409609Y-81690782D01*
X178764988Y-81453326D01*
X178942074Y-81335001D01*
X179533718Y-81089934D01*
X179533719Y-81089934D01*
X179533721Y-81089933D01*
X180161802Y-80965000D01*
X180802198Y-80965000D01*
X181430279Y-81089933D01*
X181430279Y-81089933D01*
G37*
M02*
