G04 #@! TF.GenerationSoftware,KiCad,Pcbnew,5.1.2*
G04 #@! TF.CreationDate,2019-06-21T22:24:24+01:00*
G04 #@! TF.ProjectId,garage_receiver,67617261-6765-45f7-9265-636569766572,rev?*
G04 #@! TF.SameCoordinates,Original*
G04 #@! TF.FileFunction,Copper,L1,Top*
G04 #@! TF.FilePolarity,Positive*
%FSLAX46Y46*%
G04 Gerber Fmt 4.6, Leading zero omitted, Abs format (unit mm)*
G04 Created by KiCad (PCBNEW 5.1.2) date 2019-06-21 22:24:24*
%MOMM*%
%LPD*%
G04 APERTURE LIST*
%ADD10C,0.100000*%
%ADD11C,0.975000*%
%ADD12O,2.200000X2.200000*%
%ADD13R,2.200000X2.200000*%
%ADD14C,0.600000*%
%ADD15R,1.220000X0.650000*%
%ADD16R,2.000000X2.000000*%
%ADD17C,2.000000*%
%ADD18O,1.700000X1.700000*%
%ADD19R,1.700000X1.700000*%
%ADD20R,3.600000X2.700000*%
%ADD21C,2.500000*%
%ADD22R,2.500000X2.500000*%
%ADD23O,1.600000X1.600000*%
%ADD24R,1.600000X1.600000*%
%ADD25C,1.600000*%
%ADD26R,0.900000X0.800000*%
%ADD27R,1.200000X1.200000*%
%ADD28C,1.200000*%
%ADD29C,0.800000*%
%ADD30C,0.300000*%
%ADD31C,0.600000*%
%ADD32C,1.500000*%
%ADD33C,0.254000*%
G04 APERTURE END LIST*
D10*
G36*
X213549142Y-93408174D02*
G01*
X213572803Y-93411684D01*
X213596007Y-93417496D01*
X213618529Y-93425554D01*
X213640153Y-93435782D01*
X213660670Y-93448079D01*
X213679883Y-93462329D01*
X213697607Y-93478393D01*
X213713671Y-93496117D01*
X213727921Y-93515330D01*
X213740218Y-93535847D01*
X213750446Y-93557471D01*
X213758504Y-93579993D01*
X213764316Y-93603197D01*
X213767826Y-93626858D01*
X213769000Y-93650750D01*
X213769000Y-94563250D01*
X213767826Y-94587142D01*
X213764316Y-94610803D01*
X213758504Y-94634007D01*
X213750446Y-94656529D01*
X213740218Y-94678153D01*
X213727921Y-94698670D01*
X213713671Y-94717883D01*
X213697607Y-94735607D01*
X213679883Y-94751671D01*
X213660670Y-94765921D01*
X213640153Y-94778218D01*
X213618529Y-94788446D01*
X213596007Y-94796504D01*
X213572803Y-94802316D01*
X213549142Y-94805826D01*
X213525250Y-94807000D01*
X213037750Y-94807000D01*
X213013858Y-94805826D01*
X212990197Y-94802316D01*
X212966993Y-94796504D01*
X212944471Y-94788446D01*
X212922847Y-94778218D01*
X212902330Y-94765921D01*
X212883117Y-94751671D01*
X212865393Y-94735607D01*
X212849329Y-94717883D01*
X212835079Y-94698670D01*
X212822782Y-94678153D01*
X212812554Y-94656529D01*
X212804496Y-94634007D01*
X212798684Y-94610803D01*
X212795174Y-94587142D01*
X212794000Y-94563250D01*
X212794000Y-93650750D01*
X212795174Y-93626858D01*
X212798684Y-93603197D01*
X212804496Y-93579993D01*
X212812554Y-93557471D01*
X212822782Y-93535847D01*
X212835079Y-93515330D01*
X212849329Y-93496117D01*
X212865393Y-93478393D01*
X212883117Y-93462329D01*
X212902330Y-93448079D01*
X212922847Y-93435782D01*
X212944471Y-93425554D01*
X212966993Y-93417496D01*
X212990197Y-93411684D01*
X213013858Y-93408174D01*
X213037750Y-93407000D01*
X213525250Y-93407000D01*
X213549142Y-93408174D01*
X213549142Y-93408174D01*
G37*
D11*
X213281500Y-94107000D03*
D10*
G36*
X211674142Y-93408174D02*
G01*
X211697803Y-93411684D01*
X211721007Y-93417496D01*
X211743529Y-93425554D01*
X211765153Y-93435782D01*
X211785670Y-93448079D01*
X211804883Y-93462329D01*
X211822607Y-93478393D01*
X211838671Y-93496117D01*
X211852921Y-93515330D01*
X211865218Y-93535847D01*
X211875446Y-93557471D01*
X211883504Y-93579993D01*
X211889316Y-93603197D01*
X211892826Y-93626858D01*
X211894000Y-93650750D01*
X211894000Y-94563250D01*
X211892826Y-94587142D01*
X211889316Y-94610803D01*
X211883504Y-94634007D01*
X211875446Y-94656529D01*
X211865218Y-94678153D01*
X211852921Y-94698670D01*
X211838671Y-94717883D01*
X211822607Y-94735607D01*
X211804883Y-94751671D01*
X211785670Y-94765921D01*
X211765153Y-94778218D01*
X211743529Y-94788446D01*
X211721007Y-94796504D01*
X211697803Y-94802316D01*
X211674142Y-94805826D01*
X211650250Y-94807000D01*
X211162750Y-94807000D01*
X211138858Y-94805826D01*
X211115197Y-94802316D01*
X211091993Y-94796504D01*
X211069471Y-94788446D01*
X211047847Y-94778218D01*
X211027330Y-94765921D01*
X211008117Y-94751671D01*
X210990393Y-94735607D01*
X210974329Y-94717883D01*
X210960079Y-94698670D01*
X210947782Y-94678153D01*
X210937554Y-94656529D01*
X210929496Y-94634007D01*
X210923684Y-94610803D01*
X210920174Y-94587142D01*
X210919000Y-94563250D01*
X210919000Y-93650750D01*
X210920174Y-93626858D01*
X210923684Y-93603197D01*
X210929496Y-93579993D01*
X210937554Y-93557471D01*
X210947782Y-93535847D01*
X210960079Y-93515330D01*
X210974329Y-93496117D01*
X210990393Y-93478393D01*
X211008117Y-93462329D01*
X211027330Y-93448079D01*
X211047847Y-93435782D01*
X211069471Y-93425554D01*
X211091993Y-93417496D01*
X211115197Y-93411684D01*
X211138858Y-93408174D01*
X211162750Y-93407000D01*
X211650250Y-93407000D01*
X211674142Y-93408174D01*
X211674142Y-93408174D01*
G37*
D11*
X211406500Y-94107000D03*
D12*
X202438000Y-96774000D03*
D13*
X202438000Y-106934000D03*
D10*
G36*
X230161703Y-88940722D02*
G01*
X230176264Y-88942882D01*
X230190543Y-88946459D01*
X230204403Y-88951418D01*
X230217710Y-88957712D01*
X230230336Y-88965280D01*
X230242159Y-88974048D01*
X230253066Y-88983934D01*
X230262952Y-88994841D01*
X230271720Y-89006664D01*
X230279288Y-89019290D01*
X230285582Y-89032597D01*
X230290541Y-89046457D01*
X230294118Y-89060736D01*
X230296278Y-89075297D01*
X230297000Y-89090000D01*
X230297000Y-90840000D01*
X230296278Y-90854703D01*
X230294118Y-90869264D01*
X230290541Y-90883543D01*
X230285582Y-90897403D01*
X230279288Y-90910710D01*
X230271720Y-90923336D01*
X230262952Y-90935159D01*
X230253066Y-90946066D01*
X230242159Y-90955952D01*
X230230336Y-90964720D01*
X230217710Y-90972288D01*
X230204403Y-90978582D01*
X230190543Y-90983541D01*
X230176264Y-90987118D01*
X230161703Y-90989278D01*
X230147000Y-90990000D01*
X229847000Y-90990000D01*
X229832297Y-90989278D01*
X229817736Y-90987118D01*
X229803457Y-90983541D01*
X229789597Y-90978582D01*
X229776290Y-90972288D01*
X229763664Y-90964720D01*
X229751841Y-90955952D01*
X229740934Y-90946066D01*
X229731048Y-90935159D01*
X229722280Y-90923336D01*
X229714712Y-90910710D01*
X229708418Y-90897403D01*
X229703459Y-90883543D01*
X229699882Y-90869264D01*
X229697722Y-90854703D01*
X229697000Y-90840000D01*
X229697000Y-89090000D01*
X229697722Y-89075297D01*
X229699882Y-89060736D01*
X229703459Y-89046457D01*
X229708418Y-89032597D01*
X229714712Y-89019290D01*
X229722280Y-89006664D01*
X229731048Y-88994841D01*
X229740934Y-88983934D01*
X229751841Y-88974048D01*
X229763664Y-88965280D01*
X229776290Y-88957712D01*
X229789597Y-88951418D01*
X229803457Y-88946459D01*
X229817736Y-88942882D01*
X229832297Y-88940722D01*
X229847000Y-88940000D01*
X230147000Y-88940000D01*
X230161703Y-88940722D01*
X230161703Y-88940722D01*
G37*
D14*
X229997000Y-89965000D03*
D10*
G36*
X231431703Y-88940722D02*
G01*
X231446264Y-88942882D01*
X231460543Y-88946459D01*
X231474403Y-88951418D01*
X231487710Y-88957712D01*
X231500336Y-88965280D01*
X231512159Y-88974048D01*
X231523066Y-88983934D01*
X231532952Y-88994841D01*
X231541720Y-89006664D01*
X231549288Y-89019290D01*
X231555582Y-89032597D01*
X231560541Y-89046457D01*
X231564118Y-89060736D01*
X231566278Y-89075297D01*
X231567000Y-89090000D01*
X231567000Y-90840000D01*
X231566278Y-90854703D01*
X231564118Y-90869264D01*
X231560541Y-90883543D01*
X231555582Y-90897403D01*
X231549288Y-90910710D01*
X231541720Y-90923336D01*
X231532952Y-90935159D01*
X231523066Y-90946066D01*
X231512159Y-90955952D01*
X231500336Y-90964720D01*
X231487710Y-90972288D01*
X231474403Y-90978582D01*
X231460543Y-90983541D01*
X231446264Y-90987118D01*
X231431703Y-90989278D01*
X231417000Y-90990000D01*
X231117000Y-90990000D01*
X231102297Y-90989278D01*
X231087736Y-90987118D01*
X231073457Y-90983541D01*
X231059597Y-90978582D01*
X231046290Y-90972288D01*
X231033664Y-90964720D01*
X231021841Y-90955952D01*
X231010934Y-90946066D01*
X231001048Y-90935159D01*
X230992280Y-90923336D01*
X230984712Y-90910710D01*
X230978418Y-90897403D01*
X230973459Y-90883543D01*
X230969882Y-90869264D01*
X230967722Y-90854703D01*
X230967000Y-90840000D01*
X230967000Y-89090000D01*
X230967722Y-89075297D01*
X230969882Y-89060736D01*
X230973459Y-89046457D01*
X230978418Y-89032597D01*
X230984712Y-89019290D01*
X230992280Y-89006664D01*
X231001048Y-88994841D01*
X231010934Y-88983934D01*
X231021841Y-88974048D01*
X231033664Y-88965280D01*
X231046290Y-88957712D01*
X231059597Y-88951418D01*
X231073457Y-88946459D01*
X231087736Y-88942882D01*
X231102297Y-88940722D01*
X231117000Y-88940000D01*
X231417000Y-88940000D01*
X231431703Y-88940722D01*
X231431703Y-88940722D01*
G37*
D14*
X231267000Y-89965000D03*
D10*
G36*
X232701703Y-88940722D02*
G01*
X232716264Y-88942882D01*
X232730543Y-88946459D01*
X232744403Y-88951418D01*
X232757710Y-88957712D01*
X232770336Y-88965280D01*
X232782159Y-88974048D01*
X232793066Y-88983934D01*
X232802952Y-88994841D01*
X232811720Y-89006664D01*
X232819288Y-89019290D01*
X232825582Y-89032597D01*
X232830541Y-89046457D01*
X232834118Y-89060736D01*
X232836278Y-89075297D01*
X232837000Y-89090000D01*
X232837000Y-90840000D01*
X232836278Y-90854703D01*
X232834118Y-90869264D01*
X232830541Y-90883543D01*
X232825582Y-90897403D01*
X232819288Y-90910710D01*
X232811720Y-90923336D01*
X232802952Y-90935159D01*
X232793066Y-90946066D01*
X232782159Y-90955952D01*
X232770336Y-90964720D01*
X232757710Y-90972288D01*
X232744403Y-90978582D01*
X232730543Y-90983541D01*
X232716264Y-90987118D01*
X232701703Y-90989278D01*
X232687000Y-90990000D01*
X232387000Y-90990000D01*
X232372297Y-90989278D01*
X232357736Y-90987118D01*
X232343457Y-90983541D01*
X232329597Y-90978582D01*
X232316290Y-90972288D01*
X232303664Y-90964720D01*
X232291841Y-90955952D01*
X232280934Y-90946066D01*
X232271048Y-90935159D01*
X232262280Y-90923336D01*
X232254712Y-90910710D01*
X232248418Y-90897403D01*
X232243459Y-90883543D01*
X232239882Y-90869264D01*
X232237722Y-90854703D01*
X232237000Y-90840000D01*
X232237000Y-89090000D01*
X232237722Y-89075297D01*
X232239882Y-89060736D01*
X232243459Y-89046457D01*
X232248418Y-89032597D01*
X232254712Y-89019290D01*
X232262280Y-89006664D01*
X232271048Y-88994841D01*
X232280934Y-88983934D01*
X232291841Y-88974048D01*
X232303664Y-88965280D01*
X232316290Y-88957712D01*
X232329597Y-88951418D01*
X232343457Y-88946459D01*
X232357736Y-88942882D01*
X232372297Y-88940722D01*
X232387000Y-88940000D01*
X232687000Y-88940000D01*
X232701703Y-88940722D01*
X232701703Y-88940722D01*
G37*
D14*
X232537000Y-89965000D03*
D10*
G36*
X233971703Y-88940722D02*
G01*
X233986264Y-88942882D01*
X234000543Y-88946459D01*
X234014403Y-88951418D01*
X234027710Y-88957712D01*
X234040336Y-88965280D01*
X234052159Y-88974048D01*
X234063066Y-88983934D01*
X234072952Y-88994841D01*
X234081720Y-89006664D01*
X234089288Y-89019290D01*
X234095582Y-89032597D01*
X234100541Y-89046457D01*
X234104118Y-89060736D01*
X234106278Y-89075297D01*
X234107000Y-89090000D01*
X234107000Y-90840000D01*
X234106278Y-90854703D01*
X234104118Y-90869264D01*
X234100541Y-90883543D01*
X234095582Y-90897403D01*
X234089288Y-90910710D01*
X234081720Y-90923336D01*
X234072952Y-90935159D01*
X234063066Y-90946066D01*
X234052159Y-90955952D01*
X234040336Y-90964720D01*
X234027710Y-90972288D01*
X234014403Y-90978582D01*
X234000543Y-90983541D01*
X233986264Y-90987118D01*
X233971703Y-90989278D01*
X233957000Y-90990000D01*
X233657000Y-90990000D01*
X233642297Y-90989278D01*
X233627736Y-90987118D01*
X233613457Y-90983541D01*
X233599597Y-90978582D01*
X233586290Y-90972288D01*
X233573664Y-90964720D01*
X233561841Y-90955952D01*
X233550934Y-90946066D01*
X233541048Y-90935159D01*
X233532280Y-90923336D01*
X233524712Y-90910710D01*
X233518418Y-90897403D01*
X233513459Y-90883543D01*
X233509882Y-90869264D01*
X233507722Y-90854703D01*
X233507000Y-90840000D01*
X233507000Y-89090000D01*
X233507722Y-89075297D01*
X233509882Y-89060736D01*
X233513459Y-89046457D01*
X233518418Y-89032597D01*
X233524712Y-89019290D01*
X233532280Y-89006664D01*
X233541048Y-88994841D01*
X233550934Y-88983934D01*
X233561841Y-88974048D01*
X233573664Y-88965280D01*
X233586290Y-88957712D01*
X233599597Y-88951418D01*
X233613457Y-88946459D01*
X233627736Y-88942882D01*
X233642297Y-88940722D01*
X233657000Y-88940000D01*
X233957000Y-88940000D01*
X233971703Y-88940722D01*
X233971703Y-88940722D01*
G37*
D14*
X233807000Y-89965000D03*
D10*
G36*
X235241703Y-88940722D02*
G01*
X235256264Y-88942882D01*
X235270543Y-88946459D01*
X235284403Y-88951418D01*
X235297710Y-88957712D01*
X235310336Y-88965280D01*
X235322159Y-88974048D01*
X235333066Y-88983934D01*
X235342952Y-88994841D01*
X235351720Y-89006664D01*
X235359288Y-89019290D01*
X235365582Y-89032597D01*
X235370541Y-89046457D01*
X235374118Y-89060736D01*
X235376278Y-89075297D01*
X235377000Y-89090000D01*
X235377000Y-90840000D01*
X235376278Y-90854703D01*
X235374118Y-90869264D01*
X235370541Y-90883543D01*
X235365582Y-90897403D01*
X235359288Y-90910710D01*
X235351720Y-90923336D01*
X235342952Y-90935159D01*
X235333066Y-90946066D01*
X235322159Y-90955952D01*
X235310336Y-90964720D01*
X235297710Y-90972288D01*
X235284403Y-90978582D01*
X235270543Y-90983541D01*
X235256264Y-90987118D01*
X235241703Y-90989278D01*
X235227000Y-90990000D01*
X234927000Y-90990000D01*
X234912297Y-90989278D01*
X234897736Y-90987118D01*
X234883457Y-90983541D01*
X234869597Y-90978582D01*
X234856290Y-90972288D01*
X234843664Y-90964720D01*
X234831841Y-90955952D01*
X234820934Y-90946066D01*
X234811048Y-90935159D01*
X234802280Y-90923336D01*
X234794712Y-90910710D01*
X234788418Y-90897403D01*
X234783459Y-90883543D01*
X234779882Y-90869264D01*
X234777722Y-90854703D01*
X234777000Y-90840000D01*
X234777000Y-89090000D01*
X234777722Y-89075297D01*
X234779882Y-89060736D01*
X234783459Y-89046457D01*
X234788418Y-89032597D01*
X234794712Y-89019290D01*
X234802280Y-89006664D01*
X234811048Y-88994841D01*
X234820934Y-88983934D01*
X234831841Y-88974048D01*
X234843664Y-88965280D01*
X234856290Y-88957712D01*
X234869597Y-88951418D01*
X234883457Y-88946459D01*
X234897736Y-88942882D01*
X234912297Y-88940722D01*
X234927000Y-88940000D01*
X235227000Y-88940000D01*
X235241703Y-88940722D01*
X235241703Y-88940722D01*
G37*
D14*
X235077000Y-89965000D03*
D10*
G36*
X236511703Y-88940722D02*
G01*
X236526264Y-88942882D01*
X236540543Y-88946459D01*
X236554403Y-88951418D01*
X236567710Y-88957712D01*
X236580336Y-88965280D01*
X236592159Y-88974048D01*
X236603066Y-88983934D01*
X236612952Y-88994841D01*
X236621720Y-89006664D01*
X236629288Y-89019290D01*
X236635582Y-89032597D01*
X236640541Y-89046457D01*
X236644118Y-89060736D01*
X236646278Y-89075297D01*
X236647000Y-89090000D01*
X236647000Y-90840000D01*
X236646278Y-90854703D01*
X236644118Y-90869264D01*
X236640541Y-90883543D01*
X236635582Y-90897403D01*
X236629288Y-90910710D01*
X236621720Y-90923336D01*
X236612952Y-90935159D01*
X236603066Y-90946066D01*
X236592159Y-90955952D01*
X236580336Y-90964720D01*
X236567710Y-90972288D01*
X236554403Y-90978582D01*
X236540543Y-90983541D01*
X236526264Y-90987118D01*
X236511703Y-90989278D01*
X236497000Y-90990000D01*
X236197000Y-90990000D01*
X236182297Y-90989278D01*
X236167736Y-90987118D01*
X236153457Y-90983541D01*
X236139597Y-90978582D01*
X236126290Y-90972288D01*
X236113664Y-90964720D01*
X236101841Y-90955952D01*
X236090934Y-90946066D01*
X236081048Y-90935159D01*
X236072280Y-90923336D01*
X236064712Y-90910710D01*
X236058418Y-90897403D01*
X236053459Y-90883543D01*
X236049882Y-90869264D01*
X236047722Y-90854703D01*
X236047000Y-90840000D01*
X236047000Y-89090000D01*
X236047722Y-89075297D01*
X236049882Y-89060736D01*
X236053459Y-89046457D01*
X236058418Y-89032597D01*
X236064712Y-89019290D01*
X236072280Y-89006664D01*
X236081048Y-88994841D01*
X236090934Y-88983934D01*
X236101841Y-88974048D01*
X236113664Y-88965280D01*
X236126290Y-88957712D01*
X236139597Y-88951418D01*
X236153457Y-88946459D01*
X236167736Y-88942882D01*
X236182297Y-88940722D01*
X236197000Y-88940000D01*
X236497000Y-88940000D01*
X236511703Y-88940722D01*
X236511703Y-88940722D01*
G37*
D14*
X236347000Y-89965000D03*
D10*
G36*
X237781703Y-88940722D02*
G01*
X237796264Y-88942882D01*
X237810543Y-88946459D01*
X237824403Y-88951418D01*
X237837710Y-88957712D01*
X237850336Y-88965280D01*
X237862159Y-88974048D01*
X237873066Y-88983934D01*
X237882952Y-88994841D01*
X237891720Y-89006664D01*
X237899288Y-89019290D01*
X237905582Y-89032597D01*
X237910541Y-89046457D01*
X237914118Y-89060736D01*
X237916278Y-89075297D01*
X237917000Y-89090000D01*
X237917000Y-90840000D01*
X237916278Y-90854703D01*
X237914118Y-90869264D01*
X237910541Y-90883543D01*
X237905582Y-90897403D01*
X237899288Y-90910710D01*
X237891720Y-90923336D01*
X237882952Y-90935159D01*
X237873066Y-90946066D01*
X237862159Y-90955952D01*
X237850336Y-90964720D01*
X237837710Y-90972288D01*
X237824403Y-90978582D01*
X237810543Y-90983541D01*
X237796264Y-90987118D01*
X237781703Y-90989278D01*
X237767000Y-90990000D01*
X237467000Y-90990000D01*
X237452297Y-90989278D01*
X237437736Y-90987118D01*
X237423457Y-90983541D01*
X237409597Y-90978582D01*
X237396290Y-90972288D01*
X237383664Y-90964720D01*
X237371841Y-90955952D01*
X237360934Y-90946066D01*
X237351048Y-90935159D01*
X237342280Y-90923336D01*
X237334712Y-90910710D01*
X237328418Y-90897403D01*
X237323459Y-90883543D01*
X237319882Y-90869264D01*
X237317722Y-90854703D01*
X237317000Y-90840000D01*
X237317000Y-89090000D01*
X237317722Y-89075297D01*
X237319882Y-89060736D01*
X237323459Y-89046457D01*
X237328418Y-89032597D01*
X237334712Y-89019290D01*
X237342280Y-89006664D01*
X237351048Y-88994841D01*
X237360934Y-88983934D01*
X237371841Y-88974048D01*
X237383664Y-88965280D01*
X237396290Y-88957712D01*
X237409597Y-88951418D01*
X237423457Y-88946459D01*
X237437736Y-88942882D01*
X237452297Y-88940722D01*
X237467000Y-88940000D01*
X237767000Y-88940000D01*
X237781703Y-88940722D01*
X237781703Y-88940722D01*
G37*
D14*
X237617000Y-89965000D03*
D10*
G36*
X239051703Y-88940722D02*
G01*
X239066264Y-88942882D01*
X239080543Y-88946459D01*
X239094403Y-88951418D01*
X239107710Y-88957712D01*
X239120336Y-88965280D01*
X239132159Y-88974048D01*
X239143066Y-88983934D01*
X239152952Y-88994841D01*
X239161720Y-89006664D01*
X239169288Y-89019290D01*
X239175582Y-89032597D01*
X239180541Y-89046457D01*
X239184118Y-89060736D01*
X239186278Y-89075297D01*
X239187000Y-89090000D01*
X239187000Y-90840000D01*
X239186278Y-90854703D01*
X239184118Y-90869264D01*
X239180541Y-90883543D01*
X239175582Y-90897403D01*
X239169288Y-90910710D01*
X239161720Y-90923336D01*
X239152952Y-90935159D01*
X239143066Y-90946066D01*
X239132159Y-90955952D01*
X239120336Y-90964720D01*
X239107710Y-90972288D01*
X239094403Y-90978582D01*
X239080543Y-90983541D01*
X239066264Y-90987118D01*
X239051703Y-90989278D01*
X239037000Y-90990000D01*
X238737000Y-90990000D01*
X238722297Y-90989278D01*
X238707736Y-90987118D01*
X238693457Y-90983541D01*
X238679597Y-90978582D01*
X238666290Y-90972288D01*
X238653664Y-90964720D01*
X238641841Y-90955952D01*
X238630934Y-90946066D01*
X238621048Y-90935159D01*
X238612280Y-90923336D01*
X238604712Y-90910710D01*
X238598418Y-90897403D01*
X238593459Y-90883543D01*
X238589882Y-90869264D01*
X238587722Y-90854703D01*
X238587000Y-90840000D01*
X238587000Y-89090000D01*
X238587722Y-89075297D01*
X238589882Y-89060736D01*
X238593459Y-89046457D01*
X238598418Y-89032597D01*
X238604712Y-89019290D01*
X238612280Y-89006664D01*
X238621048Y-88994841D01*
X238630934Y-88983934D01*
X238641841Y-88974048D01*
X238653664Y-88965280D01*
X238666290Y-88957712D01*
X238679597Y-88951418D01*
X238693457Y-88946459D01*
X238707736Y-88942882D01*
X238722297Y-88940722D01*
X238737000Y-88940000D01*
X239037000Y-88940000D01*
X239051703Y-88940722D01*
X239051703Y-88940722D01*
G37*
D14*
X238887000Y-89965000D03*
D10*
G36*
X240321703Y-88940722D02*
G01*
X240336264Y-88942882D01*
X240350543Y-88946459D01*
X240364403Y-88951418D01*
X240377710Y-88957712D01*
X240390336Y-88965280D01*
X240402159Y-88974048D01*
X240413066Y-88983934D01*
X240422952Y-88994841D01*
X240431720Y-89006664D01*
X240439288Y-89019290D01*
X240445582Y-89032597D01*
X240450541Y-89046457D01*
X240454118Y-89060736D01*
X240456278Y-89075297D01*
X240457000Y-89090000D01*
X240457000Y-90840000D01*
X240456278Y-90854703D01*
X240454118Y-90869264D01*
X240450541Y-90883543D01*
X240445582Y-90897403D01*
X240439288Y-90910710D01*
X240431720Y-90923336D01*
X240422952Y-90935159D01*
X240413066Y-90946066D01*
X240402159Y-90955952D01*
X240390336Y-90964720D01*
X240377710Y-90972288D01*
X240364403Y-90978582D01*
X240350543Y-90983541D01*
X240336264Y-90987118D01*
X240321703Y-90989278D01*
X240307000Y-90990000D01*
X240007000Y-90990000D01*
X239992297Y-90989278D01*
X239977736Y-90987118D01*
X239963457Y-90983541D01*
X239949597Y-90978582D01*
X239936290Y-90972288D01*
X239923664Y-90964720D01*
X239911841Y-90955952D01*
X239900934Y-90946066D01*
X239891048Y-90935159D01*
X239882280Y-90923336D01*
X239874712Y-90910710D01*
X239868418Y-90897403D01*
X239863459Y-90883543D01*
X239859882Y-90869264D01*
X239857722Y-90854703D01*
X239857000Y-90840000D01*
X239857000Y-89090000D01*
X239857722Y-89075297D01*
X239859882Y-89060736D01*
X239863459Y-89046457D01*
X239868418Y-89032597D01*
X239874712Y-89019290D01*
X239882280Y-89006664D01*
X239891048Y-88994841D01*
X239900934Y-88983934D01*
X239911841Y-88974048D01*
X239923664Y-88965280D01*
X239936290Y-88957712D01*
X239949597Y-88951418D01*
X239963457Y-88946459D01*
X239977736Y-88942882D01*
X239992297Y-88940722D01*
X240007000Y-88940000D01*
X240307000Y-88940000D01*
X240321703Y-88940722D01*
X240321703Y-88940722D01*
G37*
D14*
X240157000Y-89965000D03*
D10*
G36*
X241591703Y-88940722D02*
G01*
X241606264Y-88942882D01*
X241620543Y-88946459D01*
X241634403Y-88951418D01*
X241647710Y-88957712D01*
X241660336Y-88965280D01*
X241672159Y-88974048D01*
X241683066Y-88983934D01*
X241692952Y-88994841D01*
X241701720Y-89006664D01*
X241709288Y-89019290D01*
X241715582Y-89032597D01*
X241720541Y-89046457D01*
X241724118Y-89060736D01*
X241726278Y-89075297D01*
X241727000Y-89090000D01*
X241727000Y-90840000D01*
X241726278Y-90854703D01*
X241724118Y-90869264D01*
X241720541Y-90883543D01*
X241715582Y-90897403D01*
X241709288Y-90910710D01*
X241701720Y-90923336D01*
X241692952Y-90935159D01*
X241683066Y-90946066D01*
X241672159Y-90955952D01*
X241660336Y-90964720D01*
X241647710Y-90972288D01*
X241634403Y-90978582D01*
X241620543Y-90983541D01*
X241606264Y-90987118D01*
X241591703Y-90989278D01*
X241577000Y-90990000D01*
X241277000Y-90990000D01*
X241262297Y-90989278D01*
X241247736Y-90987118D01*
X241233457Y-90983541D01*
X241219597Y-90978582D01*
X241206290Y-90972288D01*
X241193664Y-90964720D01*
X241181841Y-90955952D01*
X241170934Y-90946066D01*
X241161048Y-90935159D01*
X241152280Y-90923336D01*
X241144712Y-90910710D01*
X241138418Y-90897403D01*
X241133459Y-90883543D01*
X241129882Y-90869264D01*
X241127722Y-90854703D01*
X241127000Y-90840000D01*
X241127000Y-89090000D01*
X241127722Y-89075297D01*
X241129882Y-89060736D01*
X241133459Y-89046457D01*
X241138418Y-89032597D01*
X241144712Y-89019290D01*
X241152280Y-89006664D01*
X241161048Y-88994841D01*
X241170934Y-88983934D01*
X241181841Y-88974048D01*
X241193664Y-88965280D01*
X241206290Y-88957712D01*
X241219597Y-88951418D01*
X241233457Y-88946459D01*
X241247736Y-88942882D01*
X241262297Y-88940722D01*
X241277000Y-88940000D01*
X241577000Y-88940000D01*
X241591703Y-88940722D01*
X241591703Y-88940722D01*
G37*
D14*
X241427000Y-89965000D03*
D10*
G36*
X241591703Y-98240722D02*
G01*
X241606264Y-98242882D01*
X241620543Y-98246459D01*
X241634403Y-98251418D01*
X241647710Y-98257712D01*
X241660336Y-98265280D01*
X241672159Y-98274048D01*
X241683066Y-98283934D01*
X241692952Y-98294841D01*
X241701720Y-98306664D01*
X241709288Y-98319290D01*
X241715582Y-98332597D01*
X241720541Y-98346457D01*
X241724118Y-98360736D01*
X241726278Y-98375297D01*
X241727000Y-98390000D01*
X241727000Y-100140000D01*
X241726278Y-100154703D01*
X241724118Y-100169264D01*
X241720541Y-100183543D01*
X241715582Y-100197403D01*
X241709288Y-100210710D01*
X241701720Y-100223336D01*
X241692952Y-100235159D01*
X241683066Y-100246066D01*
X241672159Y-100255952D01*
X241660336Y-100264720D01*
X241647710Y-100272288D01*
X241634403Y-100278582D01*
X241620543Y-100283541D01*
X241606264Y-100287118D01*
X241591703Y-100289278D01*
X241577000Y-100290000D01*
X241277000Y-100290000D01*
X241262297Y-100289278D01*
X241247736Y-100287118D01*
X241233457Y-100283541D01*
X241219597Y-100278582D01*
X241206290Y-100272288D01*
X241193664Y-100264720D01*
X241181841Y-100255952D01*
X241170934Y-100246066D01*
X241161048Y-100235159D01*
X241152280Y-100223336D01*
X241144712Y-100210710D01*
X241138418Y-100197403D01*
X241133459Y-100183543D01*
X241129882Y-100169264D01*
X241127722Y-100154703D01*
X241127000Y-100140000D01*
X241127000Y-98390000D01*
X241127722Y-98375297D01*
X241129882Y-98360736D01*
X241133459Y-98346457D01*
X241138418Y-98332597D01*
X241144712Y-98319290D01*
X241152280Y-98306664D01*
X241161048Y-98294841D01*
X241170934Y-98283934D01*
X241181841Y-98274048D01*
X241193664Y-98265280D01*
X241206290Y-98257712D01*
X241219597Y-98251418D01*
X241233457Y-98246459D01*
X241247736Y-98242882D01*
X241262297Y-98240722D01*
X241277000Y-98240000D01*
X241577000Y-98240000D01*
X241591703Y-98240722D01*
X241591703Y-98240722D01*
G37*
D14*
X241427000Y-99265000D03*
D10*
G36*
X240321703Y-98240722D02*
G01*
X240336264Y-98242882D01*
X240350543Y-98246459D01*
X240364403Y-98251418D01*
X240377710Y-98257712D01*
X240390336Y-98265280D01*
X240402159Y-98274048D01*
X240413066Y-98283934D01*
X240422952Y-98294841D01*
X240431720Y-98306664D01*
X240439288Y-98319290D01*
X240445582Y-98332597D01*
X240450541Y-98346457D01*
X240454118Y-98360736D01*
X240456278Y-98375297D01*
X240457000Y-98390000D01*
X240457000Y-100140000D01*
X240456278Y-100154703D01*
X240454118Y-100169264D01*
X240450541Y-100183543D01*
X240445582Y-100197403D01*
X240439288Y-100210710D01*
X240431720Y-100223336D01*
X240422952Y-100235159D01*
X240413066Y-100246066D01*
X240402159Y-100255952D01*
X240390336Y-100264720D01*
X240377710Y-100272288D01*
X240364403Y-100278582D01*
X240350543Y-100283541D01*
X240336264Y-100287118D01*
X240321703Y-100289278D01*
X240307000Y-100290000D01*
X240007000Y-100290000D01*
X239992297Y-100289278D01*
X239977736Y-100287118D01*
X239963457Y-100283541D01*
X239949597Y-100278582D01*
X239936290Y-100272288D01*
X239923664Y-100264720D01*
X239911841Y-100255952D01*
X239900934Y-100246066D01*
X239891048Y-100235159D01*
X239882280Y-100223336D01*
X239874712Y-100210710D01*
X239868418Y-100197403D01*
X239863459Y-100183543D01*
X239859882Y-100169264D01*
X239857722Y-100154703D01*
X239857000Y-100140000D01*
X239857000Y-98390000D01*
X239857722Y-98375297D01*
X239859882Y-98360736D01*
X239863459Y-98346457D01*
X239868418Y-98332597D01*
X239874712Y-98319290D01*
X239882280Y-98306664D01*
X239891048Y-98294841D01*
X239900934Y-98283934D01*
X239911841Y-98274048D01*
X239923664Y-98265280D01*
X239936290Y-98257712D01*
X239949597Y-98251418D01*
X239963457Y-98246459D01*
X239977736Y-98242882D01*
X239992297Y-98240722D01*
X240007000Y-98240000D01*
X240307000Y-98240000D01*
X240321703Y-98240722D01*
X240321703Y-98240722D01*
G37*
D14*
X240157000Y-99265000D03*
D10*
G36*
X239051703Y-98240722D02*
G01*
X239066264Y-98242882D01*
X239080543Y-98246459D01*
X239094403Y-98251418D01*
X239107710Y-98257712D01*
X239120336Y-98265280D01*
X239132159Y-98274048D01*
X239143066Y-98283934D01*
X239152952Y-98294841D01*
X239161720Y-98306664D01*
X239169288Y-98319290D01*
X239175582Y-98332597D01*
X239180541Y-98346457D01*
X239184118Y-98360736D01*
X239186278Y-98375297D01*
X239187000Y-98390000D01*
X239187000Y-100140000D01*
X239186278Y-100154703D01*
X239184118Y-100169264D01*
X239180541Y-100183543D01*
X239175582Y-100197403D01*
X239169288Y-100210710D01*
X239161720Y-100223336D01*
X239152952Y-100235159D01*
X239143066Y-100246066D01*
X239132159Y-100255952D01*
X239120336Y-100264720D01*
X239107710Y-100272288D01*
X239094403Y-100278582D01*
X239080543Y-100283541D01*
X239066264Y-100287118D01*
X239051703Y-100289278D01*
X239037000Y-100290000D01*
X238737000Y-100290000D01*
X238722297Y-100289278D01*
X238707736Y-100287118D01*
X238693457Y-100283541D01*
X238679597Y-100278582D01*
X238666290Y-100272288D01*
X238653664Y-100264720D01*
X238641841Y-100255952D01*
X238630934Y-100246066D01*
X238621048Y-100235159D01*
X238612280Y-100223336D01*
X238604712Y-100210710D01*
X238598418Y-100197403D01*
X238593459Y-100183543D01*
X238589882Y-100169264D01*
X238587722Y-100154703D01*
X238587000Y-100140000D01*
X238587000Y-98390000D01*
X238587722Y-98375297D01*
X238589882Y-98360736D01*
X238593459Y-98346457D01*
X238598418Y-98332597D01*
X238604712Y-98319290D01*
X238612280Y-98306664D01*
X238621048Y-98294841D01*
X238630934Y-98283934D01*
X238641841Y-98274048D01*
X238653664Y-98265280D01*
X238666290Y-98257712D01*
X238679597Y-98251418D01*
X238693457Y-98246459D01*
X238707736Y-98242882D01*
X238722297Y-98240722D01*
X238737000Y-98240000D01*
X239037000Y-98240000D01*
X239051703Y-98240722D01*
X239051703Y-98240722D01*
G37*
D14*
X238887000Y-99265000D03*
D10*
G36*
X237781703Y-98240722D02*
G01*
X237796264Y-98242882D01*
X237810543Y-98246459D01*
X237824403Y-98251418D01*
X237837710Y-98257712D01*
X237850336Y-98265280D01*
X237862159Y-98274048D01*
X237873066Y-98283934D01*
X237882952Y-98294841D01*
X237891720Y-98306664D01*
X237899288Y-98319290D01*
X237905582Y-98332597D01*
X237910541Y-98346457D01*
X237914118Y-98360736D01*
X237916278Y-98375297D01*
X237917000Y-98390000D01*
X237917000Y-100140000D01*
X237916278Y-100154703D01*
X237914118Y-100169264D01*
X237910541Y-100183543D01*
X237905582Y-100197403D01*
X237899288Y-100210710D01*
X237891720Y-100223336D01*
X237882952Y-100235159D01*
X237873066Y-100246066D01*
X237862159Y-100255952D01*
X237850336Y-100264720D01*
X237837710Y-100272288D01*
X237824403Y-100278582D01*
X237810543Y-100283541D01*
X237796264Y-100287118D01*
X237781703Y-100289278D01*
X237767000Y-100290000D01*
X237467000Y-100290000D01*
X237452297Y-100289278D01*
X237437736Y-100287118D01*
X237423457Y-100283541D01*
X237409597Y-100278582D01*
X237396290Y-100272288D01*
X237383664Y-100264720D01*
X237371841Y-100255952D01*
X237360934Y-100246066D01*
X237351048Y-100235159D01*
X237342280Y-100223336D01*
X237334712Y-100210710D01*
X237328418Y-100197403D01*
X237323459Y-100183543D01*
X237319882Y-100169264D01*
X237317722Y-100154703D01*
X237317000Y-100140000D01*
X237317000Y-98390000D01*
X237317722Y-98375297D01*
X237319882Y-98360736D01*
X237323459Y-98346457D01*
X237328418Y-98332597D01*
X237334712Y-98319290D01*
X237342280Y-98306664D01*
X237351048Y-98294841D01*
X237360934Y-98283934D01*
X237371841Y-98274048D01*
X237383664Y-98265280D01*
X237396290Y-98257712D01*
X237409597Y-98251418D01*
X237423457Y-98246459D01*
X237437736Y-98242882D01*
X237452297Y-98240722D01*
X237467000Y-98240000D01*
X237767000Y-98240000D01*
X237781703Y-98240722D01*
X237781703Y-98240722D01*
G37*
D14*
X237617000Y-99265000D03*
D10*
G36*
X236511703Y-98240722D02*
G01*
X236526264Y-98242882D01*
X236540543Y-98246459D01*
X236554403Y-98251418D01*
X236567710Y-98257712D01*
X236580336Y-98265280D01*
X236592159Y-98274048D01*
X236603066Y-98283934D01*
X236612952Y-98294841D01*
X236621720Y-98306664D01*
X236629288Y-98319290D01*
X236635582Y-98332597D01*
X236640541Y-98346457D01*
X236644118Y-98360736D01*
X236646278Y-98375297D01*
X236647000Y-98390000D01*
X236647000Y-100140000D01*
X236646278Y-100154703D01*
X236644118Y-100169264D01*
X236640541Y-100183543D01*
X236635582Y-100197403D01*
X236629288Y-100210710D01*
X236621720Y-100223336D01*
X236612952Y-100235159D01*
X236603066Y-100246066D01*
X236592159Y-100255952D01*
X236580336Y-100264720D01*
X236567710Y-100272288D01*
X236554403Y-100278582D01*
X236540543Y-100283541D01*
X236526264Y-100287118D01*
X236511703Y-100289278D01*
X236497000Y-100290000D01*
X236197000Y-100290000D01*
X236182297Y-100289278D01*
X236167736Y-100287118D01*
X236153457Y-100283541D01*
X236139597Y-100278582D01*
X236126290Y-100272288D01*
X236113664Y-100264720D01*
X236101841Y-100255952D01*
X236090934Y-100246066D01*
X236081048Y-100235159D01*
X236072280Y-100223336D01*
X236064712Y-100210710D01*
X236058418Y-100197403D01*
X236053459Y-100183543D01*
X236049882Y-100169264D01*
X236047722Y-100154703D01*
X236047000Y-100140000D01*
X236047000Y-98390000D01*
X236047722Y-98375297D01*
X236049882Y-98360736D01*
X236053459Y-98346457D01*
X236058418Y-98332597D01*
X236064712Y-98319290D01*
X236072280Y-98306664D01*
X236081048Y-98294841D01*
X236090934Y-98283934D01*
X236101841Y-98274048D01*
X236113664Y-98265280D01*
X236126290Y-98257712D01*
X236139597Y-98251418D01*
X236153457Y-98246459D01*
X236167736Y-98242882D01*
X236182297Y-98240722D01*
X236197000Y-98240000D01*
X236497000Y-98240000D01*
X236511703Y-98240722D01*
X236511703Y-98240722D01*
G37*
D14*
X236347000Y-99265000D03*
D10*
G36*
X235241703Y-98240722D02*
G01*
X235256264Y-98242882D01*
X235270543Y-98246459D01*
X235284403Y-98251418D01*
X235297710Y-98257712D01*
X235310336Y-98265280D01*
X235322159Y-98274048D01*
X235333066Y-98283934D01*
X235342952Y-98294841D01*
X235351720Y-98306664D01*
X235359288Y-98319290D01*
X235365582Y-98332597D01*
X235370541Y-98346457D01*
X235374118Y-98360736D01*
X235376278Y-98375297D01*
X235377000Y-98390000D01*
X235377000Y-100140000D01*
X235376278Y-100154703D01*
X235374118Y-100169264D01*
X235370541Y-100183543D01*
X235365582Y-100197403D01*
X235359288Y-100210710D01*
X235351720Y-100223336D01*
X235342952Y-100235159D01*
X235333066Y-100246066D01*
X235322159Y-100255952D01*
X235310336Y-100264720D01*
X235297710Y-100272288D01*
X235284403Y-100278582D01*
X235270543Y-100283541D01*
X235256264Y-100287118D01*
X235241703Y-100289278D01*
X235227000Y-100290000D01*
X234927000Y-100290000D01*
X234912297Y-100289278D01*
X234897736Y-100287118D01*
X234883457Y-100283541D01*
X234869597Y-100278582D01*
X234856290Y-100272288D01*
X234843664Y-100264720D01*
X234831841Y-100255952D01*
X234820934Y-100246066D01*
X234811048Y-100235159D01*
X234802280Y-100223336D01*
X234794712Y-100210710D01*
X234788418Y-100197403D01*
X234783459Y-100183543D01*
X234779882Y-100169264D01*
X234777722Y-100154703D01*
X234777000Y-100140000D01*
X234777000Y-98390000D01*
X234777722Y-98375297D01*
X234779882Y-98360736D01*
X234783459Y-98346457D01*
X234788418Y-98332597D01*
X234794712Y-98319290D01*
X234802280Y-98306664D01*
X234811048Y-98294841D01*
X234820934Y-98283934D01*
X234831841Y-98274048D01*
X234843664Y-98265280D01*
X234856290Y-98257712D01*
X234869597Y-98251418D01*
X234883457Y-98246459D01*
X234897736Y-98242882D01*
X234912297Y-98240722D01*
X234927000Y-98240000D01*
X235227000Y-98240000D01*
X235241703Y-98240722D01*
X235241703Y-98240722D01*
G37*
D14*
X235077000Y-99265000D03*
D10*
G36*
X233971703Y-98240722D02*
G01*
X233986264Y-98242882D01*
X234000543Y-98246459D01*
X234014403Y-98251418D01*
X234027710Y-98257712D01*
X234040336Y-98265280D01*
X234052159Y-98274048D01*
X234063066Y-98283934D01*
X234072952Y-98294841D01*
X234081720Y-98306664D01*
X234089288Y-98319290D01*
X234095582Y-98332597D01*
X234100541Y-98346457D01*
X234104118Y-98360736D01*
X234106278Y-98375297D01*
X234107000Y-98390000D01*
X234107000Y-100140000D01*
X234106278Y-100154703D01*
X234104118Y-100169264D01*
X234100541Y-100183543D01*
X234095582Y-100197403D01*
X234089288Y-100210710D01*
X234081720Y-100223336D01*
X234072952Y-100235159D01*
X234063066Y-100246066D01*
X234052159Y-100255952D01*
X234040336Y-100264720D01*
X234027710Y-100272288D01*
X234014403Y-100278582D01*
X234000543Y-100283541D01*
X233986264Y-100287118D01*
X233971703Y-100289278D01*
X233957000Y-100290000D01*
X233657000Y-100290000D01*
X233642297Y-100289278D01*
X233627736Y-100287118D01*
X233613457Y-100283541D01*
X233599597Y-100278582D01*
X233586290Y-100272288D01*
X233573664Y-100264720D01*
X233561841Y-100255952D01*
X233550934Y-100246066D01*
X233541048Y-100235159D01*
X233532280Y-100223336D01*
X233524712Y-100210710D01*
X233518418Y-100197403D01*
X233513459Y-100183543D01*
X233509882Y-100169264D01*
X233507722Y-100154703D01*
X233507000Y-100140000D01*
X233507000Y-98390000D01*
X233507722Y-98375297D01*
X233509882Y-98360736D01*
X233513459Y-98346457D01*
X233518418Y-98332597D01*
X233524712Y-98319290D01*
X233532280Y-98306664D01*
X233541048Y-98294841D01*
X233550934Y-98283934D01*
X233561841Y-98274048D01*
X233573664Y-98265280D01*
X233586290Y-98257712D01*
X233599597Y-98251418D01*
X233613457Y-98246459D01*
X233627736Y-98242882D01*
X233642297Y-98240722D01*
X233657000Y-98240000D01*
X233957000Y-98240000D01*
X233971703Y-98240722D01*
X233971703Y-98240722D01*
G37*
D14*
X233807000Y-99265000D03*
D10*
G36*
X232701703Y-98240722D02*
G01*
X232716264Y-98242882D01*
X232730543Y-98246459D01*
X232744403Y-98251418D01*
X232757710Y-98257712D01*
X232770336Y-98265280D01*
X232782159Y-98274048D01*
X232793066Y-98283934D01*
X232802952Y-98294841D01*
X232811720Y-98306664D01*
X232819288Y-98319290D01*
X232825582Y-98332597D01*
X232830541Y-98346457D01*
X232834118Y-98360736D01*
X232836278Y-98375297D01*
X232837000Y-98390000D01*
X232837000Y-100140000D01*
X232836278Y-100154703D01*
X232834118Y-100169264D01*
X232830541Y-100183543D01*
X232825582Y-100197403D01*
X232819288Y-100210710D01*
X232811720Y-100223336D01*
X232802952Y-100235159D01*
X232793066Y-100246066D01*
X232782159Y-100255952D01*
X232770336Y-100264720D01*
X232757710Y-100272288D01*
X232744403Y-100278582D01*
X232730543Y-100283541D01*
X232716264Y-100287118D01*
X232701703Y-100289278D01*
X232687000Y-100290000D01*
X232387000Y-100290000D01*
X232372297Y-100289278D01*
X232357736Y-100287118D01*
X232343457Y-100283541D01*
X232329597Y-100278582D01*
X232316290Y-100272288D01*
X232303664Y-100264720D01*
X232291841Y-100255952D01*
X232280934Y-100246066D01*
X232271048Y-100235159D01*
X232262280Y-100223336D01*
X232254712Y-100210710D01*
X232248418Y-100197403D01*
X232243459Y-100183543D01*
X232239882Y-100169264D01*
X232237722Y-100154703D01*
X232237000Y-100140000D01*
X232237000Y-98390000D01*
X232237722Y-98375297D01*
X232239882Y-98360736D01*
X232243459Y-98346457D01*
X232248418Y-98332597D01*
X232254712Y-98319290D01*
X232262280Y-98306664D01*
X232271048Y-98294841D01*
X232280934Y-98283934D01*
X232291841Y-98274048D01*
X232303664Y-98265280D01*
X232316290Y-98257712D01*
X232329597Y-98251418D01*
X232343457Y-98246459D01*
X232357736Y-98242882D01*
X232372297Y-98240722D01*
X232387000Y-98240000D01*
X232687000Y-98240000D01*
X232701703Y-98240722D01*
X232701703Y-98240722D01*
G37*
D14*
X232537000Y-99265000D03*
D10*
G36*
X231431703Y-98240722D02*
G01*
X231446264Y-98242882D01*
X231460543Y-98246459D01*
X231474403Y-98251418D01*
X231487710Y-98257712D01*
X231500336Y-98265280D01*
X231512159Y-98274048D01*
X231523066Y-98283934D01*
X231532952Y-98294841D01*
X231541720Y-98306664D01*
X231549288Y-98319290D01*
X231555582Y-98332597D01*
X231560541Y-98346457D01*
X231564118Y-98360736D01*
X231566278Y-98375297D01*
X231567000Y-98390000D01*
X231567000Y-100140000D01*
X231566278Y-100154703D01*
X231564118Y-100169264D01*
X231560541Y-100183543D01*
X231555582Y-100197403D01*
X231549288Y-100210710D01*
X231541720Y-100223336D01*
X231532952Y-100235159D01*
X231523066Y-100246066D01*
X231512159Y-100255952D01*
X231500336Y-100264720D01*
X231487710Y-100272288D01*
X231474403Y-100278582D01*
X231460543Y-100283541D01*
X231446264Y-100287118D01*
X231431703Y-100289278D01*
X231417000Y-100290000D01*
X231117000Y-100290000D01*
X231102297Y-100289278D01*
X231087736Y-100287118D01*
X231073457Y-100283541D01*
X231059597Y-100278582D01*
X231046290Y-100272288D01*
X231033664Y-100264720D01*
X231021841Y-100255952D01*
X231010934Y-100246066D01*
X231001048Y-100235159D01*
X230992280Y-100223336D01*
X230984712Y-100210710D01*
X230978418Y-100197403D01*
X230973459Y-100183543D01*
X230969882Y-100169264D01*
X230967722Y-100154703D01*
X230967000Y-100140000D01*
X230967000Y-98390000D01*
X230967722Y-98375297D01*
X230969882Y-98360736D01*
X230973459Y-98346457D01*
X230978418Y-98332597D01*
X230984712Y-98319290D01*
X230992280Y-98306664D01*
X231001048Y-98294841D01*
X231010934Y-98283934D01*
X231021841Y-98274048D01*
X231033664Y-98265280D01*
X231046290Y-98257712D01*
X231059597Y-98251418D01*
X231073457Y-98246459D01*
X231087736Y-98242882D01*
X231102297Y-98240722D01*
X231117000Y-98240000D01*
X231417000Y-98240000D01*
X231431703Y-98240722D01*
X231431703Y-98240722D01*
G37*
D14*
X231267000Y-99265000D03*
D10*
G36*
X230161703Y-98240722D02*
G01*
X230176264Y-98242882D01*
X230190543Y-98246459D01*
X230204403Y-98251418D01*
X230217710Y-98257712D01*
X230230336Y-98265280D01*
X230242159Y-98274048D01*
X230253066Y-98283934D01*
X230262952Y-98294841D01*
X230271720Y-98306664D01*
X230279288Y-98319290D01*
X230285582Y-98332597D01*
X230290541Y-98346457D01*
X230294118Y-98360736D01*
X230296278Y-98375297D01*
X230297000Y-98390000D01*
X230297000Y-100140000D01*
X230296278Y-100154703D01*
X230294118Y-100169264D01*
X230290541Y-100183543D01*
X230285582Y-100197403D01*
X230279288Y-100210710D01*
X230271720Y-100223336D01*
X230262952Y-100235159D01*
X230253066Y-100246066D01*
X230242159Y-100255952D01*
X230230336Y-100264720D01*
X230217710Y-100272288D01*
X230204403Y-100278582D01*
X230190543Y-100283541D01*
X230176264Y-100287118D01*
X230161703Y-100289278D01*
X230147000Y-100290000D01*
X229847000Y-100290000D01*
X229832297Y-100289278D01*
X229817736Y-100287118D01*
X229803457Y-100283541D01*
X229789597Y-100278582D01*
X229776290Y-100272288D01*
X229763664Y-100264720D01*
X229751841Y-100255952D01*
X229740934Y-100246066D01*
X229731048Y-100235159D01*
X229722280Y-100223336D01*
X229714712Y-100210710D01*
X229708418Y-100197403D01*
X229703459Y-100183543D01*
X229699882Y-100169264D01*
X229697722Y-100154703D01*
X229697000Y-100140000D01*
X229697000Y-98390000D01*
X229697722Y-98375297D01*
X229699882Y-98360736D01*
X229703459Y-98346457D01*
X229708418Y-98332597D01*
X229714712Y-98319290D01*
X229722280Y-98306664D01*
X229731048Y-98294841D01*
X229740934Y-98283934D01*
X229751841Y-98274048D01*
X229763664Y-98265280D01*
X229776290Y-98257712D01*
X229789597Y-98251418D01*
X229803457Y-98246459D01*
X229817736Y-98242882D01*
X229832297Y-98240722D01*
X229847000Y-98240000D01*
X230147000Y-98240000D01*
X230161703Y-98240722D01*
X230161703Y-98240722D01*
G37*
D14*
X229997000Y-99265000D03*
D10*
G36*
X215872142Y-95066174D02*
G01*
X215895803Y-95069684D01*
X215919007Y-95075496D01*
X215941529Y-95083554D01*
X215963153Y-95093782D01*
X215983670Y-95106079D01*
X216002883Y-95120329D01*
X216020607Y-95136393D01*
X216036671Y-95154117D01*
X216050921Y-95173330D01*
X216063218Y-95193847D01*
X216073446Y-95215471D01*
X216081504Y-95237993D01*
X216087316Y-95261197D01*
X216090826Y-95284858D01*
X216092000Y-95308750D01*
X216092000Y-95796250D01*
X216090826Y-95820142D01*
X216087316Y-95843803D01*
X216081504Y-95867007D01*
X216073446Y-95889529D01*
X216063218Y-95911153D01*
X216050921Y-95931670D01*
X216036671Y-95950883D01*
X216020607Y-95968607D01*
X216002883Y-95984671D01*
X215983670Y-95998921D01*
X215963153Y-96011218D01*
X215941529Y-96021446D01*
X215919007Y-96029504D01*
X215895803Y-96035316D01*
X215872142Y-96038826D01*
X215848250Y-96040000D01*
X214935750Y-96040000D01*
X214911858Y-96038826D01*
X214888197Y-96035316D01*
X214864993Y-96029504D01*
X214842471Y-96021446D01*
X214820847Y-96011218D01*
X214800330Y-95998921D01*
X214781117Y-95984671D01*
X214763393Y-95968607D01*
X214747329Y-95950883D01*
X214733079Y-95931670D01*
X214720782Y-95911153D01*
X214710554Y-95889529D01*
X214702496Y-95867007D01*
X214696684Y-95843803D01*
X214693174Y-95820142D01*
X214692000Y-95796250D01*
X214692000Y-95308750D01*
X214693174Y-95284858D01*
X214696684Y-95261197D01*
X214702496Y-95237993D01*
X214710554Y-95215471D01*
X214720782Y-95193847D01*
X214733079Y-95173330D01*
X214747329Y-95154117D01*
X214763393Y-95136393D01*
X214781117Y-95120329D01*
X214800330Y-95106079D01*
X214820847Y-95093782D01*
X214842471Y-95083554D01*
X214864993Y-95075496D01*
X214888197Y-95069684D01*
X214911858Y-95066174D01*
X214935750Y-95065000D01*
X215848250Y-95065000D01*
X215872142Y-95066174D01*
X215872142Y-95066174D01*
G37*
D11*
X215392000Y-95552500D03*
D10*
G36*
X215872142Y-93191174D02*
G01*
X215895803Y-93194684D01*
X215919007Y-93200496D01*
X215941529Y-93208554D01*
X215963153Y-93218782D01*
X215983670Y-93231079D01*
X216002883Y-93245329D01*
X216020607Y-93261393D01*
X216036671Y-93279117D01*
X216050921Y-93298330D01*
X216063218Y-93318847D01*
X216073446Y-93340471D01*
X216081504Y-93362993D01*
X216087316Y-93386197D01*
X216090826Y-93409858D01*
X216092000Y-93433750D01*
X216092000Y-93921250D01*
X216090826Y-93945142D01*
X216087316Y-93968803D01*
X216081504Y-93992007D01*
X216073446Y-94014529D01*
X216063218Y-94036153D01*
X216050921Y-94056670D01*
X216036671Y-94075883D01*
X216020607Y-94093607D01*
X216002883Y-94109671D01*
X215983670Y-94123921D01*
X215963153Y-94136218D01*
X215941529Y-94146446D01*
X215919007Y-94154504D01*
X215895803Y-94160316D01*
X215872142Y-94163826D01*
X215848250Y-94165000D01*
X214935750Y-94165000D01*
X214911858Y-94163826D01*
X214888197Y-94160316D01*
X214864993Y-94154504D01*
X214842471Y-94146446D01*
X214820847Y-94136218D01*
X214800330Y-94123921D01*
X214781117Y-94109671D01*
X214763393Y-94093607D01*
X214747329Y-94075883D01*
X214733079Y-94056670D01*
X214720782Y-94036153D01*
X214710554Y-94014529D01*
X214702496Y-93992007D01*
X214696684Y-93968803D01*
X214693174Y-93945142D01*
X214692000Y-93921250D01*
X214692000Y-93433750D01*
X214693174Y-93409858D01*
X214696684Y-93386197D01*
X214702496Y-93362993D01*
X214710554Y-93340471D01*
X214720782Y-93318847D01*
X214733079Y-93298330D01*
X214747329Y-93279117D01*
X214763393Y-93261393D01*
X214781117Y-93245329D01*
X214800330Y-93231079D01*
X214820847Y-93218782D01*
X214842471Y-93208554D01*
X214864993Y-93200496D01*
X214888197Y-93194684D01*
X214911858Y-93191174D01*
X214935750Y-93190000D01*
X215848250Y-93190000D01*
X215872142Y-93191174D01*
X215872142Y-93191174D01*
G37*
D11*
X215392000Y-93677500D03*
D15*
X212130000Y-96205000D03*
X212130000Y-97155000D03*
X212130000Y-98105000D03*
X209510000Y-98105000D03*
X209510000Y-97155000D03*
X209510000Y-96205000D03*
D16*
X207518000Y-104394000D03*
D17*
X212518000Y-104394000D03*
D10*
G36*
X212316142Y-91510174D02*
G01*
X212339803Y-91513684D01*
X212363007Y-91519496D01*
X212385529Y-91527554D01*
X212407153Y-91537782D01*
X212427670Y-91550079D01*
X212446883Y-91564329D01*
X212464607Y-91580393D01*
X212480671Y-91598117D01*
X212494921Y-91617330D01*
X212507218Y-91637847D01*
X212517446Y-91659471D01*
X212525504Y-91681993D01*
X212531316Y-91705197D01*
X212534826Y-91728858D01*
X212536000Y-91752750D01*
X212536000Y-92240250D01*
X212534826Y-92264142D01*
X212531316Y-92287803D01*
X212525504Y-92311007D01*
X212517446Y-92333529D01*
X212507218Y-92355153D01*
X212494921Y-92375670D01*
X212480671Y-92394883D01*
X212464607Y-92412607D01*
X212446883Y-92428671D01*
X212427670Y-92442921D01*
X212407153Y-92455218D01*
X212385529Y-92465446D01*
X212363007Y-92473504D01*
X212339803Y-92479316D01*
X212316142Y-92482826D01*
X212292250Y-92484000D01*
X211379750Y-92484000D01*
X211355858Y-92482826D01*
X211332197Y-92479316D01*
X211308993Y-92473504D01*
X211286471Y-92465446D01*
X211264847Y-92455218D01*
X211244330Y-92442921D01*
X211225117Y-92428671D01*
X211207393Y-92412607D01*
X211191329Y-92394883D01*
X211177079Y-92375670D01*
X211164782Y-92355153D01*
X211154554Y-92333529D01*
X211146496Y-92311007D01*
X211140684Y-92287803D01*
X211137174Y-92264142D01*
X211136000Y-92240250D01*
X211136000Y-91752750D01*
X211137174Y-91728858D01*
X211140684Y-91705197D01*
X211146496Y-91681993D01*
X211154554Y-91659471D01*
X211164782Y-91637847D01*
X211177079Y-91617330D01*
X211191329Y-91598117D01*
X211207393Y-91580393D01*
X211225117Y-91564329D01*
X211244330Y-91550079D01*
X211264847Y-91537782D01*
X211286471Y-91527554D01*
X211308993Y-91519496D01*
X211332197Y-91513684D01*
X211355858Y-91510174D01*
X211379750Y-91509000D01*
X212292250Y-91509000D01*
X212316142Y-91510174D01*
X212316142Y-91510174D01*
G37*
D11*
X211836000Y-91996500D03*
D10*
G36*
X212316142Y-89635174D02*
G01*
X212339803Y-89638684D01*
X212363007Y-89644496D01*
X212385529Y-89652554D01*
X212407153Y-89662782D01*
X212427670Y-89675079D01*
X212446883Y-89689329D01*
X212464607Y-89705393D01*
X212480671Y-89723117D01*
X212494921Y-89742330D01*
X212507218Y-89762847D01*
X212517446Y-89784471D01*
X212525504Y-89806993D01*
X212531316Y-89830197D01*
X212534826Y-89853858D01*
X212536000Y-89877750D01*
X212536000Y-90365250D01*
X212534826Y-90389142D01*
X212531316Y-90412803D01*
X212525504Y-90436007D01*
X212517446Y-90458529D01*
X212507218Y-90480153D01*
X212494921Y-90500670D01*
X212480671Y-90519883D01*
X212464607Y-90537607D01*
X212446883Y-90553671D01*
X212427670Y-90567921D01*
X212407153Y-90580218D01*
X212385529Y-90590446D01*
X212363007Y-90598504D01*
X212339803Y-90604316D01*
X212316142Y-90607826D01*
X212292250Y-90609000D01*
X211379750Y-90609000D01*
X211355858Y-90607826D01*
X211332197Y-90604316D01*
X211308993Y-90598504D01*
X211286471Y-90590446D01*
X211264847Y-90580218D01*
X211244330Y-90567921D01*
X211225117Y-90553671D01*
X211207393Y-90537607D01*
X211191329Y-90519883D01*
X211177079Y-90500670D01*
X211164782Y-90480153D01*
X211154554Y-90458529D01*
X211146496Y-90436007D01*
X211140684Y-90412803D01*
X211137174Y-90389142D01*
X211136000Y-90365250D01*
X211136000Y-89877750D01*
X211137174Y-89853858D01*
X211140684Y-89830197D01*
X211146496Y-89806993D01*
X211154554Y-89784471D01*
X211164782Y-89762847D01*
X211177079Y-89742330D01*
X211191329Y-89723117D01*
X211207393Y-89705393D01*
X211225117Y-89689329D01*
X211244330Y-89675079D01*
X211264847Y-89662782D01*
X211286471Y-89652554D01*
X211308993Y-89644496D01*
X211332197Y-89638684D01*
X211355858Y-89635174D01*
X211379750Y-89634000D01*
X212292250Y-89634000D01*
X212316142Y-89635174D01*
X212316142Y-89635174D01*
G37*
D11*
X211836000Y-90121500D03*
D18*
X223520000Y-86487000D03*
X226060000Y-86487000D03*
X228600000Y-86487000D03*
D19*
X231140000Y-86487000D03*
D20*
X223266000Y-94275000D03*
X223266000Y-102575000D03*
D10*
G36*
X214348142Y-91510174D02*
G01*
X214371803Y-91513684D01*
X214395007Y-91519496D01*
X214417529Y-91527554D01*
X214439153Y-91537782D01*
X214459670Y-91550079D01*
X214478883Y-91564329D01*
X214496607Y-91580393D01*
X214512671Y-91598117D01*
X214526921Y-91617330D01*
X214539218Y-91637847D01*
X214549446Y-91659471D01*
X214557504Y-91681993D01*
X214563316Y-91705197D01*
X214566826Y-91728858D01*
X214568000Y-91752750D01*
X214568000Y-92240250D01*
X214566826Y-92264142D01*
X214563316Y-92287803D01*
X214557504Y-92311007D01*
X214549446Y-92333529D01*
X214539218Y-92355153D01*
X214526921Y-92375670D01*
X214512671Y-92394883D01*
X214496607Y-92412607D01*
X214478883Y-92428671D01*
X214459670Y-92442921D01*
X214439153Y-92455218D01*
X214417529Y-92465446D01*
X214395007Y-92473504D01*
X214371803Y-92479316D01*
X214348142Y-92482826D01*
X214324250Y-92484000D01*
X213411750Y-92484000D01*
X213387858Y-92482826D01*
X213364197Y-92479316D01*
X213340993Y-92473504D01*
X213318471Y-92465446D01*
X213296847Y-92455218D01*
X213276330Y-92442921D01*
X213257117Y-92428671D01*
X213239393Y-92412607D01*
X213223329Y-92394883D01*
X213209079Y-92375670D01*
X213196782Y-92355153D01*
X213186554Y-92333529D01*
X213178496Y-92311007D01*
X213172684Y-92287803D01*
X213169174Y-92264142D01*
X213168000Y-92240250D01*
X213168000Y-91752750D01*
X213169174Y-91728858D01*
X213172684Y-91705197D01*
X213178496Y-91681993D01*
X213186554Y-91659471D01*
X213196782Y-91637847D01*
X213209079Y-91617330D01*
X213223329Y-91598117D01*
X213239393Y-91580393D01*
X213257117Y-91564329D01*
X213276330Y-91550079D01*
X213296847Y-91537782D01*
X213318471Y-91527554D01*
X213340993Y-91519496D01*
X213364197Y-91513684D01*
X213387858Y-91510174D01*
X213411750Y-91509000D01*
X214324250Y-91509000D01*
X214348142Y-91510174D01*
X214348142Y-91510174D01*
G37*
D11*
X213868000Y-91996500D03*
D10*
G36*
X214348142Y-89635174D02*
G01*
X214371803Y-89638684D01*
X214395007Y-89644496D01*
X214417529Y-89652554D01*
X214439153Y-89662782D01*
X214459670Y-89675079D01*
X214478883Y-89689329D01*
X214496607Y-89705393D01*
X214512671Y-89723117D01*
X214526921Y-89742330D01*
X214539218Y-89762847D01*
X214549446Y-89784471D01*
X214557504Y-89806993D01*
X214563316Y-89830197D01*
X214566826Y-89853858D01*
X214568000Y-89877750D01*
X214568000Y-90365250D01*
X214566826Y-90389142D01*
X214563316Y-90412803D01*
X214557504Y-90436007D01*
X214549446Y-90458529D01*
X214539218Y-90480153D01*
X214526921Y-90500670D01*
X214512671Y-90519883D01*
X214496607Y-90537607D01*
X214478883Y-90553671D01*
X214459670Y-90567921D01*
X214439153Y-90580218D01*
X214417529Y-90590446D01*
X214395007Y-90598504D01*
X214371803Y-90604316D01*
X214348142Y-90607826D01*
X214324250Y-90609000D01*
X213411750Y-90609000D01*
X213387858Y-90607826D01*
X213364197Y-90604316D01*
X213340993Y-90598504D01*
X213318471Y-90590446D01*
X213296847Y-90580218D01*
X213276330Y-90567921D01*
X213257117Y-90553671D01*
X213239393Y-90537607D01*
X213223329Y-90519883D01*
X213209079Y-90500670D01*
X213196782Y-90480153D01*
X213186554Y-90458529D01*
X213178496Y-90436007D01*
X213172684Y-90412803D01*
X213169174Y-90389142D01*
X213168000Y-90365250D01*
X213168000Y-89877750D01*
X213169174Y-89853858D01*
X213172684Y-89830197D01*
X213178496Y-89806993D01*
X213186554Y-89784471D01*
X213196782Y-89762847D01*
X213209079Y-89742330D01*
X213223329Y-89723117D01*
X213239393Y-89705393D01*
X213257117Y-89689329D01*
X213276330Y-89675079D01*
X213296847Y-89662782D01*
X213318471Y-89652554D01*
X213340993Y-89644496D01*
X213364197Y-89638684D01*
X213387858Y-89635174D01*
X213411750Y-89634000D01*
X214324250Y-89634000D01*
X214348142Y-89635174D01*
X214348142Y-89635174D01*
G37*
D11*
X213868000Y-90121500D03*
D21*
X192518000Y-89789000D03*
X197518000Y-89789000D03*
X202518000Y-89789000D03*
D22*
X207518000Y-89789000D03*
D12*
X198628000Y-106934000D03*
D13*
X198628000Y-96774000D03*
D10*
G36*
X204308142Y-108775174D02*
G01*
X204331803Y-108778684D01*
X204355007Y-108784496D01*
X204377529Y-108792554D01*
X204399153Y-108802782D01*
X204419670Y-108815079D01*
X204438883Y-108829329D01*
X204456607Y-108845393D01*
X204472671Y-108863117D01*
X204486921Y-108882330D01*
X204499218Y-108902847D01*
X204509446Y-108924471D01*
X204517504Y-108946993D01*
X204523316Y-108970197D01*
X204526826Y-108993858D01*
X204528000Y-109017750D01*
X204528000Y-109930250D01*
X204526826Y-109954142D01*
X204523316Y-109977803D01*
X204517504Y-110001007D01*
X204509446Y-110023529D01*
X204499218Y-110045153D01*
X204486921Y-110065670D01*
X204472671Y-110084883D01*
X204456607Y-110102607D01*
X204438883Y-110118671D01*
X204419670Y-110132921D01*
X204399153Y-110145218D01*
X204377529Y-110155446D01*
X204355007Y-110163504D01*
X204331803Y-110169316D01*
X204308142Y-110172826D01*
X204284250Y-110174000D01*
X203796750Y-110174000D01*
X203772858Y-110172826D01*
X203749197Y-110169316D01*
X203725993Y-110163504D01*
X203703471Y-110155446D01*
X203681847Y-110145218D01*
X203661330Y-110132921D01*
X203642117Y-110118671D01*
X203624393Y-110102607D01*
X203608329Y-110084883D01*
X203594079Y-110065670D01*
X203581782Y-110045153D01*
X203571554Y-110023529D01*
X203563496Y-110001007D01*
X203557684Y-109977803D01*
X203554174Y-109954142D01*
X203553000Y-109930250D01*
X203553000Y-109017750D01*
X203554174Y-108993858D01*
X203557684Y-108970197D01*
X203563496Y-108946993D01*
X203571554Y-108924471D01*
X203581782Y-108902847D01*
X203594079Y-108882330D01*
X203608329Y-108863117D01*
X203624393Y-108845393D01*
X203642117Y-108829329D01*
X203661330Y-108815079D01*
X203681847Y-108802782D01*
X203703471Y-108792554D01*
X203725993Y-108784496D01*
X203749197Y-108778684D01*
X203772858Y-108775174D01*
X203796750Y-108774000D01*
X204284250Y-108774000D01*
X204308142Y-108775174D01*
X204308142Y-108775174D01*
G37*
D11*
X204040500Y-109474000D03*
D10*
G36*
X206183142Y-108775174D02*
G01*
X206206803Y-108778684D01*
X206230007Y-108784496D01*
X206252529Y-108792554D01*
X206274153Y-108802782D01*
X206294670Y-108815079D01*
X206313883Y-108829329D01*
X206331607Y-108845393D01*
X206347671Y-108863117D01*
X206361921Y-108882330D01*
X206374218Y-108902847D01*
X206384446Y-108924471D01*
X206392504Y-108946993D01*
X206398316Y-108970197D01*
X206401826Y-108993858D01*
X206403000Y-109017750D01*
X206403000Y-109930250D01*
X206401826Y-109954142D01*
X206398316Y-109977803D01*
X206392504Y-110001007D01*
X206384446Y-110023529D01*
X206374218Y-110045153D01*
X206361921Y-110065670D01*
X206347671Y-110084883D01*
X206331607Y-110102607D01*
X206313883Y-110118671D01*
X206294670Y-110132921D01*
X206274153Y-110145218D01*
X206252529Y-110155446D01*
X206230007Y-110163504D01*
X206206803Y-110169316D01*
X206183142Y-110172826D01*
X206159250Y-110174000D01*
X205671750Y-110174000D01*
X205647858Y-110172826D01*
X205624197Y-110169316D01*
X205600993Y-110163504D01*
X205578471Y-110155446D01*
X205556847Y-110145218D01*
X205536330Y-110132921D01*
X205517117Y-110118671D01*
X205499393Y-110102607D01*
X205483329Y-110084883D01*
X205469079Y-110065670D01*
X205456782Y-110045153D01*
X205446554Y-110023529D01*
X205438496Y-110001007D01*
X205432684Y-109977803D01*
X205429174Y-109954142D01*
X205428000Y-109930250D01*
X205428000Y-109017750D01*
X205429174Y-108993858D01*
X205432684Y-108970197D01*
X205438496Y-108946993D01*
X205446554Y-108924471D01*
X205456782Y-108902847D01*
X205469079Y-108882330D01*
X205483329Y-108863117D01*
X205499393Y-108845393D01*
X205517117Y-108829329D01*
X205536330Y-108815079D01*
X205556847Y-108802782D01*
X205578471Y-108792554D01*
X205600993Y-108784496D01*
X205624197Y-108778684D01*
X205647858Y-108775174D01*
X205671750Y-108774000D01*
X206159250Y-108774000D01*
X206183142Y-108775174D01*
X206183142Y-108775174D01*
G37*
D11*
X205915500Y-109474000D03*
D23*
X218440000Y-105791000D03*
X236220000Y-113411000D03*
X220980000Y-105791000D03*
X233680000Y-113411000D03*
X223520000Y-105791000D03*
X231140000Y-113411000D03*
X226060000Y-105791000D03*
X228600000Y-113411000D03*
X228600000Y-105791000D03*
X226060000Y-113411000D03*
X231140000Y-105791000D03*
X223520000Y-113411000D03*
X233680000Y-105791000D03*
X220980000Y-113411000D03*
X236220000Y-105791000D03*
D24*
X218440000Y-113411000D03*
D25*
X216836000Y-85725000D03*
X211836000Y-85725000D03*
D26*
X205248000Y-97409000D03*
X207248000Y-96459000D03*
X207248000Y-98359000D03*
D24*
X217678000Y-90805000D03*
D25*
X217678000Y-88805000D03*
D12*
X191008000Y-106934000D03*
D13*
X191008000Y-96774000D03*
D12*
X194818000Y-96774000D03*
D13*
X194818000Y-106934000D03*
D10*
G36*
X228318142Y-89127174D02*
G01*
X228341803Y-89130684D01*
X228365007Y-89136496D01*
X228387529Y-89144554D01*
X228409153Y-89154782D01*
X228429670Y-89167079D01*
X228448883Y-89181329D01*
X228466607Y-89197393D01*
X228482671Y-89215117D01*
X228496921Y-89234330D01*
X228509218Y-89254847D01*
X228519446Y-89276471D01*
X228527504Y-89298993D01*
X228533316Y-89322197D01*
X228536826Y-89345858D01*
X228538000Y-89369750D01*
X228538000Y-89857250D01*
X228536826Y-89881142D01*
X228533316Y-89904803D01*
X228527504Y-89928007D01*
X228519446Y-89950529D01*
X228509218Y-89972153D01*
X228496921Y-89992670D01*
X228482671Y-90011883D01*
X228466607Y-90029607D01*
X228448883Y-90045671D01*
X228429670Y-90059921D01*
X228409153Y-90072218D01*
X228387529Y-90082446D01*
X228365007Y-90090504D01*
X228341803Y-90096316D01*
X228318142Y-90099826D01*
X228294250Y-90101000D01*
X227381750Y-90101000D01*
X227357858Y-90099826D01*
X227334197Y-90096316D01*
X227310993Y-90090504D01*
X227288471Y-90082446D01*
X227266847Y-90072218D01*
X227246330Y-90059921D01*
X227227117Y-90045671D01*
X227209393Y-90029607D01*
X227193329Y-90011883D01*
X227179079Y-89992670D01*
X227166782Y-89972153D01*
X227156554Y-89950529D01*
X227148496Y-89928007D01*
X227142684Y-89904803D01*
X227139174Y-89881142D01*
X227138000Y-89857250D01*
X227138000Y-89369750D01*
X227139174Y-89345858D01*
X227142684Y-89322197D01*
X227148496Y-89298993D01*
X227156554Y-89276471D01*
X227166782Y-89254847D01*
X227179079Y-89234330D01*
X227193329Y-89215117D01*
X227209393Y-89197393D01*
X227227117Y-89181329D01*
X227246330Y-89167079D01*
X227266847Y-89154782D01*
X227288471Y-89144554D01*
X227310993Y-89136496D01*
X227334197Y-89130684D01*
X227357858Y-89127174D01*
X227381750Y-89126000D01*
X228294250Y-89126000D01*
X228318142Y-89127174D01*
X228318142Y-89127174D01*
G37*
D11*
X227838000Y-89613500D03*
D10*
G36*
X228318142Y-91002174D02*
G01*
X228341803Y-91005684D01*
X228365007Y-91011496D01*
X228387529Y-91019554D01*
X228409153Y-91029782D01*
X228429670Y-91042079D01*
X228448883Y-91056329D01*
X228466607Y-91072393D01*
X228482671Y-91090117D01*
X228496921Y-91109330D01*
X228509218Y-91129847D01*
X228519446Y-91151471D01*
X228527504Y-91173993D01*
X228533316Y-91197197D01*
X228536826Y-91220858D01*
X228538000Y-91244750D01*
X228538000Y-91732250D01*
X228536826Y-91756142D01*
X228533316Y-91779803D01*
X228527504Y-91803007D01*
X228519446Y-91825529D01*
X228509218Y-91847153D01*
X228496921Y-91867670D01*
X228482671Y-91886883D01*
X228466607Y-91904607D01*
X228448883Y-91920671D01*
X228429670Y-91934921D01*
X228409153Y-91947218D01*
X228387529Y-91957446D01*
X228365007Y-91965504D01*
X228341803Y-91971316D01*
X228318142Y-91974826D01*
X228294250Y-91976000D01*
X227381750Y-91976000D01*
X227357858Y-91974826D01*
X227334197Y-91971316D01*
X227310993Y-91965504D01*
X227288471Y-91957446D01*
X227266847Y-91947218D01*
X227246330Y-91934921D01*
X227227117Y-91920671D01*
X227209393Y-91904607D01*
X227193329Y-91886883D01*
X227179079Y-91867670D01*
X227166782Y-91847153D01*
X227156554Y-91825529D01*
X227148496Y-91803007D01*
X227142684Y-91779803D01*
X227139174Y-91756142D01*
X227138000Y-91732250D01*
X227138000Y-91244750D01*
X227139174Y-91220858D01*
X227142684Y-91197197D01*
X227148496Y-91173993D01*
X227156554Y-91151471D01*
X227166782Y-91129847D01*
X227179079Y-91109330D01*
X227193329Y-91090117D01*
X227209393Y-91072393D01*
X227227117Y-91056329D01*
X227246330Y-91042079D01*
X227266847Y-91029782D01*
X227288471Y-91019554D01*
X227310993Y-91011496D01*
X227334197Y-91005684D01*
X227357858Y-91002174D01*
X227381750Y-91001000D01*
X228294250Y-91001000D01*
X228318142Y-91002174D01*
X228318142Y-91002174D01*
G37*
D11*
X227838000Y-91488500D03*
D27*
X215392000Y-99695000D03*
D28*
X215392000Y-98195000D03*
D29*
X210058000Y-92329000D03*
X209972169Y-94783169D03*
X223266000Y-96520000D03*
X231512961Y-91470999D03*
X232537000Y-91821000D03*
X205867000Y-99949000D03*
X215392000Y-96647000D03*
X213833669Y-97697331D03*
X231267000Y-101219000D03*
X232536049Y-101726049D03*
D30*
X209510000Y-96205000D02*
X209510000Y-95245338D01*
X209510000Y-95245338D02*
X209972169Y-94783169D01*
D31*
X210850263Y-93550763D02*
X209872573Y-93550763D01*
D32*
X205915500Y-105996500D02*
X207518000Y-104394000D01*
D31*
X209872573Y-93550763D02*
X208399999Y-95023337D01*
X208624998Y-98105000D02*
X209510000Y-98105000D01*
X207518000Y-99812000D02*
X209225000Y-98105000D01*
X208399999Y-97880001D02*
X208624998Y-98105000D01*
D32*
X205915500Y-109474000D02*
X205915500Y-105996500D01*
D31*
X208399999Y-95023337D02*
X208399999Y-97880001D01*
X207518000Y-104394000D02*
X207518000Y-99812000D01*
X211406500Y-94107000D02*
X210850263Y-93550763D01*
X209225000Y-98105000D02*
X209510000Y-98105000D01*
D30*
X223266000Y-94275000D02*
X220048000Y-94275000D01*
X223266000Y-94275000D02*
X223266000Y-96520000D01*
X220048000Y-94275000D02*
X217678000Y-91905000D01*
X231267000Y-89965000D02*
X231267000Y-90835999D01*
X217678000Y-91905000D02*
X217678000Y-90805000D01*
X211836000Y-86856370D02*
X211836000Y-90121500D01*
X231267000Y-89965000D02*
X231267000Y-91225038D01*
X231267000Y-91225038D02*
X231512961Y-91470999D01*
X211836000Y-85725000D02*
X211836000Y-86856370D01*
X212130000Y-96205000D02*
X213402000Y-96205000D01*
X213402000Y-96205000D02*
X215392000Y-98195000D01*
X210470001Y-97205001D02*
X210420000Y-97155000D01*
X210420000Y-97155000D02*
X209510000Y-97155000D01*
X212154998Y-99695000D02*
X210470001Y-98010003D01*
X215392000Y-100595000D02*
X215392000Y-99695000D01*
X223266000Y-102575000D02*
X217372000Y-102575000D01*
X217372000Y-102575000D02*
X215392000Y-100595000D01*
X210470001Y-98010003D02*
X210470001Y-97205001D01*
X215392000Y-99695000D02*
X212154998Y-99695000D01*
D32*
X192518000Y-89789000D02*
X192518000Y-94474000D01*
X192518000Y-89789000D02*
X192518000Y-95264000D01*
X192518000Y-95264000D02*
X191008000Y-96774000D01*
X192518000Y-94474000D02*
X194818000Y-96774000D01*
X198628000Y-106934000D02*
X201168000Y-109474000D01*
X201168000Y-109474000D02*
X202438000Y-109474000D01*
X197358000Y-109474000D02*
X202438000Y-109474000D01*
X194818000Y-106934000D02*
X197358000Y-109474000D01*
X202438000Y-109474000D02*
X204040500Y-109474000D01*
X197518000Y-89789000D02*
X197518000Y-95664000D01*
X197518000Y-89789000D02*
X197518000Y-91854000D01*
X197518000Y-91854000D02*
X202438000Y-96774000D01*
X197518000Y-95664000D02*
X198628000Y-96774000D01*
D30*
X228600000Y-86487000D02*
X230202980Y-88089980D01*
X236347000Y-88840000D02*
X236347000Y-89965000D01*
X235596980Y-88089980D02*
X236347000Y-88840000D01*
X226060000Y-86487000D02*
X228600000Y-86487000D01*
X230202980Y-88089980D02*
X235596980Y-88089980D01*
X205248000Y-92519000D02*
X202518000Y-89789000D01*
X205248000Y-97409000D02*
X205248000Y-92519000D01*
X207248000Y-90059000D02*
X207518000Y-89789000D01*
X207248000Y-96459000D02*
X207248000Y-90059000D01*
X205867000Y-99949000D02*
X205867000Y-99740000D01*
X205867000Y-99740000D02*
X207248000Y-98359000D01*
X232537000Y-89965000D02*
X232537000Y-91821000D01*
X211169999Y-97104999D02*
X211220000Y-97155000D01*
X212231490Y-95157010D02*
X211612988Y-95157010D01*
X211169999Y-95599999D02*
X211169999Y-97104999D01*
X211220000Y-97155000D02*
X212130000Y-97155000D01*
X213281500Y-94107000D02*
X212231490Y-95157010D01*
X211612988Y-95157010D02*
X211169999Y-95599999D01*
X234826990Y-88589990D02*
X235077000Y-88840000D01*
X227838000Y-89613500D02*
X228861510Y-88589990D01*
X228861510Y-88589990D02*
X234826990Y-88589990D01*
X235077000Y-88840000D02*
X235077000Y-89965000D01*
X232897001Y-92571001D02*
X233807000Y-91661002D01*
X228920501Y-92571001D02*
X232897001Y-92571001D01*
X227838000Y-91488500D02*
X228920501Y-92571001D01*
X233807000Y-91090000D02*
X233807000Y-89965000D01*
X233807000Y-91661002D02*
X233807000Y-91090000D01*
X215392000Y-96647000D02*
X215392000Y-95552500D01*
X212130000Y-98105000D02*
X213426000Y-98105000D01*
X213426000Y-98105000D02*
X213833669Y-97697331D01*
X211836000Y-91996500D02*
X213868000Y-91996500D01*
X213868000Y-91996500D02*
X213868000Y-92153500D01*
X213868000Y-92153500D02*
X215392000Y-93677500D01*
X231267000Y-100330000D02*
X231267000Y-99265000D01*
X231267000Y-101219000D02*
X231267000Y-99265000D01*
X232537000Y-100390000D02*
X232537000Y-99265000D01*
X232536049Y-101726049D02*
X232536049Y-99265951D01*
X232536049Y-99265951D02*
X232537000Y-99265000D01*
X223520000Y-105791000D02*
X224917000Y-104394000D01*
X226749880Y-104394000D02*
X228002909Y-103140971D01*
X224917000Y-104394000D02*
X226749880Y-104394000D01*
X232181789Y-103140971D02*
X233807000Y-101515760D01*
X228002909Y-103140971D02*
X232181789Y-103140971D01*
X233807000Y-101515760D02*
X233807000Y-99265000D01*
X235077000Y-100952880D02*
X235077000Y-99265000D01*
X228210019Y-103640981D02*
X232388899Y-103640981D01*
X232388899Y-103640981D02*
X235077000Y-100952880D01*
X226060000Y-105791000D02*
X228210019Y-103640981D01*
X236347000Y-100390000D02*
X236347000Y-99265000D01*
X228600000Y-105791000D02*
X230250011Y-104140989D01*
X230250011Y-104140989D02*
X232596011Y-104140989D01*
X232596011Y-104140989D02*
X236347000Y-100390000D01*
X231140000Y-105791000D02*
X232290001Y-104640999D01*
X233366001Y-104640999D02*
X237617000Y-100390000D01*
X237617000Y-100390000D02*
X237617000Y-99265000D01*
X232290001Y-104640999D02*
X233366001Y-104640999D01*
X238887000Y-100584000D02*
X238887000Y-99265000D01*
X233680000Y-105791000D02*
X238887000Y-100584000D01*
X236220000Y-105791000D02*
X240157000Y-101854000D01*
X240157000Y-101854000D02*
X240157000Y-99265000D01*
D33*
G36*
X257273156Y-77969951D02*
G01*
X257513376Y-78184624D01*
X257728049Y-78424844D01*
X257797000Y-78522021D01*
X257797001Y-120909978D01*
X257728049Y-121007156D01*
X257513376Y-121247376D01*
X257273156Y-121462049D01*
X257175979Y-121531000D01*
X174788021Y-121531000D01*
X174690844Y-121462049D01*
X174450624Y-121247376D01*
X174235951Y-121007156D01*
X174167000Y-120909979D01*
X174167000Y-116995872D01*
X176247000Y-116995872D01*
X176247000Y-117436128D01*
X176332890Y-117867925D01*
X176501369Y-118274669D01*
X176745962Y-118640729D01*
X177057271Y-118952038D01*
X177423331Y-119196631D01*
X177830075Y-119365110D01*
X178261872Y-119451000D01*
X178702128Y-119451000D01*
X179133925Y-119365110D01*
X179540669Y-119196631D01*
X179906729Y-118952038D01*
X180218038Y-118640729D01*
X180462631Y-118274669D01*
X180631110Y-117867925D01*
X180717000Y-117436128D01*
X180717000Y-116995872D01*
X251247000Y-116995872D01*
X251247000Y-117436128D01*
X251332890Y-117867925D01*
X251501369Y-118274669D01*
X251745962Y-118640729D01*
X252057271Y-118952038D01*
X252423331Y-119196631D01*
X252830075Y-119365110D01*
X253261872Y-119451000D01*
X253702128Y-119451000D01*
X254133925Y-119365110D01*
X254540669Y-119196631D01*
X254906729Y-118952038D01*
X255218038Y-118640729D01*
X255462631Y-118274669D01*
X255631110Y-117867925D01*
X255717000Y-117436128D01*
X255717000Y-116995872D01*
X255631110Y-116564075D01*
X255462631Y-116157331D01*
X255218038Y-115791271D01*
X254906729Y-115479962D01*
X254540669Y-115235369D01*
X254133925Y-115066890D01*
X253702128Y-114981000D01*
X253261872Y-114981000D01*
X252830075Y-115066890D01*
X252423331Y-115235369D01*
X252057271Y-115479962D01*
X251745962Y-115791271D01*
X251501369Y-116157331D01*
X251332890Y-116564075D01*
X251247000Y-116995872D01*
X180717000Y-116995872D01*
X180631110Y-116564075D01*
X180462631Y-116157331D01*
X180218038Y-115791271D01*
X179906729Y-115479962D01*
X179540669Y-115235369D01*
X179133925Y-115066890D01*
X178702128Y-114981000D01*
X178261872Y-114981000D01*
X177830075Y-115066890D01*
X177423331Y-115235369D01*
X177057271Y-115479962D01*
X176745962Y-115791271D01*
X176501369Y-116157331D01*
X176332890Y-116564075D01*
X176247000Y-116995872D01*
X174167000Y-116995872D01*
X174167000Y-114211000D01*
X217001928Y-114211000D01*
X217014188Y-114335482D01*
X217050498Y-114455180D01*
X217109463Y-114565494D01*
X217188815Y-114662185D01*
X217285506Y-114741537D01*
X217395820Y-114800502D01*
X217515518Y-114836812D01*
X217640000Y-114849072D01*
X218154250Y-114846000D01*
X218313000Y-114687250D01*
X218313000Y-113538000D01*
X218567000Y-113538000D01*
X218567000Y-114687250D01*
X218725750Y-114846000D01*
X219240000Y-114849072D01*
X219364482Y-114836812D01*
X219484180Y-114800502D01*
X219594494Y-114741537D01*
X219691185Y-114662185D01*
X219770537Y-114565494D01*
X219829502Y-114455180D01*
X219865812Y-114335482D01*
X219868231Y-114310920D01*
X220016586Y-114474519D01*
X220242580Y-114642037D01*
X220496913Y-114762246D01*
X220630961Y-114802904D01*
X220853000Y-114680915D01*
X220853000Y-113538000D01*
X221107000Y-113538000D01*
X221107000Y-114680915D01*
X221329039Y-114802904D01*
X221463087Y-114762246D01*
X221717420Y-114642037D01*
X221943414Y-114474519D01*
X222132385Y-114266131D01*
X222250000Y-114070018D01*
X222367615Y-114266131D01*
X222556586Y-114474519D01*
X222782580Y-114642037D01*
X223036913Y-114762246D01*
X223170961Y-114802904D01*
X223393000Y-114680915D01*
X223393000Y-113538000D01*
X223647000Y-113538000D01*
X223647000Y-114680915D01*
X223869039Y-114802904D01*
X224003087Y-114762246D01*
X224257420Y-114642037D01*
X224483414Y-114474519D01*
X224672385Y-114266131D01*
X224790000Y-114070018D01*
X224907615Y-114266131D01*
X225096586Y-114474519D01*
X225322580Y-114642037D01*
X225576913Y-114762246D01*
X225710961Y-114802904D01*
X225933000Y-114680915D01*
X225933000Y-113538000D01*
X226187000Y-113538000D01*
X226187000Y-114680915D01*
X226409039Y-114802904D01*
X226543087Y-114762246D01*
X226797420Y-114642037D01*
X227023414Y-114474519D01*
X227212385Y-114266131D01*
X227330000Y-114070018D01*
X227447615Y-114266131D01*
X227636586Y-114474519D01*
X227862580Y-114642037D01*
X228116913Y-114762246D01*
X228250961Y-114802904D01*
X228473000Y-114680915D01*
X228473000Y-113538000D01*
X228727000Y-113538000D01*
X228727000Y-114680915D01*
X228949039Y-114802904D01*
X229083087Y-114762246D01*
X229337420Y-114642037D01*
X229563414Y-114474519D01*
X229752385Y-114266131D01*
X229870000Y-114070018D01*
X229987615Y-114266131D01*
X230176586Y-114474519D01*
X230402580Y-114642037D01*
X230656913Y-114762246D01*
X230790961Y-114802904D01*
X231013000Y-114680915D01*
X231013000Y-113538000D01*
X231267000Y-113538000D01*
X231267000Y-114680915D01*
X231489039Y-114802904D01*
X231623087Y-114762246D01*
X231877420Y-114642037D01*
X232103414Y-114474519D01*
X232292385Y-114266131D01*
X232410000Y-114070018D01*
X232527615Y-114266131D01*
X232716586Y-114474519D01*
X232942580Y-114642037D01*
X233196913Y-114762246D01*
X233330961Y-114802904D01*
X233553000Y-114680915D01*
X233553000Y-113538000D01*
X233807000Y-113538000D01*
X233807000Y-114680915D01*
X234029039Y-114802904D01*
X234163087Y-114762246D01*
X234417420Y-114642037D01*
X234643414Y-114474519D01*
X234832385Y-114266131D01*
X234950000Y-114070018D01*
X235067615Y-114266131D01*
X235256586Y-114474519D01*
X235482580Y-114642037D01*
X235736913Y-114762246D01*
X235870961Y-114802904D01*
X236093000Y-114680915D01*
X236093000Y-113538000D01*
X236347000Y-113538000D01*
X236347000Y-114680915D01*
X236569039Y-114802904D01*
X236703087Y-114762246D01*
X236957420Y-114642037D01*
X237183414Y-114474519D01*
X237372385Y-114266131D01*
X237517070Y-114024881D01*
X237611909Y-113760040D01*
X237490624Y-113538000D01*
X236347000Y-113538000D01*
X236093000Y-113538000D01*
X233807000Y-113538000D01*
X233553000Y-113538000D01*
X231267000Y-113538000D01*
X231013000Y-113538000D01*
X228727000Y-113538000D01*
X228473000Y-113538000D01*
X226187000Y-113538000D01*
X225933000Y-113538000D01*
X223647000Y-113538000D01*
X223393000Y-113538000D01*
X221107000Y-113538000D01*
X220853000Y-113538000D01*
X218567000Y-113538000D01*
X218313000Y-113538000D01*
X217163750Y-113538000D01*
X217005000Y-113696750D01*
X217001928Y-114211000D01*
X174167000Y-114211000D01*
X174167000Y-112611000D01*
X217001928Y-112611000D01*
X217005000Y-113125250D01*
X217163750Y-113284000D01*
X218313000Y-113284000D01*
X218313000Y-112134750D01*
X218567000Y-112134750D01*
X218567000Y-113284000D01*
X220853000Y-113284000D01*
X220853000Y-112141085D01*
X221107000Y-112141085D01*
X221107000Y-113284000D01*
X223393000Y-113284000D01*
X223393000Y-112141085D01*
X223647000Y-112141085D01*
X223647000Y-113284000D01*
X225933000Y-113284000D01*
X225933000Y-112141085D01*
X226187000Y-112141085D01*
X226187000Y-113284000D01*
X228473000Y-113284000D01*
X228473000Y-112141085D01*
X228727000Y-112141085D01*
X228727000Y-113284000D01*
X231013000Y-113284000D01*
X231013000Y-112141085D01*
X231267000Y-112141085D01*
X231267000Y-113284000D01*
X233553000Y-113284000D01*
X233553000Y-112141085D01*
X233807000Y-112141085D01*
X233807000Y-113284000D01*
X236093000Y-113284000D01*
X236093000Y-112141085D01*
X236347000Y-112141085D01*
X236347000Y-113284000D01*
X237490624Y-113284000D01*
X237611909Y-113061960D01*
X237517070Y-112797119D01*
X237372385Y-112555869D01*
X237183414Y-112347481D01*
X236957420Y-112179963D01*
X236703087Y-112059754D01*
X236569039Y-112019096D01*
X236347000Y-112141085D01*
X236093000Y-112141085D01*
X235870961Y-112019096D01*
X235736913Y-112059754D01*
X235482580Y-112179963D01*
X235256586Y-112347481D01*
X235067615Y-112555869D01*
X234950000Y-112751982D01*
X234832385Y-112555869D01*
X234643414Y-112347481D01*
X234417420Y-112179963D01*
X234163087Y-112059754D01*
X234029039Y-112019096D01*
X233807000Y-112141085D01*
X233553000Y-112141085D01*
X233330961Y-112019096D01*
X233196913Y-112059754D01*
X232942580Y-112179963D01*
X232716586Y-112347481D01*
X232527615Y-112555869D01*
X232410000Y-112751982D01*
X232292385Y-112555869D01*
X232103414Y-112347481D01*
X231877420Y-112179963D01*
X231623087Y-112059754D01*
X231489039Y-112019096D01*
X231267000Y-112141085D01*
X231013000Y-112141085D01*
X230790961Y-112019096D01*
X230656913Y-112059754D01*
X230402580Y-112179963D01*
X230176586Y-112347481D01*
X229987615Y-112555869D01*
X229870000Y-112751982D01*
X229752385Y-112555869D01*
X229563414Y-112347481D01*
X229337420Y-112179963D01*
X229083087Y-112059754D01*
X228949039Y-112019096D01*
X228727000Y-112141085D01*
X228473000Y-112141085D01*
X228250961Y-112019096D01*
X228116913Y-112059754D01*
X227862580Y-112179963D01*
X227636586Y-112347481D01*
X227447615Y-112555869D01*
X227330000Y-112751982D01*
X227212385Y-112555869D01*
X227023414Y-112347481D01*
X226797420Y-112179963D01*
X226543087Y-112059754D01*
X226409039Y-112019096D01*
X226187000Y-112141085D01*
X225933000Y-112141085D01*
X225710961Y-112019096D01*
X225576913Y-112059754D01*
X225322580Y-112179963D01*
X225096586Y-112347481D01*
X224907615Y-112555869D01*
X224790000Y-112751982D01*
X224672385Y-112555869D01*
X224483414Y-112347481D01*
X224257420Y-112179963D01*
X224003087Y-112059754D01*
X223869039Y-112019096D01*
X223647000Y-112141085D01*
X223393000Y-112141085D01*
X223170961Y-112019096D01*
X223036913Y-112059754D01*
X222782580Y-112179963D01*
X222556586Y-112347481D01*
X222367615Y-112555869D01*
X222250000Y-112751982D01*
X222132385Y-112555869D01*
X221943414Y-112347481D01*
X221717420Y-112179963D01*
X221463087Y-112059754D01*
X221329039Y-112019096D01*
X221107000Y-112141085D01*
X220853000Y-112141085D01*
X220630961Y-112019096D01*
X220496913Y-112059754D01*
X220242580Y-112179963D01*
X220016586Y-112347481D01*
X219868231Y-112511080D01*
X219865812Y-112486518D01*
X219829502Y-112366820D01*
X219770537Y-112256506D01*
X219691185Y-112159815D01*
X219594494Y-112080463D01*
X219484180Y-112021498D01*
X219364482Y-111985188D01*
X219240000Y-111972928D01*
X218725750Y-111976000D01*
X218567000Y-112134750D01*
X218313000Y-112134750D01*
X218154250Y-111976000D01*
X217640000Y-111972928D01*
X217515518Y-111985188D01*
X217395820Y-112021498D01*
X217285506Y-112080463D01*
X217188815Y-112159815D01*
X217109463Y-112256506D01*
X217050498Y-112366820D01*
X217014188Y-112486518D01*
X217001928Y-112611000D01*
X174167000Y-112611000D01*
X174167000Y-107330123D01*
X189318821Y-107330123D01*
X189428558Y-107652054D01*
X189598992Y-107946391D01*
X189823573Y-108201822D01*
X190093671Y-108408531D01*
X190398906Y-108558575D01*
X190611878Y-108623175D01*
X190881000Y-108505125D01*
X190881000Y-107061000D01*
X191135000Y-107061000D01*
X191135000Y-108505125D01*
X191404122Y-108623175D01*
X191617094Y-108558575D01*
X191922329Y-108408531D01*
X192192427Y-108201822D01*
X192417008Y-107946391D01*
X192587442Y-107652054D01*
X192697179Y-107330123D01*
X192579600Y-107061000D01*
X191135000Y-107061000D01*
X190881000Y-107061000D01*
X189436400Y-107061000D01*
X189318821Y-107330123D01*
X174167000Y-107330123D01*
X174167000Y-106537877D01*
X189318821Y-106537877D01*
X189436400Y-106807000D01*
X190881000Y-106807000D01*
X190881000Y-105362875D01*
X191135000Y-105362875D01*
X191135000Y-106807000D01*
X192579600Y-106807000D01*
X192697179Y-106537877D01*
X192587442Y-106215946D01*
X192417008Y-105921609D01*
X192339981Y-105834000D01*
X193079928Y-105834000D01*
X193079928Y-108034000D01*
X193092188Y-108158482D01*
X193128498Y-108278180D01*
X193187463Y-108388494D01*
X193266815Y-108485185D01*
X193363506Y-108564537D01*
X193473820Y-108623502D01*
X193593518Y-108659812D01*
X193718000Y-108672072D01*
X194597387Y-108672072D01*
X196330546Y-110405231D01*
X196373919Y-110458081D01*
X196584812Y-110631157D01*
X196825419Y-110759764D01*
X197086493Y-110838960D01*
X197289963Y-110859000D01*
X197289972Y-110859000D01*
X197357999Y-110865700D01*
X197426026Y-110859000D01*
X201099972Y-110859000D01*
X201167999Y-110865700D01*
X201236026Y-110859000D01*
X204108537Y-110859000D01*
X204312007Y-110838960D01*
X204573081Y-110759764D01*
X204573366Y-110759612D01*
X204621709Y-110744947D01*
X204774164Y-110663458D01*
X204813214Y-110631410D01*
X204813688Y-110631157D01*
X204978000Y-110496309D01*
X205142312Y-110631157D01*
X205142786Y-110631410D01*
X205181836Y-110663458D01*
X205334291Y-110744947D01*
X205382634Y-110759612D01*
X205382919Y-110759764D01*
X205643993Y-110838960D01*
X205915500Y-110865701D01*
X206187006Y-110838960D01*
X206448080Y-110759764D01*
X206448363Y-110759613D01*
X206496709Y-110744947D01*
X206649164Y-110663458D01*
X206688216Y-110631409D01*
X206688687Y-110631157D01*
X206899580Y-110458081D01*
X207072657Y-110247188D01*
X207201264Y-110006581D01*
X207280460Y-109745507D01*
X207300500Y-109542037D01*
X207300500Y-106570185D01*
X207838614Y-106032072D01*
X208518000Y-106032072D01*
X208642482Y-106019812D01*
X208762180Y-105983502D01*
X208872494Y-105924537D01*
X208969185Y-105845185D01*
X209048537Y-105748494D01*
X209107502Y-105638180D01*
X209140496Y-105529413D01*
X211562192Y-105529413D01*
X211657956Y-105793814D01*
X211947571Y-105934704D01*
X212259108Y-106016384D01*
X212580595Y-106035718D01*
X212899675Y-105991961D01*
X213204088Y-105886795D01*
X213378044Y-105793814D01*
X213473808Y-105529413D01*
X212518000Y-104573605D01*
X211562192Y-105529413D01*
X209140496Y-105529413D01*
X209143812Y-105518482D01*
X209156072Y-105394000D01*
X209156072Y-104456595D01*
X210876282Y-104456595D01*
X210920039Y-104775675D01*
X211025205Y-105080088D01*
X211118186Y-105254044D01*
X211382587Y-105349808D01*
X212338395Y-104394000D01*
X212697605Y-104394000D01*
X213653413Y-105349808D01*
X213917814Y-105254044D01*
X214058704Y-104964429D01*
X214140384Y-104652892D01*
X214159718Y-104331405D01*
X214115961Y-104012325D01*
X214010795Y-103707912D01*
X213917814Y-103533956D01*
X213653413Y-103438192D01*
X212697605Y-104394000D01*
X212338395Y-104394000D01*
X211382587Y-103438192D01*
X211118186Y-103533956D01*
X210977296Y-103823571D01*
X210895616Y-104135108D01*
X210876282Y-104456595D01*
X209156072Y-104456595D01*
X209156072Y-103394000D01*
X209143812Y-103269518D01*
X209140497Y-103258587D01*
X211562192Y-103258587D01*
X212518000Y-104214395D01*
X213473808Y-103258587D01*
X213378044Y-102994186D01*
X213088429Y-102853296D01*
X212776892Y-102771616D01*
X212455405Y-102752282D01*
X212136325Y-102796039D01*
X211831912Y-102901205D01*
X211657956Y-102994186D01*
X211562192Y-103258587D01*
X209140497Y-103258587D01*
X209107502Y-103149820D01*
X209048537Y-103039506D01*
X208969185Y-102942815D01*
X208872494Y-102863463D01*
X208762180Y-102804498D01*
X208642482Y-102768188D01*
X208518000Y-102755928D01*
X208453000Y-102755928D01*
X208453000Y-100199289D01*
X209584217Y-99068072D01*
X210120000Y-99068072D01*
X210244482Y-99055812D01*
X210364180Y-99019502D01*
X210367545Y-99017704D01*
X211572651Y-100222810D01*
X211597234Y-100252764D01*
X211716765Y-100350862D01*
X211835791Y-100414482D01*
X211853138Y-100423754D01*
X212001111Y-100468642D01*
X212076024Y-100476020D01*
X212116437Y-100480000D01*
X212116442Y-100480000D01*
X212154998Y-100483797D01*
X212193554Y-100480000D01*
X214184546Y-100480000D01*
X214202498Y-100539180D01*
X214261463Y-100649494D01*
X214340815Y-100746185D01*
X214437506Y-100825537D01*
X214547820Y-100884502D01*
X214667518Y-100920812D01*
X214676523Y-100921699D01*
X214736138Y-101033232D01*
X214834236Y-101152764D01*
X214864190Y-101177347D01*
X216789653Y-103102810D01*
X216814236Y-103132764D01*
X216933767Y-103230862D01*
X217053495Y-103294857D01*
X217070140Y-103303754D01*
X217218113Y-103348642D01*
X217292716Y-103355989D01*
X217333439Y-103360000D01*
X217333444Y-103360000D01*
X217372000Y-103363797D01*
X217410556Y-103360000D01*
X220827928Y-103360000D01*
X220827928Y-103925000D01*
X220840188Y-104049482D01*
X220876498Y-104169180D01*
X220935463Y-104279494D01*
X220998250Y-104356000D01*
X220909508Y-104356000D01*
X220698691Y-104376764D01*
X220428192Y-104458818D01*
X220178899Y-104592068D01*
X219960392Y-104771392D01*
X219781068Y-104989899D01*
X219710000Y-105122858D01*
X219638932Y-104989899D01*
X219459608Y-104771392D01*
X219241101Y-104592068D01*
X218991808Y-104458818D01*
X218721309Y-104376764D01*
X218510492Y-104356000D01*
X218369508Y-104356000D01*
X218158691Y-104376764D01*
X217888192Y-104458818D01*
X217638899Y-104592068D01*
X217420392Y-104771392D01*
X217241068Y-104989899D01*
X217107818Y-105239192D01*
X217025764Y-105509691D01*
X216998057Y-105791000D01*
X217025764Y-106072309D01*
X217107818Y-106342808D01*
X217241068Y-106592101D01*
X217420392Y-106810608D01*
X217638899Y-106989932D01*
X217888192Y-107123182D01*
X218158691Y-107205236D01*
X218369508Y-107226000D01*
X218510492Y-107226000D01*
X218721309Y-107205236D01*
X218991808Y-107123182D01*
X219241101Y-106989932D01*
X219459608Y-106810608D01*
X219638932Y-106592101D01*
X219710000Y-106459142D01*
X219781068Y-106592101D01*
X219960392Y-106810608D01*
X220178899Y-106989932D01*
X220428192Y-107123182D01*
X220698691Y-107205236D01*
X220909508Y-107226000D01*
X221050492Y-107226000D01*
X221261309Y-107205236D01*
X221531808Y-107123182D01*
X221781101Y-106989932D01*
X221999608Y-106810608D01*
X222178932Y-106592101D01*
X222250000Y-106459142D01*
X222321068Y-106592101D01*
X222500392Y-106810608D01*
X222718899Y-106989932D01*
X222968192Y-107123182D01*
X223238691Y-107205236D01*
X223449508Y-107226000D01*
X223590492Y-107226000D01*
X223801309Y-107205236D01*
X224071808Y-107123182D01*
X224321101Y-106989932D01*
X224539608Y-106810608D01*
X224718932Y-106592101D01*
X224790000Y-106459142D01*
X224861068Y-106592101D01*
X225040392Y-106810608D01*
X225258899Y-106989932D01*
X225508192Y-107123182D01*
X225778691Y-107205236D01*
X225989508Y-107226000D01*
X226130492Y-107226000D01*
X226341309Y-107205236D01*
X226611808Y-107123182D01*
X226861101Y-106989932D01*
X227079608Y-106810608D01*
X227258932Y-106592101D01*
X227330000Y-106459142D01*
X227401068Y-106592101D01*
X227580392Y-106810608D01*
X227798899Y-106989932D01*
X228048192Y-107123182D01*
X228318691Y-107205236D01*
X228529508Y-107226000D01*
X228670492Y-107226000D01*
X228881309Y-107205236D01*
X229151808Y-107123182D01*
X229401101Y-106989932D01*
X229619608Y-106810608D01*
X229798932Y-106592101D01*
X229870000Y-106459142D01*
X229941068Y-106592101D01*
X230120392Y-106810608D01*
X230338899Y-106989932D01*
X230588192Y-107123182D01*
X230858691Y-107205236D01*
X231069508Y-107226000D01*
X231210492Y-107226000D01*
X231421309Y-107205236D01*
X231691808Y-107123182D01*
X231941101Y-106989932D01*
X232159608Y-106810608D01*
X232338932Y-106592101D01*
X232410000Y-106459142D01*
X232481068Y-106592101D01*
X232660392Y-106810608D01*
X232878899Y-106989932D01*
X233128192Y-107123182D01*
X233398691Y-107205236D01*
X233609508Y-107226000D01*
X233750492Y-107226000D01*
X233961309Y-107205236D01*
X234231808Y-107123182D01*
X234481101Y-106989932D01*
X234699608Y-106810608D01*
X234878932Y-106592101D01*
X234950000Y-106459142D01*
X235021068Y-106592101D01*
X235200392Y-106810608D01*
X235418899Y-106989932D01*
X235668192Y-107123182D01*
X235938691Y-107205236D01*
X236149508Y-107226000D01*
X236290492Y-107226000D01*
X236501309Y-107205236D01*
X236771808Y-107123182D01*
X237021101Y-106989932D01*
X237239608Y-106810608D01*
X237418932Y-106592101D01*
X237552182Y-106342808D01*
X237634236Y-106072309D01*
X237661943Y-105791000D01*
X237634236Y-105509691D01*
X237628936Y-105492221D01*
X240684811Y-102436346D01*
X240714764Y-102411764D01*
X240812862Y-102292233D01*
X240885754Y-102155860D01*
X240891716Y-102136205D01*
X240930642Y-102007887D01*
X240939382Y-101919138D01*
X240942000Y-101892561D01*
X240942000Y-101892556D01*
X240945797Y-101854000D01*
X240942000Y-101815444D01*
X240942000Y-100897454D01*
X241002518Y-100915812D01*
X241127000Y-100928072D01*
X241141250Y-100925000D01*
X241300000Y-100766250D01*
X241300000Y-99392000D01*
X241554000Y-99392000D01*
X241554000Y-100766250D01*
X241712750Y-100925000D01*
X241727000Y-100928072D01*
X241851482Y-100915812D01*
X241971180Y-100879502D01*
X242081494Y-100820537D01*
X242178185Y-100741185D01*
X242257537Y-100644494D01*
X242316502Y-100534180D01*
X242352812Y-100414482D01*
X242365072Y-100290000D01*
X242362000Y-99550750D01*
X242203250Y-99392000D01*
X241554000Y-99392000D01*
X241300000Y-99392000D01*
X241280000Y-99392000D01*
X241280000Y-99138000D01*
X241300000Y-99138000D01*
X241300000Y-97763750D01*
X241554000Y-97763750D01*
X241554000Y-99138000D01*
X242203250Y-99138000D01*
X242362000Y-98979250D01*
X242365072Y-98240000D01*
X242352812Y-98115518D01*
X242316502Y-97995820D01*
X242257537Y-97885506D01*
X242178185Y-97788815D01*
X242081494Y-97709463D01*
X241971180Y-97650498D01*
X241851482Y-97614188D01*
X241727000Y-97601928D01*
X241712750Y-97605000D01*
X241554000Y-97763750D01*
X241300000Y-97763750D01*
X241141250Y-97605000D01*
X241127000Y-97601928D01*
X241002518Y-97614188D01*
X240882820Y-97650498D01*
X240772506Y-97709463D01*
X240742936Y-97733730D01*
X240608582Y-97661916D01*
X240460745Y-97617071D01*
X240307000Y-97601928D01*
X240007000Y-97601928D01*
X239853255Y-97617071D01*
X239705418Y-97661916D01*
X239569171Y-97734742D01*
X239522000Y-97773454D01*
X239474829Y-97734742D01*
X239338582Y-97661916D01*
X239190745Y-97617071D01*
X239037000Y-97601928D01*
X238737000Y-97601928D01*
X238583255Y-97617071D01*
X238435418Y-97661916D01*
X238299171Y-97734742D01*
X238252000Y-97773454D01*
X238204829Y-97734742D01*
X238068582Y-97661916D01*
X237920745Y-97617071D01*
X237767000Y-97601928D01*
X237467000Y-97601928D01*
X237313255Y-97617071D01*
X237165418Y-97661916D01*
X237029171Y-97734742D01*
X236982000Y-97773454D01*
X236934829Y-97734742D01*
X236798582Y-97661916D01*
X236650745Y-97617071D01*
X236497000Y-97601928D01*
X236197000Y-97601928D01*
X236043255Y-97617071D01*
X235895418Y-97661916D01*
X235759171Y-97734742D01*
X235712000Y-97773454D01*
X235664829Y-97734742D01*
X235528582Y-97661916D01*
X235380745Y-97617071D01*
X235227000Y-97601928D01*
X234927000Y-97601928D01*
X234773255Y-97617071D01*
X234625418Y-97661916D01*
X234489171Y-97734742D01*
X234442000Y-97773454D01*
X234394829Y-97734742D01*
X234258582Y-97661916D01*
X234110745Y-97617071D01*
X233957000Y-97601928D01*
X233657000Y-97601928D01*
X233503255Y-97617071D01*
X233355418Y-97661916D01*
X233219171Y-97734742D01*
X233172000Y-97773454D01*
X233124829Y-97734742D01*
X232988582Y-97661916D01*
X232840745Y-97617071D01*
X232687000Y-97601928D01*
X232387000Y-97601928D01*
X232233255Y-97617071D01*
X232085418Y-97661916D01*
X231949171Y-97734742D01*
X231902000Y-97773454D01*
X231854829Y-97734742D01*
X231718582Y-97661916D01*
X231570745Y-97617071D01*
X231417000Y-97601928D01*
X231117000Y-97601928D01*
X230963255Y-97617071D01*
X230815418Y-97661916D01*
X230679171Y-97734742D01*
X230632000Y-97773454D01*
X230584829Y-97734742D01*
X230448582Y-97661916D01*
X230300745Y-97617071D01*
X230147000Y-97601928D01*
X229847000Y-97601928D01*
X229693255Y-97617071D01*
X229545418Y-97661916D01*
X229409171Y-97734742D01*
X229289749Y-97832749D01*
X229191742Y-97952171D01*
X229118916Y-98088418D01*
X229074071Y-98236255D01*
X229058928Y-98390000D01*
X229058928Y-100140000D01*
X229074071Y-100293745D01*
X229118916Y-100441582D01*
X229191742Y-100577829D01*
X229289749Y-100697251D01*
X229409171Y-100795258D01*
X229545418Y-100868084D01*
X229693255Y-100912929D01*
X229847000Y-100928072D01*
X230147000Y-100928072D01*
X230272344Y-100915726D01*
X230271774Y-100917102D01*
X230232000Y-101117061D01*
X230232000Y-101320939D01*
X230271774Y-101520898D01*
X230349795Y-101709256D01*
X230463063Y-101878774D01*
X230607226Y-102022937D01*
X230776744Y-102136205D01*
X230965102Y-102214226D01*
X231165061Y-102254000D01*
X231368939Y-102254000D01*
X231568898Y-102214226D01*
X231610794Y-102196872D01*
X231618844Y-102216305D01*
X231712166Y-102355971D01*
X228041465Y-102355971D01*
X228002909Y-102352174D01*
X227964353Y-102355971D01*
X227964348Y-102355971D01*
X227923935Y-102359951D01*
X227849022Y-102367329D01*
X227702542Y-102411764D01*
X227701049Y-102412217D01*
X227564676Y-102485109D01*
X227445145Y-102583207D01*
X227420564Y-102613159D01*
X226424723Y-103609000D01*
X225704072Y-103609000D01*
X225704072Y-101225000D01*
X225691812Y-101100518D01*
X225655502Y-100980820D01*
X225596537Y-100870506D01*
X225517185Y-100773815D01*
X225420494Y-100694463D01*
X225310180Y-100635498D01*
X225190482Y-100599188D01*
X225066000Y-100586928D01*
X221466000Y-100586928D01*
X221341518Y-100599188D01*
X221221820Y-100635498D01*
X221111506Y-100694463D01*
X221014815Y-100773815D01*
X220935463Y-100870506D01*
X220876498Y-100980820D01*
X220840188Y-101100518D01*
X220827928Y-101225000D01*
X220827928Y-101790000D01*
X217697157Y-101790000D01*
X216534420Y-100627263D01*
X216581502Y-100539180D01*
X216617812Y-100419482D01*
X216630072Y-100295000D01*
X216630072Y-99095000D01*
X216617812Y-98970518D01*
X216581502Y-98850820D01*
X216522537Y-98740506D01*
X216509419Y-98724522D01*
X216579540Y-98555236D01*
X216627000Y-98316637D01*
X216627000Y-98073363D01*
X216579540Y-97834764D01*
X216486443Y-97610008D01*
X216351287Y-97407733D01*
X216217723Y-97274169D01*
X216309205Y-97137256D01*
X216387226Y-96948898D01*
X216427000Y-96748939D01*
X216427000Y-96545061D01*
X216411865Y-96468973D01*
X216471792Y-96419792D01*
X216581458Y-96286164D01*
X216662947Y-96133709D01*
X216713128Y-95968285D01*
X216730072Y-95796250D01*
X216730072Y-95308750D01*
X216713128Y-95136715D01*
X216662947Y-94971291D01*
X216581458Y-94818836D01*
X216471792Y-94685208D01*
X216386244Y-94615000D01*
X216471792Y-94544792D01*
X216581458Y-94411164D01*
X216662947Y-94258709D01*
X216713128Y-94093285D01*
X216730072Y-93921250D01*
X216730072Y-93433750D01*
X216713128Y-93261715D01*
X216662947Y-93096291D01*
X216581458Y-92943836D01*
X216471792Y-92810208D01*
X216338164Y-92700542D01*
X216185709Y-92619053D01*
X216020285Y-92568872D01*
X215848250Y-92551928D01*
X215376586Y-92551928D01*
X215193415Y-92368758D01*
X215206072Y-92240250D01*
X215206072Y-91752750D01*
X215189128Y-91580715D01*
X215138947Y-91415291D01*
X215057458Y-91262836D01*
X214947792Y-91129208D01*
X214941436Y-91123992D01*
X215019185Y-91060185D01*
X215098537Y-90963494D01*
X215157502Y-90853180D01*
X215193812Y-90733482D01*
X215206072Y-90609000D01*
X215203000Y-90407250D01*
X215044250Y-90248500D01*
X213995000Y-90248500D01*
X213995000Y-90268500D01*
X213741000Y-90268500D01*
X213741000Y-90248500D01*
X213721000Y-90248500D01*
X213721000Y-89994500D01*
X213741000Y-89994500D01*
X213741000Y-89157750D01*
X213995000Y-89157750D01*
X213995000Y-89994500D01*
X215044250Y-89994500D01*
X215203000Y-89835750D01*
X215206072Y-89634000D01*
X215193812Y-89509518D01*
X215157502Y-89389820D01*
X215098537Y-89279506D01*
X215019185Y-89182815D01*
X214922494Y-89103463D01*
X214812180Y-89044498D01*
X214692482Y-89008188D01*
X214568000Y-88995928D01*
X214153750Y-88999000D01*
X213995000Y-89157750D01*
X213741000Y-89157750D01*
X213582250Y-88999000D01*
X213168000Y-88995928D01*
X213043518Y-89008188D01*
X212923820Y-89044498D01*
X212813506Y-89103463D01*
X212770832Y-89138485D01*
X212629709Y-89063053D01*
X212621000Y-89060411D01*
X212621000Y-88875512D01*
X216237783Y-88875512D01*
X216279213Y-89155130D01*
X216374397Y-89421292D01*
X216439616Y-89543309D01*
X216426815Y-89553815D01*
X216347463Y-89650506D01*
X216288498Y-89760820D01*
X216252188Y-89880518D01*
X216239928Y-90005000D01*
X216239928Y-91605000D01*
X216252188Y-91729482D01*
X216288498Y-91849180D01*
X216347463Y-91959494D01*
X216426815Y-92056185D01*
X216523506Y-92135537D01*
X216633820Y-92194502D01*
X216753518Y-92230812D01*
X216878000Y-92243072D01*
X216968602Y-92243072D01*
X217022138Y-92343232D01*
X217120236Y-92462764D01*
X217150190Y-92487347D01*
X219465658Y-94802816D01*
X219490236Y-94832764D01*
X219520184Y-94857342D01*
X219520187Y-94857345D01*
X219549559Y-94881450D01*
X219609767Y-94930862D01*
X219744959Y-95003123D01*
X219746140Y-95003754D01*
X219894112Y-95048641D01*
X219908490Y-95050057D01*
X220009439Y-95060000D01*
X220009446Y-95060000D01*
X220047999Y-95063797D01*
X220086552Y-95060000D01*
X220827928Y-95060000D01*
X220827928Y-95625000D01*
X220840188Y-95749482D01*
X220876498Y-95869180D01*
X220935463Y-95979494D01*
X221014815Y-96076185D01*
X221111506Y-96155537D01*
X221221820Y-96214502D01*
X221341518Y-96250812D01*
X221466000Y-96263072D01*
X222261829Y-96263072D01*
X222231000Y-96418061D01*
X222231000Y-96621939D01*
X222270774Y-96821898D01*
X222348795Y-97010256D01*
X222462063Y-97179774D01*
X222606226Y-97323937D01*
X222775744Y-97437205D01*
X222964102Y-97515226D01*
X223164061Y-97555000D01*
X223367939Y-97555000D01*
X223567898Y-97515226D01*
X223756256Y-97437205D01*
X223925774Y-97323937D01*
X224069937Y-97179774D01*
X224183205Y-97010256D01*
X224261226Y-96821898D01*
X224301000Y-96621939D01*
X224301000Y-96418061D01*
X224270171Y-96263072D01*
X225066000Y-96263072D01*
X225190482Y-96250812D01*
X225310180Y-96214502D01*
X225420494Y-96155537D01*
X225517185Y-96076185D01*
X225596537Y-95979494D01*
X225655502Y-95869180D01*
X225691812Y-95749482D01*
X225704072Y-95625000D01*
X225704072Y-92925000D01*
X225691812Y-92800518D01*
X225655502Y-92680820D01*
X225596537Y-92570506D01*
X225517185Y-92473815D01*
X225420494Y-92394463D01*
X225310180Y-92335498D01*
X225190482Y-92299188D01*
X225066000Y-92286928D01*
X221466000Y-92286928D01*
X221341518Y-92299188D01*
X221221820Y-92335498D01*
X221111506Y-92394463D01*
X221014815Y-92473815D01*
X220935463Y-92570506D01*
X220876498Y-92680820D01*
X220840188Y-92800518D01*
X220827928Y-92925000D01*
X220827928Y-93490000D01*
X220373158Y-93490000D01*
X218933763Y-92050606D01*
X219008537Y-91959494D01*
X219067502Y-91849180D01*
X219103812Y-91729482D01*
X219116072Y-91605000D01*
X219116072Y-90005000D01*
X219103812Y-89880518D01*
X219067502Y-89760820D01*
X219008537Y-89650506D01*
X218929185Y-89553815D01*
X218916242Y-89543193D01*
X219035571Y-89291004D01*
X219104300Y-89016816D01*
X219118217Y-88734488D01*
X219076787Y-88454870D01*
X218981603Y-88188708D01*
X218914671Y-88063486D01*
X218670702Y-87991903D01*
X217857605Y-88805000D01*
X217871748Y-88819143D01*
X217692143Y-88998748D01*
X217678000Y-88984605D01*
X217663858Y-88998748D01*
X217484253Y-88819143D01*
X217498395Y-88805000D01*
X216685298Y-87991903D01*
X216441329Y-88063486D01*
X216320429Y-88318996D01*
X216251700Y-88593184D01*
X216237783Y-88875512D01*
X212621000Y-88875512D01*
X212621000Y-87812298D01*
X216864903Y-87812298D01*
X217678000Y-88625395D01*
X218491097Y-87812298D01*
X218419514Y-87568329D01*
X218164004Y-87447429D01*
X217889816Y-87378700D01*
X217607488Y-87364783D01*
X217327870Y-87406213D01*
X217061708Y-87501397D01*
X216936486Y-87568329D01*
X216864903Y-87812298D01*
X212621000Y-87812298D01*
X212621000Y-86926339D01*
X212750759Y-86839637D01*
X212872694Y-86717702D01*
X216022903Y-86717702D01*
X216094486Y-86961671D01*
X216349996Y-87082571D01*
X216624184Y-87151300D01*
X216906512Y-87165217D01*
X217186130Y-87123787D01*
X217452292Y-87028603D01*
X217577514Y-86961671D01*
X217612071Y-86843891D01*
X222078519Y-86843891D01*
X222175843Y-87118252D01*
X222324822Y-87368355D01*
X222519731Y-87584588D01*
X222753080Y-87758641D01*
X223015901Y-87883825D01*
X223163110Y-87928476D01*
X223393000Y-87807155D01*
X223393000Y-86614000D01*
X222199186Y-86614000D01*
X222078519Y-86843891D01*
X217612071Y-86843891D01*
X217649097Y-86717702D01*
X216836000Y-85904605D01*
X216022903Y-86717702D01*
X212872694Y-86717702D01*
X212950637Y-86639759D01*
X213107680Y-86404727D01*
X213215853Y-86143574D01*
X213271000Y-85866335D01*
X213271000Y-85795512D01*
X215395783Y-85795512D01*
X215437213Y-86075130D01*
X215532397Y-86341292D01*
X215599329Y-86466514D01*
X215843298Y-86538097D01*
X216656395Y-85725000D01*
X217015605Y-85725000D01*
X217828702Y-86538097D01*
X218072671Y-86466514D01*
X218193571Y-86211004D01*
X218213848Y-86130109D01*
X222078519Y-86130109D01*
X222199186Y-86360000D01*
X223393000Y-86360000D01*
X223393000Y-85166845D01*
X223647000Y-85166845D01*
X223647000Y-86360000D01*
X223667000Y-86360000D01*
X223667000Y-86614000D01*
X223647000Y-86614000D01*
X223647000Y-87807155D01*
X223876890Y-87928476D01*
X224024099Y-87883825D01*
X224286920Y-87758641D01*
X224520269Y-87584588D01*
X224715178Y-87368355D01*
X224784799Y-87251477D01*
X224819294Y-87316014D01*
X225004866Y-87542134D01*
X225230986Y-87727706D01*
X225488966Y-87865599D01*
X225768889Y-87950513D01*
X225987050Y-87972000D01*
X226132950Y-87972000D01*
X226351111Y-87950513D01*
X226631034Y-87865599D01*
X226889014Y-87727706D01*
X227115134Y-87542134D01*
X227300706Y-87316014D01*
X227324232Y-87272000D01*
X227335768Y-87272000D01*
X227359294Y-87316014D01*
X227544866Y-87542134D01*
X227770986Y-87727706D01*
X228028966Y-87865599D01*
X228308889Y-87950513D01*
X228393195Y-87958816D01*
X228303746Y-88032226D01*
X228279163Y-88062180D01*
X227853415Y-88487928D01*
X227381750Y-88487928D01*
X227209715Y-88504872D01*
X227044291Y-88555053D01*
X226891836Y-88636542D01*
X226758208Y-88746208D01*
X226648542Y-88879836D01*
X226567053Y-89032291D01*
X226516872Y-89197715D01*
X226499928Y-89369750D01*
X226499928Y-89857250D01*
X226516872Y-90029285D01*
X226567053Y-90194709D01*
X226648542Y-90347164D01*
X226758208Y-90480792D01*
X226843756Y-90551000D01*
X226758208Y-90621208D01*
X226648542Y-90754836D01*
X226567053Y-90907291D01*
X226516872Y-91072715D01*
X226499928Y-91244750D01*
X226499928Y-91732250D01*
X226516872Y-91904285D01*
X226567053Y-92069709D01*
X226648542Y-92222164D01*
X226758208Y-92355792D01*
X226891836Y-92465458D01*
X227044291Y-92546947D01*
X227209715Y-92597128D01*
X227381750Y-92614072D01*
X227853415Y-92614072D01*
X228338154Y-93098811D01*
X228362737Y-93128765D01*
X228482268Y-93226863D01*
X228618641Y-93299755D01*
X228766614Y-93344643D01*
X228841527Y-93352021D01*
X228881940Y-93356001D01*
X228881945Y-93356001D01*
X228920501Y-93359798D01*
X228959057Y-93356001D01*
X232858448Y-93356001D01*
X232897001Y-93359798D01*
X232935554Y-93356001D01*
X232935562Y-93356001D01*
X233050888Y-93344642D01*
X233198861Y-93299755D01*
X233335234Y-93226863D01*
X233454765Y-93128765D01*
X233479348Y-93098811D01*
X234334817Y-92243343D01*
X234364764Y-92218766D01*
X234462862Y-92099235D01*
X234535754Y-91962862D01*
X234546714Y-91926732D01*
X234580642Y-91814889D01*
X234588020Y-91739976D01*
X234592000Y-91699563D01*
X234592000Y-91699558D01*
X234595797Y-91661002D01*
X234592000Y-91622447D01*
X234592000Y-91550222D01*
X234625418Y-91568084D01*
X234773255Y-91612929D01*
X234927000Y-91628072D01*
X235227000Y-91628072D01*
X235380745Y-91612929D01*
X235528582Y-91568084D01*
X235664829Y-91495258D01*
X235712000Y-91456546D01*
X235759171Y-91495258D01*
X235895418Y-91568084D01*
X236043255Y-91612929D01*
X236197000Y-91628072D01*
X236497000Y-91628072D01*
X236650745Y-91612929D01*
X236798582Y-91568084D01*
X236934829Y-91495258D01*
X236982000Y-91456546D01*
X237029171Y-91495258D01*
X237165418Y-91568084D01*
X237313255Y-91612929D01*
X237467000Y-91628072D01*
X237767000Y-91628072D01*
X237920745Y-91612929D01*
X238068582Y-91568084D01*
X238204829Y-91495258D01*
X238252000Y-91456546D01*
X238299171Y-91495258D01*
X238435418Y-91568084D01*
X238583255Y-91612929D01*
X238737000Y-91628072D01*
X239037000Y-91628072D01*
X239190745Y-91612929D01*
X239338582Y-91568084D01*
X239474829Y-91495258D01*
X239522000Y-91456546D01*
X239569171Y-91495258D01*
X239705418Y-91568084D01*
X239853255Y-91612929D01*
X240007000Y-91628072D01*
X240307000Y-91628072D01*
X240460745Y-91612929D01*
X240608582Y-91568084D01*
X240744829Y-91495258D01*
X240792000Y-91456546D01*
X240839171Y-91495258D01*
X240975418Y-91568084D01*
X241123255Y-91612929D01*
X241277000Y-91628072D01*
X241577000Y-91628072D01*
X241730745Y-91612929D01*
X241878582Y-91568084D01*
X242014829Y-91495258D01*
X242134251Y-91397251D01*
X242232258Y-91277829D01*
X242305084Y-91141582D01*
X242349929Y-90993745D01*
X242365072Y-90840000D01*
X242365072Y-89090000D01*
X242349929Y-88936255D01*
X242305084Y-88788418D01*
X242232258Y-88652171D01*
X242134251Y-88532749D01*
X242014829Y-88434742D01*
X241878582Y-88361916D01*
X241730745Y-88317071D01*
X241577000Y-88301928D01*
X241277000Y-88301928D01*
X241123255Y-88317071D01*
X240975418Y-88361916D01*
X240839171Y-88434742D01*
X240792000Y-88473454D01*
X240744829Y-88434742D01*
X240608582Y-88361916D01*
X240460745Y-88317071D01*
X240307000Y-88301928D01*
X240007000Y-88301928D01*
X239853255Y-88317071D01*
X239705418Y-88361916D01*
X239569171Y-88434742D01*
X239522000Y-88473454D01*
X239474829Y-88434742D01*
X239338582Y-88361916D01*
X239190745Y-88317071D01*
X239037000Y-88301928D01*
X238737000Y-88301928D01*
X238583255Y-88317071D01*
X238435418Y-88361916D01*
X238299171Y-88434742D01*
X238252000Y-88473454D01*
X238204829Y-88434742D01*
X238068582Y-88361916D01*
X237920745Y-88317071D01*
X237767000Y-88301928D01*
X237467000Y-88301928D01*
X237313255Y-88317071D01*
X237165418Y-88361916D01*
X237029171Y-88434742D01*
X237023135Y-88439696D01*
X237002862Y-88401767D01*
X236953450Y-88341559D01*
X236929345Y-88312187D01*
X236929342Y-88312184D01*
X236904764Y-88282236D01*
X236874816Y-88257659D01*
X236179327Y-87562169D01*
X236154744Y-87532216D01*
X236035213Y-87434118D01*
X235898840Y-87361226D01*
X235750867Y-87316339D01*
X235635541Y-87304980D01*
X235635533Y-87304980D01*
X235596980Y-87301183D01*
X235558427Y-87304980D01*
X232628072Y-87304980D01*
X232628072Y-85637000D01*
X232615812Y-85512518D01*
X232579502Y-85392820D01*
X232520537Y-85282506D01*
X232441185Y-85185815D01*
X232344494Y-85106463D01*
X232234180Y-85047498D01*
X232114482Y-85011188D01*
X231990000Y-84998928D01*
X230290000Y-84998928D01*
X230165518Y-85011188D01*
X230045820Y-85047498D01*
X229935506Y-85106463D01*
X229838815Y-85185815D01*
X229759463Y-85282506D01*
X229700498Y-85392820D01*
X229679607Y-85461687D01*
X229655134Y-85431866D01*
X229429014Y-85246294D01*
X229171034Y-85108401D01*
X228891111Y-85023487D01*
X228672950Y-85002000D01*
X228527050Y-85002000D01*
X228308889Y-85023487D01*
X228028966Y-85108401D01*
X227770986Y-85246294D01*
X227544866Y-85431866D01*
X227359294Y-85657986D01*
X227335768Y-85702000D01*
X227324232Y-85702000D01*
X227300706Y-85657986D01*
X227115134Y-85431866D01*
X226889014Y-85246294D01*
X226631034Y-85108401D01*
X226351111Y-85023487D01*
X226132950Y-85002000D01*
X225987050Y-85002000D01*
X225768889Y-85023487D01*
X225488966Y-85108401D01*
X225230986Y-85246294D01*
X225004866Y-85431866D01*
X224819294Y-85657986D01*
X224784799Y-85722523D01*
X224715178Y-85605645D01*
X224520269Y-85389412D01*
X224286920Y-85215359D01*
X224024099Y-85090175D01*
X223876890Y-85045524D01*
X223647000Y-85166845D01*
X223393000Y-85166845D01*
X223163110Y-85045524D01*
X223015901Y-85090175D01*
X222753080Y-85215359D01*
X222519731Y-85389412D01*
X222324822Y-85605645D01*
X222175843Y-85855748D01*
X222078519Y-86130109D01*
X218213848Y-86130109D01*
X218262300Y-85936816D01*
X218276217Y-85654488D01*
X218234787Y-85374870D01*
X218139603Y-85108708D01*
X218072671Y-84983486D01*
X217828702Y-84911903D01*
X217015605Y-85725000D01*
X216656395Y-85725000D01*
X215843298Y-84911903D01*
X215599329Y-84983486D01*
X215478429Y-85238996D01*
X215409700Y-85513184D01*
X215395783Y-85795512D01*
X213271000Y-85795512D01*
X213271000Y-85583665D01*
X213215853Y-85306426D01*
X213107680Y-85045273D01*
X212950637Y-84810241D01*
X212872694Y-84732298D01*
X216022903Y-84732298D01*
X216836000Y-85545395D01*
X217649097Y-84732298D01*
X217577514Y-84488329D01*
X217322004Y-84367429D01*
X217047816Y-84298700D01*
X216765488Y-84284783D01*
X216485870Y-84326213D01*
X216219708Y-84421397D01*
X216094486Y-84488329D01*
X216022903Y-84732298D01*
X212872694Y-84732298D01*
X212750759Y-84610363D01*
X212515727Y-84453320D01*
X212254574Y-84345147D01*
X211977335Y-84290000D01*
X211694665Y-84290000D01*
X211417426Y-84345147D01*
X211156273Y-84453320D01*
X210921241Y-84610363D01*
X210721363Y-84810241D01*
X210564320Y-85045273D01*
X210456147Y-85306426D01*
X210401000Y-85583665D01*
X210401000Y-85866335D01*
X210456147Y-86143574D01*
X210564320Y-86404727D01*
X210721363Y-86639759D01*
X210921241Y-86839637D01*
X211051000Y-86926339D01*
X211051001Y-89060411D01*
X211042291Y-89063053D01*
X210889836Y-89144542D01*
X210756208Y-89254208D01*
X210646542Y-89387836D01*
X210565053Y-89540291D01*
X210514872Y-89705715D01*
X210497928Y-89877750D01*
X210497928Y-90365250D01*
X210514872Y-90537285D01*
X210565053Y-90702709D01*
X210646542Y-90855164D01*
X210756208Y-90988792D01*
X210841756Y-91059000D01*
X210756208Y-91129208D01*
X210646542Y-91262836D01*
X210565053Y-91415291D01*
X210514872Y-91580715D01*
X210497928Y-91752750D01*
X210497928Y-92240250D01*
X210514872Y-92412285D01*
X210565053Y-92577709D01*
X210585393Y-92615763D01*
X209918504Y-92615763D01*
X209872572Y-92611239D01*
X209689280Y-92629292D01*
X209635816Y-92645510D01*
X209513033Y-92682756D01*
X209350601Y-92769577D01*
X209208229Y-92886419D01*
X209178947Y-92922099D01*
X208033000Y-94068047D01*
X208033000Y-91677072D01*
X208768000Y-91677072D01*
X208892482Y-91664812D01*
X209012180Y-91628502D01*
X209122494Y-91569537D01*
X209219185Y-91490185D01*
X209298537Y-91393494D01*
X209357502Y-91283180D01*
X209393812Y-91163482D01*
X209406072Y-91039000D01*
X209406072Y-88539000D01*
X209393812Y-88414518D01*
X209357502Y-88294820D01*
X209298537Y-88184506D01*
X209219185Y-88087815D01*
X209122494Y-88008463D01*
X209012180Y-87949498D01*
X208892482Y-87913188D01*
X208768000Y-87900928D01*
X206268000Y-87900928D01*
X206143518Y-87913188D01*
X206023820Y-87949498D01*
X205913506Y-88008463D01*
X205816815Y-88087815D01*
X205737463Y-88184506D01*
X205678498Y-88294820D01*
X205642188Y-88414518D01*
X205629928Y-88539000D01*
X205629928Y-91039000D01*
X205642188Y-91163482D01*
X205678498Y-91283180D01*
X205737463Y-91393494D01*
X205816815Y-91490185D01*
X205913506Y-91569537D01*
X206023820Y-91628502D01*
X206143518Y-91664812D01*
X206268000Y-91677072D01*
X206463001Y-91677072D01*
X206463000Y-95518043D01*
X206443506Y-95528463D01*
X206346815Y-95607815D01*
X206267463Y-95704506D01*
X206208498Y-95814820D01*
X206172188Y-95934518D01*
X206159928Y-96059000D01*
X206159928Y-96570905D01*
X206149185Y-96557815D01*
X206052494Y-96478463D01*
X206033000Y-96468043D01*
X206033000Y-92557552D01*
X206036797Y-92518999D01*
X206033000Y-92480446D01*
X206033000Y-92480439D01*
X206021641Y-92365113D01*
X205976754Y-92217140D01*
X205903862Y-92080767D01*
X205848441Y-92013237D01*
X205830345Y-91991187D01*
X205830342Y-91991184D01*
X205805764Y-91961236D01*
X205775816Y-91936658D01*
X204285874Y-90446717D01*
X204330561Y-90338834D01*
X204403000Y-89974656D01*
X204403000Y-89603344D01*
X204330561Y-89239166D01*
X204188466Y-88896118D01*
X203982175Y-88587382D01*
X203719618Y-88324825D01*
X203410882Y-88118534D01*
X203067834Y-87976439D01*
X202703656Y-87904000D01*
X202332344Y-87904000D01*
X201968166Y-87976439D01*
X201625118Y-88118534D01*
X201316382Y-88324825D01*
X201053825Y-88587382D01*
X200847534Y-88896118D01*
X200705439Y-89239166D01*
X200633000Y-89603344D01*
X200633000Y-89974656D01*
X200705439Y-90338834D01*
X200847534Y-90681882D01*
X201053825Y-90990618D01*
X201316382Y-91253175D01*
X201625118Y-91459466D01*
X201968166Y-91601561D01*
X202332344Y-91674000D01*
X202703656Y-91674000D01*
X203067834Y-91601561D01*
X203175717Y-91556874D01*
X204463001Y-92844159D01*
X204463000Y-96468043D01*
X204443506Y-96478463D01*
X204346815Y-96557815D01*
X204267463Y-96654506D01*
X204208498Y-96764820D01*
X204172188Y-96884518D01*
X204159928Y-97009000D01*
X204159928Y-97809000D01*
X204172188Y-97933482D01*
X204208498Y-98053180D01*
X204267463Y-98163494D01*
X204346815Y-98260185D01*
X204443506Y-98339537D01*
X204553820Y-98398502D01*
X204673518Y-98434812D01*
X204798000Y-98447072D01*
X205698000Y-98447072D01*
X205822482Y-98434812D01*
X205942180Y-98398502D01*
X206052494Y-98339537D01*
X206149185Y-98260185D01*
X206159928Y-98247095D01*
X206159928Y-98336914D01*
X205527489Y-98969354D01*
X205376744Y-99031795D01*
X205207226Y-99145063D01*
X205063063Y-99289226D01*
X204949795Y-99458744D01*
X204871774Y-99647102D01*
X204832000Y-99847061D01*
X204832000Y-100050939D01*
X204871774Y-100250898D01*
X204949795Y-100439256D01*
X205063063Y-100608774D01*
X205207226Y-100752937D01*
X205376744Y-100866205D01*
X205565102Y-100944226D01*
X205765061Y-100984000D01*
X205968939Y-100984000D01*
X206168898Y-100944226D01*
X206357256Y-100866205D01*
X206526774Y-100752937D01*
X206583001Y-100696710D01*
X206583000Y-102755928D01*
X206518000Y-102755928D01*
X206393518Y-102768188D01*
X206273820Y-102804498D01*
X206163506Y-102863463D01*
X206066815Y-102942815D01*
X205987463Y-103039506D01*
X205928498Y-103149820D01*
X205892188Y-103269518D01*
X205879928Y-103394000D01*
X205879928Y-104073386D01*
X204984264Y-104969051D01*
X204931420Y-105012419D01*
X204888051Y-105065264D01*
X204888048Y-105065267D01*
X204758344Y-105223312D01*
X204629736Y-105463920D01*
X204550540Y-105724993D01*
X204523800Y-105996500D01*
X204530501Y-106064539D01*
X204530500Y-108175319D01*
X204312007Y-108109040D01*
X204170058Y-108095059D01*
X204176072Y-108034000D01*
X204173000Y-107219750D01*
X204014250Y-107061000D01*
X202565000Y-107061000D01*
X202565000Y-107081000D01*
X202311000Y-107081000D01*
X202311000Y-107061000D01*
X200861750Y-107061000D01*
X200787718Y-107135033D01*
X200347873Y-106695188D01*
X200337895Y-106593881D01*
X200238686Y-106266832D01*
X200077579Y-105965422D01*
X199969724Y-105834000D01*
X200699928Y-105834000D01*
X200703000Y-106648250D01*
X200861750Y-106807000D01*
X202311000Y-106807000D01*
X202311000Y-105357750D01*
X202565000Y-105357750D01*
X202565000Y-106807000D01*
X204014250Y-106807000D01*
X204173000Y-106648250D01*
X204176072Y-105834000D01*
X204163812Y-105709518D01*
X204127502Y-105589820D01*
X204068537Y-105479506D01*
X203989185Y-105382815D01*
X203892494Y-105303463D01*
X203782180Y-105244498D01*
X203662482Y-105208188D01*
X203538000Y-105195928D01*
X202723750Y-105199000D01*
X202565000Y-105357750D01*
X202311000Y-105357750D01*
X202152250Y-105199000D01*
X201338000Y-105195928D01*
X201213518Y-105208188D01*
X201093820Y-105244498D01*
X200983506Y-105303463D01*
X200886815Y-105382815D01*
X200807463Y-105479506D01*
X200748498Y-105589820D01*
X200712188Y-105709518D01*
X200699928Y-105834000D01*
X199969724Y-105834000D01*
X199860766Y-105701234D01*
X199596578Y-105484421D01*
X199295168Y-105323314D01*
X198968119Y-105224105D01*
X198713225Y-105199000D01*
X198542775Y-105199000D01*
X198287881Y-105224105D01*
X197960832Y-105323314D01*
X197659422Y-105484421D01*
X197395234Y-105701234D01*
X197178421Y-105965422D01*
X197017314Y-106266832D01*
X196918105Y-106593881D01*
X196884606Y-106934000D01*
X196896397Y-107053712D01*
X196556072Y-106713387D01*
X196556072Y-105834000D01*
X196543812Y-105709518D01*
X196507502Y-105589820D01*
X196448537Y-105479506D01*
X196369185Y-105382815D01*
X196272494Y-105303463D01*
X196162180Y-105244498D01*
X196042482Y-105208188D01*
X195918000Y-105195928D01*
X193718000Y-105195928D01*
X193593518Y-105208188D01*
X193473820Y-105244498D01*
X193363506Y-105303463D01*
X193266815Y-105382815D01*
X193187463Y-105479506D01*
X193128498Y-105589820D01*
X193092188Y-105709518D01*
X193079928Y-105834000D01*
X192339981Y-105834000D01*
X192192427Y-105666178D01*
X191922329Y-105459469D01*
X191617094Y-105309425D01*
X191404122Y-105244825D01*
X191135000Y-105362875D01*
X190881000Y-105362875D01*
X190611878Y-105244825D01*
X190398906Y-105309425D01*
X190093671Y-105459469D01*
X189823573Y-105666178D01*
X189598992Y-105921609D01*
X189428558Y-106215946D01*
X189318821Y-106537877D01*
X174167000Y-106537877D01*
X174167000Y-95674000D01*
X189269928Y-95674000D01*
X189269928Y-97874000D01*
X189282188Y-97998482D01*
X189318498Y-98118180D01*
X189377463Y-98228494D01*
X189456815Y-98325185D01*
X189553506Y-98404537D01*
X189663820Y-98463502D01*
X189783518Y-98499812D01*
X189908000Y-98512072D01*
X192108000Y-98512072D01*
X192232482Y-98499812D01*
X192352180Y-98463502D01*
X192462494Y-98404537D01*
X192559185Y-98325185D01*
X192638537Y-98228494D01*
X192697502Y-98118180D01*
X192733812Y-97998482D01*
X192746072Y-97874000D01*
X192746072Y-96994613D01*
X192913000Y-96827685D01*
X193098127Y-97012813D01*
X193108105Y-97114119D01*
X193207314Y-97441168D01*
X193368421Y-97742578D01*
X193585234Y-98006766D01*
X193849422Y-98223579D01*
X194150832Y-98384686D01*
X194477881Y-98483895D01*
X194732775Y-98509000D01*
X194903225Y-98509000D01*
X195158119Y-98483895D01*
X195485168Y-98384686D01*
X195786578Y-98223579D01*
X196050766Y-98006766D01*
X196267579Y-97742578D01*
X196428686Y-97441168D01*
X196527895Y-97114119D01*
X196561394Y-96774000D01*
X196550317Y-96661538D01*
X196586764Y-96691449D01*
X196889928Y-96994613D01*
X196889928Y-97874000D01*
X196902188Y-97998482D01*
X196938498Y-98118180D01*
X196997463Y-98228494D01*
X197076815Y-98325185D01*
X197173506Y-98404537D01*
X197283820Y-98463502D01*
X197403518Y-98499812D01*
X197528000Y-98512072D01*
X199728000Y-98512072D01*
X199852482Y-98499812D01*
X199972180Y-98463502D01*
X200082494Y-98404537D01*
X200179185Y-98325185D01*
X200258537Y-98228494D01*
X200317502Y-98118180D01*
X200353812Y-97998482D01*
X200366072Y-97874000D01*
X200366072Y-96660758D01*
X200718127Y-97012813D01*
X200728105Y-97114119D01*
X200827314Y-97441168D01*
X200988421Y-97742578D01*
X201205234Y-98006766D01*
X201469422Y-98223579D01*
X201770832Y-98384686D01*
X202097881Y-98483895D01*
X202352775Y-98509000D01*
X202523225Y-98509000D01*
X202778119Y-98483895D01*
X203105168Y-98384686D01*
X203406578Y-98223579D01*
X203670766Y-98006766D01*
X203887579Y-97742578D01*
X204048686Y-97441168D01*
X204147895Y-97114119D01*
X204181394Y-96774000D01*
X204147895Y-96433881D01*
X204048686Y-96106832D01*
X203887579Y-95805422D01*
X203670766Y-95541234D01*
X203406578Y-95324421D01*
X203105168Y-95163314D01*
X202778119Y-95064105D01*
X202676813Y-95054127D01*
X198903000Y-91280315D01*
X198903000Y-91069793D01*
X198982175Y-90990618D01*
X199188466Y-90681882D01*
X199330561Y-90338834D01*
X199403000Y-89974656D01*
X199403000Y-89603344D01*
X199330561Y-89239166D01*
X199188466Y-88896118D01*
X198982175Y-88587382D01*
X198719618Y-88324825D01*
X198410882Y-88118534D01*
X198067834Y-87976439D01*
X197703656Y-87904000D01*
X197332344Y-87904000D01*
X196968166Y-87976439D01*
X196625118Y-88118534D01*
X196316382Y-88324825D01*
X196053825Y-88587382D01*
X195847534Y-88896118D01*
X195705439Y-89239166D01*
X195633000Y-89603344D01*
X195633000Y-89974656D01*
X195705439Y-90338834D01*
X195847534Y-90681882D01*
X196053825Y-90990618D01*
X196133000Y-91069793D01*
X196133000Y-91785967D01*
X196126300Y-91854000D01*
X196133000Y-91922033D01*
X196133001Y-95595961D01*
X196129002Y-95636565D01*
X196050766Y-95541234D01*
X195786578Y-95324421D01*
X195485168Y-95163314D01*
X195158119Y-95064105D01*
X195056813Y-95054127D01*
X193903000Y-93900315D01*
X193903000Y-91069793D01*
X193982175Y-90990618D01*
X194188466Y-90681882D01*
X194330561Y-90338834D01*
X194403000Y-89974656D01*
X194403000Y-89603344D01*
X194330561Y-89239166D01*
X194188466Y-88896118D01*
X193982175Y-88587382D01*
X193719618Y-88324825D01*
X193410882Y-88118534D01*
X193067834Y-87976439D01*
X192703656Y-87904000D01*
X192332344Y-87904000D01*
X191968166Y-87976439D01*
X191625118Y-88118534D01*
X191316382Y-88324825D01*
X191053825Y-88587382D01*
X190847534Y-88896118D01*
X190705439Y-89239166D01*
X190633000Y-89603344D01*
X190633000Y-89974656D01*
X190705439Y-90338834D01*
X190847534Y-90681882D01*
X191053825Y-90990618D01*
X191133000Y-91069793D01*
X191133001Y-94405962D01*
X191126300Y-94474000D01*
X191133001Y-94542037D01*
X191133001Y-94690314D01*
X190787387Y-95035928D01*
X189908000Y-95035928D01*
X189783518Y-95048188D01*
X189663820Y-95084498D01*
X189553506Y-95143463D01*
X189456815Y-95222815D01*
X189377463Y-95319506D01*
X189318498Y-95429820D01*
X189282188Y-95549518D01*
X189269928Y-95674000D01*
X174167000Y-95674000D01*
X174167000Y-81995872D01*
X176247000Y-81995872D01*
X176247000Y-82436128D01*
X176332890Y-82867925D01*
X176501369Y-83274669D01*
X176745962Y-83640729D01*
X177057271Y-83952038D01*
X177423331Y-84196631D01*
X177830075Y-84365110D01*
X178261872Y-84451000D01*
X178702128Y-84451000D01*
X179133925Y-84365110D01*
X179540669Y-84196631D01*
X179906729Y-83952038D01*
X180218038Y-83640729D01*
X180462631Y-83274669D01*
X180631110Y-82867925D01*
X180717000Y-82436128D01*
X180717000Y-81995872D01*
X251247000Y-81995872D01*
X251247000Y-82436128D01*
X251332890Y-82867925D01*
X251501369Y-83274669D01*
X251745962Y-83640729D01*
X252057271Y-83952038D01*
X252423331Y-84196631D01*
X252830075Y-84365110D01*
X253261872Y-84451000D01*
X253702128Y-84451000D01*
X254133925Y-84365110D01*
X254540669Y-84196631D01*
X254906729Y-83952038D01*
X255218038Y-83640729D01*
X255462631Y-83274669D01*
X255631110Y-82867925D01*
X255717000Y-82436128D01*
X255717000Y-81995872D01*
X255631110Y-81564075D01*
X255462631Y-81157331D01*
X255218038Y-80791271D01*
X254906729Y-80479962D01*
X254540669Y-80235369D01*
X254133925Y-80066890D01*
X253702128Y-79981000D01*
X253261872Y-79981000D01*
X252830075Y-80066890D01*
X252423331Y-80235369D01*
X252057271Y-80479962D01*
X251745962Y-80791271D01*
X251501369Y-81157331D01*
X251332890Y-81564075D01*
X251247000Y-81995872D01*
X180717000Y-81995872D01*
X180631110Y-81564075D01*
X180462631Y-81157331D01*
X180218038Y-80791271D01*
X179906729Y-80479962D01*
X179540669Y-80235369D01*
X179133925Y-80066890D01*
X178702128Y-79981000D01*
X178261872Y-79981000D01*
X177830075Y-80066890D01*
X177423331Y-80235369D01*
X177057271Y-80479962D01*
X176745962Y-80791271D01*
X176501369Y-81157331D01*
X176332890Y-81564075D01*
X176247000Y-81995872D01*
X174167000Y-81995872D01*
X174167000Y-78522021D01*
X174235951Y-78424844D01*
X174450624Y-78184624D01*
X174690844Y-77969951D01*
X174788021Y-77901000D01*
X257175979Y-77901000D01*
X257273156Y-77969951D01*
X257273156Y-77969951D01*
G37*
X257273156Y-77969951D02*
X257513376Y-78184624D01*
X257728049Y-78424844D01*
X257797000Y-78522021D01*
X257797001Y-120909978D01*
X257728049Y-121007156D01*
X257513376Y-121247376D01*
X257273156Y-121462049D01*
X257175979Y-121531000D01*
X174788021Y-121531000D01*
X174690844Y-121462049D01*
X174450624Y-121247376D01*
X174235951Y-121007156D01*
X174167000Y-120909979D01*
X174167000Y-116995872D01*
X176247000Y-116995872D01*
X176247000Y-117436128D01*
X176332890Y-117867925D01*
X176501369Y-118274669D01*
X176745962Y-118640729D01*
X177057271Y-118952038D01*
X177423331Y-119196631D01*
X177830075Y-119365110D01*
X178261872Y-119451000D01*
X178702128Y-119451000D01*
X179133925Y-119365110D01*
X179540669Y-119196631D01*
X179906729Y-118952038D01*
X180218038Y-118640729D01*
X180462631Y-118274669D01*
X180631110Y-117867925D01*
X180717000Y-117436128D01*
X180717000Y-116995872D01*
X251247000Y-116995872D01*
X251247000Y-117436128D01*
X251332890Y-117867925D01*
X251501369Y-118274669D01*
X251745962Y-118640729D01*
X252057271Y-118952038D01*
X252423331Y-119196631D01*
X252830075Y-119365110D01*
X253261872Y-119451000D01*
X253702128Y-119451000D01*
X254133925Y-119365110D01*
X254540669Y-119196631D01*
X254906729Y-118952038D01*
X255218038Y-118640729D01*
X255462631Y-118274669D01*
X255631110Y-117867925D01*
X255717000Y-117436128D01*
X255717000Y-116995872D01*
X255631110Y-116564075D01*
X255462631Y-116157331D01*
X255218038Y-115791271D01*
X254906729Y-115479962D01*
X254540669Y-115235369D01*
X254133925Y-115066890D01*
X253702128Y-114981000D01*
X253261872Y-114981000D01*
X252830075Y-115066890D01*
X252423331Y-115235369D01*
X252057271Y-115479962D01*
X251745962Y-115791271D01*
X251501369Y-116157331D01*
X251332890Y-116564075D01*
X251247000Y-116995872D01*
X180717000Y-116995872D01*
X180631110Y-116564075D01*
X180462631Y-116157331D01*
X180218038Y-115791271D01*
X179906729Y-115479962D01*
X179540669Y-115235369D01*
X179133925Y-115066890D01*
X178702128Y-114981000D01*
X178261872Y-114981000D01*
X177830075Y-115066890D01*
X177423331Y-115235369D01*
X177057271Y-115479962D01*
X176745962Y-115791271D01*
X176501369Y-116157331D01*
X176332890Y-116564075D01*
X176247000Y-116995872D01*
X174167000Y-116995872D01*
X174167000Y-114211000D01*
X217001928Y-114211000D01*
X217014188Y-114335482D01*
X217050498Y-114455180D01*
X217109463Y-114565494D01*
X217188815Y-114662185D01*
X217285506Y-114741537D01*
X217395820Y-114800502D01*
X217515518Y-114836812D01*
X217640000Y-114849072D01*
X218154250Y-114846000D01*
X218313000Y-114687250D01*
X218313000Y-113538000D01*
X218567000Y-113538000D01*
X218567000Y-114687250D01*
X218725750Y-114846000D01*
X219240000Y-114849072D01*
X219364482Y-114836812D01*
X219484180Y-114800502D01*
X219594494Y-114741537D01*
X219691185Y-114662185D01*
X219770537Y-114565494D01*
X219829502Y-114455180D01*
X219865812Y-114335482D01*
X219868231Y-114310920D01*
X220016586Y-114474519D01*
X220242580Y-114642037D01*
X220496913Y-114762246D01*
X220630961Y-114802904D01*
X220853000Y-114680915D01*
X220853000Y-113538000D01*
X221107000Y-113538000D01*
X221107000Y-114680915D01*
X221329039Y-114802904D01*
X221463087Y-114762246D01*
X221717420Y-114642037D01*
X221943414Y-114474519D01*
X222132385Y-114266131D01*
X222250000Y-114070018D01*
X222367615Y-114266131D01*
X222556586Y-114474519D01*
X222782580Y-114642037D01*
X223036913Y-114762246D01*
X223170961Y-114802904D01*
X223393000Y-114680915D01*
X223393000Y-113538000D01*
X223647000Y-113538000D01*
X223647000Y-114680915D01*
X223869039Y-114802904D01*
X224003087Y-114762246D01*
X224257420Y-114642037D01*
X224483414Y-114474519D01*
X224672385Y-114266131D01*
X224790000Y-114070018D01*
X224907615Y-114266131D01*
X225096586Y-114474519D01*
X225322580Y-114642037D01*
X225576913Y-114762246D01*
X225710961Y-114802904D01*
X225933000Y-114680915D01*
X225933000Y-113538000D01*
X226187000Y-113538000D01*
X226187000Y-114680915D01*
X226409039Y-114802904D01*
X226543087Y-114762246D01*
X226797420Y-114642037D01*
X227023414Y-114474519D01*
X227212385Y-114266131D01*
X227330000Y-114070018D01*
X227447615Y-114266131D01*
X227636586Y-114474519D01*
X227862580Y-114642037D01*
X228116913Y-114762246D01*
X228250961Y-114802904D01*
X228473000Y-114680915D01*
X228473000Y-113538000D01*
X228727000Y-113538000D01*
X228727000Y-114680915D01*
X228949039Y-114802904D01*
X229083087Y-114762246D01*
X229337420Y-114642037D01*
X229563414Y-114474519D01*
X229752385Y-114266131D01*
X229870000Y-114070018D01*
X229987615Y-114266131D01*
X230176586Y-114474519D01*
X230402580Y-114642037D01*
X230656913Y-114762246D01*
X230790961Y-114802904D01*
X231013000Y-114680915D01*
X231013000Y-113538000D01*
X231267000Y-113538000D01*
X231267000Y-114680915D01*
X231489039Y-114802904D01*
X231623087Y-114762246D01*
X231877420Y-114642037D01*
X232103414Y-114474519D01*
X232292385Y-114266131D01*
X232410000Y-114070018D01*
X232527615Y-114266131D01*
X232716586Y-114474519D01*
X232942580Y-114642037D01*
X233196913Y-114762246D01*
X233330961Y-114802904D01*
X233553000Y-114680915D01*
X233553000Y-113538000D01*
X233807000Y-113538000D01*
X233807000Y-114680915D01*
X234029039Y-114802904D01*
X234163087Y-114762246D01*
X234417420Y-114642037D01*
X234643414Y-114474519D01*
X234832385Y-114266131D01*
X234950000Y-114070018D01*
X235067615Y-114266131D01*
X235256586Y-114474519D01*
X235482580Y-114642037D01*
X235736913Y-114762246D01*
X235870961Y-114802904D01*
X236093000Y-114680915D01*
X236093000Y-113538000D01*
X236347000Y-113538000D01*
X236347000Y-114680915D01*
X236569039Y-114802904D01*
X236703087Y-114762246D01*
X236957420Y-114642037D01*
X237183414Y-114474519D01*
X237372385Y-114266131D01*
X237517070Y-114024881D01*
X237611909Y-113760040D01*
X237490624Y-113538000D01*
X236347000Y-113538000D01*
X236093000Y-113538000D01*
X233807000Y-113538000D01*
X233553000Y-113538000D01*
X231267000Y-113538000D01*
X231013000Y-113538000D01*
X228727000Y-113538000D01*
X228473000Y-113538000D01*
X226187000Y-113538000D01*
X225933000Y-113538000D01*
X223647000Y-113538000D01*
X223393000Y-113538000D01*
X221107000Y-113538000D01*
X220853000Y-113538000D01*
X218567000Y-113538000D01*
X218313000Y-113538000D01*
X217163750Y-113538000D01*
X217005000Y-113696750D01*
X217001928Y-114211000D01*
X174167000Y-114211000D01*
X174167000Y-112611000D01*
X217001928Y-112611000D01*
X217005000Y-113125250D01*
X217163750Y-113284000D01*
X218313000Y-113284000D01*
X218313000Y-112134750D01*
X218567000Y-112134750D01*
X218567000Y-113284000D01*
X220853000Y-113284000D01*
X220853000Y-112141085D01*
X221107000Y-112141085D01*
X221107000Y-113284000D01*
X223393000Y-113284000D01*
X223393000Y-112141085D01*
X223647000Y-112141085D01*
X223647000Y-113284000D01*
X225933000Y-113284000D01*
X225933000Y-112141085D01*
X226187000Y-112141085D01*
X226187000Y-113284000D01*
X228473000Y-113284000D01*
X228473000Y-112141085D01*
X228727000Y-112141085D01*
X228727000Y-113284000D01*
X231013000Y-113284000D01*
X231013000Y-112141085D01*
X231267000Y-112141085D01*
X231267000Y-113284000D01*
X233553000Y-113284000D01*
X233553000Y-112141085D01*
X233807000Y-112141085D01*
X233807000Y-113284000D01*
X236093000Y-113284000D01*
X236093000Y-112141085D01*
X236347000Y-112141085D01*
X236347000Y-113284000D01*
X237490624Y-113284000D01*
X237611909Y-113061960D01*
X237517070Y-112797119D01*
X237372385Y-112555869D01*
X237183414Y-112347481D01*
X236957420Y-112179963D01*
X236703087Y-112059754D01*
X236569039Y-112019096D01*
X236347000Y-112141085D01*
X236093000Y-112141085D01*
X235870961Y-112019096D01*
X235736913Y-112059754D01*
X235482580Y-112179963D01*
X235256586Y-112347481D01*
X235067615Y-112555869D01*
X234950000Y-112751982D01*
X234832385Y-112555869D01*
X234643414Y-112347481D01*
X234417420Y-112179963D01*
X234163087Y-112059754D01*
X234029039Y-112019096D01*
X233807000Y-112141085D01*
X233553000Y-112141085D01*
X233330961Y-112019096D01*
X233196913Y-112059754D01*
X232942580Y-112179963D01*
X232716586Y-112347481D01*
X232527615Y-112555869D01*
X232410000Y-112751982D01*
X232292385Y-112555869D01*
X232103414Y-112347481D01*
X231877420Y-112179963D01*
X231623087Y-112059754D01*
X231489039Y-112019096D01*
X231267000Y-112141085D01*
X231013000Y-112141085D01*
X230790961Y-112019096D01*
X230656913Y-112059754D01*
X230402580Y-112179963D01*
X230176586Y-112347481D01*
X229987615Y-112555869D01*
X229870000Y-112751982D01*
X229752385Y-112555869D01*
X229563414Y-112347481D01*
X229337420Y-112179963D01*
X229083087Y-112059754D01*
X228949039Y-112019096D01*
X228727000Y-112141085D01*
X228473000Y-112141085D01*
X228250961Y-112019096D01*
X228116913Y-112059754D01*
X227862580Y-112179963D01*
X227636586Y-112347481D01*
X227447615Y-112555869D01*
X227330000Y-112751982D01*
X227212385Y-112555869D01*
X227023414Y-112347481D01*
X226797420Y-112179963D01*
X226543087Y-112059754D01*
X226409039Y-112019096D01*
X226187000Y-112141085D01*
X225933000Y-112141085D01*
X225710961Y-112019096D01*
X225576913Y-112059754D01*
X225322580Y-112179963D01*
X225096586Y-112347481D01*
X224907615Y-112555869D01*
X224790000Y-112751982D01*
X224672385Y-112555869D01*
X224483414Y-112347481D01*
X224257420Y-112179963D01*
X224003087Y-112059754D01*
X223869039Y-112019096D01*
X223647000Y-112141085D01*
X223393000Y-112141085D01*
X223170961Y-112019096D01*
X223036913Y-112059754D01*
X222782580Y-112179963D01*
X222556586Y-112347481D01*
X222367615Y-112555869D01*
X222250000Y-112751982D01*
X222132385Y-112555869D01*
X221943414Y-112347481D01*
X221717420Y-112179963D01*
X221463087Y-112059754D01*
X221329039Y-112019096D01*
X221107000Y-112141085D01*
X220853000Y-112141085D01*
X220630961Y-112019096D01*
X220496913Y-112059754D01*
X220242580Y-112179963D01*
X220016586Y-112347481D01*
X219868231Y-112511080D01*
X219865812Y-112486518D01*
X219829502Y-112366820D01*
X219770537Y-112256506D01*
X219691185Y-112159815D01*
X219594494Y-112080463D01*
X219484180Y-112021498D01*
X219364482Y-111985188D01*
X219240000Y-111972928D01*
X218725750Y-111976000D01*
X218567000Y-112134750D01*
X218313000Y-112134750D01*
X218154250Y-111976000D01*
X217640000Y-111972928D01*
X217515518Y-111985188D01*
X217395820Y-112021498D01*
X217285506Y-112080463D01*
X217188815Y-112159815D01*
X217109463Y-112256506D01*
X217050498Y-112366820D01*
X217014188Y-112486518D01*
X217001928Y-112611000D01*
X174167000Y-112611000D01*
X174167000Y-107330123D01*
X189318821Y-107330123D01*
X189428558Y-107652054D01*
X189598992Y-107946391D01*
X189823573Y-108201822D01*
X190093671Y-108408531D01*
X190398906Y-108558575D01*
X190611878Y-108623175D01*
X190881000Y-108505125D01*
X190881000Y-107061000D01*
X191135000Y-107061000D01*
X191135000Y-108505125D01*
X191404122Y-108623175D01*
X191617094Y-108558575D01*
X191922329Y-108408531D01*
X192192427Y-108201822D01*
X192417008Y-107946391D01*
X192587442Y-107652054D01*
X192697179Y-107330123D01*
X192579600Y-107061000D01*
X191135000Y-107061000D01*
X190881000Y-107061000D01*
X189436400Y-107061000D01*
X189318821Y-107330123D01*
X174167000Y-107330123D01*
X174167000Y-106537877D01*
X189318821Y-106537877D01*
X189436400Y-106807000D01*
X190881000Y-106807000D01*
X190881000Y-105362875D01*
X191135000Y-105362875D01*
X191135000Y-106807000D01*
X192579600Y-106807000D01*
X192697179Y-106537877D01*
X192587442Y-106215946D01*
X192417008Y-105921609D01*
X192339981Y-105834000D01*
X193079928Y-105834000D01*
X193079928Y-108034000D01*
X193092188Y-108158482D01*
X193128498Y-108278180D01*
X193187463Y-108388494D01*
X193266815Y-108485185D01*
X193363506Y-108564537D01*
X193473820Y-108623502D01*
X193593518Y-108659812D01*
X193718000Y-108672072D01*
X194597387Y-108672072D01*
X196330546Y-110405231D01*
X196373919Y-110458081D01*
X196584812Y-110631157D01*
X196825419Y-110759764D01*
X197086493Y-110838960D01*
X197289963Y-110859000D01*
X197289972Y-110859000D01*
X197357999Y-110865700D01*
X197426026Y-110859000D01*
X201099972Y-110859000D01*
X201167999Y-110865700D01*
X201236026Y-110859000D01*
X204108537Y-110859000D01*
X204312007Y-110838960D01*
X204573081Y-110759764D01*
X204573366Y-110759612D01*
X204621709Y-110744947D01*
X204774164Y-110663458D01*
X204813214Y-110631410D01*
X204813688Y-110631157D01*
X204978000Y-110496309D01*
X205142312Y-110631157D01*
X205142786Y-110631410D01*
X205181836Y-110663458D01*
X205334291Y-110744947D01*
X205382634Y-110759612D01*
X205382919Y-110759764D01*
X205643993Y-110838960D01*
X205915500Y-110865701D01*
X206187006Y-110838960D01*
X206448080Y-110759764D01*
X206448363Y-110759613D01*
X206496709Y-110744947D01*
X206649164Y-110663458D01*
X206688216Y-110631409D01*
X206688687Y-110631157D01*
X206899580Y-110458081D01*
X207072657Y-110247188D01*
X207201264Y-110006581D01*
X207280460Y-109745507D01*
X207300500Y-109542037D01*
X207300500Y-106570185D01*
X207838614Y-106032072D01*
X208518000Y-106032072D01*
X208642482Y-106019812D01*
X208762180Y-105983502D01*
X208872494Y-105924537D01*
X208969185Y-105845185D01*
X209048537Y-105748494D01*
X209107502Y-105638180D01*
X209140496Y-105529413D01*
X211562192Y-105529413D01*
X211657956Y-105793814D01*
X211947571Y-105934704D01*
X212259108Y-106016384D01*
X212580595Y-106035718D01*
X212899675Y-105991961D01*
X213204088Y-105886795D01*
X213378044Y-105793814D01*
X213473808Y-105529413D01*
X212518000Y-104573605D01*
X211562192Y-105529413D01*
X209140496Y-105529413D01*
X209143812Y-105518482D01*
X209156072Y-105394000D01*
X209156072Y-104456595D01*
X210876282Y-104456595D01*
X210920039Y-104775675D01*
X211025205Y-105080088D01*
X211118186Y-105254044D01*
X211382587Y-105349808D01*
X212338395Y-104394000D01*
X212697605Y-104394000D01*
X213653413Y-105349808D01*
X213917814Y-105254044D01*
X214058704Y-104964429D01*
X214140384Y-104652892D01*
X214159718Y-104331405D01*
X214115961Y-104012325D01*
X214010795Y-103707912D01*
X213917814Y-103533956D01*
X213653413Y-103438192D01*
X212697605Y-104394000D01*
X212338395Y-104394000D01*
X211382587Y-103438192D01*
X211118186Y-103533956D01*
X210977296Y-103823571D01*
X210895616Y-104135108D01*
X210876282Y-104456595D01*
X209156072Y-104456595D01*
X209156072Y-103394000D01*
X209143812Y-103269518D01*
X209140497Y-103258587D01*
X211562192Y-103258587D01*
X212518000Y-104214395D01*
X213473808Y-103258587D01*
X213378044Y-102994186D01*
X213088429Y-102853296D01*
X212776892Y-102771616D01*
X212455405Y-102752282D01*
X212136325Y-102796039D01*
X211831912Y-102901205D01*
X211657956Y-102994186D01*
X211562192Y-103258587D01*
X209140497Y-103258587D01*
X209107502Y-103149820D01*
X209048537Y-103039506D01*
X208969185Y-102942815D01*
X208872494Y-102863463D01*
X208762180Y-102804498D01*
X208642482Y-102768188D01*
X208518000Y-102755928D01*
X208453000Y-102755928D01*
X208453000Y-100199289D01*
X209584217Y-99068072D01*
X210120000Y-99068072D01*
X210244482Y-99055812D01*
X210364180Y-99019502D01*
X210367545Y-99017704D01*
X211572651Y-100222810D01*
X211597234Y-100252764D01*
X211716765Y-100350862D01*
X211835791Y-100414482D01*
X211853138Y-100423754D01*
X212001111Y-100468642D01*
X212076024Y-100476020D01*
X212116437Y-100480000D01*
X212116442Y-100480000D01*
X212154998Y-100483797D01*
X212193554Y-100480000D01*
X214184546Y-100480000D01*
X214202498Y-100539180D01*
X214261463Y-100649494D01*
X214340815Y-100746185D01*
X214437506Y-100825537D01*
X214547820Y-100884502D01*
X214667518Y-100920812D01*
X214676523Y-100921699D01*
X214736138Y-101033232D01*
X214834236Y-101152764D01*
X214864190Y-101177347D01*
X216789653Y-103102810D01*
X216814236Y-103132764D01*
X216933767Y-103230862D01*
X217053495Y-103294857D01*
X217070140Y-103303754D01*
X217218113Y-103348642D01*
X217292716Y-103355989D01*
X217333439Y-103360000D01*
X217333444Y-103360000D01*
X217372000Y-103363797D01*
X217410556Y-103360000D01*
X220827928Y-103360000D01*
X220827928Y-103925000D01*
X220840188Y-104049482D01*
X220876498Y-104169180D01*
X220935463Y-104279494D01*
X220998250Y-104356000D01*
X220909508Y-104356000D01*
X220698691Y-104376764D01*
X220428192Y-104458818D01*
X220178899Y-104592068D01*
X219960392Y-104771392D01*
X219781068Y-104989899D01*
X219710000Y-105122858D01*
X219638932Y-104989899D01*
X219459608Y-104771392D01*
X219241101Y-104592068D01*
X218991808Y-104458818D01*
X218721309Y-104376764D01*
X218510492Y-104356000D01*
X218369508Y-104356000D01*
X218158691Y-104376764D01*
X217888192Y-104458818D01*
X217638899Y-104592068D01*
X217420392Y-104771392D01*
X217241068Y-104989899D01*
X217107818Y-105239192D01*
X217025764Y-105509691D01*
X216998057Y-105791000D01*
X217025764Y-106072309D01*
X217107818Y-106342808D01*
X217241068Y-106592101D01*
X217420392Y-106810608D01*
X217638899Y-106989932D01*
X217888192Y-107123182D01*
X218158691Y-107205236D01*
X218369508Y-107226000D01*
X218510492Y-107226000D01*
X218721309Y-107205236D01*
X218991808Y-107123182D01*
X219241101Y-106989932D01*
X219459608Y-106810608D01*
X219638932Y-106592101D01*
X219710000Y-106459142D01*
X219781068Y-106592101D01*
X219960392Y-106810608D01*
X220178899Y-106989932D01*
X220428192Y-107123182D01*
X220698691Y-107205236D01*
X220909508Y-107226000D01*
X221050492Y-107226000D01*
X221261309Y-107205236D01*
X221531808Y-107123182D01*
X221781101Y-106989932D01*
X221999608Y-106810608D01*
X222178932Y-106592101D01*
X222250000Y-106459142D01*
X222321068Y-106592101D01*
X222500392Y-106810608D01*
X222718899Y-106989932D01*
X222968192Y-107123182D01*
X223238691Y-107205236D01*
X223449508Y-107226000D01*
X223590492Y-107226000D01*
X223801309Y-107205236D01*
X224071808Y-107123182D01*
X224321101Y-106989932D01*
X224539608Y-106810608D01*
X224718932Y-106592101D01*
X224790000Y-106459142D01*
X224861068Y-106592101D01*
X225040392Y-106810608D01*
X225258899Y-106989932D01*
X225508192Y-107123182D01*
X225778691Y-107205236D01*
X225989508Y-107226000D01*
X226130492Y-107226000D01*
X226341309Y-107205236D01*
X226611808Y-107123182D01*
X226861101Y-106989932D01*
X227079608Y-106810608D01*
X227258932Y-106592101D01*
X227330000Y-106459142D01*
X227401068Y-106592101D01*
X227580392Y-106810608D01*
X227798899Y-106989932D01*
X228048192Y-107123182D01*
X228318691Y-107205236D01*
X228529508Y-107226000D01*
X228670492Y-107226000D01*
X228881309Y-107205236D01*
X229151808Y-107123182D01*
X229401101Y-106989932D01*
X229619608Y-106810608D01*
X229798932Y-106592101D01*
X229870000Y-106459142D01*
X229941068Y-106592101D01*
X230120392Y-106810608D01*
X230338899Y-106989932D01*
X230588192Y-107123182D01*
X230858691Y-107205236D01*
X231069508Y-107226000D01*
X231210492Y-107226000D01*
X231421309Y-107205236D01*
X231691808Y-107123182D01*
X231941101Y-106989932D01*
X232159608Y-106810608D01*
X232338932Y-106592101D01*
X232410000Y-106459142D01*
X232481068Y-106592101D01*
X232660392Y-106810608D01*
X232878899Y-106989932D01*
X233128192Y-107123182D01*
X233398691Y-107205236D01*
X233609508Y-107226000D01*
X233750492Y-107226000D01*
X233961309Y-107205236D01*
X234231808Y-107123182D01*
X234481101Y-106989932D01*
X234699608Y-106810608D01*
X234878932Y-106592101D01*
X234950000Y-106459142D01*
X235021068Y-106592101D01*
X235200392Y-106810608D01*
X235418899Y-106989932D01*
X235668192Y-107123182D01*
X235938691Y-107205236D01*
X236149508Y-107226000D01*
X236290492Y-107226000D01*
X236501309Y-107205236D01*
X236771808Y-107123182D01*
X237021101Y-106989932D01*
X237239608Y-106810608D01*
X237418932Y-106592101D01*
X237552182Y-106342808D01*
X237634236Y-106072309D01*
X237661943Y-105791000D01*
X237634236Y-105509691D01*
X237628936Y-105492221D01*
X240684811Y-102436346D01*
X240714764Y-102411764D01*
X240812862Y-102292233D01*
X240885754Y-102155860D01*
X240891716Y-102136205D01*
X240930642Y-102007887D01*
X240939382Y-101919138D01*
X240942000Y-101892561D01*
X240942000Y-101892556D01*
X240945797Y-101854000D01*
X240942000Y-101815444D01*
X240942000Y-100897454D01*
X241002518Y-100915812D01*
X241127000Y-100928072D01*
X241141250Y-100925000D01*
X241300000Y-100766250D01*
X241300000Y-99392000D01*
X241554000Y-99392000D01*
X241554000Y-100766250D01*
X241712750Y-100925000D01*
X241727000Y-100928072D01*
X241851482Y-100915812D01*
X241971180Y-100879502D01*
X242081494Y-100820537D01*
X242178185Y-100741185D01*
X242257537Y-100644494D01*
X242316502Y-100534180D01*
X242352812Y-100414482D01*
X242365072Y-100290000D01*
X242362000Y-99550750D01*
X242203250Y-99392000D01*
X241554000Y-99392000D01*
X241300000Y-99392000D01*
X241280000Y-99392000D01*
X241280000Y-99138000D01*
X241300000Y-99138000D01*
X241300000Y-97763750D01*
X241554000Y-97763750D01*
X241554000Y-99138000D01*
X242203250Y-99138000D01*
X242362000Y-98979250D01*
X242365072Y-98240000D01*
X242352812Y-98115518D01*
X242316502Y-97995820D01*
X242257537Y-97885506D01*
X242178185Y-97788815D01*
X242081494Y-97709463D01*
X241971180Y-97650498D01*
X241851482Y-97614188D01*
X241727000Y-97601928D01*
X241712750Y-97605000D01*
X241554000Y-97763750D01*
X241300000Y-97763750D01*
X241141250Y-97605000D01*
X241127000Y-97601928D01*
X241002518Y-97614188D01*
X240882820Y-97650498D01*
X240772506Y-97709463D01*
X240742936Y-97733730D01*
X240608582Y-97661916D01*
X240460745Y-97617071D01*
X240307000Y-97601928D01*
X240007000Y-97601928D01*
X239853255Y-97617071D01*
X239705418Y-97661916D01*
X239569171Y-97734742D01*
X239522000Y-97773454D01*
X239474829Y-97734742D01*
X239338582Y-97661916D01*
X239190745Y-97617071D01*
X239037000Y-97601928D01*
X238737000Y-97601928D01*
X238583255Y-97617071D01*
X238435418Y-97661916D01*
X238299171Y-97734742D01*
X238252000Y-97773454D01*
X238204829Y-97734742D01*
X238068582Y-97661916D01*
X237920745Y-97617071D01*
X237767000Y-97601928D01*
X237467000Y-97601928D01*
X237313255Y-97617071D01*
X237165418Y-97661916D01*
X237029171Y-97734742D01*
X236982000Y-97773454D01*
X236934829Y-97734742D01*
X236798582Y-97661916D01*
X236650745Y-97617071D01*
X236497000Y-97601928D01*
X236197000Y-97601928D01*
X236043255Y-97617071D01*
X235895418Y-97661916D01*
X235759171Y-97734742D01*
X235712000Y-97773454D01*
X235664829Y-97734742D01*
X235528582Y-97661916D01*
X235380745Y-97617071D01*
X235227000Y-97601928D01*
X234927000Y-97601928D01*
X234773255Y-97617071D01*
X234625418Y-97661916D01*
X234489171Y-97734742D01*
X234442000Y-97773454D01*
X234394829Y-97734742D01*
X234258582Y-97661916D01*
X234110745Y-97617071D01*
X233957000Y-97601928D01*
X233657000Y-97601928D01*
X233503255Y-97617071D01*
X233355418Y-97661916D01*
X233219171Y-97734742D01*
X233172000Y-97773454D01*
X233124829Y-97734742D01*
X232988582Y-97661916D01*
X232840745Y-97617071D01*
X232687000Y-97601928D01*
X232387000Y-97601928D01*
X232233255Y-97617071D01*
X232085418Y-97661916D01*
X231949171Y-97734742D01*
X231902000Y-97773454D01*
X231854829Y-97734742D01*
X231718582Y-97661916D01*
X231570745Y-97617071D01*
X231417000Y-97601928D01*
X231117000Y-97601928D01*
X230963255Y-97617071D01*
X230815418Y-97661916D01*
X230679171Y-97734742D01*
X230632000Y-97773454D01*
X230584829Y-97734742D01*
X230448582Y-97661916D01*
X230300745Y-97617071D01*
X230147000Y-97601928D01*
X229847000Y-97601928D01*
X229693255Y-97617071D01*
X229545418Y-97661916D01*
X229409171Y-97734742D01*
X229289749Y-97832749D01*
X229191742Y-97952171D01*
X229118916Y-98088418D01*
X229074071Y-98236255D01*
X229058928Y-98390000D01*
X229058928Y-100140000D01*
X229074071Y-100293745D01*
X229118916Y-100441582D01*
X229191742Y-100577829D01*
X229289749Y-100697251D01*
X229409171Y-100795258D01*
X229545418Y-100868084D01*
X229693255Y-100912929D01*
X229847000Y-100928072D01*
X230147000Y-100928072D01*
X230272344Y-100915726D01*
X230271774Y-100917102D01*
X230232000Y-101117061D01*
X230232000Y-101320939D01*
X230271774Y-101520898D01*
X230349795Y-101709256D01*
X230463063Y-101878774D01*
X230607226Y-102022937D01*
X230776744Y-102136205D01*
X230965102Y-102214226D01*
X231165061Y-102254000D01*
X231368939Y-102254000D01*
X231568898Y-102214226D01*
X231610794Y-102196872D01*
X231618844Y-102216305D01*
X231712166Y-102355971D01*
X228041465Y-102355971D01*
X228002909Y-102352174D01*
X227964353Y-102355971D01*
X227964348Y-102355971D01*
X227923935Y-102359951D01*
X227849022Y-102367329D01*
X227702542Y-102411764D01*
X227701049Y-102412217D01*
X227564676Y-102485109D01*
X227445145Y-102583207D01*
X227420564Y-102613159D01*
X226424723Y-103609000D01*
X225704072Y-103609000D01*
X225704072Y-101225000D01*
X225691812Y-101100518D01*
X225655502Y-100980820D01*
X225596537Y-100870506D01*
X225517185Y-100773815D01*
X225420494Y-100694463D01*
X225310180Y-100635498D01*
X225190482Y-100599188D01*
X225066000Y-100586928D01*
X221466000Y-100586928D01*
X221341518Y-100599188D01*
X221221820Y-100635498D01*
X221111506Y-100694463D01*
X221014815Y-100773815D01*
X220935463Y-100870506D01*
X220876498Y-100980820D01*
X220840188Y-101100518D01*
X220827928Y-101225000D01*
X220827928Y-101790000D01*
X217697157Y-101790000D01*
X216534420Y-100627263D01*
X216581502Y-100539180D01*
X216617812Y-100419482D01*
X216630072Y-100295000D01*
X216630072Y-99095000D01*
X216617812Y-98970518D01*
X216581502Y-98850820D01*
X216522537Y-98740506D01*
X216509419Y-98724522D01*
X216579540Y-98555236D01*
X216627000Y-98316637D01*
X216627000Y-98073363D01*
X216579540Y-97834764D01*
X216486443Y-97610008D01*
X216351287Y-97407733D01*
X216217723Y-97274169D01*
X216309205Y-97137256D01*
X216387226Y-96948898D01*
X216427000Y-96748939D01*
X216427000Y-96545061D01*
X216411865Y-96468973D01*
X216471792Y-96419792D01*
X216581458Y-96286164D01*
X216662947Y-96133709D01*
X216713128Y-95968285D01*
X216730072Y-95796250D01*
X216730072Y-95308750D01*
X216713128Y-95136715D01*
X216662947Y-94971291D01*
X216581458Y-94818836D01*
X216471792Y-94685208D01*
X216386244Y-94615000D01*
X216471792Y-94544792D01*
X216581458Y-94411164D01*
X216662947Y-94258709D01*
X216713128Y-94093285D01*
X216730072Y-93921250D01*
X216730072Y-93433750D01*
X216713128Y-93261715D01*
X216662947Y-93096291D01*
X216581458Y-92943836D01*
X216471792Y-92810208D01*
X216338164Y-92700542D01*
X216185709Y-92619053D01*
X216020285Y-92568872D01*
X215848250Y-92551928D01*
X215376586Y-92551928D01*
X215193415Y-92368758D01*
X215206072Y-92240250D01*
X215206072Y-91752750D01*
X215189128Y-91580715D01*
X215138947Y-91415291D01*
X215057458Y-91262836D01*
X214947792Y-91129208D01*
X214941436Y-91123992D01*
X215019185Y-91060185D01*
X215098537Y-90963494D01*
X215157502Y-90853180D01*
X215193812Y-90733482D01*
X215206072Y-90609000D01*
X215203000Y-90407250D01*
X215044250Y-90248500D01*
X213995000Y-90248500D01*
X213995000Y-90268500D01*
X213741000Y-90268500D01*
X213741000Y-90248500D01*
X213721000Y-90248500D01*
X213721000Y-89994500D01*
X213741000Y-89994500D01*
X213741000Y-89157750D01*
X213995000Y-89157750D01*
X213995000Y-89994500D01*
X215044250Y-89994500D01*
X215203000Y-89835750D01*
X215206072Y-89634000D01*
X215193812Y-89509518D01*
X215157502Y-89389820D01*
X215098537Y-89279506D01*
X215019185Y-89182815D01*
X214922494Y-89103463D01*
X214812180Y-89044498D01*
X214692482Y-89008188D01*
X214568000Y-88995928D01*
X214153750Y-88999000D01*
X213995000Y-89157750D01*
X213741000Y-89157750D01*
X213582250Y-88999000D01*
X213168000Y-88995928D01*
X213043518Y-89008188D01*
X212923820Y-89044498D01*
X212813506Y-89103463D01*
X212770832Y-89138485D01*
X212629709Y-89063053D01*
X212621000Y-89060411D01*
X212621000Y-88875512D01*
X216237783Y-88875512D01*
X216279213Y-89155130D01*
X216374397Y-89421292D01*
X216439616Y-89543309D01*
X216426815Y-89553815D01*
X216347463Y-89650506D01*
X216288498Y-89760820D01*
X216252188Y-89880518D01*
X216239928Y-90005000D01*
X216239928Y-91605000D01*
X216252188Y-91729482D01*
X216288498Y-91849180D01*
X216347463Y-91959494D01*
X216426815Y-92056185D01*
X216523506Y-92135537D01*
X216633820Y-92194502D01*
X216753518Y-92230812D01*
X216878000Y-92243072D01*
X216968602Y-92243072D01*
X217022138Y-92343232D01*
X217120236Y-92462764D01*
X217150190Y-92487347D01*
X219465658Y-94802816D01*
X219490236Y-94832764D01*
X219520184Y-94857342D01*
X219520187Y-94857345D01*
X219549559Y-94881450D01*
X219609767Y-94930862D01*
X219744959Y-95003123D01*
X219746140Y-95003754D01*
X219894112Y-95048641D01*
X219908490Y-95050057D01*
X220009439Y-95060000D01*
X220009446Y-95060000D01*
X220047999Y-95063797D01*
X220086552Y-95060000D01*
X220827928Y-95060000D01*
X220827928Y-95625000D01*
X220840188Y-95749482D01*
X220876498Y-95869180D01*
X220935463Y-95979494D01*
X221014815Y-96076185D01*
X221111506Y-96155537D01*
X221221820Y-96214502D01*
X221341518Y-96250812D01*
X221466000Y-96263072D01*
X222261829Y-96263072D01*
X222231000Y-96418061D01*
X222231000Y-96621939D01*
X222270774Y-96821898D01*
X222348795Y-97010256D01*
X222462063Y-97179774D01*
X222606226Y-97323937D01*
X222775744Y-97437205D01*
X222964102Y-97515226D01*
X223164061Y-97555000D01*
X223367939Y-97555000D01*
X223567898Y-97515226D01*
X223756256Y-97437205D01*
X223925774Y-97323937D01*
X224069937Y-97179774D01*
X224183205Y-97010256D01*
X224261226Y-96821898D01*
X224301000Y-96621939D01*
X224301000Y-96418061D01*
X224270171Y-96263072D01*
X225066000Y-96263072D01*
X225190482Y-96250812D01*
X225310180Y-96214502D01*
X225420494Y-96155537D01*
X225517185Y-96076185D01*
X225596537Y-95979494D01*
X225655502Y-95869180D01*
X225691812Y-95749482D01*
X225704072Y-95625000D01*
X225704072Y-92925000D01*
X225691812Y-92800518D01*
X225655502Y-92680820D01*
X225596537Y-92570506D01*
X225517185Y-92473815D01*
X225420494Y-92394463D01*
X225310180Y-92335498D01*
X225190482Y-92299188D01*
X225066000Y-92286928D01*
X221466000Y-92286928D01*
X221341518Y-92299188D01*
X221221820Y-92335498D01*
X221111506Y-92394463D01*
X221014815Y-92473815D01*
X220935463Y-92570506D01*
X220876498Y-92680820D01*
X220840188Y-92800518D01*
X220827928Y-92925000D01*
X220827928Y-93490000D01*
X220373158Y-93490000D01*
X218933763Y-92050606D01*
X219008537Y-91959494D01*
X219067502Y-91849180D01*
X219103812Y-91729482D01*
X219116072Y-91605000D01*
X219116072Y-90005000D01*
X219103812Y-89880518D01*
X219067502Y-89760820D01*
X219008537Y-89650506D01*
X218929185Y-89553815D01*
X218916242Y-89543193D01*
X219035571Y-89291004D01*
X219104300Y-89016816D01*
X219118217Y-88734488D01*
X219076787Y-88454870D01*
X218981603Y-88188708D01*
X218914671Y-88063486D01*
X218670702Y-87991903D01*
X217857605Y-88805000D01*
X217871748Y-88819143D01*
X217692143Y-88998748D01*
X217678000Y-88984605D01*
X217663858Y-88998748D01*
X217484253Y-88819143D01*
X217498395Y-88805000D01*
X216685298Y-87991903D01*
X216441329Y-88063486D01*
X216320429Y-88318996D01*
X216251700Y-88593184D01*
X216237783Y-88875512D01*
X212621000Y-88875512D01*
X212621000Y-87812298D01*
X216864903Y-87812298D01*
X217678000Y-88625395D01*
X218491097Y-87812298D01*
X218419514Y-87568329D01*
X218164004Y-87447429D01*
X217889816Y-87378700D01*
X217607488Y-87364783D01*
X217327870Y-87406213D01*
X217061708Y-87501397D01*
X216936486Y-87568329D01*
X216864903Y-87812298D01*
X212621000Y-87812298D01*
X212621000Y-86926339D01*
X212750759Y-86839637D01*
X212872694Y-86717702D01*
X216022903Y-86717702D01*
X216094486Y-86961671D01*
X216349996Y-87082571D01*
X216624184Y-87151300D01*
X216906512Y-87165217D01*
X217186130Y-87123787D01*
X217452292Y-87028603D01*
X217577514Y-86961671D01*
X217612071Y-86843891D01*
X222078519Y-86843891D01*
X222175843Y-87118252D01*
X222324822Y-87368355D01*
X222519731Y-87584588D01*
X222753080Y-87758641D01*
X223015901Y-87883825D01*
X223163110Y-87928476D01*
X223393000Y-87807155D01*
X223393000Y-86614000D01*
X222199186Y-86614000D01*
X222078519Y-86843891D01*
X217612071Y-86843891D01*
X217649097Y-86717702D01*
X216836000Y-85904605D01*
X216022903Y-86717702D01*
X212872694Y-86717702D01*
X212950637Y-86639759D01*
X213107680Y-86404727D01*
X213215853Y-86143574D01*
X213271000Y-85866335D01*
X213271000Y-85795512D01*
X215395783Y-85795512D01*
X215437213Y-86075130D01*
X215532397Y-86341292D01*
X215599329Y-86466514D01*
X215843298Y-86538097D01*
X216656395Y-85725000D01*
X217015605Y-85725000D01*
X217828702Y-86538097D01*
X218072671Y-86466514D01*
X218193571Y-86211004D01*
X218213848Y-86130109D01*
X222078519Y-86130109D01*
X222199186Y-86360000D01*
X223393000Y-86360000D01*
X223393000Y-85166845D01*
X223647000Y-85166845D01*
X223647000Y-86360000D01*
X223667000Y-86360000D01*
X223667000Y-86614000D01*
X223647000Y-86614000D01*
X223647000Y-87807155D01*
X223876890Y-87928476D01*
X224024099Y-87883825D01*
X224286920Y-87758641D01*
X224520269Y-87584588D01*
X224715178Y-87368355D01*
X224784799Y-87251477D01*
X224819294Y-87316014D01*
X225004866Y-87542134D01*
X225230986Y-87727706D01*
X225488966Y-87865599D01*
X225768889Y-87950513D01*
X225987050Y-87972000D01*
X226132950Y-87972000D01*
X226351111Y-87950513D01*
X226631034Y-87865599D01*
X226889014Y-87727706D01*
X227115134Y-87542134D01*
X227300706Y-87316014D01*
X227324232Y-87272000D01*
X227335768Y-87272000D01*
X227359294Y-87316014D01*
X227544866Y-87542134D01*
X227770986Y-87727706D01*
X228028966Y-87865599D01*
X228308889Y-87950513D01*
X228393195Y-87958816D01*
X228303746Y-88032226D01*
X228279163Y-88062180D01*
X227853415Y-88487928D01*
X227381750Y-88487928D01*
X227209715Y-88504872D01*
X227044291Y-88555053D01*
X226891836Y-88636542D01*
X226758208Y-88746208D01*
X226648542Y-88879836D01*
X226567053Y-89032291D01*
X226516872Y-89197715D01*
X226499928Y-89369750D01*
X226499928Y-89857250D01*
X226516872Y-90029285D01*
X226567053Y-90194709D01*
X226648542Y-90347164D01*
X226758208Y-90480792D01*
X226843756Y-90551000D01*
X226758208Y-90621208D01*
X226648542Y-90754836D01*
X226567053Y-90907291D01*
X226516872Y-91072715D01*
X226499928Y-91244750D01*
X226499928Y-91732250D01*
X226516872Y-91904285D01*
X226567053Y-92069709D01*
X226648542Y-92222164D01*
X226758208Y-92355792D01*
X226891836Y-92465458D01*
X227044291Y-92546947D01*
X227209715Y-92597128D01*
X227381750Y-92614072D01*
X227853415Y-92614072D01*
X228338154Y-93098811D01*
X228362737Y-93128765D01*
X228482268Y-93226863D01*
X228618641Y-93299755D01*
X228766614Y-93344643D01*
X228841527Y-93352021D01*
X228881940Y-93356001D01*
X228881945Y-93356001D01*
X228920501Y-93359798D01*
X228959057Y-93356001D01*
X232858448Y-93356001D01*
X232897001Y-93359798D01*
X232935554Y-93356001D01*
X232935562Y-93356001D01*
X233050888Y-93344642D01*
X233198861Y-93299755D01*
X233335234Y-93226863D01*
X233454765Y-93128765D01*
X233479348Y-93098811D01*
X234334817Y-92243343D01*
X234364764Y-92218766D01*
X234462862Y-92099235D01*
X234535754Y-91962862D01*
X234546714Y-91926732D01*
X234580642Y-91814889D01*
X234588020Y-91739976D01*
X234592000Y-91699563D01*
X234592000Y-91699558D01*
X234595797Y-91661002D01*
X234592000Y-91622447D01*
X234592000Y-91550222D01*
X234625418Y-91568084D01*
X234773255Y-91612929D01*
X234927000Y-91628072D01*
X235227000Y-91628072D01*
X235380745Y-91612929D01*
X235528582Y-91568084D01*
X235664829Y-91495258D01*
X235712000Y-91456546D01*
X235759171Y-91495258D01*
X235895418Y-91568084D01*
X236043255Y-91612929D01*
X236197000Y-91628072D01*
X236497000Y-91628072D01*
X236650745Y-91612929D01*
X236798582Y-91568084D01*
X236934829Y-91495258D01*
X236982000Y-91456546D01*
X237029171Y-91495258D01*
X237165418Y-91568084D01*
X237313255Y-91612929D01*
X237467000Y-91628072D01*
X237767000Y-91628072D01*
X237920745Y-91612929D01*
X238068582Y-91568084D01*
X238204829Y-91495258D01*
X238252000Y-91456546D01*
X238299171Y-91495258D01*
X238435418Y-91568084D01*
X238583255Y-91612929D01*
X238737000Y-91628072D01*
X239037000Y-91628072D01*
X239190745Y-91612929D01*
X239338582Y-91568084D01*
X239474829Y-91495258D01*
X239522000Y-91456546D01*
X239569171Y-91495258D01*
X239705418Y-91568084D01*
X239853255Y-91612929D01*
X240007000Y-91628072D01*
X240307000Y-91628072D01*
X240460745Y-91612929D01*
X240608582Y-91568084D01*
X240744829Y-91495258D01*
X240792000Y-91456546D01*
X240839171Y-91495258D01*
X240975418Y-91568084D01*
X241123255Y-91612929D01*
X241277000Y-91628072D01*
X241577000Y-91628072D01*
X241730745Y-91612929D01*
X241878582Y-91568084D01*
X242014829Y-91495258D01*
X242134251Y-91397251D01*
X242232258Y-91277829D01*
X242305084Y-91141582D01*
X242349929Y-90993745D01*
X242365072Y-90840000D01*
X242365072Y-89090000D01*
X242349929Y-88936255D01*
X242305084Y-88788418D01*
X242232258Y-88652171D01*
X242134251Y-88532749D01*
X242014829Y-88434742D01*
X241878582Y-88361916D01*
X241730745Y-88317071D01*
X241577000Y-88301928D01*
X241277000Y-88301928D01*
X241123255Y-88317071D01*
X240975418Y-88361916D01*
X240839171Y-88434742D01*
X240792000Y-88473454D01*
X240744829Y-88434742D01*
X240608582Y-88361916D01*
X240460745Y-88317071D01*
X240307000Y-88301928D01*
X240007000Y-88301928D01*
X239853255Y-88317071D01*
X239705418Y-88361916D01*
X239569171Y-88434742D01*
X239522000Y-88473454D01*
X239474829Y-88434742D01*
X239338582Y-88361916D01*
X239190745Y-88317071D01*
X239037000Y-88301928D01*
X238737000Y-88301928D01*
X238583255Y-88317071D01*
X238435418Y-88361916D01*
X238299171Y-88434742D01*
X238252000Y-88473454D01*
X238204829Y-88434742D01*
X238068582Y-88361916D01*
X237920745Y-88317071D01*
X237767000Y-88301928D01*
X237467000Y-88301928D01*
X237313255Y-88317071D01*
X237165418Y-88361916D01*
X237029171Y-88434742D01*
X237023135Y-88439696D01*
X237002862Y-88401767D01*
X236953450Y-88341559D01*
X236929345Y-88312187D01*
X236929342Y-88312184D01*
X236904764Y-88282236D01*
X236874816Y-88257659D01*
X236179327Y-87562169D01*
X236154744Y-87532216D01*
X236035213Y-87434118D01*
X235898840Y-87361226D01*
X235750867Y-87316339D01*
X235635541Y-87304980D01*
X235635533Y-87304980D01*
X235596980Y-87301183D01*
X235558427Y-87304980D01*
X232628072Y-87304980D01*
X232628072Y-85637000D01*
X232615812Y-85512518D01*
X232579502Y-85392820D01*
X232520537Y-85282506D01*
X232441185Y-85185815D01*
X232344494Y-85106463D01*
X232234180Y-85047498D01*
X232114482Y-85011188D01*
X231990000Y-84998928D01*
X230290000Y-84998928D01*
X230165518Y-85011188D01*
X230045820Y-85047498D01*
X229935506Y-85106463D01*
X229838815Y-85185815D01*
X229759463Y-85282506D01*
X229700498Y-85392820D01*
X229679607Y-85461687D01*
X229655134Y-85431866D01*
X229429014Y-85246294D01*
X229171034Y-85108401D01*
X228891111Y-85023487D01*
X228672950Y-85002000D01*
X228527050Y-85002000D01*
X228308889Y-85023487D01*
X228028966Y-85108401D01*
X227770986Y-85246294D01*
X227544866Y-85431866D01*
X227359294Y-85657986D01*
X227335768Y-85702000D01*
X227324232Y-85702000D01*
X227300706Y-85657986D01*
X227115134Y-85431866D01*
X226889014Y-85246294D01*
X226631034Y-85108401D01*
X226351111Y-85023487D01*
X226132950Y-85002000D01*
X225987050Y-85002000D01*
X225768889Y-85023487D01*
X225488966Y-85108401D01*
X225230986Y-85246294D01*
X225004866Y-85431866D01*
X224819294Y-85657986D01*
X224784799Y-85722523D01*
X224715178Y-85605645D01*
X224520269Y-85389412D01*
X224286920Y-85215359D01*
X224024099Y-85090175D01*
X223876890Y-85045524D01*
X223647000Y-85166845D01*
X223393000Y-85166845D01*
X223163110Y-85045524D01*
X223015901Y-85090175D01*
X222753080Y-85215359D01*
X222519731Y-85389412D01*
X222324822Y-85605645D01*
X222175843Y-85855748D01*
X222078519Y-86130109D01*
X218213848Y-86130109D01*
X218262300Y-85936816D01*
X218276217Y-85654488D01*
X218234787Y-85374870D01*
X218139603Y-85108708D01*
X218072671Y-84983486D01*
X217828702Y-84911903D01*
X217015605Y-85725000D01*
X216656395Y-85725000D01*
X215843298Y-84911903D01*
X215599329Y-84983486D01*
X215478429Y-85238996D01*
X215409700Y-85513184D01*
X215395783Y-85795512D01*
X213271000Y-85795512D01*
X213271000Y-85583665D01*
X213215853Y-85306426D01*
X213107680Y-85045273D01*
X212950637Y-84810241D01*
X212872694Y-84732298D01*
X216022903Y-84732298D01*
X216836000Y-85545395D01*
X217649097Y-84732298D01*
X217577514Y-84488329D01*
X217322004Y-84367429D01*
X217047816Y-84298700D01*
X216765488Y-84284783D01*
X216485870Y-84326213D01*
X216219708Y-84421397D01*
X216094486Y-84488329D01*
X216022903Y-84732298D01*
X212872694Y-84732298D01*
X212750759Y-84610363D01*
X212515727Y-84453320D01*
X212254574Y-84345147D01*
X211977335Y-84290000D01*
X211694665Y-84290000D01*
X211417426Y-84345147D01*
X211156273Y-84453320D01*
X210921241Y-84610363D01*
X210721363Y-84810241D01*
X210564320Y-85045273D01*
X210456147Y-85306426D01*
X210401000Y-85583665D01*
X210401000Y-85866335D01*
X210456147Y-86143574D01*
X210564320Y-86404727D01*
X210721363Y-86639759D01*
X210921241Y-86839637D01*
X211051000Y-86926339D01*
X211051001Y-89060411D01*
X211042291Y-89063053D01*
X210889836Y-89144542D01*
X210756208Y-89254208D01*
X210646542Y-89387836D01*
X210565053Y-89540291D01*
X210514872Y-89705715D01*
X210497928Y-89877750D01*
X210497928Y-90365250D01*
X210514872Y-90537285D01*
X210565053Y-90702709D01*
X210646542Y-90855164D01*
X210756208Y-90988792D01*
X210841756Y-91059000D01*
X210756208Y-91129208D01*
X210646542Y-91262836D01*
X210565053Y-91415291D01*
X210514872Y-91580715D01*
X210497928Y-91752750D01*
X210497928Y-92240250D01*
X210514872Y-92412285D01*
X210565053Y-92577709D01*
X210585393Y-92615763D01*
X209918504Y-92615763D01*
X209872572Y-92611239D01*
X209689280Y-92629292D01*
X209635816Y-92645510D01*
X209513033Y-92682756D01*
X209350601Y-92769577D01*
X209208229Y-92886419D01*
X209178947Y-92922099D01*
X208033000Y-94068047D01*
X208033000Y-91677072D01*
X208768000Y-91677072D01*
X208892482Y-91664812D01*
X209012180Y-91628502D01*
X209122494Y-91569537D01*
X209219185Y-91490185D01*
X209298537Y-91393494D01*
X209357502Y-91283180D01*
X209393812Y-91163482D01*
X209406072Y-91039000D01*
X209406072Y-88539000D01*
X209393812Y-88414518D01*
X209357502Y-88294820D01*
X209298537Y-88184506D01*
X209219185Y-88087815D01*
X209122494Y-88008463D01*
X209012180Y-87949498D01*
X208892482Y-87913188D01*
X208768000Y-87900928D01*
X206268000Y-87900928D01*
X206143518Y-87913188D01*
X206023820Y-87949498D01*
X205913506Y-88008463D01*
X205816815Y-88087815D01*
X205737463Y-88184506D01*
X205678498Y-88294820D01*
X205642188Y-88414518D01*
X205629928Y-88539000D01*
X205629928Y-91039000D01*
X205642188Y-91163482D01*
X205678498Y-91283180D01*
X205737463Y-91393494D01*
X205816815Y-91490185D01*
X205913506Y-91569537D01*
X206023820Y-91628502D01*
X206143518Y-91664812D01*
X206268000Y-91677072D01*
X206463001Y-91677072D01*
X206463000Y-95518043D01*
X206443506Y-95528463D01*
X206346815Y-95607815D01*
X206267463Y-95704506D01*
X206208498Y-95814820D01*
X206172188Y-95934518D01*
X206159928Y-96059000D01*
X206159928Y-96570905D01*
X206149185Y-96557815D01*
X206052494Y-96478463D01*
X206033000Y-96468043D01*
X206033000Y-92557552D01*
X206036797Y-92518999D01*
X206033000Y-92480446D01*
X206033000Y-92480439D01*
X206021641Y-92365113D01*
X205976754Y-92217140D01*
X205903862Y-92080767D01*
X205848441Y-92013237D01*
X205830345Y-91991187D01*
X205830342Y-91991184D01*
X205805764Y-91961236D01*
X205775816Y-91936658D01*
X204285874Y-90446717D01*
X204330561Y-90338834D01*
X204403000Y-89974656D01*
X204403000Y-89603344D01*
X204330561Y-89239166D01*
X204188466Y-88896118D01*
X203982175Y-88587382D01*
X203719618Y-88324825D01*
X203410882Y-88118534D01*
X203067834Y-87976439D01*
X202703656Y-87904000D01*
X202332344Y-87904000D01*
X201968166Y-87976439D01*
X201625118Y-88118534D01*
X201316382Y-88324825D01*
X201053825Y-88587382D01*
X200847534Y-88896118D01*
X200705439Y-89239166D01*
X200633000Y-89603344D01*
X200633000Y-89974656D01*
X200705439Y-90338834D01*
X200847534Y-90681882D01*
X201053825Y-90990618D01*
X201316382Y-91253175D01*
X201625118Y-91459466D01*
X201968166Y-91601561D01*
X202332344Y-91674000D01*
X202703656Y-91674000D01*
X203067834Y-91601561D01*
X203175717Y-91556874D01*
X204463001Y-92844159D01*
X204463000Y-96468043D01*
X204443506Y-96478463D01*
X204346815Y-96557815D01*
X204267463Y-96654506D01*
X204208498Y-96764820D01*
X204172188Y-96884518D01*
X204159928Y-97009000D01*
X204159928Y-97809000D01*
X204172188Y-97933482D01*
X204208498Y-98053180D01*
X204267463Y-98163494D01*
X204346815Y-98260185D01*
X204443506Y-98339537D01*
X204553820Y-98398502D01*
X204673518Y-98434812D01*
X204798000Y-98447072D01*
X205698000Y-98447072D01*
X205822482Y-98434812D01*
X205942180Y-98398502D01*
X206052494Y-98339537D01*
X206149185Y-98260185D01*
X206159928Y-98247095D01*
X206159928Y-98336914D01*
X205527489Y-98969354D01*
X205376744Y-99031795D01*
X205207226Y-99145063D01*
X205063063Y-99289226D01*
X204949795Y-99458744D01*
X204871774Y-99647102D01*
X204832000Y-99847061D01*
X204832000Y-100050939D01*
X204871774Y-100250898D01*
X204949795Y-100439256D01*
X205063063Y-100608774D01*
X205207226Y-100752937D01*
X205376744Y-100866205D01*
X205565102Y-100944226D01*
X205765061Y-100984000D01*
X205968939Y-100984000D01*
X206168898Y-100944226D01*
X206357256Y-100866205D01*
X206526774Y-100752937D01*
X206583001Y-100696710D01*
X206583000Y-102755928D01*
X206518000Y-102755928D01*
X206393518Y-102768188D01*
X206273820Y-102804498D01*
X206163506Y-102863463D01*
X206066815Y-102942815D01*
X205987463Y-103039506D01*
X205928498Y-103149820D01*
X205892188Y-103269518D01*
X205879928Y-103394000D01*
X205879928Y-104073386D01*
X204984264Y-104969051D01*
X204931420Y-105012419D01*
X204888051Y-105065264D01*
X204888048Y-105065267D01*
X204758344Y-105223312D01*
X204629736Y-105463920D01*
X204550540Y-105724993D01*
X204523800Y-105996500D01*
X204530501Y-106064539D01*
X204530500Y-108175319D01*
X204312007Y-108109040D01*
X204170058Y-108095059D01*
X204176072Y-108034000D01*
X204173000Y-107219750D01*
X204014250Y-107061000D01*
X202565000Y-107061000D01*
X202565000Y-107081000D01*
X202311000Y-107081000D01*
X202311000Y-107061000D01*
X200861750Y-107061000D01*
X200787718Y-107135033D01*
X200347873Y-106695188D01*
X200337895Y-106593881D01*
X200238686Y-106266832D01*
X200077579Y-105965422D01*
X199969724Y-105834000D01*
X200699928Y-105834000D01*
X200703000Y-106648250D01*
X200861750Y-106807000D01*
X202311000Y-106807000D01*
X202311000Y-105357750D01*
X202565000Y-105357750D01*
X202565000Y-106807000D01*
X204014250Y-106807000D01*
X204173000Y-106648250D01*
X204176072Y-105834000D01*
X204163812Y-105709518D01*
X204127502Y-105589820D01*
X204068537Y-105479506D01*
X203989185Y-105382815D01*
X203892494Y-105303463D01*
X203782180Y-105244498D01*
X203662482Y-105208188D01*
X203538000Y-105195928D01*
X202723750Y-105199000D01*
X202565000Y-105357750D01*
X202311000Y-105357750D01*
X202152250Y-105199000D01*
X201338000Y-105195928D01*
X201213518Y-105208188D01*
X201093820Y-105244498D01*
X200983506Y-105303463D01*
X200886815Y-105382815D01*
X200807463Y-105479506D01*
X200748498Y-105589820D01*
X200712188Y-105709518D01*
X200699928Y-105834000D01*
X199969724Y-105834000D01*
X199860766Y-105701234D01*
X199596578Y-105484421D01*
X199295168Y-105323314D01*
X198968119Y-105224105D01*
X198713225Y-105199000D01*
X198542775Y-105199000D01*
X198287881Y-105224105D01*
X197960832Y-105323314D01*
X197659422Y-105484421D01*
X197395234Y-105701234D01*
X197178421Y-105965422D01*
X197017314Y-106266832D01*
X196918105Y-106593881D01*
X196884606Y-106934000D01*
X196896397Y-107053712D01*
X196556072Y-106713387D01*
X196556072Y-105834000D01*
X196543812Y-105709518D01*
X196507502Y-105589820D01*
X196448537Y-105479506D01*
X196369185Y-105382815D01*
X196272494Y-105303463D01*
X196162180Y-105244498D01*
X196042482Y-105208188D01*
X195918000Y-105195928D01*
X193718000Y-105195928D01*
X193593518Y-105208188D01*
X193473820Y-105244498D01*
X193363506Y-105303463D01*
X193266815Y-105382815D01*
X193187463Y-105479506D01*
X193128498Y-105589820D01*
X193092188Y-105709518D01*
X193079928Y-105834000D01*
X192339981Y-105834000D01*
X192192427Y-105666178D01*
X191922329Y-105459469D01*
X191617094Y-105309425D01*
X191404122Y-105244825D01*
X191135000Y-105362875D01*
X190881000Y-105362875D01*
X190611878Y-105244825D01*
X190398906Y-105309425D01*
X190093671Y-105459469D01*
X189823573Y-105666178D01*
X189598992Y-105921609D01*
X189428558Y-106215946D01*
X189318821Y-106537877D01*
X174167000Y-106537877D01*
X174167000Y-95674000D01*
X189269928Y-95674000D01*
X189269928Y-97874000D01*
X189282188Y-97998482D01*
X189318498Y-98118180D01*
X189377463Y-98228494D01*
X189456815Y-98325185D01*
X189553506Y-98404537D01*
X189663820Y-98463502D01*
X189783518Y-98499812D01*
X189908000Y-98512072D01*
X192108000Y-98512072D01*
X192232482Y-98499812D01*
X192352180Y-98463502D01*
X192462494Y-98404537D01*
X192559185Y-98325185D01*
X192638537Y-98228494D01*
X192697502Y-98118180D01*
X192733812Y-97998482D01*
X192746072Y-97874000D01*
X192746072Y-96994613D01*
X192913000Y-96827685D01*
X193098127Y-97012813D01*
X193108105Y-97114119D01*
X193207314Y-97441168D01*
X193368421Y-97742578D01*
X193585234Y-98006766D01*
X193849422Y-98223579D01*
X194150832Y-98384686D01*
X194477881Y-98483895D01*
X194732775Y-98509000D01*
X194903225Y-98509000D01*
X195158119Y-98483895D01*
X195485168Y-98384686D01*
X195786578Y-98223579D01*
X196050766Y-98006766D01*
X196267579Y-97742578D01*
X196428686Y-97441168D01*
X196527895Y-97114119D01*
X196561394Y-96774000D01*
X196550317Y-96661538D01*
X196586764Y-96691449D01*
X196889928Y-96994613D01*
X196889928Y-97874000D01*
X196902188Y-97998482D01*
X196938498Y-98118180D01*
X196997463Y-98228494D01*
X197076815Y-98325185D01*
X197173506Y-98404537D01*
X197283820Y-98463502D01*
X197403518Y-98499812D01*
X197528000Y-98512072D01*
X199728000Y-98512072D01*
X199852482Y-98499812D01*
X199972180Y-98463502D01*
X200082494Y-98404537D01*
X200179185Y-98325185D01*
X200258537Y-98228494D01*
X200317502Y-98118180D01*
X200353812Y-97998482D01*
X200366072Y-97874000D01*
X200366072Y-96660758D01*
X200718127Y-97012813D01*
X200728105Y-97114119D01*
X200827314Y-97441168D01*
X200988421Y-97742578D01*
X201205234Y-98006766D01*
X201469422Y-98223579D01*
X201770832Y-98384686D01*
X202097881Y-98483895D01*
X202352775Y-98509000D01*
X202523225Y-98509000D01*
X202778119Y-98483895D01*
X203105168Y-98384686D01*
X203406578Y-98223579D01*
X203670766Y-98006766D01*
X203887579Y-97742578D01*
X204048686Y-97441168D01*
X204147895Y-97114119D01*
X204181394Y-96774000D01*
X204147895Y-96433881D01*
X204048686Y-96106832D01*
X203887579Y-95805422D01*
X203670766Y-95541234D01*
X203406578Y-95324421D01*
X203105168Y-95163314D01*
X202778119Y-95064105D01*
X202676813Y-95054127D01*
X198903000Y-91280315D01*
X198903000Y-91069793D01*
X198982175Y-90990618D01*
X199188466Y-90681882D01*
X199330561Y-90338834D01*
X199403000Y-89974656D01*
X199403000Y-89603344D01*
X199330561Y-89239166D01*
X199188466Y-88896118D01*
X198982175Y-88587382D01*
X198719618Y-88324825D01*
X198410882Y-88118534D01*
X198067834Y-87976439D01*
X197703656Y-87904000D01*
X197332344Y-87904000D01*
X196968166Y-87976439D01*
X196625118Y-88118534D01*
X196316382Y-88324825D01*
X196053825Y-88587382D01*
X195847534Y-88896118D01*
X195705439Y-89239166D01*
X195633000Y-89603344D01*
X195633000Y-89974656D01*
X195705439Y-90338834D01*
X195847534Y-90681882D01*
X196053825Y-90990618D01*
X196133000Y-91069793D01*
X196133000Y-91785967D01*
X196126300Y-91854000D01*
X196133000Y-91922033D01*
X196133001Y-95595961D01*
X196129002Y-95636565D01*
X196050766Y-95541234D01*
X195786578Y-95324421D01*
X195485168Y-95163314D01*
X195158119Y-95064105D01*
X195056813Y-95054127D01*
X193903000Y-93900315D01*
X193903000Y-91069793D01*
X193982175Y-90990618D01*
X194188466Y-90681882D01*
X194330561Y-90338834D01*
X194403000Y-89974656D01*
X194403000Y-89603344D01*
X194330561Y-89239166D01*
X194188466Y-88896118D01*
X193982175Y-88587382D01*
X193719618Y-88324825D01*
X193410882Y-88118534D01*
X193067834Y-87976439D01*
X192703656Y-87904000D01*
X192332344Y-87904000D01*
X191968166Y-87976439D01*
X191625118Y-88118534D01*
X191316382Y-88324825D01*
X191053825Y-88587382D01*
X190847534Y-88896118D01*
X190705439Y-89239166D01*
X190633000Y-89603344D01*
X190633000Y-89974656D01*
X190705439Y-90338834D01*
X190847534Y-90681882D01*
X191053825Y-90990618D01*
X191133000Y-91069793D01*
X191133001Y-94405962D01*
X191126300Y-94474000D01*
X191133001Y-94542037D01*
X191133001Y-94690314D01*
X190787387Y-95035928D01*
X189908000Y-95035928D01*
X189783518Y-95048188D01*
X189663820Y-95084498D01*
X189553506Y-95143463D01*
X189456815Y-95222815D01*
X189377463Y-95319506D01*
X189318498Y-95429820D01*
X189282188Y-95549518D01*
X189269928Y-95674000D01*
X174167000Y-95674000D01*
X174167000Y-81995872D01*
X176247000Y-81995872D01*
X176247000Y-82436128D01*
X176332890Y-82867925D01*
X176501369Y-83274669D01*
X176745962Y-83640729D01*
X177057271Y-83952038D01*
X177423331Y-84196631D01*
X177830075Y-84365110D01*
X178261872Y-84451000D01*
X178702128Y-84451000D01*
X179133925Y-84365110D01*
X179540669Y-84196631D01*
X179906729Y-83952038D01*
X180218038Y-83640729D01*
X180462631Y-83274669D01*
X180631110Y-82867925D01*
X180717000Y-82436128D01*
X180717000Y-81995872D01*
X251247000Y-81995872D01*
X251247000Y-82436128D01*
X251332890Y-82867925D01*
X251501369Y-83274669D01*
X251745962Y-83640729D01*
X252057271Y-83952038D01*
X252423331Y-84196631D01*
X252830075Y-84365110D01*
X253261872Y-84451000D01*
X253702128Y-84451000D01*
X254133925Y-84365110D01*
X254540669Y-84196631D01*
X254906729Y-83952038D01*
X255218038Y-83640729D01*
X255462631Y-83274669D01*
X255631110Y-82867925D01*
X255717000Y-82436128D01*
X255717000Y-81995872D01*
X255631110Y-81564075D01*
X255462631Y-81157331D01*
X255218038Y-80791271D01*
X254906729Y-80479962D01*
X254540669Y-80235369D01*
X254133925Y-80066890D01*
X253702128Y-79981000D01*
X253261872Y-79981000D01*
X252830075Y-80066890D01*
X252423331Y-80235369D01*
X252057271Y-80479962D01*
X251745962Y-80791271D01*
X251501369Y-81157331D01*
X251332890Y-81564075D01*
X251247000Y-81995872D01*
X180717000Y-81995872D01*
X180631110Y-81564075D01*
X180462631Y-81157331D01*
X180218038Y-80791271D01*
X179906729Y-80479962D01*
X179540669Y-80235369D01*
X179133925Y-80066890D01*
X178702128Y-79981000D01*
X178261872Y-79981000D01*
X177830075Y-80066890D01*
X177423331Y-80235369D01*
X177057271Y-80479962D01*
X176745962Y-80791271D01*
X176501369Y-81157331D01*
X176332890Y-81564075D01*
X176247000Y-81995872D01*
X174167000Y-81995872D01*
X174167000Y-78522021D01*
X174235951Y-78424844D01*
X174450624Y-78184624D01*
X174690844Y-77969951D01*
X174788021Y-77901000D01*
X257175979Y-77901000D01*
X257273156Y-77969951D01*
G36*
X210280928Y-94563250D02*
G01*
X210297872Y-94735285D01*
X210348053Y-94900709D01*
X210429542Y-95053164D01*
X210516404Y-95159005D01*
X210514137Y-95161767D01*
X210441245Y-95298140D01*
X210432487Y-95327010D01*
X210364180Y-95290498D01*
X210244482Y-95254188D01*
X210120000Y-95241928D01*
X209795750Y-95245000D01*
X209637000Y-95403750D01*
X209637000Y-96078000D01*
X209657000Y-96078000D01*
X209657000Y-96191928D01*
X209363000Y-96191928D01*
X209363000Y-96078000D01*
X209383000Y-96078000D01*
X209383000Y-95403750D01*
X209362438Y-95383188D01*
X210259863Y-94485763D01*
X210280928Y-94485763D01*
X210280928Y-94563250D01*
X210280928Y-94563250D01*
G37*
X210280928Y-94563250D02*
X210297872Y-94735285D01*
X210348053Y-94900709D01*
X210429542Y-95053164D01*
X210516404Y-95159005D01*
X210514137Y-95161767D01*
X210441245Y-95298140D01*
X210432487Y-95327010D01*
X210364180Y-95290498D01*
X210244482Y-95254188D01*
X210120000Y-95241928D01*
X209795750Y-95245000D01*
X209637000Y-95403750D01*
X209637000Y-96078000D01*
X209657000Y-96078000D01*
X209657000Y-96191928D01*
X209363000Y-96191928D01*
X209363000Y-96078000D01*
X209383000Y-96078000D01*
X209383000Y-95403750D01*
X209362438Y-95383188D01*
X210259863Y-94485763D01*
X210280928Y-94485763D01*
X210280928Y-94563250D01*
M02*
