G04 #@! TF.GenerationSoftware,KiCad,Pcbnew,5.1.2*
G04 #@! TF.CreationDate,2019-06-23T15:04:07+01:00*
G04 #@! TF.ProjectId,garage_receiver,67617261-6765-45f7-9265-636569766572,rev?*
G04 #@! TF.SameCoordinates,Original*
G04 #@! TF.FileFunction,Soldermask,Bot*
G04 #@! TF.FilePolarity,Negative*
%FSLAX46Y46*%
G04 Gerber Fmt 4.6, Leading zero omitted, Abs format (unit mm)*
G04 Created by KiCad (PCBNEW 5.1.2) date 2019-06-23 15:04:07*
%MOMM*%
%LPD*%
G04 APERTURE LIST*
%ADD10C,0.100000*%
G04 APERTURE END LIST*
D10*
G36*
X252116239Y-112027467D02*
G01*
X252430282Y-112089934D01*
X253021926Y-112335001D01*
X253554392Y-112690784D01*
X254007216Y-113143608D01*
X254362999Y-113676074D01*
X254608066Y-114267718D01*
X254608066Y-114267719D01*
X254733000Y-114895803D01*
X254733000Y-115536197D01*
X254670533Y-115850239D01*
X254608066Y-116164282D01*
X254362999Y-116755926D01*
X254007216Y-117288392D01*
X253554392Y-117741216D01*
X253021926Y-118096999D01*
X252430282Y-118342066D01*
X252116239Y-118404533D01*
X251802197Y-118467000D01*
X251161803Y-118467000D01*
X250847761Y-118404533D01*
X250533718Y-118342066D01*
X249942074Y-118096999D01*
X249409608Y-117741216D01*
X248956784Y-117288392D01*
X248601001Y-116755926D01*
X248355934Y-116164282D01*
X248293467Y-115850239D01*
X248231000Y-115536197D01*
X248231000Y-114895803D01*
X248355934Y-114267719D01*
X248355934Y-114267718D01*
X248601001Y-113676074D01*
X248956784Y-113143608D01*
X249409608Y-112690784D01*
X249942074Y-112335001D01*
X250533718Y-112089934D01*
X250847761Y-112027467D01*
X251161803Y-111965000D01*
X251802197Y-111965000D01*
X252116239Y-112027467D01*
X252116239Y-112027467D01*
G37*
G36*
X181116239Y-112027467D02*
G01*
X181430282Y-112089934D01*
X182021926Y-112335001D01*
X182554392Y-112690784D01*
X183007216Y-113143608D01*
X183362999Y-113676074D01*
X183608066Y-114267718D01*
X183608066Y-114267719D01*
X183733000Y-114895803D01*
X183733000Y-115536197D01*
X183670533Y-115850239D01*
X183608066Y-116164282D01*
X183362999Y-116755926D01*
X183007216Y-117288392D01*
X182554392Y-117741216D01*
X182021926Y-118096999D01*
X181430282Y-118342066D01*
X181116239Y-118404533D01*
X180802197Y-118467000D01*
X180161803Y-118467000D01*
X179847761Y-118404533D01*
X179533718Y-118342066D01*
X178942074Y-118096999D01*
X178409608Y-117741216D01*
X177956784Y-117288392D01*
X177601001Y-116755926D01*
X177355934Y-116164282D01*
X177293467Y-115850239D01*
X177231000Y-115536197D01*
X177231000Y-114895803D01*
X177355934Y-114267719D01*
X177355934Y-114267718D01*
X177601001Y-113676074D01*
X177956784Y-113143608D01*
X178409608Y-112690784D01*
X178942074Y-112335001D01*
X179533718Y-112089934D01*
X179847761Y-112027467D01*
X180161803Y-111965000D01*
X180802197Y-111965000D01*
X181116239Y-112027467D01*
X181116239Y-112027467D01*
G37*
G36*
X201697271Y-108394103D02*
G01*
X201753635Y-108399654D01*
X201970600Y-108465470D01*
X201970602Y-108465471D01*
X202170555Y-108572347D01*
X202345818Y-108716182D01*
X202489653Y-108891445D01*
X202538496Y-108982825D01*
X202596530Y-109091400D01*
X202662346Y-109308365D01*
X202684569Y-109534000D01*
X202672683Y-109654686D01*
X202662346Y-109759634D01*
X202596529Y-109976602D01*
X202489653Y-110176555D01*
X202345818Y-110351818D01*
X202170555Y-110495653D01*
X201970602Y-110602529D01*
X201970600Y-110602530D01*
X201753635Y-110668346D01*
X201697271Y-110673897D01*
X201584545Y-110685000D01*
X201471455Y-110685000D01*
X201358729Y-110673897D01*
X201302365Y-110668346D01*
X201085400Y-110602530D01*
X201085398Y-110602529D01*
X200885445Y-110495653D01*
X200710182Y-110351818D01*
X200566347Y-110176555D01*
X200459471Y-109976602D01*
X200393654Y-109759634D01*
X200383318Y-109654686D01*
X200371431Y-109534000D01*
X200393654Y-109308365D01*
X200459470Y-109091400D01*
X200517504Y-108982825D01*
X200566347Y-108891445D01*
X200710182Y-108716182D01*
X200885445Y-108572347D01*
X201085398Y-108465471D01*
X201085400Y-108465470D01*
X201302365Y-108399654D01*
X201358729Y-108394103D01*
X201471455Y-108383000D01*
X201584545Y-108383000D01*
X201697271Y-108394103D01*
X201697271Y-108394103D01*
G37*
G36*
X194077271Y-108394103D02*
G01*
X194133635Y-108399654D01*
X194350600Y-108465470D01*
X194350602Y-108465471D01*
X194550555Y-108572347D01*
X194725818Y-108716182D01*
X194869653Y-108891445D01*
X194918496Y-108982825D01*
X194976530Y-109091400D01*
X195042346Y-109308365D01*
X195064569Y-109534000D01*
X195052683Y-109654686D01*
X195042346Y-109759634D01*
X194976529Y-109976602D01*
X194869653Y-110176555D01*
X194725818Y-110351818D01*
X194550555Y-110495653D01*
X194350602Y-110602529D01*
X194350600Y-110602530D01*
X194133635Y-110668346D01*
X194077271Y-110673897D01*
X193964545Y-110685000D01*
X193851455Y-110685000D01*
X193738729Y-110673897D01*
X193682365Y-110668346D01*
X193465400Y-110602530D01*
X193465398Y-110602529D01*
X193265445Y-110495653D01*
X193090182Y-110351818D01*
X192946347Y-110176555D01*
X192839471Y-109976602D01*
X192773654Y-109759634D01*
X192763318Y-109654686D01*
X192751431Y-109534000D01*
X192773654Y-109308365D01*
X192839470Y-109091400D01*
X192897504Y-108982825D01*
X192946347Y-108891445D01*
X193090182Y-108716182D01*
X193265445Y-108572347D01*
X193465398Y-108465471D01*
X193465400Y-108465470D01*
X193682365Y-108399654D01*
X193738729Y-108394103D01*
X193851455Y-108383000D01*
X193964545Y-108383000D01*
X194077271Y-108394103D01*
X194077271Y-108394103D01*
G37*
G36*
X198869000Y-110685000D02*
G01*
X196567000Y-110685000D01*
X196567000Y-108383000D01*
X198869000Y-108383000D01*
X198869000Y-110685000D01*
X198869000Y-110685000D01*
G37*
G36*
X206489000Y-110685000D02*
G01*
X204187000Y-110685000D01*
X204187000Y-108383000D01*
X206489000Y-108383000D01*
X206489000Y-110685000D01*
X206489000Y-110685000D01*
G37*
G36*
X239833000Y-109667000D02*
G01*
X238131000Y-109667000D01*
X238131000Y-107965000D01*
X239833000Y-107965000D01*
X239833000Y-109667000D01*
X239833000Y-109667000D01*
G37*
G36*
X231528823Y-107977313D02*
G01*
X231689242Y-108025976D01*
X231821906Y-108096886D01*
X231837078Y-108104996D01*
X231966659Y-108211341D01*
X232073004Y-108340922D01*
X232073005Y-108340924D01*
X232152024Y-108488758D01*
X232200687Y-108649177D01*
X232217117Y-108816000D01*
X232200687Y-108982823D01*
X232152024Y-109143242D01*
X232081114Y-109275906D01*
X232073004Y-109291078D01*
X231966659Y-109420659D01*
X231837078Y-109527004D01*
X231837076Y-109527005D01*
X231689242Y-109606024D01*
X231528823Y-109654687D01*
X231403804Y-109667000D01*
X231320196Y-109667000D01*
X231195177Y-109654687D01*
X231034758Y-109606024D01*
X230886924Y-109527005D01*
X230886922Y-109527004D01*
X230757341Y-109420659D01*
X230650996Y-109291078D01*
X230642886Y-109275906D01*
X230571976Y-109143242D01*
X230523313Y-108982823D01*
X230506883Y-108816000D01*
X230523313Y-108649177D01*
X230571976Y-108488758D01*
X230650995Y-108340924D01*
X230650996Y-108340922D01*
X230757341Y-108211341D01*
X230886922Y-108104996D01*
X230902094Y-108096886D01*
X231034758Y-108025976D01*
X231195177Y-107977313D01*
X231320196Y-107965000D01*
X231403804Y-107965000D01*
X231528823Y-107977313D01*
X231528823Y-107977313D01*
G37*
G36*
X239148823Y-105437313D02*
G01*
X239309242Y-105485976D01*
X239441906Y-105556886D01*
X239457078Y-105564996D01*
X239586659Y-105671341D01*
X239693004Y-105800922D01*
X239693005Y-105800924D01*
X239772024Y-105948758D01*
X239820687Y-106109177D01*
X239837117Y-106276000D01*
X239820687Y-106442823D01*
X239772024Y-106603242D01*
X239701114Y-106735906D01*
X239693004Y-106751078D01*
X239586659Y-106880659D01*
X239457078Y-106987004D01*
X239457076Y-106987005D01*
X239309242Y-107066024D01*
X239148823Y-107114687D01*
X239023804Y-107127000D01*
X238940196Y-107127000D01*
X238815177Y-107114687D01*
X238654758Y-107066024D01*
X238506924Y-106987005D01*
X238506922Y-106987004D01*
X238377341Y-106880659D01*
X238270996Y-106751078D01*
X238262886Y-106735906D01*
X238191976Y-106603242D01*
X238143313Y-106442823D01*
X238126883Y-106276000D01*
X238143313Y-106109177D01*
X238191976Y-105948758D01*
X238270995Y-105800924D01*
X238270996Y-105800922D01*
X238377341Y-105671341D01*
X238506922Y-105564996D01*
X238522094Y-105556886D01*
X238654758Y-105485976D01*
X238815177Y-105437313D01*
X238940196Y-105425000D01*
X239023804Y-105425000D01*
X239148823Y-105437313D01*
X239148823Y-105437313D01*
G37*
G36*
X231528823Y-105437313D02*
G01*
X231689242Y-105485976D01*
X231821906Y-105556886D01*
X231837078Y-105564996D01*
X231966659Y-105671341D01*
X232073004Y-105800922D01*
X232073005Y-105800924D01*
X232152024Y-105948758D01*
X232200687Y-106109177D01*
X232217117Y-106276000D01*
X232200687Y-106442823D01*
X232152024Y-106603242D01*
X232081114Y-106735906D01*
X232073004Y-106751078D01*
X231966659Y-106880659D01*
X231837078Y-106987004D01*
X231837076Y-106987005D01*
X231689242Y-107066024D01*
X231528823Y-107114687D01*
X231403804Y-107127000D01*
X231320196Y-107127000D01*
X231195177Y-107114687D01*
X231034758Y-107066024D01*
X230886924Y-106987005D01*
X230886922Y-106987004D01*
X230757341Y-106880659D01*
X230650996Y-106751078D01*
X230642886Y-106735906D01*
X230571976Y-106603242D01*
X230523313Y-106442823D01*
X230506883Y-106276000D01*
X230523313Y-106109177D01*
X230571976Y-105948758D01*
X230650995Y-105800924D01*
X230650996Y-105800922D01*
X230757341Y-105671341D01*
X230886922Y-105564996D01*
X230902094Y-105556886D01*
X231034758Y-105485976D01*
X231195177Y-105437313D01*
X231320196Y-105425000D01*
X231403804Y-105425000D01*
X231528823Y-105437313D01*
X231528823Y-105437313D01*
G37*
G36*
X213433000Y-106667000D02*
G01*
X211331000Y-106667000D01*
X211331000Y-104565000D01*
X213433000Y-104565000D01*
X213433000Y-106667000D01*
X213433000Y-106667000D01*
G37*
G36*
X239148823Y-102897313D02*
G01*
X239309242Y-102945976D01*
X239441906Y-103016886D01*
X239457078Y-103024996D01*
X239586659Y-103131341D01*
X239693004Y-103260922D01*
X239693005Y-103260924D01*
X239772024Y-103408758D01*
X239820687Y-103569177D01*
X239837117Y-103736000D01*
X239820687Y-103902823D01*
X239772024Y-104063242D01*
X239701114Y-104195906D01*
X239693004Y-104211078D01*
X239586659Y-104340659D01*
X239457078Y-104447004D01*
X239457076Y-104447005D01*
X239309242Y-104526024D01*
X239148823Y-104574687D01*
X239023804Y-104587000D01*
X238940196Y-104587000D01*
X238815177Y-104574687D01*
X238654758Y-104526024D01*
X238506924Y-104447005D01*
X238506922Y-104447004D01*
X238377341Y-104340659D01*
X238270996Y-104211078D01*
X238262886Y-104195906D01*
X238191976Y-104063242D01*
X238143313Y-103902823D01*
X238126883Y-103736000D01*
X238143313Y-103569177D01*
X238191976Y-103408758D01*
X238270995Y-103260924D01*
X238270996Y-103260922D01*
X238377341Y-103131341D01*
X238506922Y-103024996D01*
X238522094Y-103016886D01*
X238654758Y-102945976D01*
X238815177Y-102897313D01*
X238940196Y-102885000D01*
X239023804Y-102885000D01*
X239148823Y-102897313D01*
X239148823Y-102897313D01*
G37*
G36*
X231528823Y-102897313D02*
G01*
X231689242Y-102945976D01*
X231821906Y-103016886D01*
X231837078Y-103024996D01*
X231966659Y-103131341D01*
X232073004Y-103260922D01*
X232073005Y-103260924D01*
X232152024Y-103408758D01*
X232200687Y-103569177D01*
X232217117Y-103736000D01*
X232200687Y-103902823D01*
X232152024Y-104063242D01*
X232081114Y-104195906D01*
X232073004Y-104211078D01*
X231966659Y-104340659D01*
X231837078Y-104447004D01*
X231837076Y-104447005D01*
X231689242Y-104526024D01*
X231528823Y-104574687D01*
X231403804Y-104587000D01*
X231320196Y-104587000D01*
X231195177Y-104574687D01*
X231034758Y-104526024D01*
X230886924Y-104447005D01*
X230886922Y-104447004D01*
X230757341Y-104340659D01*
X230650996Y-104211078D01*
X230642886Y-104195906D01*
X230571976Y-104063242D01*
X230523313Y-103902823D01*
X230506883Y-103736000D01*
X230523313Y-103569177D01*
X230571976Y-103408758D01*
X230650995Y-103260924D01*
X230650996Y-103260922D01*
X230757341Y-103131341D01*
X230886922Y-103024996D01*
X230902094Y-103016886D01*
X231034758Y-102945976D01*
X231195177Y-102897313D01*
X231320196Y-102885000D01*
X231403804Y-102885000D01*
X231528823Y-102897313D01*
X231528823Y-102897313D01*
G37*
G36*
X231528823Y-100357313D02*
G01*
X231689242Y-100405976D01*
X231821906Y-100476886D01*
X231837078Y-100484996D01*
X231966659Y-100591341D01*
X232073004Y-100720922D01*
X232073005Y-100720924D01*
X232152024Y-100868758D01*
X232200687Y-101029177D01*
X232217117Y-101196000D01*
X232200687Y-101362823D01*
X232152024Y-101523242D01*
X232096772Y-101626611D01*
X232073004Y-101671078D01*
X231966659Y-101800659D01*
X231837078Y-101907004D01*
X231837076Y-101907005D01*
X231689242Y-101986024D01*
X231528823Y-102034687D01*
X231403804Y-102047000D01*
X231320196Y-102047000D01*
X231195177Y-102034687D01*
X231034758Y-101986024D01*
X230886924Y-101907005D01*
X230886922Y-101907004D01*
X230757341Y-101800659D01*
X230650996Y-101671078D01*
X230627228Y-101626611D01*
X230571976Y-101523242D01*
X230523313Y-101362823D01*
X230506883Y-101196000D01*
X230523313Y-101029177D01*
X230571976Y-100868758D01*
X230650995Y-100720924D01*
X230650996Y-100720922D01*
X230757341Y-100591341D01*
X230886922Y-100484996D01*
X230902094Y-100476886D01*
X231034758Y-100405976D01*
X231195177Y-100357313D01*
X231320196Y-100345000D01*
X231403804Y-100345000D01*
X231528823Y-100357313D01*
X231528823Y-100357313D01*
G37*
G36*
X239148823Y-100357313D02*
G01*
X239309242Y-100405976D01*
X239441906Y-100476886D01*
X239457078Y-100484996D01*
X239586659Y-100591341D01*
X239693004Y-100720922D01*
X239693005Y-100720924D01*
X239772024Y-100868758D01*
X239820687Y-101029177D01*
X239837117Y-101196000D01*
X239820687Y-101362823D01*
X239772024Y-101523242D01*
X239716772Y-101626611D01*
X239693004Y-101671078D01*
X239586659Y-101800659D01*
X239457078Y-101907004D01*
X239457076Y-101907005D01*
X239309242Y-101986024D01*
X239148823Y-102034687D01*
X239023804Y-102047000D01*
X238940196Y-102047000D01*
X238815177Y-102034687D01*
X238654758Y-101986024D01*
X238506924Y-101907005D01*
X238506922Y-101907004D01*
X238377341Y-101800659D01*
X238270996Y-101671078D01*
X238247228Y-101626611D01*
X238191976Y-101523242D01*
X238143313Y-101362823D01*
X238126883Y-101196000D01*
X238143313Y-101029177D01*
X238191976Y-100868758D01*
X238270995Y-100720924D01*
X238270996Y-100720922D01*
X238377341Y-100591341D01*
X238506922Y-100484996D01*
X238522094Y-100476886D01*
X238654758Y-100405976D01*
X238815177Y-100357313D01*
X238940196Y-100345000D01*
X239023804Y-100345000D01*
X239148823Y-100357313D01*
X239148823Y-100357313D01*
G37*
G36*
X212688564Y-99605389D02*
G01*
X212879833Y-99684615D01*
X212879835Y-99684616D01*
X213051973Y-99799635D01*
X213198365Y-99946027D01*
X213313385Y-100118167D01*
X213392611Y-100309436D01*
X213433000Y-100512484D01*
X213433000Y-100719516D01*
X213392611Y-100922564D01*
X213313385Y-101113833D01*
X213313384Y-101113835D01*
X213198365Y-101285973D01*
X213051973Y-101432365D01*
X212879835Y-101547384D01*
X212879834Y-101547385D01*
X212879833Y-101547385D01*
X212688564Y-101626611D01*
X212485516Y-101667000D01*
X212278484Y-101667000D01*
X212075436Y-101626611D01*
X211884167Y-101547385D01*
X211884166Y-101547385D01*
X211884165Y-101547384D01*
X211712027Y-101432365D01*
X211565635Y-101285973D01*
X211450616Y-101113835D01*
X211450615Y-101113833D01*
X211371389Y-100922564D01*
X211331000Y-100719516D01*
X211331000Y-100512484D01*
X211371389Y-100309436D01*
X211450615Y-100118167D01*
X211565635Y-99946027D01*
X211712027Y-99799635D01*
X211884165Y-99684616D01*
X211884167Y-99684615D01*
X212075436Y-99605389D01*
X212278484Y-99565000D01*
X212485516Y-99565000D01*
X212688564Y-99605389D01*
X212688564Y-99605389D01*
G37*
G36*
X202679000Y-100525000D02*
G01*
X200377000Y-100525000D01*
X200377000Y-98223000D01*
X202679000Y-98223000D01*
X202679000Y-100525000D01*
X202679000Y-100525000D01*
G37*
G36*
X195059000Y-100525000D02*
G01*
X192757000Y-100525000D01*
X192757000Y-98223000D01*
X195059000Y-98223000D01*
X195059000Y-100525000D01*
X195059000Y-100525000D01*
G37*
G36*
X205507271Y-98234103D02*
G01*
X205563635Y-98239654D01*
X205780600Y-98305470D01*
X205780602Y-98305471D01*
X205980555Y-98412347D01*
X206155818Y-98556182D01*
X206299653Y-98731445D01*
X206348496Y-98822825D01*
X206406530Y-98931400D01*
X206472346Y-99148365D01*
X206494569Y-99374000D01*
X206472346Y-99599635D01*
X206470601Y-99605389D01*
X206406529Y-99816602D01*
X206299653Y-100016555D01*
X206155818Y-100191818D01*
X205980555Y-100335653D01*
X205780602Y-100442529D01*
X205780600Y-100442530D01*
X205563635Y-100508346D01*
X205507271Y-100513897D01*
X205394545Y-100525000D01*
X205281455Y-100525000D01*
X205168729Y-100513897D01*
X205112365Y-100508346D01*
X204895400Y-100442530D01*
X204895398Y-100442529D01*
X204695445Y-100335653D01*
X204520182Y-100191818D01*
X204376347Y-100016555D01*
X204269471Y-99816602D01*
X204205400Y-99605389D01*
X204203654Y-99599635D01*
X204181431Y-99374000D01*
X204203654Y-99148365D01*
X204269470Y-98931400D01*
X204327504Y-98822825D01*
X204376347Y-98731445D01*
X204520182Y-98556182D01*
X204695445Y-98412347D01*
X204895398Y-98305471D01*
X204895400Y-98305470D01*
X205112365Y-98239654D01*
X205168729Y-98234103D01*
X205281455Y-98223000D01*
X205394545Y-98223000D01*
X205507271Y-98234103D01*
X205507271Y-98234103D01*
G37*
G36*
X197887271Y-98234103D02*
G01*
X197943635Y-98239654D01*
X198160600Y-98305470D01*
X198160602Y-98305471D01*
X198360555Y-98412347D01*
X198535818Y-98556182D01*
X198679653Y-98731445D01*
X198728496Y-98822825D01*
X198786530Y-98931400D01*
X198852346Y-99148365D01*
X198874569Y-99374000D01*
X198852346Y-99599635D01*
X198850601Y-99605389D01*
X198786529Y-99816602D01*
X198679653Y-100016555D01*
X198535818Y-100191818D01*
X198360555Y-100335653D01*
X198160602Y-100442529D01*
X198160600Y-100442530D01*
X197943635Y-100508346D01*
X197887271Y-100513897D01*
X197774545Y-100525000D01*
X197661455Y-100525000D01*
X197548729Y-100513897D01*
X197492365Y-100508346D01*
X197275400Y-100442530D01*
X197275398Y-100442529D01*
X197075445Y-100335653D01*
X196900182Y-100191818D01*
X196756347Y-100016555D01*
X196649471Y-99816602D01*
X196585400Y-99605389D01*
X196583654Y-99599635D01*
X196561431Y-99374000D01*
X196583654Y-99148365D01*
X196649470Y-98931400D01*
X196707504Y-98822825D01*
X196756347Y-98731445D01*
X196900182Y-98556182D01*
X197075445Y-98412347D01*
X197275398Y-98305471D01*
X197275400Y-98305470D01*
X197492365Y-98239654D01*
X197548729Y-98234103D01*
X197661455Y-98223000D01*
X197774545Y-98223000D01*
X197887271Y-98234103D01*
X197887271Y-98234103D01*
G37*
G36*
X231528823Y-97817313D02*
G01*
X231689242Y-97865976D01*
X231821906Y-97936886D01*
X231837078Y-97944996D01*
X231966659Y-98051341D01*
X232073004Y-98180922D01*
X232073005Y-98180924D01*
X232152024Y-98328758D01*
X232200687Y-98489177D01*
X232217117Y-98656000D01*
X232200687Y-98822823D01*
X232152024Y-98983242D01*
X232081114Y-99115906D01*
X232073004Y-99131078D01*
X231966659Y-99260659D01*
X231837078Y-99367004D01*
X231837076Y-99367005D01*
X231689242Y-99446024D01*
X231528823Y-99494687D01*
X231403804Y-99507000D01*
X231320196Y-99507000D01*
X231195177Y-99494687D01*
X231034758Y-99446024D01*
X230886924Y-99367005D01*
X230886922Y-99367004D01*
X230757341Y-99260659D01*
X230650996Y-99131078D01*
X230642886Y-99115906D01*
X230571976Y-98983242D01*
X230523313Y-98822823D01*
X230506883Y-98656000D01*
X230523313Y-98489177D01*
X230571976Y-98328758D01*
X230650995Y-98180924D01*
X230650996Y-98180922D01*
X230757341Y-98051341D01*
X230886922Y-97944996D01*
X230902094Y-97936886D01*
X231034758Y-97865976D01*
X231195177Y-97817313D01*
X231320196Y-97805000D01*
X231403804Y-97805000D01*
X231528823Y-97817313D01*
X231528823Y-97817313D01*
G37*
G36*
X239148823Y-97817313D02*
G01*
X239309242Y-97865976D01*
X239441906Y-97936886D01*
X239457078Y-97944996D01*
X239586659Y-98051341D01*
X239693004Y-98180922D01*
X239693005Y-98180924D01*
X239772024Y-98328758D01*
X239820687Y-98489177D01*
X239837117Y-98656000D01*
X239820687Y-98822823D01*
X239772024Y-98983242D01*
X239701114Y-99115906D01*
X239693004Y-99131078D01*
X239586659Y-99260659D01*
X239457078Y-99367004D01*
X239457076Y-99367005D01*
X239309242Y-99446024D01*
X239148823Y-99494687D01*
X239023804Y-99507000D01*
X238940196Y-99507000D01*
X238815177Y-99494687D01*
X238654758Y-99446024D01*
X238506924Y-99367005D01*
X238506922Y-99367004D01*
X238377341Y-99260659D01*
X238270996Y-99131078D01*
X238262886Y-99115906D01*
X238191976Y-98983242D01*
X238143313Y-98822823D01*
X238126883Y-98656000D01*
X238143313Y-98489177D01*
X238191976Y-98328758D01*
X238270995Y-98180924D01*
X238270996Y-98180922D01*
X238377341Y-98051341D01*
X238506922Y-97944996D01*
X238522094Y-97936886D01*
X238654758Y-97865976D01*
X238815177Y-97817313D01*
X238940196Y-97805000D01*
X239023804Y-97805000D01*
X239148823Y-97817313D01*
X239148823Y-97817313D01*
G37*
G36*
X231528823Y-95277313D02*
G01*
X231689242Y-95325976D01*
X231821906Y-95396886D01*
X231837078Y-95404996D01*
X231966659Y-95511341D01*
X232073004Y-95640922D01*
X232073005Y-95640924D01*
X232152024Y-95788758D01*
X232200687Y-95949177D01*
X232217117Y-96116000D01*
X232200687Y-96282823D01*
X232152024Y-96443242D01*
X232081114Y-96575906D01*
X232073004Y-96591078D01*
X231966659Y-96720659D01*
X231837078Y-96827004D01*
X231837076Y-96827005D01*
X231689242Y-96906024D01*
X231528823Y-96954687D01*
X231403804Y-96967000D01*
X231320196Y-96967000D01*
X231195177Y-96954687D01*
X231034758Y-96906024D01*
X230886924Y-96827005D01*
X230886922Y-96827004D01*
X230757341Y-96720659D01*
X230650996Y-96591078D01*
X230642886Y-96575906D01*
X230571976Y-96443242D01*
X230523313Y-96282823D01*
X230506883Y-96116000D01*
X230523313Y-95949177D01*
X230571976Y-95788758D01*
X230650995Y-95640924D01*
X230650996Y-95640922D01*
X230757341Y-95511341D01*
X230886922Y-95404996D01*
X230902094Y-95396886D01*
X231034758Y-95325976D01*
X231195177Y-95277313D01*
X231320196Y-95265000D01*
X231403804Y-95265000D01*
X231528823Y-95277313D01*
X231528823Y-95277313D01*
G37*
G36*
X239148823Y-95277313D02*
G01*
X239309242Y-95325976D01*
X239441906Y-95396886D01*
X239457078Y-95404996D01*
X239586659Y-95511341D01*
X239693004Y-95640922D01*
X239693005Y-95640924D01*
X239772024Y-95788758D01*
X239820687Y-95949177D01*
X239837117Y-96116000D01*
X239820687Y-96282823D01*
X239772024Y-96443242D01*
X239701114Y-96575906D01*
X239693004Y-96591078D01*
X239586659Y-96720659D01*
X239457078Y-96827004D01*
X239457076Y-96827005D01*
X239309242Y-96906024D01*
X239148823Y-96954687D01*
X239023804Y-96967000D01*
X238940196Y-96967000D01*
X238815177Y-96954687D01*
X238654758Y-96906024D01*
X238506924Y-96827005D01*
X238506922Y-96827004D01*
X238377341Y-96720659D01*
X238270996Y-96591078D01*
X238262886Y-96575906D01*
X238191976Y-96443242D01*
X238143313Y-96282823D01*
X238126883Y-96116000D01*
X238143313Y-95949177D01*
X238191976Y-95788758D01*
X238270995Y-95640924D01*
X238270996Y-95640922D01*
X238377341Y-95511341D01*
X238506922Y-95404996D01*
X238522094Y-95396886D01*
X238654758Y-95325976D01*
X238815177Y-95277313D01*
X238940196Y-95265000D01*
X239023804Y-95265000D01*
X239148823Y-95277313D01*
X239148823Y-95277313D01*
G37*
G36*
X231528823Y-92737313D02*
G01*
X231689242Y-92785976D01*
X231821906Y-92856886D01*
X231837078Y-92864996D01*
X231966659Y-92971341D01*
X232073004Y-93100922D01*
X232073005Y-93100924D01*
X232152024Y-93248758D01*
X232200687Y-93409177D01*
X232217117Y-93576000D01*
X232200687Y-93742823D01*
X232152024Y-93903242D01*
X232081114Y-94035906D01*
X232073004Y-94051078D01*
X231966659Y-94180659D01*
X231837078Y-94287004D01*
X231837076Y-94287005D01*
X231689242Y-94366024D01*
X231528823Y-94414687D01*
X231403804Y-94427000D01*
X231320196Y-94427000D01*
X231195177Y-94414687D01*
X231034758Y-94366024D01*
X230886924Y-94287005D01*
X230886922Y-94287004D01*
X230757341Y-94180659D01*
X230650996Y-94051078D01*
X230642886Y-94035906D01*
X230571976Y-93903242D01*
X230523313Y-93742823D01*
X230506883Y-93576000D01*
X230523313Y-93409177D01*
X230571976Y-93248758D01*
X230650995Y-93100924D01*
X230650996Y-93100922D01*
X230757341Y-92971341D01*
X230886922Y-92864996D01*
X230902094Y-92856886D01*
X231034758Y-92785976D01*
X231195177Y-92737313D01*
X231320196Y-92725000D01*
X231403804Y-92725000D01*
X231528823Y-92737313D01*
X231528823Y-92737313D01*
G37*
G36*
X239148823Y-92737313D02*
G01*
X239309242Y-92785976D01*
X239441906Y-92856886D01*
X239457078Y-92864996D01*
X239586659Y-92971341D01*
X239693004Y-93100922D01*
X239693005Y-93100924D01*
X239772024Y-93248758D01*
X239820687Y-93409177D01*
X239837117Y-93576000D01*
X239820687Y-93742823D01*
X239772024Y-93903242D01*
X239701114Y-94035906D01*
X239693004Y-94051078D01*
X239586659Y-94180659D01*
X239457078Y-94287004D01*
X239457076Y-94287005D01*
X239309242Y-94366024D01*
X239148823Y-94414687D01*
X239023804Y-94427000D01*
X238940196Y-94427000D01*
X238815177Y-94414687D01*
X238654758Y-94366024D01*
X238506924Y-94287005D01*
X238506922Y-94287004D01*
X238377341Y-94180659D01*
X238270996Y-94051078D01*
X238262886Y-94035906D01*
X238191976Y-93903242D01*
X238143313Y-93742823D01*
X238126883Y-93576000D01*
X238143313Y-93409177D01*
X238191976Y-93248758D01*
X238270995Y-93100924D01*
X238270996Y-93100922D01*
X238377341Y-92971341D01*
X238506922Y-92864996D01*
X238522094Y-92856886D01*
X238654758Y-92785976D01*
X238815177Y-92737313D01*
X238940196Y-92725000D01*
X239023804Y-92725000D01*
X239148823Y-92737313D01*
X239148823Y-92737313D01*
G37*
G36*
X211719000Y-93617000D02*
G01*
X209117000Y-93617000D01*
X209117000Y-91015000D01*
X211719000Y-91015000D01*
X211719000Y-93617000D01*
X211719000Y-93617000D01*
G37*
G36*
X195797487Y-91064996D02*
G01*
X196034253Y-91163068D01*
X196034255Y-91163069D01*
X196093751Y-91202823D01*
X196247339Y-91305447D01*
X196428553Y-91486661D01*
X196570932Y-91699747D01*
X196669004Y-91936513D01*
X196719000Y-92187861D01*
X196719000Y-92444139D01*
X196669004Y-92695487D01*
X196631522Y-92785976D01*
X196570931Y-92932255D01*
X196428553Y-93145339D01*
X196247339Y-93326553D01*
X196034255Y-93468931D01*
X196034254Y-93468932D01*
X196034253Y-93468932D01*
X195797487Y-93567004D01*
X195546139Y-93617000D01*
X195289861Y-93617000D01*
X195038513Y-93567004D01*
X194801747Y-93468932D01*
X194801746Y-93468932D01*
X194801745Y-93468931D01*
X194588661Y-93326553D01*
X194407447Y-93145339D01*
X194265069Y-92932255D01*
X194204478Y-92785976D01*
X194166996Y-92695487D01*
X194117000Y-92444139D01*
X194117000Y-92187861D01*
X194166996Y-91936513D01*
X194265068Y-91699747D01*
X194407447Y-91486661D01*
X194588661Y-91305447D01*
X194742249Y-91202823D01*
X194801745Y-91163069D01*
X194801747Y-91163068D01*
X195038513Y-91064996D01*
X195289861Y-91015000D01*
X195546139Y-91015000D01*
X195797487Y-91064996D01*
X195797487Y-91064996D01*
G37*
G36*
X200797487Y-91064996D02*
G01*
X201034253Y-91163068D01*
X201034255Y-91163069D01*
X201093751Y-91202823D01*
X201247339Y-91305447D01*
X201428553Y-91486661D01*
X201570932Y-91699747D01*
X201669004Y-91936513D01*
X201719000Y-92187861D01*
X201719000Y-92444139D01*
X201669004Y-92695487D01*
X201631522Y-92785976D01*
X201570931Y-92932255D01*
X201428553Y-93145339D01*
X201247339Y-93326553D01*
X201034255Y-93468931D01*
X201034254Y-93468932D01*
X201034253Y-93468932D01*
X200797487Y-93567004D01*
X200546139Y-93617000D01*
X200289861Y-93617000D01*
X200038513Y-93567004D01*
X199801747Y-93468932D01*
X199801746Y-93468932D01*
X199801745Y-93468931D01*
X199588661Y-93326553D01*
X199407447Y-93145339D01*
X199265069Y-92932255D01*
X199204478Y-92785976D01*
X199166996Y-92695487D01*
X199117000Y-92444139D01*
X199117000Y-92187861D01*
X199166996Y-91936513D01*
X199265068Y-91699747D01*
X199407447Y-91486661D01*
X199588661Y-91305447D01*
X199742249Y-91202823D01*
X199801745Y-91163069D01*
X199801747Y-91163068D01*
X200038513Y-91064996D01*
X200289861Y-91015000D01*
X200546139Y-91015000D01*
X200797487Y-91064996D01*
X200797487Y-91064996D01*
G37*
G36*
X205797487Y-91064996D02*
G01*
X206034253Y-91163068D01*
X206034255Y-91163069D01*
X206093751Y-91202823D01*
X206247339Y-91305447D01*
X206428553Y-91486661D01*
X206570932Y-91699747D01*
X206669004Y-91936513D01*
X206719000Y-92187861D01*
X206719000Y-92444139D01*
X206669004Y-92695487D01*
X206631522Y-92785976D01*
X206570931Y-92932255D01*
X206428553Y-93145339D01*
X206247339Y-93326553D01*
X206034255Y-93468931D01*
X206034254Y-93468932D01*
X206034253Y-93468932D01*
X205797487Y-93567004D01*
X205546139Y-93617000D01*
X205289861Y-93617000D01*
X205038513Y-93567004D01*
X204801747Y-93468932D01*
X204801746Y-93468932D01*
X204801745Y-93468931D01*
X204588661Y-93326553D01*
X204407447Y-93145339D01*
X204265069Y-92932255D01*
X204204478Y-92785976D01*
X204166996Y-92695487D01*
X204117000Y-92444139D01*
X204117000Y-92187861D01*
X204166996Y-91936513D01*
X204265068Y-91699747D01*
X204407447Y-91486661D01*
X204588661Y-91305447D01*
X204742249Y-91202823D01*
X204801745Y-91163069D01*
X204801747Y-91163068D01*
X205038513Y-91064996D01*
X205289861Y-91015000D01*
X205546139Y-91015000D01*
X205797487Y-91064996D01*
X205797487Y-91064996D01*
G37*
G36*
X221592442Y-90121518D02*
G01*
X221658627Y-90128037D01*
X221828466Y-90179557D01*
X221984991Y-90263222D01*
X222020729Y-90292552D01*
X222122186Y-90375814D01*
X222205448Y-90477271D01*
X222234778Y-90513009D01*
X222318443Y-90669534D01*
X222369963Y-90839373D01*
X222387359Y-91016000D01*
X222369963Y-91192627D01*
X222318443Y-91362466D01*
X222234778Y-91518991D01*
X222205448Y-91554729D01*
X222122186Y-91656186D01*
X222020729Y-91739448D01*
X221984991Y-91768778D01*
X221828466Y-91852443D01*
X221658627Y-91903963D01*
X221592443Y-91910481D01*
X221526260Y-91917000D01*
X221437740Y-91917000D01*
X221371557Y-91910481D01*
X221305373Y-91903963D01*
X221135534Y-91852443D01*
X220979009Y-91768778D01*
X220943271Y-91739448D01*
X220841814Y-91656186D01*
X220758552Y-91554729D01*
X220729222Y-91518991D01*
X220645557Y-91362466D01*
X220594037Y-91192627D01*
X220576641Y-91016000D01*
X220594037Y-90839373D01*
X220645557Y-90669534D01*
X220729222Y-90513009D01*
X220758552Y-90477271D01*
X220841814Y-90375814D01*
X220943271Y-90292552D01*
X220979009Y-90263222D01*
X221135534Y-90179557D01*
X221305373Y-90128037D01*
X221371558Y-90121518D01*
X221437740Y-90115000D01*
X221526260Y-90115000D01*
X221592442Y-90121518D01*
X221592442Y-90121518D01*
G37*
G36*
X224132442Y-90121518D02*
G01*
X224198627Y-90128037D01*
X224368466Y-90179557D01*
X224524991Y-90263222D01*
X224560729Y-90292552D01*
X224662186Y-90375814D01*
X224745448Y-90477271D01*
X224774778Y-90513009D01*
X224858443Y-90669534D01*
X224909963Y-90839373D01*
X224927359Y-91016000D01*
X224909963Y-91192627D01*
X224858443Y-91362466D01*
X224774778Y-91518991D01*
X224745448Y-91554729D01*
X224662186Y-91656186D01*
X224560729Y-91739448D01*
X224524991Y-91768778D01*
X224368466Y-91852443D01*
X224198627Y-91903963D01*
X224132443Y-91910481D01*
X224066260Y-91917000D01*
X223977740Y-91917000D01*
X223911557Y-91910481D01*
X223845373Y-91903963D01*
X223675534Y-91852443D01*
X223519009Y-91768778D01*
X223483271Y-91739448D01*
X223381814Y-91656186D01*
X223298552Y-91554729D01*
X223269222Y-91518991D01*
X223185557Y-91362466D01*
X223134037Y-91192627D01*
X223116641Y-91016000D01*
X223134037Y-90839373D01*
X223185557Y-90669534D01*
X223269222Y-90513009D01*
X223298552Y-90477271D01*
X223381814Y-90375814D01*
X223483271Y-90292552D01*
X223519009Y-90263222D01*
X223675534Y-90179557D01*
X223845373Y-90128037D01*
X223911558Y-90121518D01*
X223977740Y-90115000D01*
X224066260Y-90115000D01*
X224132442Y-90121518D01*
X224132442Y-90121518D01*
G37*
G36*
X227463000Y-91917000D02*
G01*
X225661000Y-91917000D01*
X225661000Y-90115000D01*
X227463000Y-90115000D01*
X227463000Y-91917000D01*
X227463000Y-91917000D01*
G37*
G36*
X219052442Y-90121518D02*
G01*
X219118627Y-90128037D01*
X219288466Y-90179557D01*
X219444991Y-90263222D01*
X219480729Y-90292552D01*
X219582186Y-90375814D01*
X219665448Y-90477271D01*
X219694778Y-90513009D01*
X219778443Y-90669534D01*
X219829963Y-90839373D01*
X219847359Y-91016000D01*
X219829963Y-91192627D01*
X219778443Y-91362466D01*
X219694778Y-91518991D01*
X219665448Y-91554729D01*
X219582186Y-91656186D01*
X219480729Y-91739448D01*
X219444991Y-91768778D01*
X219288466Y-91852443D01*
X219118627Y-91903963D01*
X219052443Y-91910481D01*
X218986260Y-91917000D01*
X218897740Y-91917000D01*
X218831557Y-91910481D01*
X218765373Y-91903963D01*
X218595534Y-91852443D01*
X218439009Y-91768778D01*
X218403271Y-91739448D01*
X218301814Y-91656186D01*
X218218552Y-91554729D01*
X218189222Y-91518991D01*
X218105557Y-91362466D01*
X218054037Y-91192627D01*
X218036641Y-91016000D01*
X218054037Y-90839373D01*
X218105557Y-90669534D01*
X218189222Y-90513009D01*
X218218552Y-90477271D01*
X218301814Y-90375814D01*
X218403271Y-90292552D01*
X218439009Y-90263222D01*
X218595534Y-90179557D01*
X218765373Y-90128037D01*
X218831558Y-90121518D01*
X218897740Y-90115000D01*
X218986260Y-90115000D01*
X219052442Y-90121518D01*
X219052442Y-90121518D01*
G37*
G36*
X231528823Y-90197313D02*
G01*
X231689242Y-90245976D01*
X231821906Y-90316886D01*
X231837078Y-90324996D01*
X231966659Y-90431341D01*
X232073004Y-90560922D01*
X232073005Y-90560924D01*
X232152024Y-90708758D01*
X232200687Y-90869177D01*
X232217117Y-91036000D01*
X232200687Y-91202823D01*
X232152024Y-91363242D01*
X232086055Y-91486661D01*
X232073004Y-91511078D01*
X231966659Y-91640659D01*
X231837078Y-91747004D01*
X231837076Y-91747005D01*
X231689242Y-91826024D01*
X231528823Y-91874687D01*
X231403804Y-91887000D01*
X231320196Y-91887000D01*
X231195177Y-91874687D01*
X231034758Y-91826024D01*
X230886924Y-91747005D01*
X230886922Y-91747004D01*
X230757341Y-91640659D01*
X230650996Y-91511078D01*
X230637945Y-91486661D01*
X230571976Y-91363242D01*
X230523313Y-91202823D01*
X230506883Y-91036000D01*
X230523313Y-90869177D01*
X230571976Y-90708758D01*
X230650995Y-90560924D01*
X230650996Y-90560922D01*
X230757341Y-90431341D01*
X230886922Y-90324996D01*
X230902094Y-90316886D01*
X231034758Y-90245976D01*
X231195177Y-90197313D01*
X231320196Y-90185000D01*
X231403804Y-90185000D01*
X231528823Y-90197313D01*
X231528823Y-90197313D01*
G37*
G36*
X239148823Y-90197313D02*
G01*
X239309242Y-90245976D01*
X239441906Y-90316886D01*
X239457078Y-90324996D01*
X239586659Y-90431341D01*
X239693004Y-90560922D01*
X239693005Y-90560924D01*
X239772024Y-90708758D01*
X239820687Y-90869177D01*
X239837117Y-91036000D01*
X239820687Y-91202823D01*
X239772024Y-91363242D01*
X239706055Y-91486661D01*
X239693004Y-91511078D01*
X239586659Y-91640659D01*
X239457078Y-91747004D01*
X239457076Y-91747005D01*
X239309242Y-91826024D01*
X239148823Y-91874687D01*
X239023804Y-91887000D01*
X238940196Y-91887000D01*
X238815177Y-91874687D01*
X238654758Y-91826024D01*
X238506924Y-91747005D01*
X238506922Y-91747004D01*
X238377341Y-91640659D01*
X238270996Y-91511078D01*
X238257945Y-91486661D01*
X238191976Y-91363242D01*
X238143313Y-91202823D01*
X238126883Y-91036000D01*
X238143313Y-90869177D01*
X238191976Y-90708758D01*
X238270995Y-90560924D01*
X238270996Y-90560922D01*
X238377341Y-90431341D01*
X238506922Y-90324996D01*
X238522094Y-90316886D01*
X238654758Y-90245976D01*
X238815177Y-90197313D01*
X238940196Y-90185000D01*
X239023804Y-90185000D01*
X239148823Y-90197313D01*
X239148823Y-90197313D01*
G37*
G36*
X252116239Y-81027467D02*
G01*
X252430282Y-81089934D01*
X253021926Y-81335001D01*
X253554392Y-81690784D01*
X254007216Y-82143608D01*
X254362999Y-82676074D01*
X254608066Y-83267718D01*
X254608066Y-83267719D01*
X254733000Y-83895803D01*
X254733000Y-84536197D01*
X254670533Y-84850239D01*
X254608066Y-85164282D01*
X254362999Y-85755926D01*
X254007216Y-86288392D01*
X253554392Y-86741216D01*
X253021926Y-87096999D01*
X252430282Y-87342066D01*
X252116239Y-87404533D01*
X251802197Y-87467000D01*
X251161803Y-87467000D01*
X250847761Y-87404533D01*
X250533718Y-87342066D01*
X249942074Y-87096999D01*
X249409608Y-86741216D01*
X248956784Y-86288392D01*
X248601001Y-85755926D01*
X248355934Y-85164282D01*
X248293467Y-84850239D01*
X248231000Y-84536197D01*
X248231000Y-83895803D01*
X248355934Y-83267719D01*
X248355934Y-83267718D01*
X248601001Y-82676074D01*
X248956784Y-82143608D01*
X249409608Y-81690784D01*
X249942074Y-81335001D01*
X250533718Y-81089934D01*
X250847761Y-81027467D01*
X251161803Y-80965000D01*
X251802197Y-80965000D01*
X252116239Y-81027467D01*
X252116239Y-81027467D01*
G37*
G36*
X181116239Y-81027467D02*
G01*
X181430282Y-81089934D01*
X182021926Y-81335001D01*
X182554392Y-81690784D01*
X183007216Y-82143608D01*
X183362999Y-82676074D01*
X183608066Y-83267718D01*
X183608066Y-83267719D01*
X183733000Y-83895803D01*
X183733000Y-84536197D01*
X183670533Y-84850239D01*
X183608066Y-85164282D01*
X183362999Y-85755926D01*
X183007216Y-86288392D01*
X182554392Y-86741216D01*
X182021926Y-87096999D01*
X181430282Y-87342066D01*
X181116239Y-87404533D01*
X180802197Y-87467000D01*
X180161803Y-87467000D01*
X179847761Y-87404533D01*
X179533718Y-87342066D01*
X178942074Y-87096999D01*
X178409608Y-86741216D01*
X177956784Y-86288392D01*
X177601001Y-85755926D01*
X177355934Y-85164282D01*
X177293467Y-84850239D01*
X177231000Y-84536197D01*
X177231000Y-83895803D01*
X177355934Y-83267719D01*
X177355934Y-83267718D01*
X177601001Y-82676074D01*
X177956784Y-82143608D01*
X178409608Y-81690784D01*
X178942074Y-81335001D01*
X179533718Y-81089934D01*
X179847761Y-81027467D01*
X180161803Y-80965000D01*
X180802197Y-80965000D01*
X181116239Y-81027467D01*
X181116239Y-81027467D01*
G37*
M02*
