G04 #@! TF.GenerationSoftware,KiCad,Pcbnew,5.1.2*
G04 #@! TF.CreationDate,2019-06-22T00:05:14+01:00*
G04 #@! TF.ProjectId,garage_receiver,67617261-6765-45f7-9265-636569766572,rev?*
G04 #@! TF.SameCoordinates,Original*
G04 #@! TF.FileFunction,Legend,Top*
G04 #@! TF.FilePolarity,Positive*
%FSLAX46Y46*%
G04 Gerber Fmt 4.6, Leading zero omitted, Abs format (unit mm)*
G04 Created by KiCad (PCBNEW 5.1.2) date 2019-06-22 00:05:14*
%MOMM*%
%LPD*%
G04 APERTURE LIST*
%ADD10C,0.300000*%
%ADD11C,0.150000*%
%ADD12C,0.120000*%
G04 APERTURE END LIST*
D10*
X191650809Y-111466000D02*
X191460333Y-111370761D01*
X191174619Y-111370761D01*
X190888904Y-111466000D01*
X190698428Y-111656476D01*
X190603190Y-111846952D01*
X190507952Y-112227904D01*
X190507952Y-112513619D01*
X190603190Y-112894571D01*
X190698428Y-113085047D01*
X190888904Y-113275523D01*
X191174619Y-113370761D01*
X191365095Y-113370761D01*
X191650809Y-113275523D01*
X191746047Y-113180285D01*
X191746047Y-112513619D01*
X191365095Y-112513619D01*
X193460333Y-113370761D02*
X193460333Y-112323142D01*
X193365095Y-112132666D01*
X193174619Y-112037428D01*
X192793666Y-112037428D01*
X192603190Y-112132666D01*
X193460333Y-113275523D02*
X193269857Y-113370761D01*
X192793666Y-113370761D01*
X192603190Y-113275523D01*
X192507952Y-113085047D01*
X192507952Y-112894571D01*
X192603190Y-112704095D01*
X192793666Y-112608857D01*
X193269857Y-112608857D01*
X193460333Y-112513619D01*
X194412714Y-113370761D02*
X194412714Y-112037428D01*
X194412714Y-112418380D02*
X194507952Y-112227904D01*
X194603190Y-112132666D01*
X194793666Y-112037428D01*
X194984142Y-112037428D01*
X196507952Y-113370761D02*
X196507952Y-112323142D01*
X196412714Y-112132666D01*
X196222238Y-112037428D01*
X195841285Y-112037428D01*
X195650809Y-112132666D01*
X196507952Y-113275523D02*
X196317476Y-113370761D01*
X195841285Y-113370761D01*
X195650809Y-113275523D01*
X195555571Y-113085047D01*
X195555571Y-112894571D01*
X195650809Y-112704095D01*
X195841285Y-112608857D01*
X196317476Y-112608857D01*
X196507952Y-112513619D01*
X198317476Y-112037428D02*
X198317476Y-113656476D01*
X198222238Y-113846952D01*
X198127000Y-113942190D01*
X197936523Y-114037428D01*
X197650809Y-114037428D01*
X197460333Y-113942190D01*
X198317476Y-113275523D02*
X198127000Y-113370761D01*
X197746047Y-113370761D01*
X197555571Y-113275523D01*
X197460333Y-113180285D01*
X197365095Y-112989809D01*
X197365095Y-112418380D01*
X197460333Y-112227904D01*
X197555571Y-112132666D01*
X197746047Y-112037428D01*
X198127000Y-112037428D01*
X198317476Y-112132666D01*
X200031761Y-113275523D02*
X199841285Y-113370761D01*
X199460333Y-113370761D01*
X199269857Y-113275523D01*
X199174619Y-113085047D01*
X199174619Y-112323142D01*
X199269857Y-112132666D01*
X199460333Y-112037428D01*
X199841285Y-112037428D01*
X200031761Y-112132666D01*
X200127000Y-112323142D01*
X200127000Y-112513619D01*
X199174619Y-112704095D01*
X203650809Y-113370761D02*
X202984142Y-112418380D01*
X202507952Y-113370761D02*
X202507952Y-111370761D01*
X203269857Y-111370761D01*
X203460333Y-111466000D01*
X203555571Y-111561238D01*
X203650809Y-111751714D01*
X203650809Y-112037428D01*
X203555571Y-112227904D01*
X203460333Y-112323142D01*
X203269857Y-112418380D01*
X202507952Y-112418380D01*
X205269857Y-113275523D02*
X205079380Y-113370761D01*
X204698428Y-113370761D01*
X204507952Y-113275523D01*
X204412714Y-113085047D01*
X204412714Y-112323142D01*
X204507952Y-112132666D01*
X204698428Y-112037428D01*
X205079380Y-112037428D01*
X205269857Y-112132666D01*
X205365095Y-112323142D01*
X205365095Y-112513619D01*
X204412714Y-112704095D01*
X207079380Y-113275523D02*
X206888904Y-113370761D01*
X206507952Y-113370761D01*
X206317476Y-113275523D01*
X206222238Y-113180285D01*
X206127000Y-112989809D01*
X206127000Y-112418380D01*
X206222238Y-112227904D01*
X206317476Y-112132666D01*
X206507952Y-112037428D01*
X206888904Y-112037428D01*
X207079380Y-112132666D01*
X208698428Y-113275523D02*
X208507952Y-113370761D01*
X208127000Y-113370761D01*
X207936523Y-113275523D01*
X207841285Y-113085047D01*
X207841285Y-112323142D01*
X207936523Y-112132666D01*
X208127000Y-112037428D01*
X208507952Y-112037428D01*
X208698428Y-112132666D01*
X208793666Y-112323142D01*
X208793666Y-112513619D01*
X207841285Y-112704095D01*
X209650809Y-113370761D02*
X209650809Y-112037428D01*
X209650809Y-111370761D02*
X209555571Y-111466000D01*
X209650809Y-111561238D01*
X209746047Y-111466000D01*
X209650809Y-111370761D01*
X209650809Y-111561238D01*
X210412714Y-112037428D02*
X210888904Y-113370761D01*
X211365095Y-112037428D01*
X212888904Y-113275523D02*
X212698428Y-113370761D01*
X212317476Y-113370761D01*
X212127000Y-113275523D01*
X212031761Y-113085047D01*
X212031761Y-112323142D01*
X212127000Y-112132666D01*
X212317476Y-112037428D01*
X212698428Y-112037428D01*
X212888904Y-112132666D01*
X212984142Y-112323142D01*
X212984142Y-112513619D01*
X212031761Y-112704095D01*
X213841285Y-113370761D02*
X213841285Y-112037428D01*
X213841285Y-112418380D02*
X213936523Y-112227904D01*
X214031761Y-112132666D01*
X214222238Y-112037428D01*
X214412714Y-112037428D01*
D11*
X190220095Y-115968380D02*
X190220095Y-114968380D01*
X190648666Y-115968380D02*
X190648666Y-115444571D01*
X190601047Y-115349333D01*
X190505809Y-115301714D01*
X190362952Y-115301714D01*
X190267714Y-115349333D01*
X190220095Y-115396952D01*
X190982000Y-115301714D02*
X191362952Y-115301714D01*
X191124857Y-114968380D02*
X191124857Y-115825523D01*
X191172476Y-115920761D01*
X191267714Y-115968380D01*
X191362952Y-115968380D01*
X191553428Y-115301714D02*
X191934380Y-115301714D01*
X191696285Y-114968380D02*
X191696285Y-115825523D01*
X191743904Y-115920761D01*
X191839142Y-115968380D01*
X191934380Y-115968380D01*
X192267714Y-115301714D02*
X192267714Y-116301714D01*
X192267714Y-115349333D02*
X192362952Y-115301714D01*
X192553428Y-115301714D01*
X192648666Y-115349333D01*
X192696285Y-115396952D01*
X192743904Y-115492190D01*
X192743904Y-115777904D01*
X192696285Y-115873142D01*
X192648666Y-115920761D01*
X192553428Y-115968380D01*
X192362952Y-115968380D01*
X192267714Y-115920761D01*
X193124857Y-115920761D02*
X193220095Y-115968380D01*
X193410571Y-115968380D01*
X193505809Y-115920761D01*
X193553428Y-115825523D01*
X193553428Y-115777904D01*
X193505809Y-115682666D01*
X193410571Y-115635047D01*
X193267714Y-115635047D01*
X193172476Y-115587428D01*
X193124857Y-115492190D01*
X193124857Y-115444571D01*
X193172476Y-115349333D01*
X193267714Y-115301714D01*
X193410571Y-115301714D01*
X193505809Y-115349333D01*
X193982000Y-115873142D02*
X194029619Y-115920761D01*
X193982000Y-115968380D01*
X193934380Y-115920761D01*
X193982000Y-115873142D01*
X193982000Y-115968380D01*
X193982000Y-115349333D02*
X194029619Y-115396952D01*
X193982000Y-115444571D01*
X193934380Y-115396952D01*
X193982000Y-115349333D01*
X193982000Y-115444571D01*
X195172476Y-114920761D02*
X194315333Y-116206476D01*
X196220095Y-114920761D02*
X195362952Y-116206476D01*
X196982000Y-115301714D02*
X196982000Y-116111238D01*
X196934380Y-116206476D01*
X196886761Y-116254095D01*
X196791523Y-116301714D01*
X196648666Y-116301714D01*
X196553428Y-116254095D01*
X196982000Y-115920761D02*
X196886761Y-115968380D01*
X196696285Y-115968380D01*
X196601047Y-115920761D01*
X196553428Y-115873142D01*
X196505809Y-115777904D01*
X196505809Y-115492190D01*
X196553428Y-115396952D01*
X196601047Y-115349333D01*
X196696285Y-115301714D01*
X196886761Y-115301714D01*
X196982000Y-115349333D01*
X197458190Y-115968380D02*
X197458190Y-115301714D01*
X197458190Y-114968380D02*
X197410571Y-115016000D01*
X197458190Y-115063619D01*
X197505809Y-115016000D01*
X197458190Y-114968380D01*
X197458190Y-115063619D01*
X197791523Y-115301714D02*
X198172476Y-115301714D01*
X197934380Y-114968380D02*
X197934380Y-115825523D01*
X197982000Y-115920761D01*
X198077238Y-115968380D01*
X198172476Y-115968380D01*
X198505809Y-115968380D02*
X198505809Y-114968380D01*
X198934380Y-115968380D02*
X198934380Y-115444571D01*
X198886761Y-115349333D01*
X198791523Y-115301714D01*
X198648666Y-115301714D01*
X198553428Y-115349333D01*
X198505809Y-115396952D01*
X199839142Y-115301714D02*
X199839142Y-115968380D01*
X199410571Y-115301714D02*
X199410571Y-115825523D01*
X199458190Y-115920761D01*
X199553428Y-115968380D01*
X199696285Y-115968380D01*
X199791523Y-115920761D01*
X199839142Y-115873142D01*
X200315333Y-115968380D02*
X200315333Y-114968380D01*
X200315333Y-115349333D02*
X200410571Y-115301714D01*
X200601047Y-115301714D01*
X200696285Y-115349333D01*
X200743904Y-115396952D01*
X200791523Y-115492190D01*
X200791523Y-115777904D01*
X200743904Y-115873142D01*
X200696285Y-115920761D01*
X200601047Y-115968380D01*
X200410571Y-115968380D01*
X200315333Y-115920761D01*
X201220095Y-115873142D02*
X201267714Y-115920761D01*
X201220095Y-115968380D01*
X201172476Y-115920761D01*
X201220095Y-115873142D01*
X201220095Y-115968380D01*
X202124857Y-115920761D02*
X202029619Y-115968380D01*
X201839142Y-115968380D01*
X201743904Y-115920761D01*
X201696285Y-115873142D01*
X201648666Y-115777904D01*
X201648666Y-115492190D01*
X201696285Y-115396952D01*
X201743904Y-115349333D01*
X201839142Y-115301714D01*
X202029619Y-115301714D01*
X202124857Y-115349333D01*
X202696285Y-115968380D02*
X202601047Y-115920761D01*
X202553428Y-115873142D01*
X202505809Y-115777904D01*
X202505809Y-115492190D01*
X202553428Y-115396952D01*
X202601047Y-115349333D01*
X202696285Y-115301714D01*
X202839142Y-115301714D01*
X202934380Y-115349333D01*
X202982000Y-115396952D01*
X203029619Y-115492190D01*
X203029619Y-115777904D01*
X202982000Y-115873142D01*
X202934380Y-115920761D01*
X202839142Y-115968380D01*
X202696285Y-115968380D01*
X203458190Y-115968380D02*
X203458190Y-115301714D01*
X203458190Y-115396952D02*
X203505809Y-115349333D01*
X203601047Y-115301714D01*
X203743904Y-115301714D01*
X203839142Y-115349333D01*
X203886761Y-115444571D01*
X203886761Y-115968380D01*
X203886761Y-115444571D02*
X203934380Y-115349333D01*
X204029619Y-115301714D01*
X204172476Y-115301714D01*
X204267714Y-115349333D01*
X204315333Y-115444571D01*
X204315333Y-115968380D01*
X205505809Y-114920761D02*
X204648666Y-116206476D01*
X206362952Y-115016000D02*
X206267714Y-114968380D01*
X206124857Y-114968380D01*
X205982000Y-115016000D01*
X205886761Y-115111238D01*
X205839142Y-115206476D01*
X205791523Y-115396952D01*
X205791523Y-115539809D01*
X205839142Y-115730285D01*
X205886761Y-115825523D01*
X205982000Y-115920761D01*
X206124857Y-115968380D01*
X206220095Y-115968380D01*
X206362952Y-115920761D01*
X206410571Y-115873142D01*
X206410571Y-115539809D01*
X206220095Y-115539809D01*
X206839142Y-115587428D02*
X207601047Y-115587428D01*
X208077238Y-115968380D02*
X208077238Y-114968380D01*
X208458190Y-114968380D01*
X208553428Y-115016000D01*
X208601047Y-115063619D01*
X208648666Y-115158857D01*
X208648666Y-115301714D01*
X208601047Y-115396952D01*
X208553428Y-115444571D01*
X208458190Y-115492190D01*
X208077238Y-115492190D01*
X209458190Y-115920761D02*
X209362952Y-115968380D01*
X209172476Y-115968380D01*
X209077238Y-115920761D01*
X209029619Y-115825523D01*
X209029619Y-115444571D01*
X209077238Y-115349333D01*
X209172476Y-115301714D01*
X209362952Y-115301714D01*
X209458190Y-115349333D01*
X209505809Y-115444571D01*
X209505809Y-115539809D01*
X209029619Y-115635047D01*
X209934380Y-115968380D02*
X209934380Y-115301714D01*
X209934380Y-115492190D02*
X209982000Y-115396952D01*
X210029619Y-115349333D01*
X210124857Y-115301714D01*
X210220095Y-115301714D01*
X210934380Y-115920761D02*
X210839142Y-115968380D01*
X210648666Y-115968380D01*
X210553428Y-115920761D01*
X210505809Y-115825523D01*
X210505809Y-115444571D01*
X210553428Y-115349333D01*
X210648666Y-115301714D01*
X210839142Y-115301714D01*
X210934380Y-115349333D01*
X210982000Y-115444571D01*
X210982000Y-115539809D01*
X210505809Y-115635047D01*
X211410571Y-115968380D02*
X211410571Y-115301714D01*
X211410571Y-114968380D02*
X211362952Y-115016000D01*
X211410571Y-115063619D01*
X211458190Y-115016000D01*
X211410571Y-114968380D01*
X211410571Y-115063619D01*
X211886761Y-115968380D02*
X211886761Y-115301714D01*
X211886761Y-115492190D02*
X211934380Y-115396952D01*
X211982000Y-115349333D01*
X212077238Y-115301714D01*
X212172476Y-115301714D01*
X212934380Y-115968380D02*
X212934380Y-115444571D01*
X212886761Y-115349333D01*
X212791523Y-115301714D01*
X212601047Y-115301714D01*
X212505809Y-115349333D01*
X212934380Y-115920761D02*
X212839142Y-115968380D01*
X212601047Y-115968380D01*
X212505809Y-115920761D01*
X212458190Y-115825523D01*
X212458190Y-115730285D01*
X212505809Y-115635047D01*
X212601047Y-115587428D01*
X212839142Y-115587428D01*
X212934380Y-115539809D01*
X214124857Y-114920761D02*
X213267714Y-116206476D01*
X214886761Y-115301714D02*
X214886761Y-116111238D01*
X214839142Y-116206476D01*
X214791523Y-116254095D01*
X214696285Y-116301714D01*
X214553428Y-116301714D01*
X214458190Y-116254095D01*
X214886761Y-115920761D02*
X214791523Y-115968380D01*
X214601047Y-115968380D01*
X214505809Y-115920761D01*
X214458190Y-115873142D01*
X214410571Y-115777904D01*
X214410571Y-115492190D01*
X214458190Y-115396952D01*
X214505809Y-115349333D01*
X214601047Y-115301714D01*
X214791523Y-115301714D01*
X214886761Y-115349333D01*
X215791523Y-115968380D02*
X215791523Y-115444571D01*
X215743904Y-115349333D01*
X215648666Y-115301714D01*
X215458190Y-115301714D01*
X215362952Y-115349333D01*
X215791523Y-115920761D02*
X215696285Y-115968380D01*
X215458190Y-115968380D01*
X215362952Y-115920761D01*
X215315333Y-115825523D01*
X215315333Y-115730285D01*
X215362952Y-115635047D01*
X215458190Y-115587428D01*
X215696285Y-115587428D01*
X215791523Y-115539809D01*
X216267714Y-115968380D02*
X216267714Y-115301714D01*
X216267714Y-115492190D02*
X216315333Y-115396952D01*
X216362952Y-115349333D01*
X216458190Y-115301714D01*
X216553428Y-115301714D01*
X217315333Y-115968380D02*
X217315333Y-115444571D01*
X217267714Y-115349333D01*
X217172476Y-115301714D01*
X216982000Y-115301714D01*
X216886761Y-115349333D01*
X217315333Y-115920761D02*
X217220095Y-115968380D01*
X216982000Y-115968380D01*
X216886761Y-115920761D01*
X216839142Y-115825523D01*
X216839142Y-115730285D01*
X216886761Y-115635047D01*
X216982000Y-115587428D01*
X217220095Y-115587428D01*
X217315333Y-115539809D01*
X218220095Y-115301714D02*
X218220095Y-116111238D01*
X218172476Y-116206476D01*
X218124857Y-116254095D01*
X218029619Y-116301714D01*
X217886761Y-116301714D01*
X217791523Y-116254095D01*
X218220095Y-115920761D02*
X218124857Y-115968380D01*
X217934380Y-115968380D01*
X217839142Y-115920761D01*
X217791523Y-115873142D01*
X217743904Y-115777904D01*
X217743904Y-115492190D01*
X217791523Y-115396952D01*
X217839142Y-115349333D01*
X217934380Y-115301714D01*
X218124857Y-115301714D01*
X218220095Y-115349333D01*
X219077238Y-115920761D02*
X218982000Y-115968380D01*
X218791523Y-115968380D01*
X218696285Y-115920761D01*
X218648666Y-115825523D01*
X218648666Y-115444571D01*
X218696285Y-115349333D01*
X218791523Y-115301714D01*
X218982000Y-115301714D01*
X219077238Y-115349333D01*
X219124857Y-115444571D01*
X219124857Y-115539809D01*
X218648666Y-115635047D01*
X219315333Y-116063619D02*
X220077238Y-116063619D01*
X220315333Y-115968380D02*
X220315333Y-115301714D01*
X220315333Y-115492190D02*
X220362952Y-115396952D01*
X220410571Y-115349333D01*
X220505809Y-115301714D01*
X220601047Y-115301714D01*
X221315333Y-115920761D02*
X221220095Y-115968380D01*
X221029619Y-115968380D01*
X220934380Y-115920761D01*
X220886761Y-115825523D01*
X220886761Y-115444571D01*
X220934380Y-115349333D01*
X221029619Y-115301714D01*
X221220095Y-115301714D01*
X221315333Y-115349333D01*
X221362952Y-115444571D01*
X221362952Y-115539809D01*
X220886761Y-115635047D01*
X222220095Y-115920761D02*
X222124857Y-115968380D01*
X221934380Y-115968380D01*
X221839142Y-115920761D01*
X221791523Y-115873142D01*
X221743904Y-115777904D01*
X221743904Y-115492190D01*
X221791523Y-115396952D01*
X221839142Y-115349333D01*
X221934380Y-115301714D01*
X222124857Y-115301714D01*
X222220095Y-115349333D01*
X223029619Y-115920761D02*
X222934380Y-115968380D01*
X222743904Y-115968380D01*
X222648666Y-115920761D01*
X222601047Y-115825523D01*
X222601047Y-115444571D01*
X222648666Y-115349333D01*
X222743904Y-115301714D01*
X222934380Y-115301714D01*
X223029619Y-115349333D01*
X223077238Y-115444571D01*
X223077238Y-115539809D01*
X222601047Y-115635047D01*
X223505809Y-115968380D02*
X223505809Y-115301714D01*
X223505809Y-114968380D02*
X223458190Y-115016000D01*
X223505809Y-115063619D01*
X223553428Y-115016000D01*
X223505809Y-114968380D01*
X223505809Y-115063619D01*
X223886761Y-115301714D02*
X224124857Y-115968380D01*
X224362952Y-115301714D01*
X225124857Y-115920761D02*
X225029619Y-115968380D01*
X224839142Y-115968380D01*
X224743904Y-115920761D01*
X224696285Y-115825523D01*
X224696285Y-115444571D01*
X224743904Y-115349333D01*
X224839142Y-115301714D01*
X225029619Y-115301714D01*
X225124857Y-115349333D01*
X225172476Y-115444571D01*
X225172476Y-115539809D01*
X224696285Y-115635047D01*
X225601047Y-115968380D02*
X225601047Y-115301714D01*
X225601047Y-115492190D02*
X225648666Y-115396952D01*
X225696285Y-115349333D01*
X225791523Y-115301714D01*
X225886761Y-115301714D01*
X230941523Y-83718380D02*
X230465333Y-83718380D01*
X230417714Y-84194571D01*
X230465333Y-84146952D01*
X230560571Y-84099333D01*
X230798666Y-84099333D01*
X230893904Y-84146952D01*
X230941523Y-84194571D01*
X230989142Y-84289809D01*
X230989142Y-84527904D01*
X230941523Y-84623142D01*
X230893904Y-84670761D01*
X230798666Y-84718380D01*
X230560571Y-84718380D01*
X230465333Y-84670761D01*
X230417714Y-84623142D01*
X231274857Y-83718380D02*
X231608190Y-84718380D01*
X231941523Y-83718380D01*
X225782000Y-84718380D02*
X225782000Y-83718380D01*
X226020095Y-83718380D01*
X226162952Y-83766000D01*
X226258190Y-83861238D01*
X226305809Y-83956476D01*
X226353428Y-84146952D01*
X226353428Y-84289809D01*
X226305809Y-84480285D01*
X226258190Y-84575523D01*
X226162952Y-84670761D01*
X226020095Y-84718380D01*
X225782000Y-84718380D01*
X226734380Y-84432666D02*
X227210571Y-84432666D01*
X226639142Y-84718380D02*
X226972476Y-83718380D01*
X227305809Y-84718380D01*
X227496285Y-83718380D02*
X228067714Y-83718380D01*
X227782000Y-84718380D02*
X227782000Y-83718380D01*
X228353428Y-84432666D02*
X228829619Y-84432666D01*
X228258190Y-84718380D02*
X228591523Y-83718380D01*
X228924857Y-84718380D01*
X222820095Y-83766000D02*
X222724857Y-83718380D01*
X222582000Y-83718380D01*
X222439142Y-83766000D01*
X222343904Y-83861238D01*
X222296285Y-83956476D01*
X222248666Y-84146952D01*
X222248666Y-84289809D01*
X222296285Y-84480285D01*
X222343904Y-84575523D01*
X222439142Y-84670761D01*
X222582000Y-84718380D01*
X222677238Y-84718380D01*
X222820095Y-84670761D01*
X222867714Y-84623142D01*
X222867714Y-84289809D01*
X222677238Y-84289809D01*
X223296285Y-84718380D02*
X223296285Y-83718380D01*
X223867714Y-84718380D01*
X223867714Y-83718380D01*
X224343904Y-84718380D02*
X224343904Y-83718380D01*
X224582000Y-83718380D01*
X224724857Y-83766000D01*
X224820095Y-83861238D01*
X224867714Y-83956476D01*
X224915333Y-84146952D01*
X224915333Y-84289809D01*
X224867714Y-84480285D01*
X224820095Y-84575523D01*
X224724857Y-84670761D01*
X224582000Y-84718380D01*
X224343904Y-84718380D01*
X223439142Y-81193380D02*
X223105809Y-80717190D01*
X222867714Y-81193380D02*
X222867714Y-80193380D01*
X223248666Y-80193380D01*
X223343904Y-80241000D01*
X223391523Y-80288619D01*
X223439142Y-80383857D01*
X223439142Y-80526714D01*
X223391523Y-80621952D01*
X223343904Y-80669571D01*
X223248666Y-80717190D01*
X222867714Y-80717190D01*
X224201047Y-80669571D02*
X223867714Y-80669571D01*
X223867714Y-81193380D02*
X223867714Y-80193380D01*
X224343904Y-80193380D01*
X226058190Y-81193380D02*
X225724857Y-80717190D01*
X225486761Y-81193380D02*
X225486761Y-80193380D01*
X225867714Y-80193380D01*
X225962952Y-80241000D01*
X226010571Y-80288619D01*
X226058190Y-80383857D01*
X226058190Y-80526714D01*
X226010571Y-80621952D01*
X225962952Y-80669571D01*
X225867714Y-80717190D01*
X225486761Y-80717190D01*
X226867714Y-81145761D02*
X226772476Y-81193380D01*
X226582000Y-81193380D01*
X226486761Y-81145761D01*
X226439142Y-81050523D01*
X226439142Y-80669571D01*
X226486761Y-80574333D01*
X226582000Y-80526714D01*
X226772476Y-80526714D01*
X226867714Y-80574333D01*
X226915333Y-80669571D01*
X226915333Y-80764809D01*
X226439142Y-80860047D01*
X227772476Y-81145761D02*
X227677238Y-81193380D01*
X227486761Y-81193380D01*
X227391523Y-81145761D01*
X227343904Y-81098142D01*
X227296285Y-81002904D01*
X227296285Y-80717190D01*
X227343904Y-80621952D01*
X227391523Y-80574333D01*
X227486761Y-80526714D01*
X227677238Y-80526714D01*
X227772476Y-80574333D01*
X228582000Y-81145761D02*
X228486761Y-81193380D01*
X228296285Y-81193380D01*
X228201047Y-81145761D01*
X228153428Y-81050523D01*
X228153428Y-80669571D01*
X228201047Y-80574333D01*
X228296285Y-80526714D01*
X228486761Y-80526714D01*
X228582000Y-80574333D01*
X228629619Y-80669571D01*
X228629619Y-80764809D01*
X228153428Y-80860047D01*
X229058190Y-81193380D02*
X229058190Y-80526714D01*
X229058190Y-80193380D02*
X229010571Y-80241000D01*
X229058190Y-80288619D01*
X229105809Y-80241000D01*
X229058190Y-80193380D01*
X229058190Y-80288619D01*
X229439142Y-80526714D02*
X229677238Y-81193380D01*
X229915333Y-80526714D01*
X230677238Y-81145761D02*
X230582000Y-81193380D01*
X230391523Y-81193380D01*
X230296285Y-81145761D01*
X230248666Y-81050523D01*
X230248666Y-80669571D01*
X230296285Y-80574333D01*
X230391523Y-80526714D01*
X230582000Y-80526714D01*
X230677238Y-80574333D01*
X230724857Y-80669571D01*
X230724857Y-80764809D01*
X230248666Y-80860047D01*
X231153428Y-81193380D02*
X231153428Y-80526714D01*
X231153428Y-80717190D02*
X231201047Y-80621952D01*
X231248666Y-80574333D01*
X231343904Y-80526714D01*
X231439142Y-80526714D01*
X222867714Y-82176714D02*
X222867714Y-82843380D01*
X222629619Y-81795761D02*
X222391523Y-82510047D01*
X223010571Y-82510047D01*
X223296285Y-81843380D02*
X223915333Y-81843380D01*
X223582000Y-82224333D01*
X223724857Y-82224333D01*
X223820095Y-82271952D01*
X223867714Y-82319571D01*
X223915333Y-82414809D01*
X223915333Y-82652904D01*
X223867714Y-82748142D01*
X223820095Y-82795761D01*
X223724857Y-82843380D01*
X223439142Y-82843380D01*
X223343904Y-82795761D01*
X223296285Y-82748142D01*
X224248666Y-81843380D02*
X224867714Y-81843380D01*
X224534380Y-82224333D01*
X224677238Y-82224333D01*
X224772476Y-82271952D01*
X224820095Y-82319571D01*
X224867714Y-82414809D01*
X224867714Y-82652904D01*
X224820095Y-82748142D01*
X224772476Y-82795761D01*
X224677238Y-82843380D01*
X224391523Y-82843380D01*
X224296285Y-82795761D01*
X224248666Y-82748142D01*
X226010571Y-81795761D02*
X225153428Y-83081476D01*
X226248666Y-81843380D02*
X226867714Y-81843380D01*
X226534380Y-82224333D01*
X226677238Y-82224333D01*
X226772476Y-82271952D01*
X226820095Y-82319571D01*
X226867714Y-82414809D01*
X226867714Y-82652904D01*
X226820095Y-82748142D01*
X226772476Y-82795761D01*
X226677238Y-82843380D01*
X226391523Y-82843380D01*
X226296285Y-82795761D01*
X226248666Y-82748142D01*
X227820095Y-82843380D02*
X227248666Y-82843380D01*
X227534380Y-82843380D02*
X227534380Y-81843380D01*
X227439142Y-81986238D01*
X227343904Y-82081476D01*
X227248666Y-82129095D01*
X228724857Y-81843380D02*
X228248666Y-81843380D01*
X228201047Y-82319571D01*
X228248666Y-82271952D01*
X228343904Y-82224333D01*
X228582000Y-82224333D01*
X228677238Y-82271952D01*
X228724857Y-82319571D01*
X228772476Y-82414809D01*
X228772476Y-82652904D01*
X228724857Y-82748142D01*
X228677238Y-82795761D01*
X228582000Y-82843380D01*
X228343904Y-82843380D01*
X228248666Y-82795761D01*
X228201047Y-82748142D01*
X229201047Y-82843380D02*
X229201047Y-81843380D01*
X229534380Y-82557666D01*
X229867714Y-81843380D01*
X229867714Y-82843380D01*
X230343904Y-82843380D02*
X230343904Y-81843380D01*
X230343904Y-82319571D02*
X230915333Y-82319571D01*
X230915333Y-82843380D02*
X230915333Y-81843380D01*
X231296285Y-82176714D02*
X231820095Y-82176714D01*
X231296285Y-82843380D01*
X231820095Y-82843380D01*
X190672491Y-109751714D02*
X190827252Y-110418380D01*
X191148681Y-109751714D01*
X191970110Y-110418380D02*
X191398681Y-110418380D01*
X191684395Y-110418380D02*
X191809395Y-109418380D01*
X191696300Y-109561238D01*
X191589157Y-109656476D01*
X191487967Y-109704095D01*
X192410586Y-110323142D02*
X192452252Y-110370761D01*
X192398681Y-110418380D01*
X192357014Y-110370761D01*
X192410586Y-110323142D01*
X192398681Y-110418380D01*
X193190348Y-109418380D02*
X193285586Y-109418380D01*
X193374872Y-109466000D01*
X193416538Y-109513619D01*
X193452252Y-109608857D01*
X193476062Y-109799333D01*
X193446300Y-110037428D01*
X193374872Y-110227904D01*
X193315348Y-110323142D01*
X193261776Y-110370761D01*
X193160586Y-110418380D01*
X193065348Y-110418380D01*
X192976062Y-110370761D01*
X192934395Y-110323142D01*
X192898681Y-110227904D01*
X192874872Y-110037428D01*
X192904633Y-109799333D01*
X192976062Y-109608857D01*
X193035586Y-109513619D01*
X193089157Y-109466000D01*
X193190348Y-109418380D01*
X193839157Y-110323142D02*
X193880824Y-110370761D01*
X193827252Y-110418380D01*
X193785586Y-110370761D01*
X193839157Y-110323142D01*
X193827252Y-110418380D01*
X194618919Y-109418380D02*
X194714157Y-109418380D01*
X194803443Y-109466000D01*
X194845110Y-109513619D01*
X194880824Y-109608857D01*
X194904633Y-109799333D01*
X194874872Y-110037428D01*
X194803443Y-110227904D01*
X194743919Y-110323142D01*
X194690348Y-110370761D01*
X194589157Y-110418380D01*
X194493919Y-110418380D01*
X194404633Y-110370761D01*
X194362967Y-110323142D01*
X194327252Y-110227904D01*
X194303443Y-110037428D01*
X194333205Y-109799333D01*
X194404633Y-109608857D01*
X194464157Y-109513619D01*
X194517729Y-109466000D01*
X194618919Y-109418380D01*
X207081523Y-85193142D02*
X207033904Y-85240761D01*
X206891047Y-85288380D01*
X206795809Y-85288380D01*
X206652952Y-85240761D01*
X206557714Y-85145523D01*
X206510095Y-85050285D01*
X206462476Y-84859809D01*
X206462476Y-84716952D01*
X206510095Y-84526476D01*
X206557714Y-84431238D01*
X206652952Y-84336000D01*
X206795809Y-84288380D01*
X206891047Y-84288380D01*
X207033904Y-84336000D01*
X207081523Y-84383619D01*
X207367238Y-84288380D02*
X207938666Y-84288380D01*
X207652952Y-85288380D02*
X207652952Y-84288380D01*
X208272000Y-84907428D02*
X209033904Y-84907428D01*
X208652952Y-85288380D02*
X208652952Y-84526476D01*
X202001523Y-85193142D02*
X201953904Y-85240761D01*
X201811047Y-85288380D01*
X201715809Y-85288380D01*
X201572952Y-85240761D01*
X201477714Y-85145523D01*
X201430095Y-85050285D01*
X201382476Y-84859809D01*
X201382476Y-84716952D01*
X201430095Y-84526476D01*
X201477714Y-84431238D01*
X201572952Y-84336000D01*
X201715809Y-84288380D01*
X201811047Y-84288380D01*
X201953904Y-84336000D01*
X202001523Y-84383619D01*
X202287238Y-84288380D02*
X202858666Y-84288380D01*
X202572952Y-85288380D02*
X202572952Y-84288380D01*
X203192000Y-84907428D02*
X203953904Y-84907428D01*
X190841523Y-84383619D02*
X190889142Y-84336000D01*
X190984380Y-84288380D01*
X191222476Y-84288380D01*
X191317714Y-84336000D01*
X191365333Y-84383619D01*
X191412952Y-84478857D01*
X191412952Y-84574095D01*
X191365333Y-84716952D01*
X190793904Y-85288380D01*
X191412952Y-85288380D01*
X192270095Y-84621714D02*
X192270095Y-85288380D01*
X192032000Y-84240761D02*
X191793904Y-84955047D01*
X192412952Y-84955047D01*
X192746285Y-85002666D02*
X193222476Y-85002666D01*
X192651047Y-85288380D02*
X192984380Y-84288380D01*
X193317714Y-85288380D01*
X194222476Y-85193142D02*
X194174857Y-85240761D01*
X194032000Y-85288380D01*
X193936761Y-85288380D01*
X193793904Y-85240761D01*
X193698666Y-85145523D01*
X193651047Y-85050285D01*
X193603428Y-84859809D01*
X193603428Y-84716952D01*
X193651047Y-84526476D01*
X193698666Y-84431238D01*
X193793904Y-84336000D01*
X193936761Y-84288380D01*
X194032000Y-84288380D01*
X194174857Y-84336000D01*
X194222476Y-84383619D01*
X196850095Y-84336000D02*
X196754857Y-84288380D01*
X196612000Y-84288380D01*
X196469142Y-84336000D01*
X196373904Y-84431238D01*
X196326285Y-84526476D01*
X196278666Y-84716952D01*
X196278666Y-84859809D01*
X196326285Y-85050285D01*
X196373904Y-85145523D01*
X196469142Y-85240761D01*
X196612000Y-85288380D01*
X196707238Y-85288380D01*
X196850095Y-85240761D01*
X196897714Y-85193142D01*
X196897714Y-84859809D01*
X196707238Y-84859809D01*
X197326285Y-85288380D02*
X197326285Y-84288380D01*
X197897714Y-85288380D01*
X197897714Y-84288380D01*
X198373904Y-85288380D02*
X198373904Y-84288380D01*
X198612000Y-84288380D01*
X198754857Y-84336000D01*
X198850095Y-84431238D01*
X198897714Y-84526476D01*
X198945333Y-84716952D01*
X198945333Y-84859809D01*
X198897714Y-85050285D01*
X198850095Y-85145523D01*
X198754857Y-85240761D01*
X198612000Y-85288380D01*
X198373904Y-85288380D01*
D12*
X212085422Y-94817000D02*
X212602578Y-94817000D01*
X212085422Y-93397000D02*
X212602578Y-93397000D01*
X200968000Y-103794000D02*
X203908000Y-103794000D01*
X200968000Y-103554000D02*
X203908000Y-103554000D01*
X200968000Y-103674000D02*
X203908000Y-103674000D01*
X202438000Y-98114000D02*
X202438000Y-99134000D01*
X202438000Y-105594000D02*
X202438000Y-104574000D01*
X200968000Y-99134000D02*
X200968000Y-104574000D01*
X203908000Y-99134000D02*
X200968000Y-99134000D01*
X203908000Y-104574000D02*
X203908000Y-99134000D01*
X200968000Y-104574000D02*
X203908000Y-104574000D01*
X229437000Y-98475000D02*
X229437000Y-100290000D01*
X229202000Y-98475000D02*
X229437000Y-98475000D01*
X229202000Y-94615000D02*
X229202000Y-98475000D01*
X229202000Y-90755000D02*
X229437000Y-90755000D01*
X229202000Y-94615000D02*
X229202000Y-90755000D01*
X242222000Y-98475000D02*
X241987000Y-98475000D01*
X242222000Y-94615000D02*
X242222000Y-98475000D01*
X242222000Y-90755000D02*
X241987000Y-90755000D01*
X242222000Y-94615000D02*
X242222000Y-90755000D01*
X214682000Y-94356422D02*
X214682000Y-94873578D01*
X216102000Y-94356422D02*
X216102000Y-94873578D01*
X211700000Y-95645000D02*
X209270000Y-95645000D01*
X209940000Y-98715000D02*
X211700000Y-98715000D01*
X215138000Y-104394000D02*
G75*
G03X215138000Y-104394000I-5120000J0D01*
G01*
X210018000Y-99314000D02*
X210018000Y-109474000D01*
X210058000Y-99314000D02*
X210058000Y-109474000D01*
X210098000Y-99314000D02*
X210098000Y-109474000D01*
X210138000Y-99315000D02*
X210138000Y-109473000D01*
X210178000Y-99316000D02*
X210178000Y-109472000D01*
X210218000Y-99317000D02*
X210218000Y-109471000D01*
X210258000Y-99319000D02*
X210258000Y-109469000D01*
X210298000Y-99321000D02*
X210298000Y-109467000D01*
X210338000Y-99324000D02*
X210338000Y-109464000D01*
X210378000Y-99326000D02*
X210378000Y-109462000D01*
X210418000Y-99329000D02*
X210418000Y-109459000D01*
X210458000Y-99332000D02*
X210458000Y-109456000D01*
X210498000Y-99336000D02*
X210498000Y-109452000D01*
X210538000Y-99340000D02*
X210538000Y-109448000D01*
X210578000Y-99344000D02*
X210578000Y-109444000D01*
X210618000Y-99349000D02*
X210618000Y-109439000D01*
X210658000Y-99354000D02*
X210658000Y-109434000D01*
X210698000Y-99359000D02*
X210698000Y-109429000D01*
X210739000Y-99364000D02*
X210739000Y-109424000D01*
X210779000Y-99370000D02*
X210779000Y-109418000D01*
X210819000Y-99376000D02*
X210819000Y-109412000D01*
X210859000Y-99383000D02*
X210859000Y-109405000D01*
X210899000Y-99390000D02*
X210899000Y-109398000D01*
X210939000Y-99397000D02*
X210939000Y-109391000D01*
X210979000Y-99404000D02*
X210979000Y-109384000D01*
X211019000Y-99412000D02*
X211019000Y-109376000D01*
X211059000Y-99420000D02*
X211059000Y-109368000D01*
X211099000Y-99429000D02*
X211099000Y-109359000D01*
X211139000Y-99438000D02*
X211139000Y-109350000D01*
X211179000Y-99447000D02*
X211179000Y-109341000D01*
X211219000Y-99456000D02*
X211219000Y-109332000D01*
X211259000Y-99466000D02*
X211259000Y-109322000D01*
X211299000Y-99476000D02*
X211299000Y-103153000D01*
X211299000Y-105635000D02*
X211299000Y-109312000D01*
X211339000Y-99487000D02*
X211339000Y-103153000D01*
X211339000Y-105635000D02*
X211339000Y-109301000D01*
X211379000Y-99497000D02*
X211379000Y-103153000D01*
X211379000Y-105635000D02*
X211379000Y-109291000D01*
X211419000Y-99509000D02*
X211419000Y-103153000D01*
X211419000Y-105635000D02*
X211419000Y-109279000D01*
X211459000Y-99520000D02*
X211459000Y-103153000D01*
X211459000Y-105635000D02*
X211459000Y-109268000D01*
X211499000Y-99532000D02*
X211499000Y-103153000D01*
X211499000Y-105635000D02*
X211499000Y-109256000D01*
X211539000Y-99544000D02*
X211539000Y-103153000D01*
X211539000Y-105635000D02*
X211539000Y-109244000D01*
X211579000Y-99557000D02*
X211579000Y-103153000D01*
X211579000Y-105635000D02*
X211579000Y-109231000D01*
X211619000Y-99570000D02*
X211619000Y-103153000D01*
X211619000Y-105635000D02*
X211619000Y-109218000D01*
X211659000Y-99583000D02*
X211659000Y-103153000D01*
X211659000Y-105635000D02*
X211659000Y-109205000D01*
X211699000Y-99597000D02*
X211699000Y-103153000D01*
X211699000Y-105635000D02*
X211699000Y-109191000D01*
X211739000Y-99611000D02*
X211739000Y-103153000D01*
X211739000Y-105635000D02*
X211739000Y-109177000D01*
X211779000Y-99626000D02*
X211779000Y-103153000D01*
X211779000Y-105635000D02*
X211779000Y-109162000D01*
X211819000Y-99640000D02*
X211819000Y-103153000D01*
X211819000Y-105635000D02*
X211819000Y-109148000D01*
X211859000Y-99656000D02*
X211859000Y-103153000D01*
X211859000Y-105635000D02*
X211859000Y-109132000D01*
X211899000Y-99671000D02*
X211899000Y-103153000D01*
X211899000Y-105635000D02*
X211899000Y-109117000D01*
X211939000Y-99687000D02*
X211939000Y-103153000D01*
X211939000Y-105635000D02*
X211939000Y-109101000D01*
X211979000Y-99704000D02*
X211979000Y-103153000D01*
X211979000Y-105635000D02*
X211979000Y-109084000D01*
X212019000Y-99720000D02*
X212019000Y-103153000D01*
X212019000Y-105635000D02*
X212019000Y-109068000D01*
X212059000Y-99737000D02*
X212059000Y-103153000D01*
X212059000Y-105635000D02*
X212059000Y-109051000D01*
X212099000Y-99755000D02*
X212099000Y-103153000D01*
X212099000Y-105635000D02*
X212099000Y-109033000D01*
X212139000Y-99773000D02*
X212139000Y-103153000D01*
X212139000Y-105635000D02*
X212139000Y-109015000D01*
X212179000Y-99791000D02*
X212179000Y-103153000D01*
X212179000Y-105635000D02*
X212179000Y-108997000D01*
X212219000Y-99810000D02*
X212219000Y-103153000D01*
X212219000Y-105635000D02*
X212219000Y-108978000D01*
X212259000Y-99830000D02*
X212259000Y-103153000D01*
X212259000Y-105635000D02*
X212259000Y-108958000D01*
X212299000Y-99849000D02*
X212299000Y-103153000D01*
X212299000Y-105635000D02*
X212299000Y-108939000D01*
X212339000Y-99869000D02*
X212339000Y-103153000D01*
X212339000Y-105635000D02*
X212339000Y-108919000D01*
X212379000Y-99890000D02*
X212379000Y-103153000D01*
X212379000Y-105635000D02*
X212379000Y-108898000D01*
X212419000Y-99911000D02*
X212419000Y-103153000D01*
X212419000Y-105635000D02*
X212419000Y-108877000D01*
X212459000Y-99932000D02*
X212459000Y-103153000D01*
X212459000Y-105635000D02*
X212459000Y-108856000D01*
X212499000Y-99954000D02*
X212499000Y-103153000D01*
X212499000Y-105635000D02*
X212499000Y-108834000D01*
X212539000Y-99977000D02*
X212539000Y-103153000D01*
X212539000Y-105635000D02*
X212539000Y-108811000D01*
X212579000Y-99999000D02*
X212579000Y-103153000D01*
X212579000Y-105635000D02*
X212579000Y-108789000D01*
X212619000Y-100023000D02*
X212619000Y-103153000D01*
X212619000Y-105635000D02*
X212619000Y-108765000D01*
X212659000Y-100047000D02*
X212659000Y-103153000D01*
X212659000Y-105635000D02*
X212659000Y-108741000D01*
X212699000Y-100071000D02*
X212699000Y-103153000D01*
X212699000Y-105635000D02*
X212699000Y-108717000D01*
X212739000Y-100096000D02*
X212739000Y-103153000D01*
X212739000Y-105635000D02*
X212739000Y-108692000D01*
X212779000Y-100121000D02*
X212779000Y-103153000D01*
X212779000Y-105635000D02*
X212779000Y-108667000D01*
X212819000Y-100147000D02*
X212819000Y-103153000D01*
X212819000Y-105635000D02*
X212819000Y-108641000D01*
X212859000Y-100173000D02*
X212859000Y-103153000D01*
X212859000Y-105635000D02*
X212859000Y-108615000D01*
X212899000Y-100200000D02*
X212899000Y-103153000D01*
X212899000Y-105635000D02*
X212899000Y-108588000D01*
X212939000Y-100228000D02*
X212939000Y-103153000D01*
X212939000Y-105635000D02*
X212939000Y-108560000D01*
X212979000Y-100256000D02*
X212979000Y-103153000D01*
X212979000Y-105635000D02*
X212979000Y-108532000D01*
X213019000Y-100284000D02*
X213019000Y-103153000D01*
X213019000Y-105635000D02*
X213019000Y-108504000D01*
X213059000Y-100314000D02*
X213059000Y-103153000D01*
X213059000Y-105635000D02*
X213059000Y-108474000D01*
X213099000Y-100344000D02*
X213099000Y-103153000D01*
X213099000Y-105635000D02*
X213099000Y-108444000D01*
X213139000Y-100374000D02*
X213139000Y-103153000D01*
X213139000Y-105635000D02*
X213139000Y-108414000D01*
X213179000Y-100405000D02*
X213179000Y-103153000D01*
X213179000Y-105635000D02*
X213179000Y-108383000D01*
X213219000Y-100437000D02*
X213219000Y-103153000D01*
X213219000Y-105635000D02*
X213219000Y-108351000D01*
X213259000Y-100469000D02*
X213259000Y-103153000D01*
X213259000Y-105635000D02*
X213259000Y-108319000D01*
X213299000Y-100502000D02*
X213299000Y-103153000D01*
X213299000Y-105635000D02*
X213299000Y-108286000D01*
X213339000Y-100536000D02*
X213339000Y-103153000D01*
X213339000Y-105635000D02*
X213339000Y-108252000D01*
X213379000Y-100570000D02*
X213379000Y-103153000D01*
X213379000Y-105635000D02*
X213379000Y-108218000D01*
X213419000Y-100605000D02*
X213419000Y-103153000D01*
X213419000Y-105635000D02*
X213419000Y-108183000D01*
X213459000Y-100641000D02*
X213459000Y-103153000D01*
X213459000Y-105635000D02*
X213459000Y-108147000D01*
X213499000Y-100678000D02*
X213499000Y-103153000D01*
X213499000Y-105635000D02*
X213499000Y-108110000D01*
X213539000Y-100715000D02*
X213539000Y-103153000D01*
X213539000Y-105635000D02*
X213539000Y-108073000D01*
X213579000Y-100754000D02*
X213579000Y-103153000D01*
X213579000Y-105635000D02*
X213579000Y-108034000D01*
X213619000Y-100793000D02*
X213619000Y-103153000D01*
X213619000Y-105635000D02*
X213619000Y-107995000D01*
X213659000Y-100833000D02*
X213659000Y-103153000D01*
X213659000Y-105635000D02*
X213659000Y-107955000D01*
X213699000Y-100874000D02*
X213699000Y-103153000D01*
X213699000Y-105635000D02*
X213699000Y-107914000D01*
X213739000Y-100916000D02*
X213739000Y-103153000D01*
X213739000Y-105635000D02*
X213739000Y-107872000D01*
X213779000Y-100958000D02*
X213779000Y-107830000D01*
X213819000Y-101002000D02*
X213819000Y-107786000D01*
X213859000Y-101047000D02*
X213859000Y-107741000D01*
X213899000Y-101093000D02*
X213899000Y-107695000D01*
X213939000Y-101140000D02*
X213939000Y-107648000D01*
X213979000Y-101188000D02*
X213979000Y-107600000D01*
X214019000Y-101238000D02*
X214019000Y-107550000D01*
X214059000Y-101288000D02*
X214059000Y-107500000D01*
X214099000Y-101340000D02*
X214099000Y-107448000D01*
X214139000Y-101394000D02*
X214139000Y-107394000D01*
X214179000Y-101449000D02*
X214179000Y-107339000D01*
X214219000Y-101505000D02*
X214219000Y-107283000D01*
X214259000Y-101564000D02*
X214259000Y-107224000D01*
X214299000Y-101624000D02*
X214299000Y-107164000D01*
X214339000Y-101685000D02*
X214339000Y-107103000D01*
X214379000Y-101749000D02*
X214379000Y-107039000D01*
X214419000Y-101815000D02*
X214419000Y-106973000D01*
X214459000Y-101884000D02*
X214459000Y-106904000D01*
X214499000Y-101955000D02*
X214499000Y-106833000D01*
X214539000Y-102029000D02*
X214539000Y-106759000D01*
X214579000Y-102105000D02*
X214579000Y-106683000D01*
X214619000Y-102185000D02*
X214619000Y-106603000D01*
X214659000Y-102269000D02*
X214659000Y-106519000D01*
X214699000Y-102357000D02*
X214699000Y-106431000D01*
X214739000Y-102450000D02*
X214739000Y-106338000D01*
X214779000Y-102548000D02*
X214779000Y-106240000D01*
X214819000Y-102652000D02*
X214819000Y-106136000D01*
X214859000Y-102764000D02*
X214859000Y-106024000D01*
X214899000Y-102884000D02*
X214899000Y-105904000D01*
X214939000Y-103016000D02*
X214939000Y-105772000D01*
X214979000Y-103164000D02*
X214979000Y-105624000D01*
X215019000Y-103332000D02*
X215019000Y-105456000D01*
X215059000Y-103532000D02*
X215059000Y-105256000D01*
X215099000Y-103795000D02*
X215099000Y-104993000D01*
X204538354Y-101519000D02*
X205538354Y-101519000D01*
X205038354Y-101019000D02*
X205038354Y-102019000D01*
X211126000Y-90800422D02*
X211126000Y-91317578D01*
X212546000Y-90800422D02*
X212546000Y-91317578D01*
X232470000Y-86487000D02*
X232470000Y-87817000D01*
X232470000Y-87817000D02*
X231140000Y-87817000D01*
X229870000Y-87817000D02*
X222190000Y-87817000D01*
X222190000Y-85157000D02*
X222190000Y-87817000D01*
X229870000Y-85157000D02*
X222190000Y-85157000D01*
X229870000Y-85157000D02*
X229870000Y-87817000D01*
X217966000Y-93125000D02*
X221166000Y-93125000D01*
X217966000Y-103725000D02*
X217966000Y-93125000D01*
X221166000Y-103725000D02*
X217966000Y-103725000D01*
X228566000Y-103725000D02*
X225366000Y-103725000D01*
X228566000Y-93125000D02*
X228566000Y-103725000D01*
X225366000Y-93125000D02*
X228566000Y-93125000D01*
X213158000Y-90800422D02*
X213158000Y-91317578D01*
X214578000Y-90800422D02*
X214578000Y-91317578D01*
X210318000Y-85489000D02*
X208818000Y-85489000D01*
X210318000Y-87229000D02*
X210318000Y-85489000D01*
X193698000Y-88813000D02*
X193792000Y-88720000D01*
X191448000Y-91064000D02*
X191507000Y-91005000D01*
X193528000Y-88573000D02*
X193587000Y-88515000D01*
X191243000Y-90858000D02*
X191337000Y-90765000D01*
X198698000Y-88813000D02*
X198792000Y-88720000D01*
X196448000Y-91064000D02*
X196507000Y-91005000D01*
X198528000Y-88573000D02*
X198587000Y-88515000D01*
X196243000Y-90858000D02*
X196337000Y-90765000D01*
X203698000Y-88813000D02*
X203792000Y-88720000D01*
X201448000Y-91064000D02*
X201507000Y-91005000D01*
X203528000Y-88573000D02*
X203587000Y-88515000D01*
X201243000Y-90858000D02*
X201337000Y-90765000D01*
X189957000Y-94849000D02*
X189957000Y-85729000D01*
X210078000Y-94849000D02*
X210078000Y-85729000D01*
X210078000Y-85729000D02*
X189957000Y-85729000D01*
X210078000Y-94849000D02*
X189957000Y-94849000D01*
X210078000Y-87289000D02*
X189957000Y-87289000D01*
X193418000Y-92789000D02*
G75*
G03X193418000Y-92789000I-900000J0D01*
G01*
X194198000Y-89789000D02*
G75*
G03X194198000Y-89789000I-1680000J0D01*
G01*
X198418000Y-92789000D02*
G75*
G03X198418000Y-92789000I-900000J0D01*
G01*
X199198000Y-89789000D02*
G75*
G03X199198000Y-89789000I-1680000J0D01*
G01*
X203418000Y-92789000D02*
G75*
G03X203418000Y-92789000I-900000J0D01*
G01*
X204198000Y-89789000D02*
G75*
G03X204198000Y-89789000I-1680000J0D01*
G01*
X208418000Y-92789000D02*
G75*
G03X208418000Y-92789000I-900000J0D01*
G01*
X207488617Y-88108550D02*
G75*
G02X208307000Y-88305000I29383J-1680450D01*
G01*
X209001953Y-88999912D02*
G75*
G02X209002000Y-90578000I-1483953J-789088D01*
G01*
X208307088Y-91272953D02*
G75*
G02X206729000Y-91273000I-789088J1483953D01*
G01*
X206034047Y-90578088D02*
G75*
G02X206034000Y-89000000I1483953J789088D01*
G01*
X206729288Y-88305648D02*
G75*
G02X207518000Y-88109000I788712J-1483352D01*
G01*
X200098000Y-99914000D02*
X197158000Y-99914000D01*
X200098000Y-100154000D02*
X197158000Y-100154000D01*
X200098000Y-100034000D02*
X197158000Y-100034000D01*
X198628000Y-105594000D02*
X198628000Y-104574000D01*
X198628000Y-98114000D02*
X198628000Y-99134000D01*
X200098000Y-104574000D02*
X200098000Y-99134000D01*
X197158000Y-104574000D02*
X200098000Y-104574000D01*
X197158000Y-99134000D02*
X197158000Y-104574000D01*
X200098000Y-99134000D02*
X197158000Y-99134000D01*
X205236578Y-108764000D02*
X204719422Y-108764000D01*
X205236578Y-110184000D02*
X204719422Y-110184000D01*
X235585000Y-110277667D02*
X236855000Y-110277667D01*
X236785000Y-111631000D02*
X236785000Y-110277667D01*
X236665000Y-111631000D02*
X236665000Y-110277667D01*
X236545000Y-111631000D02*
X236545000Y-110277667D01*
X236425000Y-111631000D02*
X236425000Y-110277667D01*
X236305000Y-111631000D02*
X236305000Y-110277667D01*
X236185000Y-111631000D02*
X236185000Y-110277667D01*
X236065000Y-111631000D02*
X236065000Y-110277667D01*
X235945000Y-111631000D02*
X235945000Y-110277667D01*
X235825000Y-111631000D02*
X235825000Y-110277667D01*
X235705000Y-111631000D02*
X235705000Y-110277667D01*
X235585000Y-107571000D02*
X235585000Y-111631000D01*
X236855000Y-107571000D02*
X235585000Y-107571000D01*
X236855000Y-111631000D02*
X236855000Y-107571000D01*
X235585000Y-111631000D02*
X236855000Y-111631000D01*
X233045000Y-110277667D02*
X234315000Y-110277667D01*
X234245000Y-111631000D02*
X234245000Y-110277667D01*
X234125000Y-111631000D02*
X234125000Y-110277667D01*
X234005000Y-111631000D02*
X234005000Y-110277667D01*
X233885000Y-111631000D02*
X233885000Y-110277667D01*
X233765000Y-111631000D02*
X233765000Y-110277667D01*
X233645000Y-111631000D02*
X233645000Y-110277667D01*
X233525000Y-111631000D02*
X233525000Y-110277667D01*
X233405000Y-111631000D02*
X233405000Y-110277667D01*
X233285000Y-111631000D02*
X233285000Y-110277667D01*
X233165000Y-111631000D02*
X233165000Y-110277667D01*
X233045000Y-107571000D02*
X233045000Y-111631000D01*
X234315000Y-107571000D02*
X233045000Y-107571000D01*
X234315000Y-111631000D02*
X234315000Y-107571000D01*
X233045000Y-111631000D02*
X234315000Y-111631000D01*
X230505000Y-110277667D02*
X231775000Y-110277667D01*
X231705000Y-111631000D02*
X231705000Y-110277667D01*
X231585000Y-111631000D02*
X231585000Y-110277667D01*
X231465000Y-111631000D02*
X231465000Y-110277667D01*
X231345000Y-111631000D02*
X231345000Y-110277667D01*
X231225000Y-111631000D02*
X231225000Y-110277667D01*
X231105000Y-111631000D02*
X231105000Y-110277667D01*
X230985000Y-111631000D02*
X230985000Y-110277667D01*
X230865000Y-111631000D02*
X230865000Y-110277667D01*
X230745000Y-111631000D02*
X230745000Y-110277667D01*
X230625000Y-111631000D02*
X230625000Y-110277667D01*
X230505000Y-107571000D02*
X230505000Y-111631000D01*
X231775000Y-107571000D02*
X230505000Y-107571000D01*
X231775000Y-111631000D02*
X231775000Y-107571000D01*
X230505000Y-111631000D02*
X231775000Y-111631000D01*
X227965000Y-110277667D02*
X229235000Y-110277667D01*
X229165000Y-111631000D02*
X229165000Y-110277667D01*
X229045000Y-111631000D02*
X229045000Y-110277667D01*
X228925000Y-111631000D02*
X228925000Y-110277667D01*
X228805000Y-111631000D02*
X228805000Y-110277667D01*
X228685000Y-111631000D02*
X228685000Y-110277667D01*
X228565000Y-111631000D02*
X228565000Y-110277667D01*
X228445000Y-111631000D02*
X228445000Y-110277667D01*
X228325000Y-111631000D02*
X228325000Y-110277667D01*
X228205000Y-111631000D02*
X228205000Y-110277667D01*
X228085000Y-111631000D02*
X228085000Y-110277667D01*
X227965000Y-107571000D02*
X227965000Y-111631000D01*
X229235000Y-107571000D02*
X227965000Y-107571000D01*
X229235000Y-111631000D02*
X229235000Y-107571000D01*
X227965000Y-111631000D02*
X229235000Y-111631000D01*
X225425000Y-110277667D02*
X226695000Y-110277667D01*
X226625000Y-111631000D02*
X226625000Y-110277667D01*
X226505000Y-111631000D02*
X226505000Y-110277667D01*
X226385000Y-111631000D02*
X226385000Y-110277667D01*
X226265000Y-111631000D02*
X226265000Y-110277667D01*
X226145000Y-111631000D02*
X226145000Y-110277667D01*
X226025000Y-111631000D02*
X226025000Y-110277667D01*
X225905000Y-111631000D02*
X225905000Y-110277667D01*
X225785000Y-111631000D02*
X225785000Y-110277667D01*
X225665000Y-111631000D02*
X225665000Y-110277667D01*
X225545000Y-111631000D02*
X225545000Y-110277667D01*
X225425000Y-107571000D02*
X225425000Y-111631000D01*
X226695000Y-107571000D02*
X225425000Y-107571000D01*
X226695000Y-111631000D02*
X226695000Y-107571000D01*
X225425000Y-111631000D02*
X226695000Y-111631000D01*
X222885000Y-110277667D02*
X224155000Y-110277667D01*
X224085000Y-111631000D02*
X224085000Y-110277667D01*
X223965000Y-111631000D02*
X223965000Y-110277667D01*
X223845000Y-111631000D02*
X223845000Y-110277667D01*
X223725000Y-111631000D02*
X223725000Y-110277667D01*
X223605000Y-111631000D02*
X223605000Y-110277667D01*
X223485000Y-111631000D02*
X223485000Y-110277667D01*
X223365000Y-111631000D02*
X223365000Y-110277667D01*
X223245000Y-111631000D02*
X223245000Y-110277667D01*
X223125000Y-111631000D02*
X223125000Y-110277667D01*
X223005000Y-111631000D02*
X223005000Y-110277667D01*
X222885000Y-107571000D02*
X222885000Y-111631000D01*
X224155000Y-107571000D02*
X222885000Y-107571000D01*
X224155000Y-111631000D02*
X224155000Y-107571000D01*
X222885000Y-111631000D02*
X224155000Y-111631000D01*
X220345000Y-110277667D02*
X221615000Y-110277667D01*
X221545000Y-111631000D02*
X221545000Y-110277667D01*
X221425000Y-111631000D02*
X221425000Y-110277667D01*
X221305000Y-111631000D02*
X221305000Y-110277667D01*
X221185000Y-111631000D02*
X221185000Y-110277667D01*
X221065000Y-111631000D02*
X221065000Y-110277667D01*
X220945000Y-111631000D02*
X220945000Y-110277667D01*
X220825000Y-111631000D02*
X220825000Y-110277667D01*
X220705000Y-111631000D02*
X220705000Y-110277667D01*
X220585000Y-111631000D02*
X220585000Y-110277667D01*
X220465000Y-111631000D02*
X220465000Y-110277667D01*
X220345000Y-107571000D02*
X220345000Y-111631000D01*
X221615000Y-107571000D02*
X220345000Y-107571000D01*
X221615000Y-111631000D02*
X221615000Y-107571000D01*
X220345000Y-111631000D02*
X221615000Y-111631000D01*
X217805000Y-110277667D02*
X219075000Y-110277667D01*
X219005000Y-111631000D02*
X219005000Y-110277667D01*
X218885000Y-111631000D02*
X218885000Y-110277667D01*
X218765000Y-111631000D02*
X218765000Y-110277667D01*
X218645000Y-111631000D02*
X218645000Y-110277667D01*
X218525000Y-111631000D02*
X218525000Y-110277667D01*
X218405000Y-111631000D02*
X218405000Y-110277667D01*
X218285000Y-111631000D02*
X218285000Y-110277667D01*
X218165000Y-111631000D02*
X218165000Y-110277667D01*
X218045000Y-111631000D02*
X218045000Y-110277667D01*
X217925000Y-111631000D02*
X217925000Y-110277667D01*
X217805000Y-107571000D02*
X217805000Y-111631000D01*
X219075000Y-107571000D02*
X217805000Y-107571000D01*
X219075000Y-111631000D02*
X219075000Y-107571000D01*
X217805000Y-111631000D02*
X219075000Y-111631000D01*
X215780000Y-114791000D02*
X217163000Y-114791000D01*
X215780000Y-114791000D02*
X215780000Y-113407000D01*
X216020000Y-104651000D02*
X238641000Y-104651000D01*
X216020000Y-114551000D02*
X238641000Y-114551000D01*
X238641000Y-114551000D02*
X238641000Y-104651000D01*
X216020000Y-114551000D02*
X216020000Y-104651000D01*
X216606000Y-86780000D02*
X216606000Y-86795000D01*
X216606000Y-84655000D02*
X216606000Y-84670000D01*
X212066000Y-86780000D02*
X212066000Y-86795000D01*
X212066000Y-84655000D02*
X212066000Y-84670000D01*
X212066000Y-86795000D02*
X216606000Y-86795000D01*
X212066000Y-84655000D02*
X216606000Y-84655000D01*
X205488000Y-95829000D02*
X206948000Y-95829000D01*
X205488000Y-98989000D02*
X207648000Y-98989000D01*
X205488000Y-98989000D02*
X205488000Y-98059000D01*
X205488000Y-95829000D02*
X205488000Y-96759000D01*
X220298000Y-89805000D02*
G75*
G03X220298000Y-89805000I-2620000J0D01*
G01*
X218718000Y-89805000D02*
X220258000Y-89805000D01*
X215098000Y-89805000D02*
X216638000Y-89805000D01*
X218718000Y-89765000D02*
X220258000Y-89765000D01*
X215098000Y-89765000D02*
X216638000Y-89765000D01*
X215099000Y-89725000D02*
X216638000Y-89725000D01*
X218718000Y-89725000D02*
X220257000Y-89725000D01*
X215100000Y-89685000D02*
X216638000Y-89685000D01*
X218718000Y-89685000D02*
X220256000Y-89685000D01*
X215102000Y-89645000D02*
X216638000Y-89645000D01*
X218718000Y-89645000D02*
X220254000Y-89645000D01*
X215105000Y-89605000D02*
X216638000Y-89605000D01*
X218718000Y-89605000D02*
X220251000Y-89605000D01*
X215109000Y-89565000D02*
X216638000Y-89565000D01*
X218718000Y-89565000D02*
X220247000Y-89565000D01*
X215113000Y-89525000D02*
X216638000Y-89525000D01*
X218718000Y-89525000D02*
X220243000Y-89525000D01*
X215117000Y-89485000D02*
X216638000Y-89485000D01*
X218718000Y-89485000D02*
X220239000Y-89485000D01*
X215122000Y-89445000D02*
X216638000Y-89445000D01*
X218718000Y-89445000D02*
X220234000Y-89445000D01*
X215128000Y-89405000D02*
X216638000Y-89405000D01*
X218718000Y-89405000D02*
X220228000Y-89405000D01*
X215135000Y-89365000D02*
X216638000Y-89365000D01*
X218718000Y-89365000D02*
X220221000Y-89365000D01*
X215142000Y-89325000D02*
X216638000Y-89325000D01*
X218718000Y-89325000D02*
X220214000Y-89325000D01*
X215150000Y-89285000D02*
X216638000Y-89285000D01*
X218718000Y-89285000D02*
X220206000Y-89285000D01*
X215158000Y-89245000D02*
X216638000Y-89245000D01*
X218718000Y-89245000D02*
X220198000Y-89245000D01*
X215167000Y-89205000D02*
X216638000Y-89205000D01*
X218718000Y-89205000D02*
X220189000Y-89205000D01*
X215177000Y-89165000D02*
X216638000Y-89165000D01*
X218718000Y-89165000D02*
X220179000Y-89165000D01*
X215187000Y-89125000D02*
X216638000Y-89125000D01*
X218718000Y-89125000D02*
X220169000Y-89125000D01*
X215198000Y-89084000D02*
X216638000Y-89084000D01*
X218718000Y-89084000D02*
X220158000Y-89084000D01*
X215210000Y-89044000D02*
X216638000Y-89044000D01*
X218718000Y-89044000D02*
X220146000Y-89044000D01*
X215223000Y-89004000D02*
X216638000Y-89004000D01*
X218718000Y-89004000D02*
X220133000Y-89004000D01*
X215236000Y-88964000D02*
X216638000Y-88964000D01*
X218718000Y-88964000D02*
X220120000Y-88964000D01*
X215250000Y-88924000D02*
X216638000Y-88924000D01*
X218718000Y-88924000D02*
X220106000Y-88924000D01*
X215264000Y-88884000D02*
X216638000Y-88884000D01*
X218718000Y-88884000D02*
X220092000Y-88884000D01*
X215280000Y-88844000D02*
X216638000Y-88844000D01*
X218718000Y-88844000D02*
X220076000Y-88844000D01*
X215296000Y-88804000D02*
X216638000Y-88804000D01*
X218718000Y-88804000D02*
X220060000Y-88804000D01*
X215313000Y-88764000D02*
X216638000Y-88764000D01*
X218718000Y-88764000D02*
X220043000Y-88764000D01*
X215330000Y-88724000D02*
X216638000Y-88724000D01*
X218718000Y-88724000D02*
X220026000Y-88724000D01*
X215349000Y-88684000D02*
X216638000Y-88684000D01*
X218718000Y-88684000D02*
X220007000Y-88684000D01*
X215368000Y-88644000D02*
X216638000Y-88644000D01*
X218718000Y-88644000D02*
X219988000Y-88644000D01*
X215388000Y-88604000D02*
X216638000Y-88604000D01*
X218718000Y-88604000D02*
X219968000Y-88604000D01*
X215410000Y-88564000D02*
X216638000Y-88564000D01*
X218718000Y-88564000D02*
X219946000Y-88564000D01*
X215431000Y-88524000D02*
X216638000Y-88524000D01*
X218718000Y-88524000D02*
X219925000Y-88524000D01*
X215454000Y-88484000D02*
X216638000Y-88484000D01*
X218718000Y-88484000D02*
X219902000Y-88484000D01*
X215478000Y-88444000D02*
X216638000Y-88444000D01*
X218718000Y-88444000D02*
X219878000Y-88444000D01*
X215503000Y-88404000D02*
X216638000Y-88404000D01*
X218718000Y-88404000D02*
X219853000Y-88404000D01*
X215529000Y-88364000D02*
X216638000Y-88364000D01*
X218718000Y-88364000D02*
X219827000Y-88364000D01*
X215556000Y-88324000D02*
X216638000Y-88324000D01*
X218718000Y-88324000D02*
X219800000Y-88324000D01*
X215583000Y-88284000D02*
X216638000Y-88284000D01*
X218718000Y-88284000D02*
X219773000Y-88284000D01*
X215613000Y-88244000D02*
X216638000Y-88244000D01*
X218718000Y-88244000D02*
X219743000Y-88244000D01*
X215643000Y-88204000D02*
X216638000Y-88204000D01*
X218718000Y-88204000D02*
X219713000Y-88204000D01*
X215674000Y-88164000D02*
X216638000Y-88164000D01*
X218718000Y-88164000D02*
X219682000Y-88164000D01*
X215707000Y-88124000D02*
X216638000Y-88124000D01*
X218718000Y-88124000D02*
X219649000Y-88124000D01*
X215741000Y-88084000D02*
X216638000Y-88084000D01*
X218718000Y-88084000D02*
X219615000Y-88084000D01*
X215777000Y-88044000D02*
X216638000Y-88044000D01*
X218718000Y-88044000D02*
X219579000Y-88044000D01*
X215814000Y-88004000D02*
X216638000Y-88004000D01*
X218718000Y-88004000D02*
X219542000Y-88004000D01*
X215852000Y-87964000D02*
X216638000Y-87964000D01*
X218718000Y-87964000D02*
X219504000Y-87964000D01*
X215893000Y-87924000D02*
X216638000Y-87924000D01*
X218718000Y-87924000D02*
X219463000Y-87924000D01*
X215935000Y-87884000D02*
X216638000Y-87884000D01*
X218718000Y-87884000D02*
X219421000Y-87884000D01*
X215979000Y-87844000D02*
X216638000Y-87844000D01*
X218718000Y-87844000D02*
X219377000Y-87844000D01*
X216025000Y-87804000D02*
X216638000Y-87804000D01*
X218718000Y-87804000D02*
X219331000Y-87804000D01*
X216073000Y-87764000D02*
X219283000Y-87764000D01*
X216124000Y-87724000D02*
X219232000Y-87724000D01*
X216178000Y-87684000D02*
X219178000Y-87684000D01*
X216235000Y-87644000D02*
X219121000Y-87644000D01*
X216295000Y-87604000D02*
X219061000Y-87604000D01*
X216359000Y-87564000D02*
X218997000Y-87564000D01*
X216427000Y-87524000D02*
X218929000Y-87524000D01*
X216500000Y-87484000D02*
X218856000Y-87484000D01*
X216580000Y-87444000D02*
X218776000Y-87444000D01*
X216667000Y-87404000D02*
X218689000Y-87404000D01*
X216763000Y-87364000D02*
X218593000Y-87364000D01*
X216873000Y-87324000D02*
X218483000Y-87324000D01*
X217001000Y-87284000D02*
X218355000Y-87284000D01*
X217160000Y-87244000D02*
X218196000Y-87244000D01*
X217394000Y-87204000D02*
X217962000Y-87204000D01*
X216203000Y-92609775D02*
X216203000Y-92109775D01*
X215953000Y-92359775D02*
X216453000Y-92359775D01*
X192478000Y-99914000D02*
X189538000Y-99914000D01*
X192478000Y-100154000D02*
X189538000Y-100154000D01*
X192478000Y-100034000D02*
X189538000Y-100034000D01*
X191008000Y-105594000D02*
X191008000Y-104574000D01*
X191008000Y-98114000D02*
X191008000Y-99134000D01*
X192478000Y-104574000D02*
X192478000Y-99134000D01*
X189538000Y-104574000D02*
X192478000Y-104574000D01*
X189538000Y-99134000D02*
X189538000Y-104574000D01*
X192478000Y-99134000D02*
X189538000Y-99134000D01*
X193348000Y-103794000D02*
X196288000Y-103794000D01*
X193348000Y-103554000D02*
X196288000Y-103554000D01*
X193348000Y-103674000D02*
X196288000Y-103674000D01*
X194818000Y-98114000D02*
X194818000Y-99134000D01*
X194818000Y-105594000D02*
X194818000Y-104574000D01*
X193348000Y-99134000D02*
X193348000Y-104574000D01*
X196288000Y-99134000D02*
X193348000Y-99134000D01*
X196288000Y-104574000D02*
X196288000Y-99134000D01*
X193348000Y-104574000D02*
X196288000Y-104574000D01*
X228548000Y-90809578D02*
X228548000Y-90292422D01*
X227128000Y-90809578D02*
X227128000Y-90292422D01*
X217512000Y-98945000D02*
G75*
G03X217512000Y-98945000I-2120000J0D01*
G01*
X216232000Y-98945000D02*
X217472000Y-98945000D01*
X213312000Y-98945000D02*
X214552000Y-98945000D01*
X216232000Y-98905000D02*
X217472000Y-98905000D01*
X213312000Y-98905000D02*
X214552000Y-98905000D01*
X216232000Y-98865000D02*
X217471000Y-98865000D01*
X213313000Y-98865000D02*
X214552000Y-98865000D01*
X213315000Y-98825000D02*
X214552000Y-98825000D01*
X216232000Y-98825000D02*
X217469000Y-98825000D01*
X213318000Y-98785000D02*
X214552000Y-98785000D01*
X216232000Y-98785000D02*
X217466000Y-98785000D01*
X213321000Y-98745000D02*
X214552000Y-98745000D01*
X216232000Y-98745000D02*
X217463000Y-98745000D01*
X213325000Y-98705000D02*
X214552000Y-98705000D01*
X216232000Y-98705000D02*
X217459000Y-98705000D01*
X213330000Y-98665000D02*
X214552000Y-98665000D01*
X216232000Y-98665000D02*
X217454000Y-98665000D01*
X213336000Y-98625000D02*
X214552000Y-98625000D01*
X216232000Y-98625000D02*
X217448000Y-98625000D01*
X213342000Y-98585000D02*
X214552000Y-98585000D01*
X216232000Y-98585000D02*
X217442000Y-98585000D01*
X213350000Y-98545000D02*
X214552000Y-98545000D01*
X216232000Y-98545000D02*
X217434000Y-98545000D01*
X213358000Y-98505000D02*
X214552000Y-98505000D01*
X216232000Y-98505000D02*
X217426000Y-98505000D01*
X213367000Y-98465000D02*
X214552000Y-98465000D01*
X216232000Y-98465000D02*
X217417000Y-98465000D01*
X213376000Y-98425000D02*
X214552000Y-98425000D01*
X216232000Y-98425000D02*
X217408000Y-98425000D01*
X213387000Y-98385000D02*
X214552000Y-98385000D01*
X216232000Y-98385000D02*
X217397000Y-98385000D01*
X213398000Y-98345000D02*
X214552000Y-98345000D01*
X216232000Y-98345000D02*
X217386000Y-98345000D01*
X213410000Y-98305000D02*
X214552000Y-98305000D01*
X216232000Y-98305000D02*
X217374000Y-98305000D01*
X213424000Y-98265000D02*
X214552000Y-98265000D01*
X216232000Y-98265000D02*
X217360000Y-98265000D01*
X213438000Y-98224000D02*
X214552000Y-98224000D01*
X216232000Y-98224000D02*
X217346000Y-98224000D01*
X213452000Y-98184000D02*
X214552000Y-98184000D01*
X216232000Y-98184000D02*
X217332000Y-98184000D01*
X213468000Y-98144000D02*
X214552000Y-98144000D01*
X216232000Y-98144000D02*
X217316000Y-98144000D01*
X213485000Y-98104000D02*
X214552000Y-98104000D01*
X216232000Y-98104000D02*
X217299000Y-98104000D01*
X213503000Y-98064000D02*
X214552000Y-98064000D01*
X216232000Y-98064000D02*
X217281000Y-98064000D01*
X213522000Y-98024000D02*
X214552000Y-98024000D01*
X216232000Y-98024000D02*
X217262000Y-98024000D01*
X213541000Y-97984000D02*
X214552000Y-97984000D01*
X216232000Y-97984000D02*
X217243000Y-97984000D01*
X213562000Y-97944000D02*
X214552000Y-97944000D01*
X216232000Y-97944000D02*
X217222000Y-97944000D01*
X213584000Y-97904000D02*
X214552000Y-97904000D01*
X216232000Y-97904000D02*
X217200000Y-97904000D01*
X213607000Y-97864000D02*
X214552000Y-97864000D01*
X216232000Y-97864000D02*
X217177000Y-97864000D01*
X213632000Y-97824000D02*
X214552000Y-97824000D01*
X216232000Y-97824000D02*
X217152000Y-97824000D01*
X213657000Y-97784000D02*
X214552000Y-97784000D01*
X216232000Y-97784000D02*
X217127000Y-97784000D01*
X213684000Y-97744000D02*
X214552000Y-97744000D01*
X216232000Y-97744000D02*
X217100000Y-97744000D01*
X213712000Y-97704000D02*
X214552000Y-97704000D01*
X216232000Y-97704000D02*
X217072000Y-97704000D01*
X213742000Y-97664000D02*
X214552000Y-97664000D01*
X216232000Y-97664000D02*
X217042000Y-97664000D01*
X213773000Y-97624000D02*
X214552000Y-97624000D01*
X216232000Y-97624000D02*
X217011000Y-97624000D01*
X213805000Y-97584000D02*
X214552000Y-97584000D01*
X216232000Y-97584000D02*
X216979000Y-97584000D01*
X213840000Y-97544000D02*
X214552000Y-97544000D01*
X216232000Y-97544000D02*
X216944000Y-97544000D01*
X213876000Y-97504000D02*
X214552000Y-97504000D01*
X216232000Y-97504000D02*
X216908000Y-97504000D01*
X213914000Y-97464000D02*
X214552000Y-97464000D01*
X216232000Y-97464000D02*
X216870000Y-97464000D01*
X213954000Y-97424000D02*
X214552000Y-97424000D01*
X216232000Y-97424000D02*
X216830000Y-97424000D01*
X213996000Y-97384000D02*
X214552000Y-97384000D01*
X216232000Y-97384000D02*
X216788000Y-97384000D01*
X214041000Y-97344000D02*
X216743000Y-97344000D01*
X214088000Y-97304000D02*
X216696000Y-97304000D01*
X214138000Y-97264000D02*
X216646000Y-97264000D01*
X214192000Y-97224000D02*
X216592000Y-97224000D01*
X214250000Y-97184000D02*
X216534000Y-97184000D01*
X214312000Y-97144000D02*
X216472000Y-97144000D01*
X214379000Y-97104000D02*
X216405000Y-97104000D01*
X214452000Y-97064000D02*
X216332000Y-97064000D01*
X214533000Y-97024000D02*
X216251000Y-97024000D01*
X214624000Y-96984000D02*
X216160000Y-96984000D01*
X214728000Y-96944000D02*
X216056000Y-96944000D01*
X214855000Y-96904000D02*
X215929000Y-96904000D01*
X215022000Y-96864000D02*
X215762000Y-96864000D01*
X214197000Y-101214801D02*
X214197000Y-100814801D01*
X213997000Y-101014801D02*
X214397000Y-101014801D01*
D11*
X252720095Y-113468380D02*
X252720095Y-112468380D01*
X252720095Y-112944571D02*
X253291523Y-112944571D01*
X253291523Y-113468380D02*
X253291523Y-112468380D01*
X254196285Y-112801714D02*
X254196285Y-113468380D01*
X253958190Y-112420761D02*
X253720095Y-113135047D01*
X254339142Y-113135047D01*
X177720095Y-113468380D02*
X177720095Y-112468380D01*
X177720095Y-112944571D02*
X178291523Y-112944571D01*
X178291523Y-113468380D02*
X178291523Y-112468380D01*
X178672476Y-112468380D02*
X179291523Y-112468380D01*
X178958190Y-112849333D01*
X179101047Y-112849333D01*
X179196285Y-112896952D01*
X179243904Y-112944571D01*
X179291523Y-113039809D01*
X179291523Y-113277904D01*
X179243904Y-113373142D01*
X179196285Y-113420761D01*
X179101047Y-113468380D01*
X178815333Y-113468380D01*
X178720095Y-113420761D01*
X178672476Y-113373142D01*
X252720095Y-87668380D02*
X252720095Y-86668380D01*
X252720095Y-87144571D02*
X253291523Y-87144571D01*
X253291523Y-87668380D02*
X253291523Y-86668380D01*
X253720095Y-86763619D02*
X253767714Y-86716000D01*
X253862952Y-86668380D01*
X254101047Y-86668380D01*
X254196285Y-86716000D01*
X254243904Y-86763619D01*
X254291523Y-86858857D01*
X254291523Y-86954095D01*
X254243904Y-87096952D01*
X253672476Y-87668380D01*
X254291523Y-87668380D01*
X177720095Y-87668380D02*
X177720095Y-86668380D01*
X177720095Y-87144571D02*
X178291523Y-87144571D01*
X178291523Y-87668380D02*
X178291523Y-86668380D01*
X179291523Y-87668380D02*
X178720095Y-87668380D01*
X179005809Y-87668380D02*
X179005809Y-86668380D01*
X178910571Y-86811238D01*
X178815333Y-86906476D01*
X178720095Y-86954095D01*
X209637333Y-93543380D02*
X209304000Y-93067190D01*
X209065904Y-93543380D02*
X209065904Y-92543380D01*
X209446857Y-92543380D01*
X209542095Y-92591000D01*
X209589714Y-92638619D01*
X209637333Y-92733857D01*
X209637333Y-92876714D01*
X209589714Y-92971952D01*
X209542095Y-93019571D01*
X209446857Y-93067190D01*
X209065904Y-93067190D01*
X210589714Y-93543380D02*
X210018285Y-93543380D01*
X210304000Y-93543380D02*
X210304000Y-92543380D01*
X210208761Y-92686238D01*
X210113523Y-92781476D01*
X210018285Y-92829095D01*
X202890380Y-102592095D02*
X201890380Y-102592095D01*
X201890380Y-102354000D01*
X201938000Y-102211142D01*
X202033238Y-102115904D01*
X202128476Y-102068285D01*
X202318952Y-102020666D01*
X202461809Y-102020666D01*
X202652285Y-102068285D01*
X202747523Y-102115904D01*
X202842761Y-102211142D01*
X202890380Y-102354000D01*
X202890380Y-102592095D01*
X202223714Y-101163523D02*
X202890380Y-101163523D01*
X201842761Y-101401619D02*
X202557047Y-101639714D01*
X202557047Y-101020666D01*
X234910380Y-95376904D02*
X235719904Y-95376904D01*
X235815142Y-95329285D01*
X235862761Y-95281666D01*
X235910380Y-95186428D01*
X235910380Y-94995952D01*
X235862761Y-94900714D01*
X235815142Y-94853095D01*
X235719904Y-94805476D01*
X234910380Y-94805476D01*
X235910380Y-93805476D02*
X235910380Y-94376904D01*
X235910380Y-94091190D02*
X234910380Y-94091190D01*
X235053238Y-94186428D01*
X235148476Y-94281666D01*
X235196095Y-94376904D01*
X217546180Y-94807066D02*
X217069990Y-95140400D01*
X217546180Y-95378495D02*
X216546180Y-95378495D01*
X216546180Y-94997542D01*
X216593800Y-94902304D01*
X216641419Y-94854685D01*
X216736657Y-94807066D01*
X216879514Y-94807066D01*
X216974752Y-94854685D01*
X217022371Y-94902304D01*
X217069990Y-94997542D01*
X217069990Y-95378495D01*
X216879514Y-93949923D02*
X217546180Y-93949923D01*
X216498561Y-94188019D02*
X217212847Y-94426114D01*
X217212847Y-93807066D01*
X210272380Y-97916904D02*
X211081904Y-97916904D01*
X211177142Y-97869285D01*
X211224761Y-97821666D01*
X211272380Y-97726428D01*
X211272380Y-97535952D01*
X211224761Y-97440714D01*
X211177142Y-97393095D01*
X211081904Y-97345476D01*
X210272380Y-97345476D01*
X210367619Y-96916904D02*
X210320000Y-96869285D01*
X210272380Y-96774047D01*
X210272380Y-96535952D01*
X210320000Y-96440714D01*
X210367619Y-96393095D01*
X210462857Y-96345476D01*
X210558095Y-96345476D01*
X210700952Y-96393095D01*
X211272380Y-96964523D01*
X211272380Y-96345476D01*
X208113333Y-107672142D02*
X208065714Y-107719761D01*
X207922857Y-107767380D01*
X207827619Y-107767380D01*
X207684761Y-107719761D01*
X207589523Y-107624523D01*
X207541904Y-107529285D01*
X207494285Y-107338809D01*
X207494285Y-107195952D01*
X207541904Y-107005476D01*
X207589523Y-106910238D01*
X207684761Y-106815000D01*
X207827619Y-106767380D01*
X207922857Y-106767380D01*
X208065714Y-106815000D01*
X208113333Y-106862619D01*
X209065714Y-107767380D02*
X208494285Y-107767380D01*
X208780000Y-107767380D02*
X208780000Y-106767380D01*
X208684761Y-106910238D01*
X208589523Y-107005476D01*
X208494285Y-107053095D01*
X211669333Y-88971380D02*
X211336000Y-88495190D01*
X211097904Y-88971380D02*
X211097904Y-87971380D01*
X211478857Y-87971380D01*
X211574095Y-88019000D01*
X211621714Y-88066619D01*
X211669333Y-88161857D01*
X211669333Y-88304714D01*
X211621714Y-88399952D01*
X211574095Y-88447571D01*
X211478857Y-88495190D01*
X211097904Y-88495190D01*
X212574095Y-87971380D02*
X212097904Y-87971380D01*
X212050285Y-88447571D01*
X212097904Y-88399952D01*
X212193142Y-88352333D01*
X212431238Y-88352333D01*
X212526476Y-88399952D01*
X212574095Y-88447571D01*
X212621714Y-88542809D01*
X212621714Y-88780904D01*
X212574095Y-88876142D01*
X212526476Y-88923761D01*
X212431238Y-88971380D01*
X212193142Y-88971380D01*
X212097904Y-88923761D01*
X212050285Y-88876142D01*
X233362380Y-86820333D02*
X234076666Y-86820333D01*
X234219523Y-86867952D01*
X234314761Y-86963190D01*
X234362380Y-87106047D01*
X234362380Y-87201285D01*
X234362380Y-85820333D02*
X234362380Y-86391761D01*
X234362380Y-86106047D02*
X233362380Y-86106047D01*
X233505238Y-86201285D01*
X233600476Y-86296523D01*
X233648095Y-86391761D01*
X217368380Y-98591666D02*
X217368380Y-99067857D01*
X216368380Y-99067857D01*
X217368380Y-97734523D02*
X217368380Y-98305952D01*
X217368380Y-98020238D02*
X216368380Y-98020238D01*
X216511238Y-98115476D01*
X216606476Y-98210714D01*
X216654095Y-98305952D01*
X213701333Y-88971380D02*
X213368000Y-88495190D01*
X213129904Y-88971380D02*
X213129904Y-87971380D01*
X213510857Y-87971380D01*
X213606095Y-88019000D01*
X213653714Y-88066619D01*
X213701333Y-88161857D01*
X213701333Y-88304714D01*
X213653714Y-88399952D01*
X213606095Y-88447571D01*
X213510857Y-88495190D01*
X213129904Y-88495190D01*
X214558476Y-87971380D02*
X214368000Y-87971380D01*
X214272761Y-88019000D01*
X214225142Y-88066619D01*
X214129904Y-88209476D01*
X214082285Y-88399952D01*
X214082285Y-88780904D01*
X214129904Y-88876142D01*
X214177523Y-88923761D01*
X214272761Y-88971380D01*
X214463238Y-88971380D01*
X214558476Y-88923761D01*
X214606095Y-88876142D01*
X214653714Y-88780904D01*
X214653714Y-88542809D01*
X214606095Y-88447571D01*
X214558476Y-88399952D01*
X214463238Y-88352333D01*
X214272761Y-88352333D01*
X214177523Y-88399952D01*
X214129904Y-88447571D01*
X214082285Y-88542809D01*
X199684666Y-95301380D02*
X199684666Y-96015666D01*
X199637047Y-96158523D01*
X199541809Y-96253761D01*
X199398952Y-96301380D01*
X199303714Y-96301380D01*
X200113238Y-95396619D02*
X200160857Y-95349000D01*
X200256095Y-95301380D01*
X200494190Y-95301380D01*
X200589428Y-95349000D01*
X200637047Y-95396619D01*
X200684666Y-95491857D01*
X200684666Y-95587095D01*
X200637047Y-95729952D01*
X200065619Y-96301380D01*
X200684666Y-96301380D01*
X199080380Y-102592095D02*
X198080380Y-102592095D01*
X198080380Y-102354000D01*
X198128000Y-102211142D01*
X198223238Y-102115904D01*
X198318476Y-102068285D01*
X198508952Y-102020666D01*
X198651809Y-102020666D01*
X198842285Y-102068285D01*
X198937523Y-102115904D01*
X199032761Y-102211142D01*
X199080380Y-102354000D01*
X199080380Y-102592095D01*
X198080380Y-101687333D02*
X198080380Y-101068285D01*
X198461333Y-101401619D01*
X198461333Y-101258761D01*
X198508952Y-101163523D01*
X198556571Y-101115904D01*
X198651809Y-101068285D01*
X198889904Y-101068285D01*
X198985142Y-101115904D01*
X199032761Y-101163523D01*
X199080380Y-101258761D01*
X199080380Y-101544476D01*
X199032761Y-101639714D01*
X198985142Y-101687333D01*
X202017333Y-110053380D02*
X201684000Y-109577190D01*
X201445904Y-110053380D02*
X201445904Y-109053380D01*
X201826857Y-109053380D01*
X201922095Y-109101000D01*
X201969714Y-109148619D01*
X202017333Y-109243857D01*
X202017333Y-109386714D01*
X201969714Y-109481952D01*
X201922095Y-109529571D01*
X201826857Y-109577190D01*
X201445904Y-109577190D01*
X202398285Y-109148619D02*
X202445904Y-109101000D01*
X202541142Y-109053380D01*
X202779238Y-109053380D01*
X202874476Y-109101000D01*
X202922095Y-109148619D01*
X202969714Y-109243857D01*
X202969714Y-109339095D01*
X202922095Y-109481952D01*
X202350666Y-110053380D01*
X202969714Y-110053380D01*
X215424761Y-110934333D02*
X215472380Y-110791476D01*
X215472380Y-110553380D01*
X215424761Y-110458142D01*
X215377142Y-110410523D01*
X215281904Y-110362904D01*
X215186666Y-110362904D01*
X215091428Y-110410523D01*
X215043809Y-110458142D01*
X214996190Y-110553380D01*
X214948571Y-110743857D01*
X214900952Y-110839095D01*
X214853333Y-110886714D01*
X214758095Y-110934333D01*
X214662857Y-110934333D01*
X214567619Y-110886714D01*
X214520000Y-110839095D01*
X214472380Y-110743857D01*
X214472380Y-110505761D01*
X214520000Y-110362904D01*
X214472380Y-110029571D02*
X215472380Y-109791476D01*
X214758095Y-109601000D01*
X215472380Y-109410523D01*
X214472380Y-109172428D01*
X215472380Y-108267666D02*
X215472380Y-108839095D01*
X215472380Y-108553380D02*
X214472380Y-108553380D01*
X214615238Y-108648619D01*
X214710476Y-108743857D01*
X214758095Y-108839095D01*
X214169333Y-86082142D02*
X214121714Y-86129761D01*
X213978857Y-86177380D01*
X213883619Y-86177380D01*
X213740761Y-86129761D01*
X213645523Y-86034523D01*
X213597904Y-85939285D01*
X213550285Y-85748809D01*
X213550285Y-85605952D01*
X213597904Y-85415476D01*
X213645523Y-85320238D01*
X213740761Y-85225000D01*
X213883619Y-85177380D01*
X213978857Y-85177380D01*
X214121714Y-85225000D01*
X214169333Y-85272619D01*
X214502666Y-85177380D02*
X215121714Y-85177380D01*
X214788380Y-85558333D01*
X214931238Y-85558333D01*
X215026476Y-85605952D01*
X215074095Y-85653571D01*
X215121714Y-85748809D01*
X215121714Y-85986904D01*
X215074095Y-86082142D01*
X215026476Y-86129761D01*
X214931238Y-86177380D01*
X214645523Y-86177380D01*
X214550285Y-86129761D01*
X214502666Y-86082142D01*
X204298561Y-96204019D02*
X204203323Y-96156400D01*
X204108085Y-96061161D01*
X203965228Y-95918304D01*
X203869990Y-95870685D01*
X203774752Y-95870685D01*
X203822371Y-96108780D02*
X203727133Y-96061161D01*
X203631895Y-95965923D01*
X203584276Y-95775447D01*
X203584276Y-95442114D01*
X203631895Y-95251638D01*
X203727133Y-95156400D01*
X203822371Y-95108780D01*
X204012847Y-95108780D01*
X204108085Y-95156400D01*
X204203323Y-95251638D01*
X204250942Y-95442114D01*
X204250942Y-95775447D01*
X204203323Y-95965923D01*
X204108085Y-96061161D01*
X204012847Y-96108780D01*
X203822371Y-96108780D01*
X205203323Y-96108780D02*
X204631895Y-96108780D01*
X204917609Y-96108780D02*
X204917609Y-95108780D01*
X204822371Y-95251638D01*
X204727133Y-95346876D01*
X204631895Y-95394495D01*
X218781333Y-86336142D02*
X218733714Y-86383761D01*
X218590857Y-86431380D01*
X218495619Y-86431380D01*
X218352761Y-86383761D01*
X218257523Y-86288523D01*
X218209904Y-86193285D01*
X218162285Y-86002809D01*
X218162285Y-85859952D01*
X218209904Y-85669476D01*
X218257523Y-85574238D01*
X218352761Y-85479000D01*
X218495619Y-85431380D01*
X218590857Y-85431380D01*
X218733714Y-85479000D01*
X218781333Y-85526619D01*
X219162285Y-85526619D02*
X219209904Y-85479000D01*
X219305142Y-85431380D01*
X219543238Y-85431380D01*
X219638476Y-85479000D01*
X219686095Y-85526619D01*
X219733714Y-85621857D01*
X219733714Y-85717095D01*
X219686095Y-85859952D01*
X219114666Y-86431380D01*
X219733714Y-86431380D01*
X191460380Y-102592095D02*
X190460380Y-102592095D01*
X190460380Y-102354000D01*
X190508000Y-102211142D01*
X190603238Y-102115904D01*
X190698476Y-102068285D01*
X190888952Y-102020666D01*
X191031809Y-102020666D01*
X191222285Y-102068285D01*
X191317523Y-102115904D01*
X191412761Y-102211142D01*
X191460380Y-102354000D01*
X191460380Y-102592095D01*
X190555619Y-101639714D02*
X190508000Y-101592095D01*
X190460380Y-101496857D01*
X190460380Y-101258761D01*
X190508000Y-101163523D01*
X190555619Y-101115904D01*
X190650857Y-101068285D01*
X190746095Y-101068285D01*
X190888952Y-101115904D01*
X191460380Y-101687333D01*
X191460380Y-101068285D01*
X195270380Y-102592095D02*
X194270380Y-102592095D01*
X194270380Y-102354000D01*
X194318000Y-102211142D01*
X194413238Y-102115904D01*
X194508476Y-102068285D01*
X194698952Y-102020666D01*
X194841809Y-102020666D01*
X195032285Y-102068285D01*
X195127523Y-102115904D01*
X195222761Y-102211142D01*
X195270380Y-102354000D01*
X195270380Y-102592095D01*
X195270380Y-101068285D02*
X195270380Y-101639714D01*
X195270380Y-101354000D02*
X194270380Y-101354000D01*
X194413238Y-101449238D01*
X194508476Y-101544476D01*
X194556095Y-101639714D01*
X226640380Y-90717666D02*
X226164190Y-91051000D01*
X226640380Y-91289095D02*
X225640380Y-91289095D01*
X225640380Y-90908142D01*
X225688000Y-90812904D01*
X225735619Y-90765285D01*
X225830857Y-90717666D01*
X225973714Y-90717666D01*
X226068952Y-90765285D01*
X226116571Y-90812904D01*
X226164190Y-90908142D01*
X226164190Y-91289095D01*
X225640380Y-90384333D02*
X225640380Y-89765285D01*
X226021333Y-90098619D01*
X226021333Y-89955761D01*
X226068952Y-89860523D01*
X226116571Y-89812904D01*
X226211809Y-89765285D01*
X226449904Y-89765285D01*
X226545142Y-89812904D01*
X226592761Y-89860523D01*
X226640380Y-89955761D01*
X226640380Y-90241476D01*
X226592761Y-90336714D01*
X226545142Y-90384333D01*
X215733333Y-102592142D02*
X215685714Y-102639761D01*
X215542857Y-102687380D01*
X215447619Y-102687380D01*
X215304761Y-102639761D01*
X215209523Y-102544523D01*
X215161904Y-102449285D01*
X215114285Y-102258809D01*
X215114285Y-102115952D01*
X215161904Y-101925476D01*
X215209523Y-101830238D01*
X215304761Y-101735000D01*
X215447619Y-101687380D01*
X215542857Y-101687380D01*
X215685714Y-101735000D01*
X215733333Y-101782619D01*
X216590476Y-102020714D02*
X216590476Y-102687380D01*
X216352380Y-101639761D02*
X216114285Y-102354047D01*
X216733333Y-102354047D01*
M02*
