G04 #@! TF.GenerationSoftware,KiCad,Pcbnew,5.1.2*
G04 #@! TF.CreationDate,2019-06-29T16:33:47+01:00*
G04 #@! TF.ProjectId,garage_receiver,67617261-6765-45f7-9265-636569766572,rev?*
G04 #@! TF.SameCoordinates,Original*
G04 #@! TF.FileFunction,Soldermask,Top*
G04 #@! TF.FilePolarity,Negative*
%FSLAX46Y46*%
G04 Gerber Fmt 4.6, Leading zero omitted, Abs format (unit mm)*
G04 Created by KiCad (PCBNEW 5.1.2) date 2019-06-29 16:33:47*
%MOMM*%
%LPD*%
G04 APERTURE LIST*
%ADD10C,0.100000*%
G04 APERTURE END LIST*
D10*
G36*
X252430279Y-112089933D02*
G01*
X252430281Y-112089934D01*
X252430282Y-112089934D01*
X253021926Y-112335001D01*
X253199012Y-112453326D01*
X253554391Y-112690782D01*
X254007218Y-113143609D01*
X254170108Y-113387392D01*
X254362999Y-113676074D01*
X254608066Y-114267718D01*
X254608067Y-114267721D01*
X254733000Y-114895802D01*
X254733000Y-115536198D01*
X254706982Y-115667000D01*
X254608066Y-116164282D01*
X254362999Y-116755926D01*
X254345908Y-116781504D01*
X254007218Y-117288391D01*
X253554391Y-117741218D01*
X253217510Y-117966314D01*
X253021926Y-118096999D01*
X252430282Y-118342066D01*
X252430281Y-118342066D01*
X252430279Y-118342067D01*
X251802198Y-118467000D01*
X251161802Y-118467000D01*
X250533721Y-118342067D01*
X250533719Y-118342066D01*
X250533718Y-118342066D01*
X249942074Y-118096999D01*
X249746490Y-117966314D01*
X249409609Y-117741218D01*
X248956782Y-117288391D01*
X248618092Y-116781504D01*
X248601001Y-116755926D01*
X248355934Y-116164282D01*
X248257019Y-115667000D01*
X248231000Y-115536198D01*
X248231000Y-114895802D01*
X248355933Y-114267721D01*
X248355934Y-114267718D01*
X248601001Y-113676074D01*
X248793892Y-113387392D01*
X248956782Y-113143609D01*
X249409609Y-112690782D01*
X249764988Y-112453326D01*
X249942074Y-112335001D01*
X250533718Y-112089934D01*
X250533719Y-112089934D01*
X250533721Y-112089933D01*
X251161802Y-111965000D01*
X251802198Y-111965000D01*
X252430279Y-112089933D01*
X252430279Y-112089933D01*
G37*
G36*
X181430279Y-112089933D02*
G01*
X181430281Y-112089934D01*
X181430282Y-112089934D01*
X182021926Y-112335001D01*
X182199012Y-112453326D01*
X182554391Y-112690782D01*
X183007218Y-113143609D01*
X183170108Y-113387392D01*
X183362999Y-113676074D01*
X183608066Y-114267718D01*
X183608067Y-114267721D01*
X183733000Y-114895802D01*
X183733000Y-115536198D01*
X183706982Y-115667000D01*
X183608066Y-116164282D01*
X183362999Y-116755926D01*
X183345908Y-116781504D01*
X183007218Y-117288391D01*
X182554391Y-117741218D01*
X182217510Y-117966314D01*
X182021926Y-118096999D01*
X181430282Y-118342066D01*
X181430281Y-118342066D01*
X181430279Y-118342067D01*
X180802198Y-118467000D01*
X180161802Y-118467000D01*
X179533721Y-118342067D01*
X179533719Y-118342066D01*
X179533718Y-118342066D01*
X178942074Y-118096999D01*
X178746490Y-117966314D01*
X178409609Y-117741218D01*
X177956782Y-117288391D01*
X177618092Y-116781504D01*
X177601001Y-116755926D01*
X177355934Y-116164282D01*
X177257019Y-115667000D01*
X177231000Y-115536198D01*
X177231000Y-114895802D01*
X177355933Y-114267721D01*
X177355934Y-114267718D01*
X177601001Y-113676074D01*
X177793892Y-113387392D01*
X177956782Y-113143609D01*
X178409609Y-112690782D01*
X178764988Y-112453326D01*
X178942074Y-112335001D01*
X179533718Y-112089934D01*
X179533719Y-112089934D01*
X179533721Y-112089933D01*
X180161802Y-111965000D01*
X180802198Y-111965000D01*
X181430279Y-112089933D01*
X181430279Y-112089933D01*
G37*
G36*
X212859347Y-110669955D02*
G01*
X212905593Y-110683983D01*
X212948214Y-110706765D01*
X212985575Y-110737425D01*
X213016235Y-110774786D01*
X213039017Y-110817407D01*
X213053045Y-110863653D01*
X213058000Y-110913958D01*
X213058000Y-111918042D01*
X213053045Y-111968347D01*
X213039017Y-112014593D01*
X213016235Y-112057214D01*
X212985575Y-112094575D01*
X212948214Y-112125235D01*
X212905593Y-112148017D01*
X212859347Y-112162045D01*
X212809042Y-112167000D01*
X212229958Y-112167000D01*
X212179653Y-112162045D01*
X212133407Y-112148017D01*
X212090786Y-112125235D01*
X212053425Y-112094575D01*
X212022765Y-112057214D01*
X211999983Y-112014593D01*
X211985955Y-111968347D01*
X211981000Y-111918042D01*
X211981000Y-110913958D01*
X211985955Y-110863653D01*
X211999983Y-110817407D01*
X212022765Y-110774786D01*
X212053425Y-110737425D01*
X212090786Y-110706765D01*
X212133407Y-110683983D01*
X212179653Y-110669955D01*
X212229958Y-110665000D01*
X212809042Y-110665000D01*
X212859347Y-110669955D01*
X212859347Y-110669955D01*
G37*
G36*
X210984347Y-110669955D02*
G01*
X211030593Y-110683983D01*
X211073214Y-110706765D01*
X211110575Y-110737425D01*
X211141235Y-110774786D01*
X211164017Y-110817407D01*
X211178045Y-110863653D01*
X211183000Y-110913958D01*
X211183000Y-111918042D01*
X211178045Y-111968347D01*
X211164017Y-112014593D01*
X211141235Y-112057214D01*
X211110575Y-112094575D01*
X211073214Y-112125235D01*
X211030593Y-112148017D01*
X210984347Y-112162045D01*
X210934042Y-112167000D01*
X210354958Y-112167000D01*
X210304653Y-112162045D01*
X210258407Y-112148017D01*
X210215786Y-112125235D01*
X210178425Y-112094575D01*
X210147765Y-112057214D01*
X210124983Y-112014593D01*
X210110955Y-111968347D01*
X210106000Y-111918042D01*
X210106000Y-110913958D01*
X210110955Y-110863653D01*
X210124983Y-110817407D01*
X210147765Y-110774786D01*
X210178425Y-110737425D01*
X210215786Y-110706765D01*
X210258407Y-110683983D01*
X210304653Y-110669955D01*
X210354958Y-110665000D01*
X210934042Y-110665000D01*
X210984347Y-110669955D01*
X210984347Y-110669955D01*
G37*
G36*
X220784347Y-110469955D02*
G01*
X220830593Y-110483983D01*
X220873214Y-110506765D01*
X220910575Y-110537425D01*
X220941235Y-110574786D01*
X220964017Y-110617407D01*
X220978045Y-110663653D01*
X220983000Y-110713958D01*
X220983000Y-111718042D01*
X220978045Y-111768347D01*
X220964017Y-111814593D01*
X220941235Y-111857214D01*
X220910575Y-111894575D01*
X220873214Y-111925235D01*
X220830593Y-111948017D01*
X220784347Y-111962045D01*
X220734042Y-111967000D01*
X220154958Y-111967000D01*
X220104653Y-111962045D01*
X220058407Y-111948017D01*
X220015786Y-111925235D01*
X219978425Y-111894575D01*
X219947765Y-111857214D01*
X219924983Y-111814593D01*
X219910955Y-111768347D01*
X219906000Y-111718042D01*
X219906000Y-110713958D01*
X219910955Y-110663653D01*
X219924983Y-110617407D01*
X219947765Y-110574786D01*
X219978425Y-110537425D01*
X220015786Y-110506765D01*
X220058407Y-110483983D01*
X220104653Y-110469955D01*
X220154958Y-110465000D01*
X220734042Y-110465000D01*
X220784347Y-110469955D01*
X220784347Y-110469955D01*
G37*
G36*
X222659347Y-110469955D02*
G01*
X222705593Y-110483983D01*
X222748214Y-110506765D01*
X222785575Y-110537425D01*
X222816235Y-110574786D01*
X222839017Y-110617407D01*
X222853045Y-110663653D01*
X222858000Y-110713958D01*
X222858000Y-111718042D01*
X222853045Y-111768347D01*
X222839017Y-111814593D01*
X222816235Y-111857214D01*
X222785575Y-111894575D01*
X222748214Y-111925235D01*
X222705593Y-111948017D01*
X222659347Y-111962045D01*
X222609042Y-111967000D01*
X222029958Y-111967000D01*
X221979653Y-111962045D01*
X221933407Y-111948017D01*
X221890786Y-111925235D01*
X221853425Y-111894575D01*
X221822765Y-111857214D01*
X221799983Y-111814593D01*
X221785955Y-111768347D01*
X221781000Y-111718042D01*
X221781000Y-110713958D01*
X221785955Y-110663653D01*
X221799983Y-110617407D01*
X221822765Y-110574786D01*
X221853425Y-110537425D01*
X221890786Y-110506765D01*
X221933407Y-110483983D01*
X221979653Y-110469955D01*
X222029958Y-110465000D01*
X222609042Y-110465000D01*
X222659347Y-110469955D01*
X222659347Y-110469955D01*
G37*
G36*
X219345172Y-110916711D02*
G01*
X219359766Y-110921139D01*
X219373214Y-110928327D01*
X219385000Y-110938000D01*
X219394673Y-110949786D01*
X219401861Y-110963234D01*
X219406289Y-110977828D01*
X219408000Y-110995206D01*
X219408000Y-111236794D01*
X219406289Y-111254172D01*
X219401861Y-111268766D01*
X219394673Y-111282214D01*
X219385000Y-111294000D01*
X219373214Y-111303673D01*
X219359766Y-111310861D01*
X219345172Y-111315289D01*
X219327794Y-111317000D01*
X217936206Y-111317000D01*
X217918828Y-111315289D01*
X217904234Y-111310861D01*
X217890786Y-111303673D01*
X217879000Y-111294000D01*
X217869327Y-111282214D01*
X217862139Y-111268766D01*
X217857711Y-111254172D01*
X217856000Y-111236794D01*
X217856000Y-110995206D01*
X217857711Y-110977828D01*
X217862139Y-110963234D01*
X217869327Y-110949786D01*
X217879000Y-110938000D01*
X217890786Y-110928327D01*
X217904234Y-110921139D01*
X217918828Y-110916711D01*
X217936206Y-110915000D01*
X219327794Y-110915000D01*
X219345172Y-110916711D01*
X219345172Y-110916711D01*
G37*
G36*
X215045172Y-110916711D02*
G01*
X215059766Y-110921139D01*
X215073214Y-110928327D01*
X215085000Y-110938000D01*
X215094673Y-110949786D01*
X215101861Y-110963234D01*
X215106289Y-110977828D01*
X215108000Y-110995206D01*
X215108000Y-111236794D01*
X215106289Y-111254172D01*
X215101861Y-111268766D01*
X215094673Y-111282214D01*
X215085000Y-111294000D01*
X215073214Y-111303673D01*
X215059766Y-111310861D01*
X215045172Y-111315289D01*
X215027794Y-111317000D01*
X213636206Y-111317000D01*
X213618828Y-111315289D01*
X213604234Y-111310861D01*
X213590786Y-111303673D01*
X213579000Y-111294000D01*
X213569327Y-111282214D01*
X213562139Y-111268766D01*
X213557711Y-111254172D01*
X213556000Y-111236794D01*
X213556000Y-110995206D01*
X213557711Y-110977828D01*
X213562139Y-110963234D01*
X213569327Y-110949786D01*
X213579000Y-110938000D01*
X213590786Y-110928327D01*
X213604234Y-110921139D01*
X213618828Y-110916711D01*
X213636206Y-110915000D01*
X215027794Y-110915000D01*
X215045172Y-110916711D01*
X215045172Y-110916711D01*
G37*
G36*
X217184954Y-109129702D02*
G01*
X217228727Y-109142980D01*
X217269070Y-109164544D01*
X217304434Y-109193566D01*
X217333456Y-109228930D01*
X217355020Y-109269273D01*
X217368298Y-109313046D01*
X217373000Y-109360781D01*
X217373000Y-110871219D01*
X217368298Y-110918954D01*
X217355020Y-110962727D01*
X217333456Y-111003070D01*
X217304434Y-111038434D01*
X217269070Y-111067456D01*
X217228727Y-111089020D01*
X217184954Y-111102298D01*
X217137219Y-111107000D01*
X215826781Y-111107000D01*
X215779046Y-111102298D01*
X215735273Y-111089020D01*
X215694930Y-111067456D01*
X215659566Y-111038434D01*
X215630544Y-111003070D01*
X215608980Y-110962727D01*
X215595702Y-110918954D01*
X215591000Y-110871219D01*
X215591000Y-109360781D01*
X215595702Y-109313046D01*
X215608980Y-109269273D01*
X215630544Y-109228930D01*
X215659566Y-109193566D01*
X215694930Y-109164544D01*
X215735273Y-109142980D01*
X215779046Y-109129702D01*
X215826781Y-109125000D01*
X217137219Y-109125000D01*
X217184954Y-109129702D01*
X217184954Y-109129702D01*
G37*
G36*
X209334347Y-109819955D02*
G01*
X209380593Y-109833983D01*
X209423214Y-109856765D01*
X209460575Y-109887425D01*
X209491235Y-109924786D01*
X209514017Y-109967407D01*
X209528045Y-110013653D01*
X209533000Y-110063958D01*
X209533000Y-110643042D01*
X209528045Y-110693347D01*
X209514017Y-110739593D01*
X209491235Y-110782214D01*
X209460575Y-110819575D01*
X209423214Y-110850235D01*
X209380593Y-110873017D01*
X209334347Y-110887045D01*
X209284042Y-110892000D01*
X208279958Y-110892000D01*
X208229653Y-110887045D01*
X208183407Y-110873017D01*
X208140786Y-110850235D01*
X208103425Y-110819575D01*
X208072765Y-110782214D01*
X208049983Y-110739593D01*
X208035955Y-110693347D01*
X208031000Y-110643042D01*
X208031000Y-110063958D01*
X208035955Y-110013653D01*
X208049983Y-109967407D01*
X208072765Y-109924786D01*
X208103425Y-109887425D01*
X208140786Y-109856765D01*
X208183407Y-109833983D01*
X208229653Y-109819955D01*
X208279958Y-109815000D01*
X209284042Y-109815000D01*
X209334347Y-109819955D01*
X209334347Y-109819955D01*
G37*
G36*
X215045172Y-110416711D02*
G01*
X215059766Y-110421139D01*
X215073214Y-110428327D01*
X215085000Y-110438000D01*
X215094673Y-110449786D01*
X215101861Y-110463234D01*
X215106289Y-110477828D01*
X215108000Y-110495206D01*
X215108000Y-110736794D01*
X215106289Y-110754172D01*
X215101861Y-110768766D01*
X215094673Y-110782214D01*
X215085000Y-110794000D01*
X215073214Y-110803673D01*
X215059766Y-110810861D01*
X215045172Y-110815289D01*
X215027794Y-110817000D01*
X213636206Y-110817000D01*
X213618828Y-110815289D01*
X213604234Y-110810861D01*
X213590786Y-110803673D01*
X213579000Y-110794000D01*
X213569327Y-110782214D01*
X213562139Y-110768766D01*
X213557711Y-110754172D01*
X213556000Y-110736794D01*
X213556000Y-110495206D01*
X213557711Y-110477828D01*
X213562139Y-110463234D01*
X213569327Y-110449786D01*
X213579000Y-110438000D01*
X213590786Y-110428327D01*
X213604234Y-110421139D01*
X213618828Y-110416711D01*
X213636206Y-110415000D01*
X215027794Y-110415000D01*
X215045172Y-110416711D01*
X215045172Y-110416711D01*
G37*
G36*
X219345172Y-110416711D02*
G01*
X219359766Y-110421139D01*
X219373214Y-110428327D01*
X219385000Y-110438000D01*
X219394673Y-110449786D01*
X219401861Y-110463234D01*
X219406289Y-110477828D01*
X219408000Y-110495206D01*
X219408000Y-110736794D01*
X219406289Y-110754172D01*
X219401861Y-110768766D01*
X219394673Y-110782214D01*
X219385000Y-110794000D01*
X219373214Y-110803673D01*
X219359766Y-110810861D01*
X219345172Y-110815289D01*
X219327794Y-110817000D01*
X217936206Y-110817000D01*
X217918828Y-110815289D01*
X217904234Y-110810861D01*
X217890786Y-110803673D01*
X217879000Y-110794000D01*
X217869327Y-110782214D01*
X217862139Y-110768766D01*
X217857711Y-110754172D01*
X217856000Y-110736794D01*
X217856000Y-110495206D01*
X217857711Y-110477828D01*
X217862139Y-110463234D01*
X217869327Y-110449786D01*
X217879000Y-110438000D01*
X217890786Y-110428327D01*
X217904234Y-110421139D01*
X217918828Y-110416711D01*
X217936206Y-110415000D01*
X219327794Y-110415000D01*
X219345172Y-110416711D01*
X219345172Y-110416711D01*
G37*
G36*
X194133635Y-108399654D02*
G01*
X194205957Y-108421593D01*
X194350596Y-108465468D01*
X194350599Y-108465470D01*
X194350600Y-108465470D01*
X194550555Y-108572348D01*
X194725818Y-108716182D01*
X194869652Y-108891445D01*
X194925481Y-108995893D01*
X194976532Y-109091404D01*
X195007522Y-109193566D01*
X195042346Y-109308365D01*
X195064569Y-109534000D01*
X195042346Y-109759635D01*
X195025551Y-109815000D01*
X194976532Y-109976596D01*
X194976530Y-109976599D01*
X194976530Y-109976600D01*
X194869652Y-110176555D01*
X194725818Y-110351818D01*
X194564774Y-110483983D01*
X194550555Y-110495652D01*
X194350596Y-110602532D01*
X194217051Y-110643042D01*
X194133635Y-110668346D01*
X193964543Y-110685000D01*
X193851457Y-110685000D01*
X193682365Y-110668346D01*
X193598949Y-110643042D01*
X193465404Y-110602532D01*
X193265445Y-110495652D01*
X193251226Y-110483983D01*
X193090182Y-110351818D01*
X192946348Y-110176555D01*
X192839470Y-109976600D01*
X192839470Y-109976599D01*
X192839468Y-109976596D01*
X192790449Y-109815000D01*
X192773654Y-109759635D01*
X192751431Y-109534000D01*
X192773654Y-109308365D01*
X192808478Y-109193566D01*
X192839468Y-109091404D01*
X192890520Y-108995893D01*
X192946348Y-108891445D01*
X193090182Y-108716182D01*
X193265445Y-108572348D01*
X193465400Y-108465470D01*
X193465401Y-108465470D01*
X193465404Y-108465468D01*
X193610043Y-108421593D01*
X193682365Y-108399654D01*
X193851457Y-108383000D01*
X193964543Y-108383000D01*
X194133635Y-108399654D01*
X194133635Y-108399654D01*
G37*
G36*
X206489000Y-110685000D02*
G01*
X204187000Y-110685000D01*
X204187000Y-108383000D01*
X206489000Y-108383000D01*
X206489000Y-110685000D01*
X206489000Y-110685000D01*
G37*
G36*
X198869000Y-110685000D02*
G01*
X196567000Y-110685000D01*
X196567000Y-108383000D01*
X198869000Y-108383000D01*
X198869000Y-110685000D01*
X198869000Y-110685000D01*
G37*
G36*
X201753635Y-108399654D02*
G01*
X201825957Y-108421593D01*
X201970596Y-108465468D01*
X201970599Y-108465470D01*
X201970600Y-108465470D01*
X202170555Y-108572348D01*
X202345818Y-108716182D01*
X202489652Y-108891445D01*
X202545481Y-108995893D01*
X202596532Y-109091404D01*
X202627522Y-109193566D01*
X202662346Y-109308365D01*
X202684569Y-109534000D01*
X202662346Y-109759635D01*
X202645551Y-109815000D01*
X202596532Y-109976596D01*
X202596530Y-109976599D01*
X202596530Y-109976600D01*
X202489652Y-110176555D01*
X202345818Y-110351818D01*
X202184774Y-110483983D01*
X202170555Y-110495652D01*
X201970596Y-110602532D01*
X201837051Y-110643042D01*
X201753635Y-110668346D01*
X201584543Y-110685000D01*
X201471457Y-110685000D01*
X201302365Y-110668346D01*
X201218949Y-110643042D01*
X201085404Y-110602532D01*
X200885445Y-110495652D01*
X200871226Y-110483983D01*
X200710182Y-110351818D01*
X200566348Y-110176555D01*
X200459470Y-109976600D01*
X200459470Y-109976599D01*
X200459468Y-109976596D01*
X200410449Y-109815000D01*
X200393654Y-109759635D01*
X200371431Y-109534000D01*
X200393654Y-109308365D01*
X200428478Y-109193566D01*
X200459468Y-109091404D01*
X200510520Y-108995893D01*
X200566348Y-108891445D01*
X200710182Y-108716182D01*
X200885445Y-108572348D01*
X201085400Y-108465470D01*
X201085401Y-108465470D01*
X201085404Y-108465468D01*
X201230043Y-108421593D01*
X201302365Y-108399654D01*
X201471457Y-108383000D01*
X201584543Y-108383000D01*
X201753635Y-108399654D01*
X201753635Y-108399654D01*
G37*
G36*
X219345172Y-109916711D02*
G01*
X219359766Y-109921139D01*
X219373214Y-109928327D01*
X219385000Y-109938000D01*
X219394673Y-109949786D01*
X219401861Y-109963234D01*
X219406289Y-109977828D01*
X219408000Y-109995206D01*
X219408000Y-110236794D01*
X219406289Y-110254172D01*
X219401861Y-110268766D01*
X219394673Y-110282214D01*
X219385000Y-110294000D01*
X219373214Y-110303673D01*
X219359766Y-110310861D01*
X219345172Y-110315289D01*
X219327794Y-110317000D01*
X217936206Y-110317000D01*
X217918828Y-110315289D01*
X217904234Y-110310861D01*
X217890786Y-110303673D01*
X217879000Y-110294000D01*
X217869327Y-110282214D01*
X217862139Y-110268766D01*
X217857711Y-110254172D01*
X217856000Y-110236794D01*
X217856000Y-109995206D01*
X217857711Y-109977828D01*
X217862139Y-109963234D01*
X217869327Y-109949786D01*
X217879000Y-109938000D01*
X217890786Y-109928327D01*
X217904234Y-109921139D01*
X217918828Y-109916711D01*
X217936206Y-109915000D01*
X219327794Y-109915000D01*
X219345172Y-109916711D01*
X219345172Y-109916711D01*
G37*
G36*
X215045172Y-109916711D02*
G01*
X215059766Y-109921139D01*
X215073214Y-109928327D01*
X215085000Y-109938000D01*
X215094673Y-109949786D01*
X215101861Y-109963234D01*
X215106289Y-109977828D01*
X215108000Y-109995206D01*
X215108000Y-110236794D01*
X215106289Y-110254172D01*
X215101861Y-110268766D01*
X215094673Y-110282214D01*
X215085000Y-110294000D01*
X215073214Y-110303673D01*
X215059766Y-110310861D01*
X215045172Y-110315289D01*
X215027794Y-110317000D01*
X213636206Y-110317000D01*
X213618828Y-110315289D01*
X213604234Y-110310861D01*
X213590786Y-110303673D01*
X213579000Y-110294000D01*
X213569327Y-110282214D01*
X213562139Y-110268766D01*
X213557711Y-110254172D01*
X213556000Y-110236794D01*
X213556000Y-109995206D01*
X213557711Y-109977828D01*
X213562139Y-109963234D01*
X213569327Y-109949786D01*
X213579000Y-109938000D01*
X213590786Y-109928327D01*
X213604234Y-109921139D01*
X213618828Y-109916711D01*
X213636206Y-109915000D01*
X215027794Y-109915000D01*
X215045172Y-109916711D01*
X215045172Y-109916711D01*
G37*
G36*
X212859347Y-108669955D02*
G01*
X212905593Y-108683983D01*
X212948214Y-108706765D01*
X212985575Y-108737425D01*
X213016235Y-108774786D01*
X213039017Y-108817407D01*
X213053045Y-108863653D01*
X213058000Y-108913958D01*
X213058000Y-109918042D01*
X213053045Y-109968347D01*
X213039017Y-110014593D01*
X213016235Y-110057214D01*
X212985575Y-110094575D01*
X212948214Y-110125235D01*
X212905593Y-110148017D01*
X212859347Y-110162045D01*
X212809042Y-110167000D01*
X212229958Y-110167000D01*
X212179653Y-110162045D01*
X212133407Y-110148017D01*
X212090786Y-110125235D01*
X212053425Y-110094575D01*
X212022765Y-110057214D01*
X211999983Y-110014593D01*
X211985955Y-109968347D01*
X211981000Y-109918042D01*
X211981000Y-108913958D01*
X211985955Y-108863653D01*
X211999983Y-108817407D01*
X212022765Y-108774786D01*
X212053425Y-108737425D01*
X212090786Y-108706765D01*
X212133407Y-108683983D01*
X212179653Y-108669955D01*
X212229958Y-108665000D01*
X212809042Y-108665000D01*
X212859347Y-108669955D01*
X212859347Y-108669955D01*
G37*
G36*
X210984347Y-108669955D02*
G01*
X211030593Y-108683983D01*
X211073214Y-108706765D01*
X211110575Y-108737425D01*
X211141235Y-108774786D01*
X211164017Y-108817407D01*
X211178045Y-108863653D01*
X211183000Y-108913958D01*
X211183000Y-109918042D01*
X211178045Y-109968347D01*
X211164017Y-110014593D01*
X211141235Y-110057214D01*
X211110575Y-110094575D01*
X211073214Y-110125235D01*
X211030593Y-110148017D01*
X210984347Y-110162045D01*
X210934042Y-110167000D01*
X210354958Y-110167000D01*
X210304653Y-110162045D01*
X210258407Y-110148017D01*
X210215786Y-110125235D01*
X210178425Y-110094575D01*
X210147765Y-110057214D01*
X210124983Y-110014593D01*
X210110955Y-109968347D01*
X210106000Y-109918042D01*
X210106000Y-108913958D01*
X210110955Y-108863653D01*
X210124983Y-108817407D01*
X210147765Y-108774786D01*
X210178425Y-108737425D01*
X210215786Y-108706765D01*
X210258407Y-108683983D01*
X210304653Y-108669955D01*
X210354958Y-108665000D01*
X210934042Y-108665000D01*
X210984347Y-108669955D01*
X210984347Y-108669955D01*
G37*
G36*
X222659347Y-108469955D02*
G01*
X222705593Y-108483983D01*
X222748214Y-108506765D01*
X222785575Y-108537425D01*
X222816235Y-108574786D01*
X222839017Y-108617407D01*
X222853045Y-108663653D01*
X222858000Y-108713958D01*
X222858000Y-109718042D01*
X222853045Y-109768347D01*
X222839017Y-109814593D01*
X222816235Y-109857214D01*
X222785575Y-109894575D01*
X222748214Y-109925235D01*
X222705593Y-109948017D01*
X222659347Y-109962045D01*
X222609042Y-109967000D01*
X222029958Y-109967000D01*
X221979653Y-109962045D01*
X221933407Y-109948017D01*
X221890786Y-109925235D01*
X221853425Y-109894575D01*
X221822765Y-109857214D01*
X221799983Y-109814593D01*
X221785955Y-109768347D01*
X221781000Y-109718042D01*
X221781000Y-108713958D01*
X221785955Y-108663653D01*
X221799983Y-108617407D01*
X221822765Y-108574786D01*
X221853425Y-108537425D01*
X221890786Y-108506765D01*
X221933407Y-108483983D01*
X221979653Y-108469955D01*
X222029958Y-108465000D01*
X222609042Y-108465000D01*
X222659347Y-108469955D01*
X222659347Y-108469955D01*
G37*
G36*
X220784347Y-108469955D02*
G01*
X220830593Y-108483983D01*
X220873214Y-108506765D01*
X220910575Y-108537425D01*
X220941235Y-108574786D01*
X220964017Y-108617407D01*
X220978045Y-108663653D01*
X220983000Y-108713958D01*
X220983000Y-109718042D01*
X220978045Y-109768347D01*
X220964017Y-109814593D01*
X220941235Y-109857214D01*
X220910575Y-109894575D01*
X220873214Y-109925235D01*
X220830593Y-109948017D01*
X220784347Y-109962045D01*
X220734042Y-109967000D01*
X220154958Y-109967000D01*
X220104653Y-109962045D01*
X220058407Y-109948017D01*
X220015786Y-109925235D01*
X219978425Y-109894575D01*
X219947765Y-109857214D01*
X219924983Y-109814593D01*
X219910955Y-109768347D01*
X219906000Y-109718042D01*
X219906000Y-108713958D01*
X219910955Y-108663653D01*
X219924983Y-108617407D01*
X219947765Y-108574786D01*
X219978425Y-108537425D01*
X220015786Y-108506765D01*
X220058407Y-108483983D01*
X220104653Y-108469955D01*
X220154958Y-108465000D01*
X220734042Y-108465000D01*
X220784347Y-108469955D01*
X220784347Y-108469955D01*
G37*
G36*
X219345172Y-109416711D02*
G01*
X219359766Y-109421139D01*
X219373214Y-109428327D01*
X219385000Y-109438000D01*
X219394673Y-109449786D01*
X219401861Y-109463234D01*
X219406289Y-109477828D01*
X219408000Y-109495206D01*
X219408000Y-109736794D01*
X219406289Y-109754172D01*
X219401861Y-109768766D01*
X219394673Y-109782214D01*
X219385000Y-109794000D01*
X219373214Y-109803673D01*
X219359766Y-109810861D01*
X219345172Y-109815289D01*
X219327794Y-109817000D01*
X217936206Y-109817000D01*
X217918828Y-109815289D01*
X217904234Y-109810861D01*
X217890786Y-109803673D01*
X217879000Y-109794000D01*
X217869327Y-109782214D01*
X217862139Y-109768766D01*
X217857711Y-109754172D01*
X217856000Y-109736794D01*
X217856000Y-109495206D01*
X217857711Y-109477828D01*
X217862139Y-109463234D01*
X217869327Y-109449786D01*
X217879000Y-109438000D01*
X217890786Y-109428327D01*
X217904234Y-109421139D01*
X217918828Y-109416711D01*
X217936206Y-109415000D01*
X219327794Y-109415000D01*
X219345172Y-109416711D01*
X219345172Y-109416711D01*
G37*
G36*
X215045172Y-109416711D02*
G01*
X215059766Y-109421139D01*
X215073214Y-109428327D01*
X215085000Y-109438000D01*
X215094673Y-109449786D01*
X215101861Y-109463234D01*
X215106289Y-109477828D01*
X215108000Y-109495206D01*
X215108000Y-109736794D01*
X215106289Y-109754172D01*
X215101861Y-109768766D01*
X215094673Y-109782214D01*
X215085000Y-109794000D01*
X215073214Y-109803673D01*
X215059766Y-109810861D01*
X215045172Y-109815289D01*
X215027794Y-109817000D01*
X213636206Y-109817000D01*
X213618828Y-109815289D01*
X213604234Y-109810861D01*
X213590786Y-109803673D01*
X213579000Y-109794000D01*
X213569327Y-109782214D01*
X213562139Y-109768766D01*
X213557711Y-109754172D01*
X213556000Y-109736794D01*
X213556000Y-109495206D01*
X213557711Y-109477828D01*
X213562139Y-109463234D01*
X213569327Y-109449786D01*
X213579000Y-109438000D01*
X213590786Y-109428327D01*
X213604234Y-109421139D01*
X213618828Y-109416711D01*
X213636206Y-109415000D01*
X215027794Y-109415000D01*
X215045172Y-109416711D01*
X215045172Y-109416711D01*
G37*
G36*
X231528826Y-107977314D02*
G01*
X231689236Y-108025973D01*
X231837078Y-108104996D01*
X231966659Y-108211341D01*
X232073004Y-108340922D01*
X232152027Y-108488764D01*
X232200686Y-108649174D01*
X232217118Y-108816000D01*
X232200686Y-108982826D01*
X232152027Y-109143236D01*
X232073004Y-109291078D01*
X231966659Y-109420659D01*
X231837078Y-109527004D01*
X231689236Y-109606027D01*
X231528826Y-109654686D01*
X231403805Y-109667000D01*
X231320195Y-109667000D01*
X231195174Y-109654686D01*
X231034764Y-109606027D01*
X230886922Y-109527004D01*
X230757341Y-109420659D01*
X230650996Y-109291078D01*
X230571973Y-109143236D01*
X230523314Y-108982826D01*
X230506882Y-108816000D01*
X230523314Y-108649174D01*
X230571973Y-108488764D01*
X230650996Y-108340922D01*
X230757341Y-108211341D01*
X230886922Y-108104996D01*
X231034764Y-108025973D01*
X231195174Y-107977314D01*
X231320195Y-107965000D01*
X231403805Y-107965000D01*
X231528826Y-107977314D01*
X231528826Y-107977314D01*
G37*
G36*
X239833000Y-109667000D02*
G01*
X238131000Y-109667000D01*
X238131000Y-107965000D01*
X239833000Y-107965000D01*
X239833000Y-109667000D01*
X239833000Y-109667000D01*
G37*
G36*
X219345172Y-108916711D02*
G01*
X219359766Y-108921139D01*
X219373214Y-108928327D01*
X219385000Y-108938000D01*
X219394673Y-108949786D01*
X219401861Y-108963234D01*
X219406289Y-108977828D01*
X219408000Y-108995206D01*
X219408000Y-109236794D01*
X219406289Y-109254172D01*
X219401861Y-109268766D01*
X219394673Y-109282214D01*
X219385000Y-109294000D01*
X219373214Y-109303673D01*
X219359766Y-109310861D01*
X219345172Y-109315289D01*
X219327794Y-109317000D01*
X217936206Y-109317000D01*
X217918828Y-109315289D01*
X217904234Y-109310861D01*
X217890786Y-109303673D01*
X217879000Y-109294000D01*
X217869327Y-109282214D01*
X217862139Y-109268766D01*
X217857711Y-109254172D01*
X217856000Y-109236794D01*
X217856000Y-108995206D01*
X217857711Y-108977828D01*
X217862139Y-108963234D01*
X217869327Y-108949786D01*
X217879000Y-108938000D01*
X217890786Y-108928327D01*
X217904234Y-108921139D01*
X217918828Y-108916711D01*
X217936206Y-108915000D01*
X219327794Y-108915000D01*
X219345172Y-108916711D01*
X219345172Y-108916711D01*
G37*
G36*
X215045172Y-108916711D02*
G01*
X215059766Y-108921139D01*
X215073214Y-108928327D01*
X215085000Y-108938000D01*
X215094673Y-108949786D01*
X215101861Y-108963234D01*
X215106289Y-108977828D01*
X215108000Y-108995206D01*
X215108000Y-109236794D01*
X215106289Y-109254172D01*
X215101861Y-109268766D01*
X215094673Y-109282214D01*
X215085000Y-109294000D01*
X215073214Y-109303673D01*
X215059766Y-109310861D01*
X215045172Y-109315289D01*
X215027794Y-109317000D01*
X213636206Y-109317000D01*
X213618828Y-109315289D01*
X213604234Y-109310861D01*
X213590786Y-109303673D01*
X213579000Y-109294000D01*
X213569327Y-109282214D01*
X213562139Y-109268766D01*
X213557711Y-109254172D01*
X213556000Y-109236794D01*
X213556000Y-108995206D01*
X213557711Y-108977828D01*
X213562139Y-108963234D01*
X213569327Y-108949786D01*
X213579000Y-108938000D01*
X213590786Y-108928327D01*
X213604234Y-108921139D01*
X213618828Y-108916711D01*
X213636206Y-108915000D01*
X215027794Y-108915000D01*
X215045172Y-108916711D01*
X215045172Y-108916711D01*
G37*
G36*
X209334347Y-107944955D02*
G01*
X209380593Y-107958983D01*
X209423214Y-107981765D01*
X209460575Y-108012425D01*
X209491235Y-108049786D01*
X209514017Y-108092407D01*
X209528045Y-108138653D01*
X209533000Y-108188958D01*
X209533000Y-108768042D01*
X209528045Y-108818347D01*
X209514017Y-108864593D01*
X209491235Y-108907214D01*
X209460575Y-108944575D01*
X209423214Y-108975235D01*
X209380593Y-108998017D01*
X209334347Y-109012045D01*
X209284042Y-109017000D01*
X208279958Y-109017000D01*
X208229653Y-109012045D01*
X208183407Y-108998017D01*
X208140786Y-108975235D01*
X208103425Y-108944575D01*
X208072765Y-108907214D01*
X208049983Y-108864593D01*
X208035955Y-108818347D01*
X208031000Y-108768042D01*
X208031000Y-108188958D01*
X208035955Y-108138653D01*
X208049983Y-108092407D01*
X208072765Y-108049786D01*
X208103425Y-108012425D01*
X208140786Y-107981765D01*
X208183407Y-107958983D01*
X208229653Y-107944955D01*
X208279958Y-107940000D01*
X209284042Y-107940000D01*
X209334347Y-107944955D01*
X209334347Y-107944955D01*
G37*
G36*
X221184347Y-106469955D02*
G01*
X221230593Y-106483983D01*
X221273214Y-106506765D01*
X221310575Y-106537425D01*
X221341235Y-106574786D01*
X221364017Y-106617407D01*
X221378045Y-106663653D01*
X221383000Y-106713958D01*
X221383000Y-107718042D01*
X221378045Y-107768347D01*
X221364017Y-107814593D01*
X221341235Y-107857214D01*
X221310575Y-107894575D01*
X221273214Y-107925235D01*
X221230593Y-107948017D01*
X221184347Y-107962045D01*
X221134042Y-107967000D01*
X220554958Y-107967000D01*
X220504653Y-107962045D01*
X220458407Y-107948017D01*
X220415786Y-107925235D01*
X220378425Y-107894575D01*
X220347765Y-107857214D01*
X220324983Y-107814593D01*
X220310955Y-107768347D01*
X220306000Y-107718042D01*
X220306000Y-106713958D01*
X220310955Y-106663653D01*
X220324983Y-106617407D01*
X220347765Y-106574786D01*
X220378425Y-106537425D01*
X220415786Y-106506765D01*
X220458407Y-106483983D01*
X220504653Y-106469955D01*
X220554958Y-106465000D01*
X221134042Y-106465000D01*
X221184347Y-106469955D01*
X221184347Y-106469955D01*
G37*
G36*
X223059347Y-106469955D02*
G01*
X223105593Y-106483983D01*
X223148214Y-106506765D01*
X223185575Y-106537425D01*
X223216235Y-106574786D01*
X223239017Y-106617407D01*
X223253045Y-106663653D01*
X223258000Y-106713958D01*
X223258000Y-107718042D01*
X223253045Y-107768347D01*
X223239017Y-107814593D01*
X223216235Y-107857214D01*
X223185575Y-107894575D01*
X223148214Y-107925235D01*
X223105593Y-107948017D01*
X223059347Y-107962045D01*
X223009042Y-107967000D01*
X222429958Y-107967000D01*
X222379653Y-107962045D01*
X222333407Y-107948017D01*
X222290786Y-107925235D01*
X222253425Y-107894575D01*
X222222765Y-107857214D01*
X222199983Y-107814593D01*
X222185955Y-107768347D01*
X222181000Y-107718042D01*
X222181000Y-106713958D01*
X222185955Y-106663653D01*
X222199983Y-106617407D01*
X222222765Y-106574786D01*
X222253425Y-106537425D01*
X222290786Y-106506765D01*
X222333407Y-106483983D01*
X222379653Y-106469955D01*
X222429958Y-106465000D01*
X223009042Y-106465000D01*
X223059347Y-106469955D01*
X223059347Y-106469955D01*
G37*
G36*
X239148826Y-105437314D02*
G01*
X239309236Y-105485973D01*
X239457078Y-105564996D01*
X239586659Y-105671341D01*
X239693004Y-105800922D01*
X239772027Y-105948764D01*
X239820686Y-106109174D01*
X239837118Y-106276000D01*
X239820686Y-106442826D01*
X239772027Y-106603236D01*
X239693004Y-106751078D01*
X239586659Y-106880659D01*
X239457078Y-106987004D01*
X239309236Y-107066027D01*
X239148826Y-107114686D01*
X239023805Y-107127000D01*
X238940195Y-107127000D01*
X238815174Y-107114686D01*
X238654764Y-107066027D01*
X238506922Y-106987004D01*
X238377341Y-106880659D01*
X238270996Y-106751078D01*
X238191973Y-106603236D01*
X238143314Y-106442826D01*
X238126882Y-106276000D01*
X238143314Y-106109174D01*
X238191973Y-105948764D01*
X238270996Y-105800922D01*
X238377341Y-105671341D01*
X238506922Y-105564996D01*
X238654764Y-105485973D01*
X238815174Y-105437314D01*
X238940195Y-105425000D01*
X239023805Y-105425000D01*
X239148826Y-105437314D01*
X239148826Y-105437314D01*
G37*
G36*
X231528826Y-105437314D02*
G01*
X231689236Y-105485973D01*
X231837078Y-105564996D01*
X231966659Y-105671341D01*
X232073004Y-105800922D01*
X232152027Y-105948764D01*
X232200686Y-106109174D01*
X232217118Y-106276000D01*
X232200686Y-106442826D01*
X232152027Y-106603236D01*
X232073004Y-106751078D01*
X231966659Y-106880659D01*
X231837078Y-106987004D01*
X231689236Y-107066027D01*
X231528826Y-107114686D01*
X231403805Y-107127000D01*
X231320195Y-107127000D01*
X231195174Y-107114686D01*
X231034764Y-107066027D01*
X230886922Y-106987004D01*
X230757341Y-106880659D01*
X230650996Y-106751078D01*
X230571973Y-106603236D01*
X230523314Y-106442826D01*
X230506882Y-106276000D01*
X230523314Y-106109174D01*
X230571973Y-105948764D01*
X230650996Y-105800922D01*
X230757341Y-105671341D01*
X230886922Y-105564996D01*
X231034764Y-105485973D01*
X231195174Y-105437314D01*
X231320195Y-105425000D01*
X231403805Y-105425000D01*
X231528826Y-105437314D01*
X231528826Y-105437314D01*
G37*
G36*
X213433000Y-106667000D02*
G01*
X211331000Y-106667000D01*
X211331000Y-104565000D01*
X213433000Y-104565000D01*
X213433000Y-106667000D01*
X213433000Y-106667000D01*
G37*
G36*
X229384806Y-104883152D02*
G01*
X229413463Y-104891846D01*
X229439886Y-104905970D01*
X229463033Y-104924967D01*
X229482030Y-104948114D01*
X229496154Y-104974537D01*
X229504848Y-105003194D01*
X229508000Y-105035206D01*
X229508000Y-105426794D01*
X229504848Y-105458806D01*
X229496154Y-105487463D01*
X229482030Y-105513886D01*
X229463033Y-105537033D01*
X229439886Y-105556030D01*
X229413463Y-105570154D01*
X229384806Y-105578848D01*
X229352794Y-105582000D01*
X227511206Y-105582000D01*
X227479194Y-105578848D01*
X227450537Y-105570154D01*
X227424114Y-105556030D01*
X227400967Y-105537033D01*
X227381970Y-105513886D01*
X227367846Y-105487463D01*
X227359152Y-105458806D01*
X227356000Y-105426794D01*
X227356000Y-105035206D01*
X227359152Y-105003194D01*
X227367846Y-104974537D01*
X227381970Y-104948114D01*
X227400967Y-104924967D01*
X227424114Y-104905970D01*
X227450537Y-104891846D01*
X227479194Y-104883152D01*
X227511206Y-104880000D01*
X229352794Y-104880000D01*
X229384806Y-104883152D01*
X229384806Y-104883152D01*
G37*
G36*
X220084806Y-104883152D02*
G01*
X220113463Y-104891846D01*
X220139886Y-104905970D01*
X220163033Y-104924967D01*
X220182030Y-104948114D01*
X220196154Y-104974537D01*
X220204848Y-105003194D01*
X220208000Y-105035206D01*
X220208000Y-105426794D01*
X220204848Y-105458806D01*
X220196154Y-105487463D01*
X220182030Y-105513886D01*
X220163033Y-105537033D01*
X220139886Y-105556030D01*
X220113463Y-105570154D01*
X220084806Y-105578848D01*
X220052794Y-105582000D01*
X218211206Y-105582000D01*
X218179194Y-105578848D01*
X218150537Y-105570154D01*
X218124114Y-105556030D01*
X218100967Y-105537033D01*
X218081970Y-105513886D01*
X218067846Y-105487463D01*
X218059152Y-105458806D01*
X218056000Y-105426794D01*
X218056000Y-105035206D01*
X218059152Y-105003194D01*
X218067846Y-104974537D01*
X218081970Y-104948114D01*
X218100967Y-104924967D01*
X218124114Y-104905970D01*
X218150537Y-104891846D01*
X218179194Y-104883152D01*
X218211206Y-104880000D01*
X220052794Y-104880000D01*
X220084806Y-104883152D01*
X220084806Y-104883152D01*
G37*
G36*
X231528826Y-102897314D02*
G01*
X231689236Y-102945973D01*
X231837078Y-103024996D01*
X231966659Y-103131341D01*
X232073004Y-103260922D01*
X232152027Y-103408764D01*
X232200686Y-103569174D01*
X232217118Y-103736000D01*
X232200686Y-103902826D01*
X232152027Y-104063236D01*
X232073004Y-104211078D01*
X231966659Y-104340659D01*
X231837078Y-104447004D01*
X231689236Y-104526027D01*
X231528826Y-104574686D01*
X231403805Y-104587000D01*
X231320195Y-104587000D01*
X231195174Y-104574686D01*
X231034764Y-104526027D01*
X230886922Y-104447004D01*
X230757341Y-104340659D01*
X230650996Y-104211078D01*
X230571973Y-104063236D01*
X230523314Y-103902826D01*
X230506882Y-103736000D01*
X230523314Y-103569174D01*
X230571973Y-103408764D01*
X230650996Y-103260922D01*
X230757341Y-103131341D01*
X230886922Y-103024996D01*
X231034764Y-102945973D01*
X231195174Y-102897314D01*
X231320195Y-102885000D01*
X231403805Y-102885000D01*
X231528826Y-102897314D01*
X231528826Y-102897314D01*
G37*
G36*
X239148826Y-102897314D02*
G01*
X239309236Y-102945973D01*
X239457078Y-103024996D01*
X239586659Y-103131341D01*
X239693004Y-103260922D01*
X239772027Y-103408764D01*
X239820686Y-103569174D01*
X239837118Y-103736000D01*
X239820686Y-103902826D01*
X239772027Y-104063236D01*
X239693004Y-104211078D01*
X239586659Y-104340659D01*
X239457078Y-104447004D01*
X239309236Y-104526027D01*
X239148826Y-104574686D01*
X239023805Y-104587000D01*
X238940195Y-104587000D01*
X238815174Y-104574686D01*
X238654764Y-104526027D01*
X238506922Y-104447004D01*
X238377341Y-104340659D01*
X238270996Y-104211078D01*
X238191973Y-104063236D01*
X238143314Y-103902826D01*
X238126882Y-103736000D01*
X238143314Y-103569174D01*
X238191973Y-103408764D01*
X238270996Y-103260922D01*
X238377341Y-103131341D01*
X238506922Y-103024996D01*
X238654764Y-102945973D01*
X238815174Y-102897314D01*
X238940195Y-102885000D01*
X239023805Y-102885000D01*
X239148826Y-102897314D01*
X239148826Y-102897314D01*
G37*
G36*
X220084806Y-103613152D02*
G01*
X220113463Y-103621846D01*
X220139886Y-103635970D01*
X220163033Y-103654967D01*
X220182030Y-103678114D01*
X220196154Y-103704537D01*
X220204848Y-103733194D01*
X220208000Y-103765206D01*
X220208000Y-104156794D01*
X220204848Y-104188806D01*
X220196154Y-104217463D01*
X220182030Y-104243886D01*
X220163033Y-104267033D01*
X220139886Y-104286030D01*
X220113463Y-104300154D01*
X220084806Y-104308848D01*
X220052794Y-104312000D01*
X218211206Y-104312000D01*
X218179194Y-104308848D01*
X218150537Y-104300154D01*
X218124114Y-104286030D01*
X218100967Y-104267033D01*
X218081970Y-104243886D01*
X218067846Y-104217463D01*
X218059152Y-104188806D01*
X218056000Y-104156794D01*
X218056000Y-103765206D01*
X218059152Y-103733194D01*
X218067846Y-103704537D01*
X218081970Y-103678114D01*
X218100967Y-103654967D01*
X218124114Y-103635970D01*
X218150537Y-103621846D01*
X218179194Y-103613152D01*
X218211206Y-103610000D01*
X220052794Y-103610000D01*
X220084806Y-103613152D01*
X220084806Y-103613152D01*
G37*
G36*
X229384806Y-103613152D02*
G01*
X229413463Y-103621846D01*
X229439886Y-103635970D01*
X229463033Y-103654967D01*
X229482030Y-103678114D01*
X229496154Y-103704537D01*
X229504848Y-103733194D01*
X229508000Y-103765206D01*
X229508000Y-104156794D01*
X229504848Y-104188806D01*
X229496154Y-104217463D01*
X229482030Y-104243886D01*
X229463033Y-104267033D01*
X229439886Y-104286030D01*
X229413463Y-104300154D01*
X229384806Y-104308848D01*
X229352794Y-104312000D01*
X227511206Y-104312000D01*
X227479194Y-104308848D01*
X227450537Y-104300154D01*
X227424114Y-104286030D01*
X227400967Y-104267033D01*
X227381970Y-104243886D01*
X227367846Y-104217463D01*
X227359152Y-104188806D01*
X227356000Y-104156794D01*
X227356000Y-103765206D01*
X227359152Y-103733194D01*
X227367846Y-103704537D01*
X227381970Y-103678114D01*
X227400967Y-103654967D01*
X227424114Y-103635970D01*
X227450537Y-103621846D01*
X227479194Y-103613152D01*
X227511206Y-103610000D01*
X229352794Y-103610000D01*
X229384806Y-103613152D01*
X229384806Y-103613152D01*
G37*
G36*
X229384806Y-102343152D02*
G01*
X229413463Y-102351846D01*
X229439886Y-102365970D01*
X229463033Y-102384967D01*
X229482030Y-102408114D01*
X229496154Y-102434537D01*
X229504848Y-102463194D01*
X229508000Y-102495206D01*
X229508000Y-102886794D01*
X229504848Y-102918806D01*
X229496154Y-102947463D01*
X229482030Y-102973886D01*
X229463033Y-102997033D01*
X229439886Y-103016030D01*
X229413463Y-103030154D01*
X229384806Y-103038848D01*
X229352794Y-103042000D01*
X227511206Y-103042000D01*
X227479194Y-103038848D01*
X227450537Y-103030154D01*
X227424114Y-103016030D01*
X227400967Y-102997033D01*
X227381970Y-102973886D01*
X227367846Y-102947463D01*
X227359152Y-102918806D01*
X227356000Y-102886794D01*
X227356000Y-102495206D01*
X227359152Y-102463194D01*
X227367846Y-102434537D01*
X227381970Y-102408114D01*
X227400967Y-102384967D01*
X227424114Y-102365970D01*
X227450537Y-102351846D01*
X227479194Y-102343152D01*
X227511206Y-102340000D01*
X229352794Y-102340000D01*
X229384806Y-102343152D01*
X229384806Y-102343152D01*
G37*
G36*
X220084806Y-102343152D02*
G01*
X220113463Y-102351846D01*
X220139886Y-102365970D01*
X220163033Y-102384967D01*
X220182030Y-102408114D01*
X220196154Y-102434537D01*
X220204848Y-102463194D01*
X220208000Y-102495206D01*
X220208000Y-102886794D01*
X220204848Y-102918806D01*
X220196154Y-102947463D01*
X220182030Y-102973886D01*
X220163033Y-102997033D01*
X220139886Y-103016030D01*
X220113463Y-103030154D01*
X220084806Y-103038848D01*
X220052794Y-103042000D01*
X218211206Y-103042000D01*
X218179194Y-103038848D01*
X218150537Y-103030154D01*
X218124114Y-103016030D01*
X218100967Y-102997033D01*
X218081970Y-102973886D01*
X218067846Y-102947463D01*
X218059152Y-102918806D01*
X218056000Y-102886794D01*
X218056000Y-102495206D01*
X218059152Y-102463194D01*
X218067846Y-102434537D01*
X218081970Y-102408114D01*
X218100967Y-102384967D01*
X218124114Y-102365970D01*
X218150537Y-102351846D01*
X218179194Y-102343152D01*
X218211206Y-102340000D01*
X220052794Y-102340000D01*
X220084806Y-102343152D01*
X220084806Y-102343152D01*
G37*
G36*
X231528826Y-100357314D02*
G01*
X231689236Y-100405973D01*
X231837078Y-100484996D01*
X231966659Y-100591341D01*
X232073004Y-100720922D01*
X232152027Y-100868764D01*
X232200686Y-101029174D01*
X232217118Y-101196000D01*
X232200686Y-101362826D01*
X232152027Y-101523236D01*
X232073004Y-101671078D01*
X231966659Y-101800659D01*
X231837078Y-101907004D01*
X231689236Y-101986027D01*
X231528826Y-102034686D01*
X231403805Y-102047000D01*
X231320195Y-102047000D01*
X231195174Y-102034686D01*
X231034764Y-101986027D01*
X230886922Y-101907004D01*
X230757341Y-101800659D01*
X230650996Y-101671078D01*
X230571973Y-101523236D01*
X230523314Y-101362826D01*
X230506882Y-101196000D01*
X230523314Y-101029174D01*
X230571973Y-100868764D01*
X230650996Y-100720922D01*
X230757341Y-100591341D01*
X230886922Y-100484996D01*
X231034764Y-100405973D01*
X231195174Y-100357314D01*
X231320195Y-100345000D01*
X231403805Y-100345000D01*
X231528826Y-100357314D01*
X231528826Y-100357314D01*
G37*
G36*
X239148826Y-100357314D02*
G01*
X239309236Y-100405973D01*
X239457078Y-100484996D01*
X239586659Y-100591341D01*
X239693004Y-100720922D01*
X239772027Y-100868764D01*
X239820686Y-101029174D01*
X239837118Y-101196000D01*
X239820686Y-101362826D01*
X239772027Y-101523236D01*
X239693004Y-101671078D01*
X239586659Y-101800659D01*
X239457078Y-101907004D01*
X239309236Y-101986027D01*
X239148826Y-102034686D01*
X239023805Y-102047000D01*
X238940195Y-102047000D01*
X238815174Y-102034686D01*
X238654764Y-101986027D01*
X238506922Y-101907004D01*
X238377341Y-101800659D01*
X238270996Y-101671078D01*
X238191973Y-101523236D01*
X238143314Y-101362826D01*
X238126882Y-101196000D01*
X238143314Y-101029174D01*
X238191973Y-100868764D01*
X238270996Y-100720922D01*
X238377341Y-100591341D01*
X238506922Y-100484996D01*
X238654764Y-100405973D01*
X238815174Y-100357314D01*
X238940195Y-100345000D01*
X239023805Y-100345000D01*
X239148826Y-100357314D01*
X239148826Y-100357314D01*
G37*
G36*
X220084806Y-101073152D02*
G01*
X220113463Y-101081846D01*
X220139886Y-101095970D01*
X220163033Y-101114967D01*
X220182030Y-101138114D01*
X220196154Y-101164537D01*
X220204848Y-101193194D01*
X220208000Y-101225206D01*
X220208000Y-101616794D01*
X220204848Y-101648806D01*
X220196154Y-101677463D01*
X220182030Y-101703886D01*
X220163033Y-101727033D01*
X220139886Y-101746030D01*
X220113463Y-101760154D01*
X220084806Y-101768848D01*
X220052794Y-101772000D01*
X218211206Y-101772000D01*
X218179194Y-101768848D01*
X218150537Y-101760154D01*
X218124114Y-101746030D01*
X218100967Y-101727033D01*
X218081970Y-101703886D01*
X218067846Y-101677463D01*
X218059152Y-101648806D01*
X218056000Y-101616794D01*
X218056000Y-101225206D01*
X218059152Y-101193194D01*
X218067846Y-101164537D01*
X218081970Y-101138114D01*
X218100967Y-101114967D01*
X218124114Y-101095970D01*
X218150537Y-101081846D01*
X218179194Y-101073152D01*
X218211206Y-101070000D01*
X220052794Y-101070000D01*
X220084806Y-101073152D01*
X220084806Y-101073152D01*
G37*
G36*
X229384806Y-101073152D02*
G01*
X229413463Y-101081846D01*
X229439886Y-101095970D01*
X229463033Y-101114967D01*
X229482030Y-101138114D01*
X229496154Y-101164537D01*
X229504848Y-101193194D01*
X229508000Y-101225206D01*
X229508000Y-101616794D01*
X229504848Y-101648806D01*
X229496154Y-101677463D01*
X229482030Y-101703886D01*
X229463033Y-101727033D01*
X229439886Y-101746030D01*
X229413463Y-101760154D01*
X229384806Y-101768848D01*
X229352794Y-101772000D01*
X227511206Y-101772000D01*
X227479194Y-101768848D01*
X227450537Y-101760154D01*
X227424114Y-101746030D01*
X227400967Y-101727033D01*
X227381970Y-101703886D01*
X227367846Y-101677463D01*
X227359152Y-101648806D01*
X227356000Y-101616794D01*
X227356000Y-101225206D01*
X227359152Y-101193194D01*
X227367846Y-101164537D01*
X227381970Y-101138114D01*
X227400967Y-101114967D01*
X227424114Y-101095970D01*
X227450537Y-101081846D01*
X227479194Y-101073152D01*
X227511206Y-101070000D01*
X229352794Y-101070000D01*
X229384806Y-101073152D01*
X229384806Y-101073152D01*
G37*
G36*
X212688563Y-99605389D02*
G01*
X212879837Y-99684617D01*
X213051973Y-99799634D01*
X213198366Y-99946027D01*
X213313383Y-100118163D01*
X213392611Y-100309437D01*
X213433000Y-100512484D01*
X213433000Y-100719516D01*
X213392611Y-100922563D01*
X213313383Y-101113837D01*
X213198366Y-101285973D01*
X213051973Y-101432366D01*
X212879837Y-101547383D01*
X212688563Y-101626611D01*
X212485516Y-101667000D01*
X212278484Y-101667000D01*
X212075437Y-101626611D01*
X211884163Y-101547383D01*
X211712027Y-101432366D01*
X211565634Y-101285973D01*
X211450617Y-101113837D01*
X211371389Y-100922563D01*
X211331000Y-100719516D01*
X211331000Y-100512484D01*
X211371389Y-100309437D01*
X211450617Y-100118163D01*
X211565634Y-99946027D01*
X211712027Y-99799634D01*
X211884163Y-99684617D01*
X212075437Y-99605389D01*
X212278484Y-99565000D01*
X212485516Y-99565000D01*
X212688563Y-99605389D01*
X212688563Y-99605389D01*
G37*
G36*
X195059000Y-100525000D02*
G01*
X192757000Y-100525000D01*
X192757000Y-98223000D01*
X195059000Y-98223000D01*
X195059000Y-100525000D01*
X195059000Y-100525000D01*
G37*
G36*
X202679000Y-100525000D02*
G01*
X200377000Y-100525000D01*
X200377000Y-98223000D01*
X202679000Y-98223000D01*
X202679000Y-100525000D01*
X202679000Y-100525000D01*
G37*
G36*
X205563635Y-98239654D02*
G01*
X205635957Y-98261593D01*
X205780596Y-98305468D01*
X205780599Y-98305470D01*
X205780600Y-98305470D01*
X205980555Y-98412348D01*
X206155818Y-98556182D01*
X206299652Y-98731445D01*
X206348496Y-98822825D01*
X206406532Y-98931404D01*
X206444479Y-99056500D01*
X206472346Y-99148365D01*
X206494569Y-99374000D01*
X206472346Y-99599635D01*
X206470600Y-99605390D01*
X206406532Y-99816596D01*
X206406530Y-99816599D01*
X206406530Y-99816600D01*
X206299652Y-100016555D01*
X206155818Y-100191818D01*
X205980555Y-100335652D01*
X205815262Y-100424003D01*
X205780596Y-100442532D01*
X205640609Y-100484996D01*
X205563635Y-100508346D01*
X205394543Y-100525000D01*
X205281457Y-100525000D01*
X205112365Y-100508346D01*
X205035391Y-100484996D01*
X204895404Y-100442532D01*
X204860739Y-100424003D01*
X204695445Y-100335652D01*
X204520182Y-100191818D01*
X204376348Y-100016555D01*
X204269470Y-99816600D01*
X204269470Y-99816599D01*
X204269468Y-99816596D01*
X204205400Y-99605390D01*
X204203654Y-99599635D01*
X204181431Y-99374000D01*
X204203654Y-99148365D01*
X204231521Y-99056500D01*
X204269468Y-98931404D01*
X204327505Y-98822825D01*
X204376348Y-98731445D01*
X204520182Y-98556182D01*
X204695445Y-98412348D01*
X204895400Y-98305470D01*
X204895401Y-98305470D01*
X204895404Y-98305468D01*
X205040043Y-98261593D01*
X205112365Y-98239654D01*
X205281457Y-98223000D01*
X205394543Y-98223000D01*
X205563635Y-98239654D01*
X205563635Y-98239654D01*
G37*
G36*
X197943635Y-98239654D02*
G01*
X198015957Y-98261593D01*
X198160596Y-98305468D01*
X198160599Y-98305470D01*
X198160600Y-98305470D01*
X198360555Y-98412348D01*
X198535818Y-98556182D01*
X198679652Y-98731445D01*
X198728496Y-98822825D01*
X198786532Y-98931404D01*
X198824479Y-99056500D01*
X198852346Y-99148365D01*
X198874569Y-99374000D01*
X198852346Y-99599635D01*
X198850600Y-99605390D01*
X198786532Y-99816596D01*
X198786530Y-99816599D01*
X198786530Y-99816600D01*
X198679652Y-100016555D01*
X198535818Y-100191818D01*
X198360555Y-100335652D01*
X198195262Y-100424003D01*
X198160596Y-100442532D01*
X198020609Y-100484996D01*
X197943635Y-100508346D01*
X197774543Y-100525000D01*
X197661457Y-100525000D01*
X197492365Y-100508346D01*
X197415391Y-100484996D01*
X197275404Y-100442532D01*
X197240739Y-100424003D01*
X197075445Y-100335652D01*
X196900182Y-100191818D01*
X196756348Y-100016555D01*
X196649470Y-99816600D01*
X196649470Y-99816599D01*
X196649468Y-99816596D01*
X196585400Y-99605390D01*
X196583654Y-99599635D01*
X196561431Y-99374000D01*
X196583654Y-99148365D01*
X196611521Y-99056500D01*
X196649468Y-98931404D01*
X196707505Y-98822825D01*
X196756348Y-98731445D01*
X196900182Y-98556182D01*
X197075445Y-98412348D01*
X197275400Y-98305470D01*
X197275401Y-98305470D01*
X197275404Y-98305468D01*
X197420043Y-98261593D01*
X197492365Y-98239654D01*
X197661457Y-98223000D01*
X197774543Y-98223000D01*
X197943635Y-98239654D01*
X197943635Y-98239654D01*
G37*
G36*
X220084806Y-99803152D02*
G01*
X220113463Y-99811846D01*
X220139886Y-99825970D01*
X220163033Y-99844967D01*
X220182030Y-99868114D01*
X220196154Y-99894537D01*
X220204848Y-99923194D01*
X220208000Y-99955206D01*
X220208000Y-100346794D01*
X220204848Y-100378806D01*
X220196154Y-100407463D01*
X220182030Y-100433886D01*
X220163033Y-100457033D01*
X220139886Y-100476030D01*
X220113463Y-100490154D01*
X220084806Y-100498848D01*
X220052794Y-100502000D01*
X218211206Y-100502000D01*
X218179194Y-100498848D01*
X218150537Y-100490154D01*
X218124114Y-100476030D01*
X218100967Y-100457033D01*
X218081970Y-100433886D01*
X218067846Y-100407463D01*
X218059152Y-100378806D01*
X218056000Y-100346794D01*
X218056000Y-99955206D01*
X218059152Y-99923194D01*
X218067846Y-99894537D01*
X218081970Y-99868114D01*
X218100967Y-99844967D01*
X218124114Y-99825970D01*
X218150537Y-99811846D01*
X218179194Y-99803152D01*
X218211206Y-99800000D01*
X220052794Y-99800000D01*
X220084806Y-99803152D01*
X220084806Y-99803152D01*
G37*
G36*
X229384806Y-99803152D02*
G01*
X229413463Y-99811846D01*
X229439886Y-99825970D01*
X229463033Y-99844967D01*
X229482030Y-99868114D01*
X229496154Y-99894537D01*
X229504848Y-99923194D01*
X229508000Y-99955206D01*
X229508000Y-100346794D01*
X229504848Y-100378806D01*
X229496154Y-100407463D01*
X229482030Y-100433886D01*
X229463033Y-100457033D01*
X229439886Y-100476030D01*
X229413463Y-100490154D01*
X229384806Y-100498848D01*
X229352794Y-100502000D01*
X227511206Y-100502000D01*
X227479194Y-100498848D01*
X227450537Y-100490154D01*
X227424114Y-100476030D01*
X227400967Y-100457033D01*
X227381970Y-100433886D01*
X227367846Y-100407463D01*
X227359152Y-100378806D01*
X227356000Y-100346794D01*
X227356000Y-99955206D01*
X227359152Y-99923194D01*
X227367846Y-99894537D01*
X227381970Y-99868114D01*
X227400967Y-99844967D01*
X227424114Y-99825970D01*
X227450537Y-99811846D01*
X227479194Y-99803152D01*
X227511206Y-99800000D01*
X229352794Y-99800000D01*
X229384806Y-99803152D01*
X229384806Y-99803152D01*
G37*
G36*
X231528826Y-97817314D02*
G01*
X231689236Y-97865973D01*
X231837078Y-97944996D01*
X231966659Y-98051341D01*
X232073004Y-98180922D01*
X232152027Y-98328764D01*
X232200686Y-98489174D01*
X232217118Y-98656000D01*
X232200686Y-98822826D01*
X232152027Y-98983236D01*
X232073004Y-99131078D01*
X231966659Y-99260659D01*
X231837078Y-99367004D01*
X231689236Y-99446027D01*
X231528826Y-99494686D01*
X231403805Y-99507000D01*
X231320195Y-99507000D01*
X231195174Y-99494686D01*
X231034764Y-99446027D01*
X230886922Y-99367004D01*
X230757341Y-99260659D01*
X230650996Y-99131078D01*
X230571973Y-98983236D01*
X230523314Y-98822826D01*
X230506882Y-98656000D01*
X230523314Y-98489174D01*
X230571973Y-98328764D01*
X230650996Y-98180922D01*
X230757341Y-98051341D01*
X230886922Y-97944996D01*
X231034764Y-97865973D01*
X231195174Y-97817314D01*
X231320195Y-97805000D01*
X231403805Y-97805000D01*
X231528826Y-97817314D01*
X231528826Y-97817314D01*
G37*
G36*
X239148826Y-97817314D02*
G01*
X239309236Y-97865973D01*
X239457078Y-97944996D01*
X239586659Y-98051341D01*
X239693004Y-98180922D01*
X239772027Y-98328764D01*
X239820686Y-98489174D01*
X239837118Y-98656000D01*
X239820686Y-98822826D01*
X239772027Y-98983236D01*
X239693004Y-99131078D01*
X239586659Y-99260659D01*
X239457078Y-99367004D01*
X239309236Y-99446027D01*
X239148826Y-99494686D01*
X239023805Y-99507000D01*
X238940195Y-99507000D01*
X238815174Y-99494686D01*
X238654764Y-99446027D01*
X238506922Y-99367004D01*
X238377341Y-99260659D01*
X238270996Y-99131078D01*
X238191973Y-98983236D01*
X238143314Y-98822826D01*
X238126882Y-98656000D01*
X238143314Y-98489174D01*
X238191973Y-98328764D01*
X238270996Y-98180922D01*
X238377341Y-98051341D01*
X238506922Y-97944996D01*
X238654764Y-97865973D01*
X238815174Y-97817314D01*
X238940195Y-97805000D01*
X239023805Y-97805000D01*
X239148826Y-97817314D01*
X239148826Y-97817314D01*
G37*
G36*
X220084806Y-98533152D02*
G01*
X220113463Y-98541846D01*
X220139886Y-98555970D01*
X220163033Y-98574967D01*
X220182030Y-98598114D01*
X220196154Y-98624537D01*
X220204848Y-98653194D01*
X220208000Y-98685206D01*
X220208000Y-99076794D01*
X220204848Y-99108806D01*
X220196154Y-99137463D01*
X220182030Y-99163886D01*
X220163033Y-99187033D01*
X220139886Y-99206030D01*
X220113463Y-99220154D01*
X220084806Y-99228848D01*
X220052794Y-99232000D01*
X218211206Y-99232000D01*
X218179194Y-99228848D01*
X218150537Y-99220154D01*
X218124114Y-99206030D01*
X218100967Y-99187033D01*
X218081970Y-99163886D01*
X218067846Y-99137463D01*
X218059152Y-99108806D01*
X218056000Y-99076794D01*
X218056000Y-98685206D01*
X218059152Y-98653194D01*
X218067846Y-98624537D01*
X218081970Y-98598114D01*
X218100967Y-98574967D01*
X218124114Y-98555970D01*
X218150537Y-98541846D01*
X218179194Y-98533152D01*
X218211206Y-98530000D01*
X220052794Y-98530000D01*
X220084806Y-98533152D01*
X220084806Y-98533152D01*
G37*
G36*
X229384806Y-98533152D02*
G01*
X229413463Y-98541846D01*
X229439886Y-98555970D01*
X229463033Y-98574967D01*
X229482030Y-98598114D01*
X229496154Y-98624537D01*
X229504848Y-98653194D01*
X229508000Y-98685206D01*
X229508000Y-99076794D01*
X229504848Y-99108806D01*
X229496154Y-99137463D01*
X229482030Y-99163886D01*
X229463033Y-99187033D01*
X229439886Y-99206030D01*
X229413463Y-99220154D01*
X229384806Y-99228848D01*
X229352794Y-99232000D01*
X227511206Y-99232000D01*
X227479194Y-99228848D01*
X227450537Y-99220154D01*
X227424114Y-99206030D01*
X227400967Y-99187033D01*
X227381970Y-99163886D01*
X227367846Y-99137463D01*
X227359152Y-99108806D01*
X227356000Y-99076794D01*
X227356000Y-98685206D01*
X227359152Y-98653194D01*
X227367846Y-98624537D01*
X227381970Y-98598114D01*
X227400967Y-98574967D01*
X227424114Y-98555970D01*
X227450537Y-98541846D01*
X227479194Y-98533152D01*
X227511206Y-98530000D01*
X229352794Y-98530000D01*
X229384806Y-98533152D01*
X229384806Y-98533152D01*
G37*
G36*
X229384806Y-97263152D02*
G01*
X229413463Y-97271846D01*
X229439886Y-97285970D01*
X229463033Y-97304967D01*
X229482030Y-97328114D01*
X229496154Y-97354537D01*
X229504848Y-97383194D01*
X229508000Y-97415206D01*
X229508000Y-97806794D01*
X229504848Y-97838806D01*
X229496154Y-97867463D01*
X229482030Y-97893886D01*
X229463033Y-97917033D01*
X229439886Y-97936030D01*
X229413463Y-97950154D01*
X229384806Y-97958848D01*
X229352794Y-97962000D01*
X227511206Y-97962000D01*
X227479194Y-97958848D01*
X227450537Y-97950154D01*
X227424114Y-97936030D01*
X227400967Y-97917033D01*
X227381970Y-97893886D01*
X227367846Y-97867463D01*
X227359152Y-97838806D01*
X227356000Y-97806794D01*
X227356000Y-97415206D01*
X227359152Y-97383194D01*
X227367846Y-97354537D01*
X227381970Y-97328114D01*
X227400967Y-97304967D01*
X227424114Y-97285970D01*
X227450537Y-97271846D01*
X227479194Y-97263152D01*
X227511206Y-97260000D01*
X229352794Y-97260000D01*
X229384806Y-97263152D01*
X229384806Y-97263152D01*
G37*
G36*
X220084806Y-97263152D02*
G01*
X220113463Y-97271846D01*
X220139886Y-97285970D01*
X220163033Y-97304967D01*
X220182030Y-97328114D01*
X220196154Y-97354537D01*
X220204848Y-97383194D01*
X220208000Y-97415206D01*
X220208000Y-97806794D01*
X220204848Y-97838806D01*
X220196154Y-97867463D01*
X220182030Y-97893886D01*
X220163033Y-97917033D01*
X220139886Y-97936030D01*
X220113463Y-97950154D01*
X220084806Y-97958848D01*
X220052794Y-97962000D01*
X218211206Y-97962000D01*
X218179194Y-97958848D01*
X218150537Y-97950154D01*
X218124114Y-97936030D01*
X218100967Y-97917033D01*
X218081970Y-97893886D01*
X218067846Y-97867463D01*
X218059152Y-97838806D01*
X218056000Y-97806794D01*
X218056000Y-97415206D01*
X218059152Y-97383194D01*
X218067846Y-97354537D01*
X218081970Y-97328114D01*
X218100967Y-97304967D01*
X218124114Y-97285970D01*
X218150537Y-97271846D01*
X218179194Y-97263152D01*
X218211206Y-97260000D01*
X220052794Y-97260000D01*
X220084806Y-97263152D01*
X220084806Y-97263152D01*
G37*
G36*
X217259347Y-96369955D02*
G01*
X217305593Y-96383983D01*
X217348214Y-96406765D01*
X217385575Y-96437425D01*
X217416235Y-96474786D01*
X217439017Y-96517407D01*
X217453045Y-96563653D01*
X217458000Y-96613958D01*
X217458000Y-97618042D01*
X217453045Y-97668347D01*
X217439017Y-97714593D01*
X217416235Y-97757214D01*
X217385575Y-97794575D01*
X217348214Y-97825235D01*
X217305593Y-97848017D01*
X217259347Y-97862045D01*
X217209042Y-97867000D01*
X216629958Y-97867000D01*
X216579653Y-97862045D01*
X216533407Y-97848017D01*
X216490786Y-97825235D01*
X216453425Y-97794575D01*
X216422765Y-97757214D01*
X216399983Y-97714593D01*
X216385955Y-97668347D01*
X216381000Y-97618042D01*
X216381000Y-96613958D01*
X216385955Y-96563653D01*
X216399983Y-96517407D01*
X216422765Y-96474786D01*
X216453425Y-96437425D01*
X216490786Y-96406765D01*
X216533407Y-96383983D01*
X216579653Y-96369955D01*
X216629958Y-96365000D01*
X217209042Y-96365000D01*
X217259347Y-96369955D01*
X217259347Y-96369955D01*
G37*
G36*
X215384347Y-96369955D02*
G01*
X215430593Y-96383983D01*
X215473214Y-96406765D01*
X215510575Y-96437425D01*
X215541235Y-96474786D01*
X215564017Y-96517407D01*
X215578045Y-96563653D01*
X215583000Y-96613958D01*
X215583000Y-97618042D01*
X215578045Y-97668347D01*
X215564017Y-97714593D01*
X215541235Y-97757214D01*
X215510575Y-97794575D01*
X215473214Y-97825235D01*
X215430593Y-97848017D01*
X215384347Y-97862045D01*
X215334042Y-97867000D01*
X214754958Y-97867000D01*
X214704653Y-97862045D01*
X214658407Y-97848017D01*
X214615786Y-97825235D01*
X214578425Y-97794575D01*
X214547765Y-97757214D01*
X214524983Y-97714593D01*
X214510955Y-97668347D01*
X214506000Y-97618042D01*
X214506000Y-96613958D01*
X214510955Y-96563653D01*
X214524983Y-96517407D01*
X214547765Y-96474786D01*
X214578425Y-96437425D01*
X214615786Y-96406765D01*
X214658407Y-96383983D01*
X214704653Y-96369955D01*
X214754958Y-96365000D01*
X215334042Y-96365000D01*
X215384347Y-96369955D01*
X215384347Y-96369955D01*
G37*
G36*
X231528826Y-95277314D02*
G01*
X231689236Y-95325973D01*
X231837078Y-95404996D01*
X231966659Y-95511341D01*
X232073004Y-95640922D01*
X232152027Y-95788764D01*
X232200686Y-95949174D01*
X232217118Y-96116000D01*
X232200686Y-96282826D01*
X232152027Y-96443236D01*
X232073004Y-96591078D01*
X231966659Y-96720659D01*
X231837078Y-96827004D01*
X231689236Y-96906027D01*
X231528826Y-96954686D01*
X231403805Y-96967000D01*
X231320195Y-96967000D01*
X231195174Y-96954686D01*
X231034764Y-96906027D01*
X230886922Y-96827004D01*
X230757341Y-96720659D01*
X230650996Y-96591078D01*
X230571973Y-96443236D01*
X230523314Y-96282826D01*
X230506882Y-96116000D01*
X230523314Y-95949174D01*
X230571973Y-95788764D01*
X230650996Y-95640922D01*
X230757341Y-95511341D01*
X230886922Y-95404996D01*
X231034764Y-95325973D01*
X231195174Y-95277314D01*
X231320195Y-95265000D01*
X231403805Y-95265000D01*
X231528826Y-95277314D01*
X231528826Y-95277314D01*
G37*
G36*
X239148826Y-95277314D02*
G01*
X239309236Y-95325973D01*
X239457078Y-95404996D01*
X239586659Y-95511341D01*
X239693004Y-95640922D01*
X239772027Y-95788764D01*
X239820686Y-95949174D01*
X239837118Y-96116000D01*
X239820686Y-96282826D01*
X239772027Y-96443236D01*
X239693004Y-96591078D01*
X239586659Y-96720659D01*
X239457078Y-96827004D01*
X239309236Y-96906027D01*
X239148826Y-96954686D01*
X239023805Y-96967000D01*
X238940195Y-96967000D01*
X238815174Y-96954686D01*
X238654764Y-96906027D01*
X238506922Y-96827004D01*
X238377341Y-96720659D01*
X238270996Y-96591078D01*
X238191973Y-96443236D01*
X238143314Y-96282826D01*
X238126882Y-96116000D01*
X238143314Y-95949174D01*
X238191973Y-95788764D01*
X238270996Y-95640922D01*
X238377341Y-95511341D01*
X238506922Y-95404996D01*
X238654764Y-95325973D01*
X238815174Y-95277314D01*
X238940195Y-95265000D01*
X239023805Y-95265000D01*
X239148826Y-95277314D01*
X239148826Y-95277314D01*
G37*
G36*
X220084806Y-95993152D02*
G01*
X220113463Y-96001846D01*
X220139886Y-96015970D01*
X220163033Y-96034967D01*
X220182030Y-96058114D01*
X220196154Y-96084537D01*
X220204848Y-96113194D01*
X220208000Y-96145206D01*
X220208000Y-96536794D01*
X220204848Y-96568806D01*
X220196154Y-96597463D01*
X220182030Y-96623886D01*
X220163033Y-96647033D01*
X220139886Y-96666030D01*
X220113463Y-96680154D01*
X220084806Y-96688848D01*
X220052794Y-96692000D01*
X218211206Y-96692000D01*
X218179194Y-96688848D01*
X218150537Y-96680154D01*
X218124114Y-96666030D01*
X218100967Y-96647033D01*
X218081970Y-96623886D01*
X218067846Y-96597463D01*
X218059152Y-96568806D01*
X218056000Y-96536794D01*
X218056000Y-96145206D01*
X218059152Y-96113194D01*
X218067846Y-96084537D01*
X218081970Y-96058114D01*
X218100967Y-96034967D01*
X218124114Y-96015970D01*
X218150537Y-96001846D01*
X218179194Y-95993152D01*
X218211206Y-95990000D01*
X220052794Y-95990000D01*
X220084806Y-95993152D01*
X220084806Y-95993152D01*
G37*
G36*
X229384806Y-95993152D02*
G01*
X229413463Y-96001846D01*
X229439886Y-96015970D01*
X229463033Y-96034967D01*
X229482030Y-96058114D01*
X229496154Y-96084537D01*
X229504848Y-96113194D01*
X229508000Y-96145206D01*
X229508000Y-96536794D01*
X229504848Y-96568806D01*
X229496154Y-96597463D01*
X229482030Y-96623886D01*
X229463033Y-96647033D01*
X229439886Y-96666030D01*
X229413463Y-96680154D01*
X229384806Y-96688848D01*
X229352794Y-96692000D01*
X227511206Y-96692000D01*
X227479194Y-96688848D01*
X227450537Y-96680154D01*
X227424114Y-96666030D01*
X227400967Y-96647033D01*
X227381970Y-96623886D01*
X227367846Y-96597463D01*
X227359152Y-96568806D01*
X227356000Y-96536794D01*
X227356000Y-96145206D01*
X227359152Y-96113194D01*
X227367846Y-96084537D01*
X227381970Y-96058114D01*
X227400967Y-96034967D01*
X227424114Y-96015970D01*
X227450537Y-96001846D01*
X227479194Y-95993152D01*
X227511206Y-95990000D01*
X229352794Y-95990000D01*
X229384806Y-95993152D01*
X229384806Y-95993152D01*
G37*
G36*
X216783000Y-95617000D02*
G01*
X215781000Y-95617000D01*
X215781000Y-94715000D01*
X216783000Y-94715000D01*
X216783000Y-95617000D01*
X216783000Y-95617000D01*
G37*
G36*
X229384806Y-94723152D02*
G01*
X229413463Y-94731846D01*
X229439886Y-94745970D01*
X229463033Y-94764967D01*
X229482030Y-94788114D01*
X229496154Y-94814537D01*
X229504848Y-94843194D01*
X229508000Y-94875206D01*
X229508000Y-95266794D01*
X229504848Y-95298806D01*
X229496154Y-95327463D01*
X229482030Y-95353886D01*
X229463033Y-95377033D01*
X229439886Y-95396030D01*
X229413463Y-95410154D01*
X229384806Y-95418848D01*
X229352794Y-95422000D01*
X227511206Y-95422000D01*
X227479194Y-95418848D01*
X227450537Y-95410154D01*
X227424114Y-95396030D01*
X227400967Y-95377033D01*
X227381970Y-95353886D01*
X227367846Y-95327463D01*
X227359152Y-95298806D01*
X227356000Y-95266794D01*
X227356000Y-94875206D01*
X227359152Y-94843194D01*
X227367846Y-94814537D01*
X227381970Y-94788114D01*
X227400967Y-94764967D01*
X227424114Y-94745970D01*
X227450537Y-94731846D01*
X227479194Y-94723152D01*
X227511206Y-94720000D01*
X229352794Y-94720000D01*
X229384806Y-94723152D01*
X229384806Y-94723152D01*
G37*
G36*
X220084806Y-94723152D02*
G01*
X220113463Y-94731846D01*
X220139886Y-94745970D01*
X220163033Y-94764967D01*
X220182030Y-94788114D01*
X220196154Y-94814537D01*
X220204848Y-94843194D01*
X220208000Y-94875206D01*
X220208000Y-95266794D01*
X220204848Y-95298806D01*
X220196154Y-95327463D01*
X220182030Y-95353886D01*
X220163033Y-95377033D01*
X220139886Y-95396030D01*
X220113463Y-95410154D01*
X220084806Y-95418848D01*
X220052794Y-95422000D01*
X218211206Y-95422000D01*
X218179194Y-95418848D01*
X218150537Y-95410154D01*
X218124114Y-95396030D01*
X218100967Y-95377033D01*
X218081970Y-95353886D01*
X218067846Y-95327463D01*
X218059152Y-95298806D01*
X218056000Y-95266794D01*
X218056000Y-94875206D01*
X218059152Y-94843194D01*
X218067846Y-94814537D01*
X218081970Y-94788114D01*
X218100967Y-94764967D01*
X218124114Y-94745970D01*
X218150537Y-94731846D01*
X218179194Y-94723152D01*
X218211206Y-94720000D01*
X220052794Y-94720000D01*
X220084806Y-94723152D01*
X220084806Y-94723152D01*
G37*
G36*
X214783000Y-94667000D02*
G01*
X213781000Y-94667000D01*
X213781000Y-93765000D01*
X214783000Y-93765000D01*
X214783000Y-94667000D01*
X214783000Y-94667000D01*
G37*
G36*
X231528826Y-92737314D02*
G01*
X231689236Y-92785973D01*
X231837078Y-92864996D01*
X231966659Y-92971341D01*
X232073004Y-93100922D01*
X232152027Y-93248764D01*
X232200686Y-93409174D01*
X232217118Y-93576000D01*
X232200686Y-93742826D01*
X232152027Y-93903236D01*
X232073004Y-94051078D01*
X231966659Y-94180659D01*
X231837078Y-94287004D01*
X231689236Y-94366027D01*
X231528826Y-94414686D01*
X231403805Y-94427000D01*
X231320195Y-94427000D01*
X231195174Y-94414686D01*
X231034764Y-94366027D01*
X230886922Y-94287004D01*
X230757341Y-94180659D01*
X230650996Y-94051078D01*
X230571973Y-93903236D01*
X230523314Y-93742826D01*
X230506882Y-93576000D01*
X230523314Y-93409174D01*
X230571973Y-93248764D01*
X230650996Y-93100922D01*
X230757341Y-92971341D01*
X230886922Y-92864996D01*
X231034764Y-92785973D01*
X231195174Y-92737314D01*
X231320195Y-92725000D01*
X231403805Y-92725000D01*
X231528826Y-92737314D01*
X231528826Y-92737314D01*
G37*
G36*
X239148826Y-92737314D02*
G01*
X239309236Y-92785973D01*
X239457078Y-92864996D01*
X239586659Y-92971341D01*
X239693004Y-93100922D01*
X239772027Y-93248764D01*
X239820686Y-93409174D01*
X239837118Y-93576000D01*
X239820686Y-93742826D01*
X239772027Y-93903236D01*
X239693004Y-94051078D01*
X239586659Y-94180659D01*
X239457078Y-94287004D01*
X239309236Y-94366027D01*
X239148826Y-94414686D01*
X239023805Y-94427000D01*
X238940195Y-94427000D01*
X238815174Y-94414686D01*
X238654764Y-94366027D01*
X238506922Y-94287004D01*
X238377341Y-94180659D01*
X238270996Y-94051078D01*
X238191973Y-93903236D01*
X238143314Y-93742826D01*
X238126882Y-93576000D01*
X238143314Y-93409174D01*
X238191973Y-93248764D01*
X238270996Y-93100922D01*
X238377341Y-92971341D01*
X238506922Y-92864996D01*
X238654764Y-92785973D01*
X238815174Y-92737314D01*
X238940195Y-92725000D01*
X239023805Y-92725000D01*
X239148826Y-92737314D01*
X239148826Y-92737314D01*
G37*
G36*
X220084806Y-93453152D02*
G01*
X220113463Y-93461846D01*
X220139886Y-93475970D01*
X220163033Y-93494967D01*
X220182030Y-93518114D01*
X220196154Y-93544537D01*
X220204848Y-93573194D01*
X220208000Y-93605206D01*
X220208000Y-93996794D01*
X220204848Y-94028806D01*
X220196154Y-94057463D01*
X220182030Y-94083886D01*
X220163033Y-94107033D01*
X220139886Y-94126030D01*
X220113463Y-94140154D01*
X220084806Y-94148848D01*
X220052794Y-94152000D01*
X218211206Y-94152000D01*
X218179194Y-94148848D01*
X218150537Y-94140154D01*
X218124114Y-94126030D01*
X218100967Y-94107033D01*
X218081970Y-94083886D01*
X218067846Y-94057463D01*
X218059152Y-94028806D01*
X218056000Y-93996794D01*
X218056000Y-93605206D01*
X218059152Y-93573194D01*
X218067846Y-93544537D01*
X218081970Y-93518114D01*
X218100967Y-93494967D01*
X218124114Y-93475970D01*
X218150537Y-93461846D01*
X218179194Y-93453152D01*
X218211206Y-93450000D01*
X220052794Y-93450000D01*
X220084806Y-93453152D01*
X220084806Y-93453152D01*
G37*
G36*
X229384806Y-93453152D02*
G01*
X229413463Y-93461846D01*
X229439886Y-93475970D01*
X229463033Y-93494967D01*
X229482030Y-93518114D01*
X229496154Y-93544537D01*
X229504848Y-93573194D01*
X229508000Y-93605206D01*
X229508000Y-93996794D01*
X229504848Y-94028806D01*
X229496154Y-94057463D01*
X229482030Y-94083886D01*
X229463033Y-94107033D01*
X229439886Y-94126030D01*
X229413463Y-94140154D01*
X229384806Y-94148848D01*
X229352794Y-94152000D01*
X227511206Y-94152000D01*
X227479194Y-94148848D01*
X227450537Y-94140154D01*
X227424114Y-94126030D01*
X227400967Y-94107033D01*
X227381970Y-94083886D01*
X227367846Y-94057463D01*
X227359152Y-94028806D01*
X227356000Y-93996794D01*
X227356000Y-93605206D01*
X227359152Y-93573194D01*
X227367846Y-93544537D01*
X227381970Y-93518114D01*
X227400967Y-93494967D01*
X227424114Y-93475970D01*
X227450537Y-93461846D01*
X227479194Y-93453152D01*
X227511206Y-93450000D01*
X229352794Y-93450000D01*
X229384806Y-93453152D01*
X229384806Y-93453152D01*
G37*
G36*
X216783000Y-93717000D02*
G01*
X215781000Y-93717000D01*
X215781000Y-92815000D01*
X216783000Y-92815000D01*
X216783000Y-93717000D01*
X216783000Y-93717000D01*
G37*
G36*
X205797486Y-91064996D02*
G01*
X206034257Y-91163070D01*
X206247339Y-91305446D01*
X206428554Y-91486661D01*
X206570930Y-91699743D01*
X206669004Y-91936514D01*
X206719000Y-92187861D01*
X206719000Y-92444139D01*
X206669004Y-92695486D01*
X206669003Y-92695488D01*
X206598791Y-92864996D01*
X206570930Y-92932257D01*
X206428554Y-93145339D01*
X206247339Y-93326554D01*
X206034257Y-93468930D01*
X206034256Y-93468931D01*
X206034255Y-93468931D01*
X205915872Y-93517967D01*
X205797486Y-93567004D01*
X205546139Y-93617000D01*
X205289861Y-93617000D01*
X205038514Y-93567004D01*
X204920128Y-93517967D01*
X204801745Y-93468931D01*
X204801744Y-93468931D01*
X204801743Y-93468930D01*
X204588661Y-93326554D01*
X204407446Y-93145339D01*
X204265070Y-92932257D01*
X204237210Y-92864996D01*
X204166997Y-92695488D01*
X204166996Y-92695486D01*
X204117000Y-92444139D01*
X204117000Y-92187861D01*
X204166996Y-91936514D01*
X204265070Y-91699743D01*
X204407446Y-91486661D01*
X204588661Y-91305446D01*
X204801743Y-91163070D01*
X205038514Y-91064996D01*
X205289861Y-91015000D01*
X205546139Y-91015000D01*
X205797486Y-91064996D01*
X205797486Y-91064996D01*
G37*
G36*
X195797486Y-91064996D02*
G01*
X196034257Y-91163070D01*
X196247339Y-91305446D01*
X196428554Y-91486661D01*
X196570930Y-91699743D01*
X196669004Y-91936514D01*
X196719000Y-92187861D01*
X196719000Y-92444139D01*
X196669004Y-92695486D01*
X196669003Y-92695488D01*
X196598791Y-92864996D01*
X196570930Y-92932257D01*
X196428554Y-93145339D01*
X196247339Y-93326554D01*
X196034257Y-93468930D01*
X196034256Y-93468931D01*
X196034255Y-93468931D01*
X195915872Y-93517967D01*
X195797486Y-93567004D01*
X195546139Y-93617000D01*
X195289861Y-93617000D01*
X195038514Y-93567004D01*
X194920128Y-93517967D01*
X194801745Y-93468931D01*
X194801744Y-93468931D01*
X194801743Y-93468930D01*
X194588661Y-93326554D01*
X194407446Y-93145339D01*
X194265070Y-92932257D01*
X194237210Y-92864996D01*
X194166997Y-92695488D01*
X194166996Y-92695486D01*
X194117000Y-92444139D01*
X194117000Y-92187861D01*
X194166996Y-91936514D01*
X194265070Y-91699743D01*
X194407446Y-91486661D01*
X194588661Y-91305446D01*
X194801743Y-91163070D01*
X195038514Y-91064996D01*
X195289861Y-91015000D01*
X195546139Y-91015000D01*
X195797486Y-91064996D01*
X195797486Y-91064996D01*
G37*
G36*
X200797486Y-91064996D02*
G01*
X201034257Y-91163070D01*
X201247339Y-91305446D01*
X201428554Y-91486661D01*
X201570930Y-91699743D01*
X201669004Y-91936514D01*
X201719000Y-92187861D01*
X201719000Y-92444139D01*
X201669004Y-92695486D01*
X201669003Y-92695488D01*
X201598791Y-92864996D01*
X201570930Y-92932257D01*
X201428554Y-93145339D01*
X201247339Y-93326554D01*
X201034257Y-93468930D01*
X201034256Y-93468931D01*
X201034255Y-93468931D01*
X200915872Y-93517967D01*
X200797486Y-93567004D01*
X200546139Y-93617000D01*
X200289861Y-93617000D01*
X200038514Y-93567004D01*
X199920128Y-93517967D01*
X199801745Y-93468931D01*
X199801744Y-93468931D01*
X199801743Y-93468930D01*
X199588661Y-93326554D01*
X199407446Y-93145339D01*
X199265070Y-92932257D01*
X199237210Y-92864996D01*
X199166997Y-92695488D01*
X199166996Y-92695486D01*
X199117000Y-92444139D01*
X199117000Y-92187861D01*
X199166996Y-91936514D01*
X199265070Y-91699743D01*
X199407446Y-91486661D01*
X199588661Y-91305446D01*
X199801743Y-91163070D01*
X200038514Y-91064996D01*
X200289861Y-91015000D01*
X200546139Y-91015000D01*
X200797486Y-91064996D01*
X200797486Y-91064996D01*
G37*
G36*
X211719000Y-93617000D02*
G01*
X209117000Y-93617000D01*
X209117000Y-91015000D01*
X211719000Y-91015000D01*
X211719000Y-93617000D01*
X211719000Y-93617000D01*
G37*
G36*
X219118628Y-90128037D02*
G01*
X219288463Y-90179555D01*
X219444991Y-90263221D01*
X219582186Y-90375814D01*
X219694779Y-90513009D01*
X219778445Y-90669537D01*
X219829963Y-90839372D01*
X219847360Y-91016000D01*
X219829963Y-91192628D01*
X219778445Y-91362463D01*
X219694779Y-91518991D01*
X219582186Y-91656186D01*
X219444991Y-91768779D01*
X219288463Y-91852445D01*
X219118628Y-91903963D01*
X218986263Y-91917000D01*
X218897737Y-91917000D01*
X218765372Y-91903963D01*
X218595537Y-91852445D01*
X218439009Y-91768779D01*
X218301814Y-91656186D01*
X218189221Y-91518991D01*
X218105555Y-91362463D01*
X218054037Y-91192628D01*
X218036640Y-91016000D01*
X218054037Y-90839372D01*
X218105555Y-90669537D01*
X218189221Y-90513009D01*
X218301814Y-90375814D01*
X218439009Y-90263221D01*
X218595537Y-90179555D01*
X218765372Y-90128037D01*
X218897737Y-90115000D01*
X218986263Y-90115000D01*
X219118628Y-90128037D01*
X219118628Y-90128037D01*
G37*
G36*
X221658628Y-90128037D02*
G01*
X221828463Y-90179555D01*
X221984991Y-90263221D01*
X222122186Y-90375814D01*
X222234779Y-90513009D01*
X222318445Y-90669537D01*
X222369963Y-90839372D01*
X222387360Y-91016000D01*
X222369963Y-91192628D01*
X222318445Y-91362463D01*
X222234779Y-91518991D01*
X222122186Y-91656186D01*
X221984991Y-91768779D01*
X221828463Y-91852445D01*
X221658628Y-91903963D01*
X221526263Y-91917000D01*
X221437737Y-91917000D01*
X221305372Y-91903963D01*
X221135537Y-91852445D01*
X220979009Y-91768779D01*
X220841814Y-91656186D01*
X220729221Y-91518991D01*
X220645555Y-91362463D01*
X220594037Y-91192628D01*
X220576640Y-91016000D01*
X220594037Y-90839372D01*
X220645555Y-90669537D01*
X220729221Y-90513009D01*
X220841814Y-90375814D01*
X220979009Y-90263221D01*
X221135537Y-90179555D01*
X221305372Y-90128037D01*
X221437737Y-90115000D01*
X221526263Y-90115000D01*
X221658628Y-90128037D01*
X221658628Y-90128037D01*
G37*
G36*
X224198628Y-90128037D02*
G01*
X224368463Y-90179555D01*
X224524991Y-90263221D01*
X224662186Y-90375814D01*
X224774779Y-90513009D01*
X224858445Y-90669537D01*
X224909963Y-90839372D01*
X224927360Y-91016000D01*
X224909963Y-91192628D01*
X224858445Y-91362463D01*
X224774779Y-91518991D01*
X224662186Y-91656186D01*
X224524991Y-91768779D01*
X224368463Y-91852445D01*
X224198628Y-91903963D01*
X224066263Y-91917000D01*
X223977737Y-91917000D01*
X223845372Y-91903963D01*
X223675537Y-91852445D01*
X223519009Y-91768779D01*
X223381814Y-91656186D01*
X223269221Y-91518991D01*
X223185555Y-91362463D01*
X223134037Y-91192628D01*
X223116640Y-91016000D01*
X223134037Y-90839372D01*
X223185555Y-90669537D01*
X223269221Y-90513009D01*
X223381814Y-90375814D01*
X223519009Y-90263221D01*
X223675537Y-90179555D01*
X223845372Y-90128037D01*
X223977737Y-90115000D01*
X224066263Y-90115000D01*
X224198628Y-90128037D01*
X224198628Y-90128037D01*
G37*
G36*
X227463000Y-91917000D02*
G01*
X225661000Y-91917000D01*
X225661000Y-90115000D01*
X227463000Y-90115000D01*
X227463000Y-91917000D01*
X227463000Y-91917000D01*
G37*
G36*
X239148826Y-90197314D02*
G01*
X239309236Y-90245973D01*
X239457078Y-90324996D01*
X239586659Y-90431341D01*
X239693004Y-90560922D01*
X239772027Y-90708764D01*
X239820686Y-90869174D01*
X239837118Y-91036000D01*
X239820686Y-91202826D01*
X239772027Y-91363236D01*
X239693004Y-91511078D01*
X239586659Y-91640659D01*
X239457078Y-91747004D01*
X239309236Y-91826027D01*
X239148826Y-91874686D01*
X239023805Y-91887000D01*
X238940195Y-91887000D01*
X238815174Y-91874686D01*
X238654764Y-91826027D01*
X238506922Y-91747004D01*
X238377341Y-91640659D01*
X238270996Y-91511078D01*
X238191973Y-91363236D01*
X238143314Y-91202826D01*
X238126882Y-91036000D01*
X238143314Y-90869174D01*
X238191973Y-90708764D01*
X238270996Y-90560922D01*
X238377341Y-90431341D01*
X238506922Y-90324996D01*
X238654764Y-90245973D01*
X238815174Y-90197314D01*
X238940195Y-90185000D01*
X239023805Y-90185000D01*
X239148826Y-90197314D01*
X239148826Y-90197314D01*
G37*
G36*
X231528826Y-90197314D02*
G01*
X231689236Y-90245973D01*
X231837078Y-90324996D01*
X231966659Y-90431341D01*
X232073004Y-90560922D01*
X232152027Y-90708764D01*
X232200686Y-90869174D01*
X232217118Y-91036000D01*
X232200686Y-91202826D01*
X232152027Y-91363236D01*
X232073004Y-91511078D01*
X231966659Y-91640659D01*
X231837078Y-91747004D01*
X231689236Y-91826027D01*
X231528826Y-91874686D01*
X231403805Y-91887000D01*
X231320195Y-91887000D01*
X231195174Y-91874686D01*
X231034764Y-91826027D01*
X230886922Y-91747004D01*
X230757341Y-91640659D01*
X230650996Y-91511078D01*
X230571973Y-91363236D01*
X230523314Y-91202826D01*
X230506882Y-91036000D01*
X230523314Y-90869174D01*
X230571973Y-90708764D01*
X230650996Y-90560922D01*
X230757341Y-90431341D01*
X230886922Y-90324996D01*
X231034764Y-90245973D01*
X231195174Y-90197314D01*
X231320195Y-90185000D01*
X231403805Y-90185000D01*
X231528826Y-90197314D01*
X231528826Y-90197314D01*
G37*
G36*
X252430279Y-81089933D02*
G01*
X252430281Y-81089934D01*
X252430282Y-81089934D01*
X253021926Y-81335001D01*
X253199012Y-81453326D01*
X253554391Y-81690782D01*
X254007218Y-82143609D01*
X254170108Y-82387392D01*
X254362999Y-82676074D01*
X254608066Y-83267718D01*
X254608067Y-83267721D01*
X254733000Y-83895802D01*
X254733000Y-84536198D01*
X254706982Y-84667000D01*
X254608066Y-85164282D01*
X254362999Y-85755926D01*
X254345908Y-85781504D01*
X254007218Y-86288391D01*
X253554391Y-86741218D01*
X253217510Y-86966314D01*
X253021926Y-87096999D01*
X252430282Y-87342066D01*
X252430281Y-87342066D01*
X252430279Y-87342067D01*
X251802198Y-87467000D01*
X251161802Y-87467000D01*
X250533721Y-87342067D01*
X250533719Y-87342066D01*
X250533718Y-87342066D01*
X249942074Y-87096999D01*
X249746490Y-86966314D01*
X249409609Y-86741218D01*
X248956782Y-86288391D01*
X248618092Y-85781504D01*
X248601001Y-85755926D01*
X248355934Y-85164282D01*
X248257019Y-84667000D01*
X248231000Y-84536198D01*
X248231000Y-83895802D01*
X248355933Y-83267721D01*
X248355934Y-83267718D01*
X248601001Y-82676074D01*
X248793892Y-82387392D01*
X248956782Y-82143609D01*
X249409609Y-81690782D01*
X249764988Y-81453326D01*
X249942074Y-81335001D01*
X250533718Y-81089934D01*
X250533719Y-81089934D01*
X250533721Y-81089933D01*
X251161802Y-80965000D01*
X251802198Y-80965000D01*
X252430279Y-81089933D01*
X252430279Y-81089933D01*
G37*
G36*
X181430279Y-81089933D02*
G01*
X181430281Y-81089934D01*
X181430282Y-81089934D01*
X182021926Y-81335001D01*
X182199012Y-81453326D01*
X182554391Y-81690782D01*
X183007218Y-82143609D01*
X183170108Y-82387392D01*
X183362999Y-82676074D01*
X183608066Y-83267718D01*
X183608067Y-83267721D01*
X183733000Y-83895802D01*
X183733000Y-84536198D01*
X183706982Y-84667000D01*
X183608066Y-85164282D01*
X183362999Y-85755926D01*
X183345908Y-85781504D01*
X183007218Y-86288391D01*
X182554391Y-86741218D01*
X182217510Y-86966314D01*
X182021926Y-87096999D01*
X181430282Y-87342066D01*
X181430281Y-87342066D01*
X181430279Y-87342067D01*
X180802198Y-87467000D01*
X180161802Y-87467000D01*
X179533721Y-87342067D01*
X179533719Y-87342066D01*
X179533718Y-87342066D01*
X178942074Y-87096999D01*
X178746490Y-86966314D01*
X178409609Y-86741218D01*
X177956782Y-86288391D01*
X177618092Y-85781504D01*
X177601001Y-85755926D01*
X177355934Y-85164282D01*
X177257019Y-84667000D01*
X177231000Y-84536198D01*
X177231000Y-83895802D01*
X177355933Y-83267721D01*
X177355934Y-83267718D01*
X177601001Y-82676074D01*
X177793892Y-82387392D01*
X177956782Y-82143609D01*
X178409609Y-81690782D01*
X178764988Y-81453326D01*
X178942074Y-81335001D01*
X179533718Y-81089934D01*
X179533719Y-81089934D01*
X179533721Y-81089933D01*
X180161802Y-80965000D01*
X180802198Y-80965000D01*
X181430279Y-81089933D01*
X181430279Y-81089933D01*
G37*
M02*
